<?xml version="1.0" encoding="UTF-8"?>
<svg width="36px" height="36px" viewBox="0 0 36 36" version="1.1" xmlns="http://www.w3.org/2000/svg" xmlns:xlink="http://www.w3.org/1999/xlink">
    <title>编组 29</title>
    <g id="页面-1" stroke="none" stroke-width="1" fill="none" fill-rule="evenodd">
        <g id="聚合新首页" transform="translate(-1186.000000, -1557.000000)">
            <g id="编组-29" transform="translate(1186.000000, 1557.000000)">
                <rect id="矩形备份-17" stroke="#979797" fill="#D8D8D8" opacity="0" x="0.5" y="0.5" width="35" height="35"></rect>
                <path d="M23.2932472,0 L23.2932472,4.02929688 C27.1065381,4.41162109 29.0131836,6.10514323 29.0131836,9.10986328 C29.0131836,12.1145833 29.0131836,14.9112956 29.0131836,17.5" id="路径-7" stroke="#181818" stroke-width="3"></path>
                <path d="M11.7800398,-1.10134124e-13 L11.7800398,4.02929687 C15.5933307,4.41162109 17.4999762,6.10514323 17.4999762,9.10986328 C17.4999762,12.1145833 17.4999762,14.9112956 17.4999762,17.5 L17.4999762,21.1020508 L17.4999762,23.2737288 L17.4749496,23.328736 C16.7229876,24.9815088 14.7735649,25.7117604 13.1207921,24.9597984 C12.3790896,24.6223461 11.7891273,24.021484 11.4653082,23.2737288 L11.4653082,23.2737288 L11.4653082,23.2737288 L11.4653082,21.1450195 L11.4653082,17.5 C7.82176941,17.7244466 6,15.2318522 6,10.0222168" id="路径-7备份" stroke="#181818" stroke-width="3" stroke-linejoin="round" transform="translate(11.749988, 15.034668) scale(-1, 1) translate(-11.749988, -15.034668) "></path>
                <path d="M5.0949707,16.9707031 L4.02075195,16.9707031 C2.91618245,16.9707031 2.02075195,17.8661336 2.02075195,18.9707031 L2.02075195,31.9999999 C2.02075195,33.1045694 2.91618245,33.9999999 4.02075195,33.9999999 L32.0161133,33.9999999 C33.1206828,33.9999999 34.0161133,33.1045694 34.0161133,31.9999999 L34.0161133,18.9707031 C34.0161133,17.8661336 33.1206828,16.9707031 32.0161133,16.9707031 L14.9675293,16.9707031 L14.9675293,16.9707031" id="路径-8" stroke="#181818" stroke-width="3"></path>
                <rect id="矩形" stroke="#1271EF" stroke-width="3" x="19.5" y="22.5" width="7" height="7" rx="3.5"></rect>
            </g>
        </g>
    </g>
</svg>