<?xml version="1.0" encoding="UTF-8"?>
<svg width="72px" height="32px" viewBox="0 0 72 32" version="1.1" xmlns="http://www.w3.org/2000/svg" xmlns:xlink="http://www.w3.org/1999/xlink">
    <title>抖音</title>
    <defs>
        <polygon id="path-1" points="0.00438672439 0.0481570813 9.6904127 0.0481570813 9.6904127 16.9366205 0.00438672439 16.9366205"></polygon>
        <polygon id="path-3" points="0 30 70.7066889 30 70.7066889 0 0 0"></polygon>
    </defs>
    <g id="页面-1" stroke="none" stroke-width="1" fill="none" fill-rule="evenodd">
        <g id="聚合新首页" transform="translate(-1313.000000, -3337.000000)">
            <g id="抖音" transform="translate(1313.000000, 3337.000000)">
                <rect id="矩形" stroke="#979797" fill="#D8D8D8" opacity="0" x="0.5" y="0.5" width="71" height="31"></rect>
                <g id="编组-42" transform="translate(1.000000, 1.000000)">
                    <g id="编组" transform="translate(0.000000, 10.000000)">
                        <mask id="mask-2" fill="white">
                            <use xlink:href="#path-1"></use>
                        </mask>
                        <g id="Clip-2"></g>
                        <path d="M9.6904127,1.33745813 L9.6904127,0.140176982 C9.30876768,0.0813864898 8.92412121,0.0504575788 8.53855123,0.0481570813 C3.8322886,0.0481570813 -9.23520924e-05,4.21691418 -9.23520924e-05,9.33552115 C-9.23520924e-05,12.4744222 1.44360173,15.25419 3.64619913,16.9366205 C2.17572294,15.2342524 1.3540202,12.9705628 1.3517114,10.615109 C1.3517114,5.56935111 5.07419336,1.45427228 9.6904127,1.33745813" id="Fill-1" fill="#CCCCCC" opacity="0.545247396" mask="url(#mask-2)"></path>
                    </g>
                    <g id="编组">
                        <path d="M25.3036416,7.9773 L25.3036416,6.87855 C23.9640917,6.88055 22.6518491,6.4943 21.5235588,5.76655 C22.5158088,6.89255 23.8407121,7.66755 25.3036416,7.9773 M10.6358677,25.0303 C12.895179,25.0303 14.736936,23.2533 14.8220853,21.0383 L14.8292846,1.2673 L18.4812711,1.2673 C18.403321,0.85455 18.3636012,0.4353 18.3633529,0.0153 L13.3757885,0.0153 L13.3668515,19.78655 C13.28344,22.0003 11.4419312,23.78005 9.18286806,23.78005 C8.50589388,23.78055 7.83835315,23.61705 7.23709482,23.30355 C8.03173888,24.3923 9.29457997,25.03455 10.6363642,25.0318088" id="Fill-3" fill="#CCCCCC" opacity="0.406110491"></path>
                        <path d="M9.18286806,15.483875 C6.869935,15.483875 4.98820992,17.344375 4.98820992,19.631875 C4.98820992,21.223375 5.9017651,22.607375 7.23585357,23.301625 C6.72073754,22.601625 6.44245075,21.753375 6.44170601,20.882125 C6.44170601,18.596125 8.3219416,16.734125 10.6363642,16.734125 C11.0566492,16.735375 11.4739552,16.800375 11.8751251,16.926625 L11.8751251,11.890375 C11.4645218,11.833375 11.0506912,11.803625 10.6363642,11.801875 C10.563379,11.801875 10.4916352,11.804875 10.4201395,11.808125 L10.4201395,15.674875 C10.0192179,15.549125 9.60166361,15.484875 9.18162682,15.483875 M21.5235588,5.766375 C20.4262996,4.528375 19.8190833,2.926625 19.8180903,1.267125 L18.4812711,1.267125 C18.8377562,3.124875 19.9389874,4.752625 21.5252965,5.766375" id="Fill-5" fill="#CCCCCC" opacity="0.429408482"></path>
                        <path d="M25.30245,7.975575 L25.30245,11.812325 C22.8182254,11.816075 20.3938286,11.044325 18.3634026,9.603325 L18.3634026,19.627825 C18.3634026,24.636325 14.2434673,28.708325 9.18093172,28.708325 C7.30144088,28.711075 5.46589005,28.137075 3.9188042,27.062575 C5.66622674,28.917825 8.09534019,29.966825 10.6344278,29.9620911 C15.6979564,29.9620911 19.8164022,25.887825 19.8164022,20.880325 L19.8164022,10.855825 C21.847573,12.296075 24.2719697,13.066825 26.7559461,13.062075 L26.7559461,8.129075 C26.2673927,8.128575 25.7803288,8.077075 25.30245,7.975575" id="Fill-7" fill="#CCCCCC" opacity="0.637021019"></path>
                        <path d="M18.3633529,19.630125 L18.3633529,9.605625 C20.3942755,11.045875 22.818424,11.816375 25.3024004,11.811875 L25.3024004,7.977375 C23.8402156,7.667625 22.5155606,6.893125 21.5235588,5.767875 C19.9374979,4.753625 18.8367632,3.125375 18.4812711,1.267125 L14.8292846,1.267125 L14.8220853,21.038375 C14.736936,23.251125 12.895179,25.030375 10.6358677,25.030375 C9.29408348,25.032375 8.03124238,24.390375 7.23635007,23.301875 C5.86303831,22.598625 4.99540913,21.181625 4.98820992,19.630125 C4.98820992,17.344375 6.86844551,15.482625 9.18286806,15.482625 C9.6026566,15.484625 10.0194662,15.549375 10.4201395,15.674875 L10.4201395,11.808125 C5.4566552,11.922125 1.45438979,15.946625 1.45438979,20.882125 C1.45612753,23.186125 2.33939637,25.400375 3.92049229,27.065375 C5.46757814,28.140375 7.30337722,28.714875 9.18286806,28.7118867 C14.2434176,28.7118867 18.3638494,24.639125 18.3638494,19.631875" id="Fill-9" fill="#CCCCCC"></path>
                        <path d="M34.1595165,7.964475 L36.4376947,7.964475 L36.4376947,10.927975 L38.621042,10.927975 L38.621042,13.222225 L36.3428637,13.222225 L36.3428637,16.950475 L38.43138,16.568225 L38.43138,18.957975 L36.532774,19.149475 L36.532774,23.747225 C36.532774,24.956475 35.5593909,25.936725 34.3588602,25.936725 L31.8813383,25.936725 L31.8813383,24.024725 L34.3494268,24.024725 L34.3494268,19.627225 L31.8813383,19.913975 L31.8813383,17.810975 L34.2543475,17.141725 L34.2543475,13.030975 L32.0710003,13.030975 L32.0710003,11.119225 L34.1595165,11.119225 L34.1595165,7.964475 Z" id="Fill-11" fill="#CCCCCC"></path>
                        <polygon id="Fill-13" fill="#CCCCCC" points="39.095768 19.436025 50.2024144 18.288775 50.2024144 20.583275 39.2856782 21.634775"></polygon>
                        <polygon id="Fill-15" fill="#CCCCCC" points="40.0449965 13.98705 40.0449965 16.1858 44.8863425 17.33305 44.8863425 15.1343"></polygon>
                        <mask id="mask-4" fill="white">
                            <use xlink:href="#path-3"></use>
                        </mask>
                        <g id="Clip-18"></g>
                        <polygon id="Fill-17" fill="#CCCCCC" mask="url(#mask-4)" points="45.977892 25.841 48.303734 25.841 48.303734 8.06 45.977892 8.06"></polygon>
                        <polygon id="Fill-19" fill="#CCCCCC" mask="url(#mask-4)" points="40.4247673 9.446175 40.4247673 11.644925 45.2661133 12.791925 45.2661133 10.593175"></polygon>
                        <polygon id="Fill-20" fill="#CCCCCC" mask="url(#mask-4)" points="53.0974162 11.645 70.1372064 11.645 70.1372064 9.494 53.0974162 9.494"></polygon>
                        <polygon id="Fill-21" fill="#CCCCCC" mask="url(#mask-4)" points="52.5279337 16.09 70.7066889 16.09 70.7066889 14.0825 52.5279337 14.0825"></polygon>
                        <path d="M56.2300665,23.88125 L67.1942182,23.88125 L67.1942182,22.59075 L56.2300665,22.59075 L56.2300665,23.88125 Z M56.2777302,20.87025 L67.0045562,20.87025 L67.0045562,19.484 L56.2777302,19.484 L56.2777302,20.87025 Z M67.515452,17.52425 L55.9564964,17.52425 C55.0066969,17.52425 54.2366295,18.2995 54.2366295,19.256 L54.2366295,24.20475 C54.2366295,25.1615 55.0066969,25.93675 55.9564964,25.93675 L67.515452,25.93675 C68.4652515,25.93675 69.2353189,25.1615 69.2353189,24.20475 L69.2353189,19.256 C69.2353189,18.2995 68.4652515,17.52425 67.515452,17.52425 L67.515452,17.52425 Z" id="Fill-22" fill="#CCCCCC" mask="url(#mask-4)"></path>
                        <polygon id="Fill-23" fill="#CCCCCC" mask="url(#mask-4)" points="60.2646538 8.1078 62.9226526 8.1078 63.2548093 9.6373 60.4545641 9.6373"></polygon>
                        <polygon id="Fill-24" fill="#CCCCCC" mask="url(#mask-4)" points="56.5149815 12.600825 58.5084185 12.600825 58.9356545 14.226075 56.7523072 14.226075"></polygon>
                        <polygon id="Fill-25" fill="#CCCCCC" mask="url(#mask-4)" points="66.9094273 12.600825 64.9159903 12.600825 64.4887543 14.226075 66.6721015 14.226075"></polygon>
                    </g>
                </g>
            </g>
        </g>
    </g>
</svg>