<?xml version="1.0" encoding="UTF-8"?>
<svg width="50px" height="40px" viewBox="0 0 50 40" version="1.1" xmlns="http://www.w3.org/2000/svg" xmlns:xlink="http://www.w3.org/1999/xlink">
    <title>编组 5</title>
    <g id="页面-1" stroke="none" stroke-width="1" fill="none" fill-rule="evenodd">
        <g id="聚合新首页" transform="translate(-1001.000000, -2988.000000)" fill="#1271EF">
            <g id="编组-5" transform="translate(1026.000000, 3008.000000) scale(-1, -1) translate(-1026.000000, -3008.000000) translate(1001.000000, 2988.000000)">
                <path d="M19.8830409,3.00006933e-14 L19.8830409,8.02739141 C14.6262401,9.6220374 11.6629157,13.0412657 10.9930676,18.2850762 L22.2222222,18.2857143 L22.2222222,40 L0,40 L0,18.2857143 L0.321428463,18.2848593 C1.1784108,12.9361613 3.47483128,8.72037688 7.21068992,5.6375061 C11.6137829,2.00402635 15.8378999,0.124857654 19.8830409,3.00006933e-14 Z" id="形状结合"></path>
                <path d="M47.6608187,2.60532336e-14 L47.6608187,8.02739141 C42.4040179,9.6220374 39.4406935,13.0412657 38.7708454,18.2850762 L50,18.2857143 L50,40 L27.7777778,40 L27.7777778,18.2857143 L28.0992062,18.2848593 C28.9561886,12.9361613 31.2526091,8.72037688 34.9884677,5.6375061 C39.3915607,2.00402635 43.6156777,0.124857654 47.6608187,2.60532336e-14 Z" id="形状结合备份-2"></path>
            </g>
        </g>
    </g>
</svg>