<?xml version="1.0" encoding="UTF-8"?>
<svg width="14px" height="13px" viewBox="0 0 14 13" version="1.1" xmlns="http://www.w3.org/2000/svg" xmlns:xlink="http://www.w3.org/1999/xlink">
    <title>形状结合</title>
    <g id="页面-1" stroke="none" stroke-width="1" fill="none" fill-rule="evenodd">
        <g id="API悬浮切换" transform="translate(-154.000000, -148.000000)" fill="#FFFFFF">
            <path d="M162.737199,148.292718 C162.7404,148.295877 162.74358,148.299058 162.74674,148.302259 L167.687823,153.309427 C167.852873,153.476684 167.94951,153.686049 167.977736,153.902614 C168.053425,154.235973 167.962487,154.599689 167.704831,154.860791 L167.704831,154.860791 L162.763748,159.867958 C162.760589,159.87116 162.757409,159.87434 162.754207,159.877499 C162.354951,160.271486 161.711901,160.267214 161.317914,159.867958 L161.317914,159.867958 C160.915021,159.459676 160.915021,158.811069 161.313217,158.407548 L161.313217,158.407548 L164.675,155 L155.006992,155.000305 C154.450846,155.000305 154,154.54946 154,153.993314 C154,153.437168 154.450846,152.986322 155.006992,152.986322 L164.478,152.986 L161.296208,149.76267 C160.898012,149.359148 160.898012,148.710541 161.296208,148.30702 L161.300906,148.302259 C161.694892,147.903003 162.337943,147.898731 162.737199,148.292718 Z" id="形状结合"></path>
        </g>
    </g>
</svg>