<?xml version="1.0" encoding="UTF-8"?>
<svg width="110px" height="32px" viewBox="0 0 110 32" version="1.1" xmlns="http://www.w3.org/2000/svg" xmlns:xlink="http://www.w3.org/1999/xlink">
    <title>京东</title>
    <g id="页面-1" stroke="none" stroke-width="1" fill="none" fill-rule="evenodd">
        <g id="聚合新首页" transform="translate(-1035.000000, -3337.000000)">
            <g id="京东" transform="translate(1035.000000, 3337.000000)">
                <rect id="矩形" stroke="#979797" fill="#D8D8D8" opacity="0" x="0.5" y="0.5" width="109" height="31"></rect>
                <path d="M70,8 L70,17.2456476 L57.6604099,17.2456476 L57.6604099,23.3092757 C57.6604099,25.5244169 57.0780484,27.1792141 55.9260574,28.2557866 C54.7705957,29.3359357 52.9459365,29.9141603 50.4567226,30 L50.4567226,27.5225727 C51.4153629,27.5046895 52.1366577,27.2710147 52.6113486,26.8263186 C53.0814074,26.3828136 53.3222234,25.6543696 53.3222234,24.1855556 L53.3222234,17.2468491 L41,17.2468491 L41,8 L69.9988142,8 L70,8 Z M84,20 L78.4468789,30 L76,30 L79.638957,20 L84,20 L84,20 Z M87.0820515,2 L86.3715157,3.95098561 L107,3.95098561 L107,6.51230876 L85.4363578,6.51230876 L82.5552461,14.8291782 L89.5735238,14.8291782 L89.5735238,10.8072952 L93.8757178,10.8072952 L93.8757178,14.8291782 L105.796699,14.8291782 L105.796699,17.389313 L93.8757178,17.389313 L93.8757178,23.3847328 C93.8757178,25.5743841 93.2981202,27.210687 92.1543863,28.275827 C91.0049204,29.3433409 89.201075,29.9145038 86.733688,30 L86.733688,27.5502978 C87.6848894,27.5324861 88.3954279,27.3009339 88.869883,26.8615776 C89.337462,26.4222213 89.5735427,25.7679389 89.5735427,24.2491933 L89.5735427,17.3893213 L77.0566458,17.3893213 L81.0917975,6.51229763 L76,6.51229763 L76,3.95097448 L82.0418628,3.95097448 L82.7615686,2 L87.0820811,2 L87.0820515,2 Z M49,20 L43.4445983,30 L41,30 L44.638957,20 L49,20 L49,20 Z M68.3604346,20 L72,30 L69.5546084,30 L64,20 L68.3604266,20 L68.3604346,20 Z M67,11 L46,11 L46,15 L67,15 L67,11 Z M58.6682514,2 L58.6682514,4.16166789 L72,4.16166789 L72,7 L41,7 L41,4.16166789 L54.3283105,4.16166789 L54.3283105,2 L58.668332,2 L58.6682514,2 Z M34.9161367,7.28775758 C35.0987343,5.41920909 35.0940522,4.66736057 33.7280811,3.5728008 C33.4892997,4.16262214 32.2497431,4.64753712 30.7398017,4.69999167 C29.0425798,4.75827441 27.649689,4.25004912 27.6262882,3.56347646 C27.6063898,2.96899158 28.6177003,2.43745216 29.9871821,2.26610063 C29.0777057,2.12505609 28.0675675,2.0329694 27.0094371,2.00732486 L27.0094387,2.0073249 C23.3864572,1.92879088 19.7776039,2.48227898 16.3462182,3.64274023 C12.2049898,5.06484041 9.91083355,6.47178887 8.7145671,7.40198285 C7.42467824,8.40561321 7.10630391,9.08169496 7.10279242,9.0886889 L6.9436047,9.43488892 L6.61703598,9.24838377 L6.6170342,9.24838272 C6.11149736,8.94930437 5.60471779,8.65231601 5.09670919,8.35742309 C4.83217672,8.19772823 4.38855928,7.93195934 3.94025701,7.81888973 L3.94025699,7.81888973 C3.7080308,7.75120259 3.45742688,7.79423166 3.26136768,7.93545548 L3.26136757,7.93545556 C3.10935674,8.04629913 2.99270938,8.19848725 2.92543578,8.37374336 L2.8306255,8.61736551 C2.73932672,8.94375027 2.14588463,11.069908 2.00659637,11.4091222 L2.00659626,11.4091225 C1.96735891,11.5069923 1.93028442,11.6057085 1.89539912,11.7051984 C1.76664451,12.0665528 1.57117047,12.609747 1.2282157,13.2030681 C0.736606864,14.0551621 0.154870657,15.2919256 0.0483544954,15.9015622 C-0.0640132383,16.5426743 -0.0148523548,16.9926168 0.569226676,17.3936018 C1.14745139,17.7945868 1.75259937,17.5451373 2.86105933,17.0322473 L3.0378045,16.9506513 C4.29257844,16.3736513 4.93401001,15.7966512 5.40806139,14.8209966 C5.78964257,14.035345 5.72409564,12.4955117 5.62343297,11.7086934 C5.58129507,11.3706539 5.34017355,10.3915024 5.32729625,10.3495387 L6.16069119,10.8729176 C6.18058964,10.9381943 6.6242081,12.3649572 8.61054097,14.3698875 C10.8157577,16.5962908 15.2800433,19.1607362 19.6436478,19.8484645 L19.9046688,19.8799373 C20.2663524,19.9253979 20.9815253,20 21.7154271,20 L21.7774634,20 C22.4095319,19.9953374 23.1036358,19.9277294 23.8433919,19.7971757 L24.201564,19.7272363 C29.1059383,18.5685728 31.9806977,14.290623 32.296732,13.7975502 L32.310778,13.777734 C32.4957164,13.5212895 32.6701215,13.2590159 32.8328188,12.9874189 C31.8812046,13.4525158 29.7906874,13.9281038 27.8137176,13.9082885 C23.7240094,13.8651591 20.1844258,12.2134247 18.478993,9.74689434 L18.4789931,9.74689437 C18.3960151,9.62847086 18.3694798,9.47971932 18.4064223,9.3400793 L18.4064223,9.34007931 C18.4428774,9.20104061 18.5399364,9.08556492 18.6709548,9.02535202 L18.6709548,9.02535201 C18.880683,8.93626698 19.1243542,9.01059231 19.2480108,9.20136625 C20.7696582,11.4114512 24.3186048,13.0247291 27.8382991,13.0247291 C29.7930286,13.0247291 32.3423633,12.5526382 33.5667217,11.6422594 C34.1683582,10.414823 34.7594575,8.85285222 34.9174746,7.28853193 L34.9161367,7.28775758 Z M23,29 L23,21 C22.6776651,21.1213683 22.174506,21.2450266 21.4579557,21.2496063 L21.3928146,21.2496063 L21.3928144,21.2496063 C20.7785137,21.2401533 20.1661004,21.1777198 19.5621263,21.0629739 L19.4924929,21.0515241 L15,28.9908489 L15.2807811,28.988559 C15.6132241,28.5408695 16.6644654,27.1210917 16.9430011,26.8130893 C17.8190355,25.8432874 18.3671177,25.8146646 18.4681986,25.8180995 L18.7939028,25.8306943 L18.7175307,28.9988727 L18.9590016,28.9988727 C19.2105806,27.8928186 19.8956846,25.4414178 21.0277905,25.4414178 C21.6028276,25.4414178 22.0352301,26.0883344 22.3923826,27.4760545 C22.5440039,28.0714468 22.6450848,28.6576775 22.6967493,28.9988835 L23,28.9988835 L23,29 Z M103.358758,20 L107,30 L104.553113,30 L99,20 L103.358758,20 Z M18.9971777,5.00121363 C19.2656504,5.00121363 19.5329943,5.10807336 19.7281431,5.31450663 L19.7281431,5.31450663 C19.9010254,5.49436209 19.9990641,5.74178387 20,6.00059497 L20,6.0005913 C19.9987624,6.25897862 19.9007483,6.50590434 19.7281458,6.68546437 L19.7281458,6.68546432 C19.5320465,6.88912441 19.2696585,7.00202174 18.9971804,6.99997259 L18.9971804,6.99997258 C18.7272693,6.99886692 18.4680473,6.8862906 18.2729831,6.68546432 L18.2729832,6.68546438 C18.0997495,6.50626722 18.001277,6.25921457 18,6.00059131 L18,6.00059649 C18.0012293,5.74160893 18.0996842,5.49415926 18.2729805,5.31450815 L18.2729804,5.31450826 C18.4680438,5.11368284 18.7272666,5.00110711 18.9971776,5 L18.9971777,5.00121363 Z" id="形状" fill="#CCCCCC" fill-rule="nonzero"></path>
            </g>
        </g>
    </g>
</svg>