<?xml version="1.0" encoding="UTF-8"?>
<svg width="81px" height="32px" viewBox="0 0 81 32" version="1.1" xmlns="http://www.w3.org/2000/svg" xmlns:xlink="http://www.w3.org/1999/xlink">
    <title>new-logo.82b5e7d5</title>
    <g id="页面-1" stroke="none" stroke-width="1" fill="none" fill-rule="evenodd">
        <g id="聚合新首页" transform="translate(-1446.000000, -3336.000000)">
            <g id="new-logo.82b5e7d5" transform="translate(1446.000000, 3336.000000)">
                <rect id="矩形" stroke="#979797" fill="#D8D8D8" opacity="0" x="0.5" y="0.5" width="80" height="30.030303"></rect>
                <g id="编组-43" transform="translate(0.964286, 0.975683)" fill="#CCCCCC" fill-rule="nonzero">
                    <path d="M46.3143825,5.13510211 L46.2826063,5.13442729 L44.2790656,5.13822675 L44.2818874,7.02599561 L40.4267105,7.02607115 C40.0854471,7.02609034 39.8068425,7.293604 39.7902591,7.62979667 L39.7894781,7.66150987 L39.7893896,9.67125379 L44.283731,9.6710813 L44.2832258,13.278019 L44.2765924,14.742406 L44.2736388,14.905434 L44.2695763,15.0650186 C44.2617662,15.3322554 44.249126,15.6686083 44.2314378,15.9184487 L44.2202174,16.06749 L44.1900577,16.4147334 L39.5161071,16.4147815 C39.1748457,16.4147912 38.8962417,16.6823014 38.879664,17.0184972 L38.8788142,17.0502108 L38.8788142,19.0598293 C41.9049114,19.0596359 43.621896,19.0596308 44.0297677,19.0598139 C43.0831028,21.7379059 41.3134061,23.4889615 38.8788142,24.4553573 C38.9424328,24.6723765 39.3209002,25.9640496 39.5160844,26.630275 C39.5779267,26.8413625 39.8830473,26.9001535 40.0300816,26.8412786 C41.7774918,26.1415865 44.8623074,24.379442 46.4271238,20.1794417 C47.8122288,24.1729985 51.0217517,26.0337555 52.4787593,26.6964736 C52.5210927,26.7157289 52.5619465,26.7339727 52.6012332,26.7512281 C53.0865938,26.9644076 53.2926214,26.7512281 53.3707264,26.4867778 C53.6031963,25.6996737 53.8067371,25.0109699 53.9710828,24.4553573 C52.9857535,24.0595233 50.0684007,22.781508 48.8295817,19.0598127 C49.3788845,19.0596304 50.8798974,19.0596932 53.3326204,19.0600012 L53.3623468,19.0595392 C53.6931826,19.0473802 53.9584092,18.7838528 53.9746456,18.4564398 L53.9754335,18.4245614 L53.9754335,16.4147364 L52.7090255,16.4147237 L52.7090296,7.66151839 C52.7090205,7.32121722 52.4407573,7.04339345 52.1036137,7.02685442 L52.0718108,7.02607544 L46.921833,7.02599707 L46.9198414,5.75712543 L46.9195065,5.74556517 L46.9198169,5.73620607 C46.9036827,5.42141178 46.657955,5.16749737 46.3467977,5.13740953 L46.3143825,5.13510211 Z M36.9229872,5.13552621 L34.9198064,5.13552621 L34.9198064,26.1730545 C34.9198064,26.5133527 35.1880827,26.7911715 35.5252315,26.8076964 L35.5570349,26.8084741 L37.5601043,26.7968022 L37.5599393,14.0255494 L39.1206852,14.0256779 L39.1502676,14.0252365 C39.4811033,14.0130775 39.746324,13.7495526 39.7625495,13.4221374 L39.7633363,13.3902588 L39.7632749,11.3803132 L37.559933,11.3803128 L37.560192,5.77661985 L37.5597368,5.74703364 C37.5475435,5.41712973 37.2832726,5.15265248 36.9549537,5.13646605 L36.9229872,5.13552621 Z M75.3832553,5.38715889 C75.0322224,5.89474623 74.3543609,6.47145687 73.3590797,6.48368709 C73.3545935,6.48374222 68.2165236,6.48363263 57.9448698,6.48335835 L57.9449413,8.49322226 C57.9449495,8.82254571 58.1961847,9.09335722 58.5179519,9.12547444 L58.5503571,9.12788383 L58.58216,9.12866267 L66.6956194,9.12877333 L66.6956194,12.5949815 L59.3223037,12.5952441 C58.9810376,12.595277 58.7024321,12.8627956 58.6858403,13.1989837 L58.6850586,13.2306965 L58.6849924,15.2404031 L66.6956194,15.2404007 L66.6956194,18.3925603 L57.0313016,18.3926422 C56.6900404,18.3926509 56.4114364,18.6601607 56.3948595,18.9963568 L56.393922,19.0280704 L56.393922,21.037815 L66.6956112,21.0378141 L66.6953844,23.3854584 L66.6935579,23.4280521 L66.6918863,23.4496873 L66.6876147,23.4866091 C66.6344416,23.8604208 66.3190629,24.1443317 65.9410371,24.1611952 L65.9054197,24.1619884 L62.3488164,24.1618437 L62.9243798,26.3212392 C63.0046253,26.5854962 63.2126067,26.7771243 63.4790549,26.8040914 L63.5112239,26.8065303 L63.5437531,26.8073778 L65.9012867,26.8073778 L65.989019,26.8063071 L66.0447726,26.8045071 L66.1022187,26.8017067 C67.8946988,26.6998051 69.3063552,25.2260904 69.3355702,23.4287656 L69.336032,23.3719015 L69.3359005,21.037814 L78.6272241,21.0378912 L78.6571614,21.0373988 C78.9879973,21.0252399 79.2532324,20.761709 79.2694849,20.4342991 L79.2702743,20.4024211 L79.2702743,18.3925632 L69.3359173,18.3925601 L69.3359173,15.2404005 L76.2545456,15.2405094 L76.284442,15.2400229 C76.6152779,15.227864 76.8805114,14.9643338 76.8967607,14.6369233 L76.8975498,14.6050452 L76.8974699,12.5951513 L69.3359173,12.5949804 L69.3359173,9.12874864 C70.210507,9.13430263 71.5325637,9.13321122 73.3020873,9.12547444 C76.1855999,9.13672262 77.6603635,7.02111025 78.0521466,6.046144 C77.4668609,5.79227256 76.6706397,5.44782257 76.1452484,5.22044482 C75.783094,5.06371242 75.51555,5.19586308 75.3832553,5.38715889 Z M33.1738399,8.0130411 L31.1705655,8.0130411 L31.1706809,15.2229208 L31.1688996,15.4528672 L31.1660477,15.5988215 C31.1298147,17.104892 30.8790087,18.6212596 30.414086,20.1472729 C30.3202057,20.4554157 30.4724469,20.7828773 30.7643788,20.9123794 L30.7950726,20.9250611 L32.7405985,21.5832409 C33.4111043,19.7069769 33.7700905,17.7370393 33.8077375,15.5882039 L33.810093,15.4135165 L33.8110473,15.2424174 L33.8121378,14.5344424 L33.8103686,14.5333063 L33.8108634,8.64623673 L33.8099747,8.62939147 L33.8102262,8.61748399 C33.7947549,8.3018989 33.549459,8.04730508 33.2381309,8.0162734 L33.2056958,8.01386737 L33.1738399,8.0130411 Z M46.9243765,9.67077723 L50.0684007,9.67077723 L50.0685769,16.4147364 L46.844113,16.4147364 L46.8720872,16.0121833 C46.8970234,15.6286438 46.9120181,15.1503027 46.9172592,14.731731 L46.9189087,14.551146 L46.9211585,14.1037174 L46.9243765,9.67077723 Z" id="Clip-2备份-12"></path>
                    <path d="M20.7701508,15.3811226 C23.6379102,15.3811226 25.9626884,17.7224861 25.9626884,20.6107043 L25.9626884,24.7636074 C25.9626884,27.6518256 23.6379102,29.9931891 20.7701508,29.9931891 L13.1340659,29.9931891 C10.8310796,29.9931891 8.87826568,28.4832267 8.19841719,26.3926779 L3.64906952,28.6894401 C2.40490416,29.3175078 0.890766024,28.8108665 0.267147338,27.5578251 C0.0914739466,27.2048433 -4.96745502e-14,26.8154488 -4.96745502e-14,26.4206081 L-4.96745502e-14,18.9718744 C-4.96745502e-14,17.5702391 1.12820124,16.4339892 2.519908,16.4339892 C2.9153058,16.4339892 3.30515495,16.5276982 3.65793413,16.7075394 L8.18719735,19.0165522 C8.85656479,16.9079197 10.8182771,15.3811226 13.1340659,15.3811226 L20.7701508,15.3811226 Z M20.736724,18.0731694 L13.2104268,18.0728191 C11.7908859,18.0728191 10.6374329,19.2202042 10.6145058,20.6443696 L10.614158,24.6867018 C10.614158,26.1163699 11.7534156,27.2780517 13.1674927,27.3011424 L20.6937899,27.3014927 C22.1133308,27.3014927 23.2667838,26.1541075 23.289711,24.7299421 L23.2900588,20.6876099 C23.2900588,19.2579419 22.1508012,18.09626 20.736724,18.0731694 Z M3.35987733,19.6947512 C2.98453824,19.6947512 2.67947615,19.9977894 2.67274333,20.3741867 L2.67262969,25.0564555 C2.67262969,25.1657613 2.69833406,25.2735132 2.74763828,25.370889 C2.91808304,25.7075172 3.32447039,25.843582 3.66039423,25.6789282 L3.67208345,25.6730623 L7.94132143,23.4799296 L7.94132143,21.9294154 L3.66826393,19.7683482 C3.57256549,19.7199536 3.46696222,19.6947512 3.35987733,19.6947512 Z M9.69782775,3.44505569e-14 C12.3315373,3.44505569e-14 14.6267488,1.45962153 15.8294544,3.61947743 C16.9049885,2.61431276 18.3463003,1.99954594 19.9301814,1.99954594 C23.2618431,1.99954594 25.9626884,4.71965939 25.9626884,8.07508938 C25.9626884,11.4305194 23.2618431,14.1506328 19.9301814,14.1506328 C17.9269335,14.1506328 16.1517463,13.1672228 15.0546047,11.6535978 C13.7663547,13.1809042 11.8445352,14.1506328 9.69782775,14.1506328 C5.817918,14.1506328 2.67262969,10.9829058 2.67262969,7.07531641 C2.67262969,3.16772705 5.817918,3.44505569e-14 9.69782775,3.44505569e-14 Z M9.69782775,2.84550769 C7.37831649,2.84550769 5.49798108,4.73925756 5.49798108,7.07531641 C5.49798108,9.41137527 7.37831649,11.3051252 9.69782775,11.3051252 C12.017339,11.3051252 13.8976744,9.41137527 13.8976744,7.07531641 C13.8976744,4.73925756 12.017339,2.84550769 9.69782775,2.84550769 Z M19.9301814,4.84505363 C18.1589183,4.84505363 16.7230259,6.2911899 16.7230259,8.07508938 C16.7230259,9.85898887 18.1589183,11.3051252 19.9301814,11.3051252 C21.7014446,11.3051252 23.1373371,9.85898887 23.1373371,8.07508938 C23.1373371,6.2911899 21.7014446,4.84505363 19.9301814,4.84505363 Z" id="形状结合"></path>
                </g>
            </g>
        </g>
    </g>
</svg>