<?xml version="1.0" encoding="UTF-8"?>
<svg width="16px" height="16px" viewBox="0 0 16 16" version="1.1" xmlns="http://www.w3.org/2000/svg" xmlns:xlink="http://www.w3.org/1999/xlink">
    <title>编组 28备份</title>
    <g id="页面-1" stroke="none" stroke-width="1" fill="none" fill-rule="evenodd">
        <g id="聚合新首页" transform="translate(-1073.000000, -2563.000000)">
            <g id="编组-10备份-3" transform="translate(1050.000000, 2543.000000)">
                <g id="编组-28备份" transform="translate(23.000000, 20.000000)">
                    <g id="开发-灰" transform="translate(4.000000, 6.000000)" fill="#000000" fill-rule="nonzero">
                        <path d="M2.5060241,0.352406536 L2.15261044,0.0519870344 C2.04819277,-0.0292074255 1.91967871,-0.0129685335 1.8313253,0.0844648184 L0.0481927711,2.3579097 C-0.016064257,2.43910416 -0.016064257,2.56089584 0.0481927711,2.65020975 L1.84738956,4.90741574 C1.92771084,4.99672964 2.06425703,5.02920743 2.1686747,4.93989352 L2.52208835,4.64759346 C2.62650602,4.566399 2.64257028,4.41212953 2.55421687,4.32281562 L1.10843373,2.49594028 L2.57028112,0.677184376 C2.63453815,0.579751024 2.6184739,0.441720442 2.5060241,0.352406536 Z M7.95180723,2.3579097 L6.15261044,0.10070371 C6.07228916,0.0113898045 5.93574297,-0.0210879795 5.8313253,0.0682259264 L5.47791165,0.360525982 C5.37349398,0.441720442 5.35742972,0.595989916 5.44578313,0.685303822 L6.90763052,2.50405972 L5.44578313,4.33093507 C5.36546185,4.42024898 5.3815261,4.5826379 5.47791165,4.65571291 L5.8313253,4.94801297 C5.93574297,5.02920743 6.06425703,5.01296853 6.15261044,4.91553518 L7.95180723,2.6420903 C8.01606426,2.54465695 8.01606426,2.43098471 7.95180723,2.3579097 Z M4.85943775,0.133181494 L4.40160643,0.0195092505 C4.2811245,-0.0129685335 4.13654618,0.0682259264 4.1124498,0.190017616 L2.97188755,4.60699623 C2.93975904,4.72878792 3.02008032,4.85869906 3.14056225,4.8830574 L3.59839357,4.9886102 C3.7188755,5.02108798 3.86345382,4.93989352 3.8875502,4.81810183 L5.02811245,0.401123212 C5.06024096,0.271212076 4.98795181,0.165659278 4.85943775,0.133181494 L4.85943775,0.133181494 Z" id="形状"></path>
                    </g>
                    <rect id="矩形" stroke="#181818" stroke-width="1.5" x="0.75" y="0.75" width="14.5" height="14.5"></rect>
                </g>
            </g>
        </g>
    </g>
</svg>