<?xml version="1.0" encoding="UTF-8"?>
<svg width="16px" height="16px" viewBox="0 0 16 16" version="1.1" xmlns="http://www.w3.org/2000/svg" xmlns:xlink="http://www.w3.org/1999/xlink">
    <title>编组 26备份</title>
    <g id="页面-1" stroke="none" stroke-width="1" fill="none" fill-rule="evenodd">
        <g id="聚合新首页" transform="translate(-1072.000000, -2384.000000)">
            <g id="编组-10备份" transform="translate(1050.000000, 2363.000000)">
                <g id="编组-26备份" transform="translate(22.000000, 21.000000)">
                    <g id="构建" fill="#181818" fill-rule="nonzero">
                        <path d="M7.99970049,1.38545759 L13.7122168,3.99884842 L7.99970049,6.61223926 L2.28718422,3.99884842 L7.99970049,1.38545759 Z M0.411450796,4.60820679 L7.66774767,7.92828646 L7.66774771,7.92828648 C7.87942388,8.02280875 8.12130981,8.02280875 8.33298598,7.92828644 L15.5879549,4.60820678 L15.5879549,4.60820678 C15.9240649,4.47307885 16.0870105,4.09102094 15.9519047,3.75485506 C15.8852433,3.58899014 15.7537923,3.45751667 15.5879549,3.39084476 L8.33298596,0.0707650924 L8.33298592,0.0707650718 C8.12127382,-0.0235884423 7.87945975,-0.023588286 7.66774765,0.0707651131 L0.411450774,3.39084478 L0.411450809,3.39084477 C0.0753407639,3.5259727 -0.0876048286,3.90803061 0.0475009704,4.24419649 C0.114162434,4.41006141 0.24561344,4.54153488 0.411450809,4.60820679 L0.411450796,4.60820679 Z M15.5879658,7.39094544 L14.1481704,6.73226245 L12.5457263,7.46561286 L13.7122277,7.99895847 L7.99971143,10.6123493 L2.28719516,7.99895847 L3.45369656,7.46561286 L1.85125242,6.73226245 L0.411457045,7.39094544 L0.411457037,7.39094545 C0.0757156897,7.52698574 -0.0861925502,7.90948601 0.0498256191,8.24528313 C0.116472866,8.4098199 0.246947604,8.54031678 0.411457037,8.60697463 L7.66775391,11.9270543 L7.66775396,11.9270543 C7.87886615,12.0241873 8.12188005,12.0241873 8.33299223,11.9270543 L15.5879612,8.6069746 L15.5879611,8.60697461 C15.9237025,8.4729078 16.0872105,8.09200757 15.9531655,7.75621045 C15.8866325,7.5895377 15.7546062,7.45748921 15.5879611,7.39094543 M15.5879611,11.3910414 L14.1481657,10.7323584 L12.5457216,11.4657088 L13.712223,11.9990544 L7.99970669,14.6124453 L2.28719041,11.9990544 L3.45369182,11.4657088 L1.85124768,10.7323584 L0.411452303,11.3910414 L0.411452295,11.3910414 C0.075710947,11.5270817 -0.0861972929,11.909582 0.0498208765,12.2453791 C0.116468123,12.4099159 0.246942862,12.5404127 0.411452295,12.6070706 L7.66774917,15.9271503 L7.66774922,15.9271503 C7.8788614,16.0242832 8.1218753,16.0242832 8.33298749,15.9271502 L15.5879564,12.6070706 L15.5879564,12.6070706 C15.9236978,12.4730038 16.0872058,12.0921035 15.9531608,11.7563064 C15.8866277,11.5896337 15.7546015,11.4575852 15.5879564,11.3910414" id="形状"></path>
                    </g>
                    <rect id="矩形" stroke="#979797" fill="#D8D8D8" opacity="0" x="0.5" y="0.5" width="15" height="15"></rect>
                </g>
            </g>
        </g>
    </g>
</svg>