<?xml version="1.0" encoding="UTF-8"?>
<svg width="16px" height="16px" viewBox="0 0 16 16" version="1.1" xmlns="http://www.w3.org/2000/svg" xmlns:xlink="http://www.w3.org/1999/xlink">
    <title>编组 29备份</title>
    <g id="页面-1" stroke="none" stroke-width="1" fill="none" fill-rule="evenodd">
        <g id="聚合新首页" transform="translate(-1074.000000, -2651.000000)">
            <g id="编组-10备份-4" transform="translate(1050.000000, 2633.000000)">
                <g id="编组-29备份" transform="translate(24.000000, 18.000000)">
                    <rect id="矩形" stroke="#979797" fill="#D8D8D8" opacity="0" x="0.5" y="0.5" width="15" height="15"></rect>
                    <path d="M12.2695161,9.19770642 L9.56331733,10.7597167 C9.55851768,10.7933083 9.54571851,10.8237007 9.53931908,10.8564925 L11.7247614,12.1177773 C12.5473332,11.0832281 14.0529742,10.9112684 15.0877042,11.7336938 C16.1224373,12.5561193 16.2944276,14.0614925 15.4718559,15.0960385 C14.6492842,16.1305876 13.1436431,16.3025473 12.1089132,15.4801218 C11.5537746,15.0388873 11.2229286,14.3742268 11.2055976,13.6653927 L8.73217635,12.2369501 C8.30383548,12.5993662 7.7606171,12.7977935 7.19948638,12.7968106 C5.87410176,12.7999488 4.79711426,11.728248 4.79394096,10.4031007 C4.79084972,9.07795184 5.86274108,8.00115586 7.18812411,7.99803063 C8.01017694,7.99608422 8.77602496,8.41496799 9.21774585,9.10814003 L11.3151972,7.89804192 C10.9321662,6.63312576 11.6472576,5.2972542 12.9123973,4.91428812 C14.1775386,4.53132517 15.5136477,5.24628946 15.8966819,6.51120416 C16.279713,7.77612043 15.5646216,9.11199199 14.2994819,9.49495806 C14.0723808,9.56370272 13.8363165,9.59830031 13.5990347,9.59761572 C13.1260542,9.59866528 12.6633905,9.45950143 12.2695161,9.19770642 Z" id="路径" fill="#000000" fill-rule="nonzero"></path>
                    <path d="M14.8638916,13.6360474 C14.8638916,12.9733059 14.326633,12.4360474 13.6638916,12.4360474 C13.0011502,12.4360474 12.4638916,12.9733059 12.4638916,13.6360474 C12.4638916,14.2987886 13.0011502,14.8360474 13.6638916,14.8360474 C14.326633,14.8360474 14.8638916,14.2987888 14.8638916,13.6360474 Z" id="路径" fill="#FFFFFF" fill-rule="nonzero"></path>
                    <path d="M5.92104492,10.4054942 C5.92104492,11.0682357 6.45830349,11.6054942 7.12104492,11.6054942 C7.78378636,11.6054942 8.32104492,11.0682357 8.32104492,10.4054942 C8.32104492,9.74275278 7.78378636,9.20549422 7.12104492,9.20549422 C6.45830349,9.20549422 5.92104492,9.74275278 5.92104492,10.4054942 Z" id="路径" fill="#FFFFFF" fill-rule="nonzero"></path>
                    <path d="M12.4638916,7.2 C12.4638916,7.86274144 13.0011502,8.4 13.6638916,8.4 C14.326633,8.4 14.8638916,7.86274144 14.8638916,7.2 C14.8638916,6.53725856 14.326633,6 13.6638916,6 C13.0011502,6 12.4638916,6.53725856 12.4638916,7.2 Z" id="路径" fill="#FFFFFF" fill-rule="nonzero"></path>
                    <path d="M15,3.23803711 L15,2 C15,1.44771525 14.5522847,1 14,1 L2,1 C1.44771525,1 1,1.44771525 1,2 L1,13.9960059 C1,14.5482907 1.44771525,14.9960059 2,14.9960059 L6.75091011,14.9960059 L6.75091011,14.9960059" id="路径-27" stroke="#181818" stroke-width="1.2" stroke-linecap="round"></path>
                </g>
            </g>
        </g>
    </g>
</svg>