<?xml version="1.0" encoding="UTF-8"?>
<svg width="16px" height="16px" viewBox="0 0 16 16" version="1.1" xmlns="http://www.w3.org/2000/svg" xmlns:xlink="http://www.w3.org/1999/xlink">
    <title>编组 27备份</title>
    <g id="页面-1" stroke="none" stroke-width="1" fill="none" fill-rule="evenodd">
        <g id="聚合新首页" transform="translate(-1072.000000, -2471.000000)">
            <g id="编组-10备份-2" transform="translate(1050.000000, 2453.000000)">
                <g id="编组-27备份" transform="translate(22.000000, 18.000000)">
                    <rect id="矩形" stroke="#979797" fill="#D8D8D8" opacity="0" x="0.5" y="0.5" width="15" height="15"></rect>
                    <g id="路由器" transform="translate(0.000000, 1.000000)" fill-rule="nonzero">
                        <path d="M14.7465647,6.7570817 L14.357584,6.7570817 L14.357584,0.802962931 C14.357584,0.482732295 13.9673254,0.224014888 13.6470947,0.224014888 C13.3268641,0.224014888 12.9909668,0.482732295 12.9909668,0.802962931 L12.9909668,6.7570817 L8.96557617,6.7570817 L8.96557617,0.802962931 C8.96557617,0.482732295 8.63749138,0.224014888 8.31726074,0.224014888 C7.99703011,0.224014888 7.61826691,0.482732295 7.61826691,0.802962931 L7.61826691,6.7570817 L3.14880371,6.7570817 L3.14880371,0.802962931 C3.14880371,0.482732295 2.78617302,0.224014888 2.46594238,0.224014888 C2.14571175,0.224014888 1.79441145,0.482732295 1.79441145,0.802962931 L1.79441145,6.7570817 L1.25345688,6.7570817 C0.603949541,6.7570817 0.07385024,7.28537179 0.07385024,7.93668834 L0.07385024,13.6917937 C0.07385024,14.3413011 0.602140328,14.8714004 1.25345688,14.8714004 L14.7465647,14.8714004 C15.396072,14.8714004 15.9261713,14.3431103 15.9261713,13.6917937 L15.9261713,7.93668834 C15.9243621,7.28537179 15.396072,6.7570817 14.7465647,6.7570817 Z M14.5464265,13.5703986 L1.449567,13.5486881 C1.43871172,13.5486881 1.42785645,13.539642 1.42785645,13.5269775 L1.42785645,8.22340664 C1.42785645,8.21255136 1.43690251,8.20169608 1.449567,8.20169608 L14.5482357,8.22340664 C14.559091,8.22340664 14.5699463,8.2324527 14.5699463,8.24511719 L14.5699463,13.5486881 C14.5681371,13.5595434 14.559091,13.5703986 14.5464265,13.5703986 Z" id="形状" fill="#181818"></path>
                        <path d="M2.9680115,11.5736399 L2.96801154,11.57364 C3.38768555,11.9933375 4.06813042,11.9933574 4.48782795,11.5736846 C4.90752548,11.1540105 4.90754538,10.4735657 4.48787253,10.0538681 C4.4878488,10.0538444 4.48782507,10.0538207 4.48780134,10.053797 L4.48780136,10.053797 C4.06812736,9.63409946 3.38768249,9.63407956 2.96798496,10.0537523 C2.54828743,10.4734263 2.54826753,11.1538711 2.96794024,11.5735687 C2.96796397,11.5735924 2.9679877,11.5736161 2.96801143,11.5736399 L2.9680115,11.5736399 Z" id="路径" fill="#000000"></path>
                        <path d="M6.29486406,11.5730429 L6.2948641,11.5730429 C6.71453811,11.9927405 7.39498298,11.9927604 7.81468051,11.5730875 C8.23437803,11.1534135 8.23439793,10.4729686 7.81472508,10.0532711 C7.81470135,10.0532474 7.81467762,10.0532236 7.81465389,10.0531999 L7.81465392,10.0531999 C7.39497991,9.63350242 6.71453504,9.63348252 6.29483751,10.0531552 C5.87513999,10.4728292 5.87512008,11.1532741 6.2947928,11.5729716 C6.29481653,11.5729954 6.29484026,11.5730191 6.29486399,11.5730428 L6.29486406,11.5730429 Z" id="路径" fill="#000000"></path>
                    </g>
                </g>
            </g>
        </g>
    </g>
</svg>