<?xml version="1.0" encoding="UTF-8"?>
<svg width="16px" height="16px" viewBox="0 0 16 16" version="1.1" xmlns="http://www.w3.org/2000/svg" xmlns:xlink="http://www.w3.org/1999/xlink">
    <title>IA智能接入组件备份</title>
    <g id="页面-1" stroke="none" stroke-width="1" fill="none" fill-rule="evenodd">
        <g id="聚合新首页" transform="translate(-1070.000000, -2202.000000)" fill="#181818" fill-rule="nonzero">
            <g id="IA智能接入组件备份" transform="translate(1070.000000, 2202.000000)">
                <path d="M10.0147354,13.2764282 C9.91114088,12.9638236 9.71824068,12.8096461 9.48068765,12.5899297 C9.24492074,12.3577091 8.94842599,12.1826504 8.61620898,12.0915485 L8.61620898,10.6714302 L12.8278634,10.6714302 C13.692342,10.6553534 14.4889484,10.3177403 15.0605046,9.77470135 C15.6409913,9.22273083 16,8.46176175 16,7.62576756 C16,6.88266161 15.7213664,6.20029028 15.2480464,5.66082394 C14.8729627,5.24997209 14.3924983,4.92486324 13.8405894,4.74265937 C13.7191337,3.49224071 13.1422192,2.36686391 12.2598794,1.52729709 C11.2632284,0.580551524 9.9004242,0 8.38937263,0 C7.2837687,0 6.25318151,0.316177292 5.39227506,0.855643631 C4.59745479,1.35045216 3.95445412,2.03103718 3.52221478,2.83309144 C2.58271936,2.96170593 1.7486046,3.40649771 1.12346506,4.02634811 C0.428667113,4.7319415 0,5.684046 0,6.72725243 C0,7.80797142 0.46260326,8.8011611 1.21098459,9.51032712 C1.95757982,10.2212794 2.99352534,10.6696439 4.13842376,10.6696439 L7.38379102,10.6696439 L7.38379102,12.0897622 C7.05157401,12.1808641 6.75507926,12.3559227 6.51038178,12.5881434 C6.27461487,12.8078598 6.10850636,12.9620372 6.01205626,13.2746419 L0.621567314,13.2746419 C0.280419737,13.2746419 0.00178611297,13.5779486 0.00178611297,13.9761081 C0.00178611297,14.3742676 0.271489172,14.7766113 0.612636749,14.7766113 L5.97812012,14.7766113 C6.08350078,15.1052928 6.26747042,15.1818689 6.51038178,15.4105169 C6.89082384,15.7802836 7.41415495,16 8.00357223,16 C8.58048672,16 9.10024559,15.7802836 9.48068765,15.4105169 C9.73074347,15.1818689 9.91828533,15.1052928 10.0147354,14.7766113 L15.383791,14.7766113 C15.7285108,14.7766113 16,14.4148626 16,13.9761081 C16,13.5373535 15.7374414,13.2764282 15.3927216,13.2764282 L10.0147354,13.2764282 Z M2.30185269,8.20624732 C1.79426793,7.78732841 1.48388672,7.20774883 1.48388672,6.56060168 C1.48388672,5.94198306 1.77369017,5.3804215 2.24354903,4.96150258 C2.71340789,4.54858967 3.36675178,4.2798209 4.09383264,4.23477585 C4.31675837,4.23477585 4.5259656,4.12216324 4.62713959,3.94498606 C4.94609487,3.32336444 5.46568332,2.80534642 6.12417164,2.44648756 C6.76551183,2.09363471 7.53374821,1.89093201 8.36028825,1.89093201 C9.48349099,1.89093201 10.4986605,2.26780889 11.237745,2.87892 C11.9648259,3.49153261 12.4278255,4.34438546 12.4278255,5.2798209 C12.4278255,5.51705813 12.6284587,5.72426534 12.9148325,5.76931039 C13.3675432,5.82937045 13.7619503,6.02756865 14.0431797,6.29934042 C14.3244091,6.57261369 14.4838867,6.92096204 14.4838867,7.31585693 C14.4838867,7.74979087 14.2729647,8.14018126 13.9385761,8.42696804 C13.5938986,8.71075183 13.1240397,8.884926 12.6130254,8.89093201 L4.27731766,8.89093201 C3.50565166,8.89093201 2.804293,8.62516624 2.30185269,8.20624732 Z M8.86901472,15.0252172 C8.64874642,15.2456029 8.34165704,15.3846154 8.00401949,15.3846154 C7.65834296,15.3846154 7.35125358,15.2472982 7.13098528,15.0252172 C6.90589358,14.8048315 6.76923077,14.4962916 6.76923077,14.1538462 C6.76923077,13.8114007 6.90750138,13.5079466 7.13098528,13.2824751 C7.35125358,13.0620894 7.65834296,12.9230769 8.00401949,12.9230769 C8.34165704,12.9230769 8.64874642,13.0620894 8.86901472,13.2824751 C9.08928302,13.5079466 9.23076923,13.8114007 9.23076923,14.1538462 C9.22916143,14.4979869 9.08928302,14.8048315 8.86901472,15.0252172 Z M7.89770508,3.4473877 C7.89770508,3.74682617 8.17043652,3.96679688 8.38076243,3.96679688 C9.44689724,3.96679688 10.1460571,4.72457564 10.1460571,5.79071045 C10.1460571,6.00103636 10.3522949,6.20458984 10.6699219,6.20458984 C10.9875488,6.20458984 11.0769231,5.90648656 11.0769231,5.69616065 C11.0769231,4.21118716 9.86754907,3 8.38076243,3 C8.17043652,3 7.89770508,3.14794922 7.89770508,3.4473877 Z" id="形状"></path>
            </g>
        </g>
    </g>
</svg>