<?xml version="1.0" encoding="UTF-8"?>
<svg width="16px" height="16px" viewBox="0 0 16 16" version="1.1" xmlns="http://www.w3.org/2000/svg" xmlns:xlink="http://www.w3.org/1999/xlink">
    <title>编组 25备份</title>
    <g id="页面-1" stroke="none" stroke-width="1" fill="none" fill-rule="evenodd">
        <g id="聚合新首页" transform="translate(-1070.000000, -2292.000000)">
            <g id="编组-10" transform="translate(1050.000000, 2273.000000)">
                <g id="编组-25备份" transform="translate(20.000000, 19.000000)">
                    <rect id="矩形" stroke="#979797" fill="#D8D8D8" opacity="0" x="0.5" y="0.5" width="15" height="15"></rect>
                    <g id="数据库" transform="translate(1.000000, 1.000000)" fill="#181818" fill-rule="nonzero">
                        <path d="M0,0 L0,15 L14,15 L14,0 L0,0 Z M12.4140625,13.3647461 L1.61987305,13.3647461 L1.61987305,10.3515625 L12.4140625,10.3515625 L12.4140625,13.3647461 Z M12.4030762,8.92675781 L1.56616211,8.92675781 L1.56616211,6.04956055 L12.4030762,6.04956055 L12.4030762,8.92675781 Z M12.4794922,4.55761719 L1.54516602,4.55761719 L1.54516602,1.66259766 L12.4794922,1.66259766 L12.4794922,4.55761719 Z M11.318287,11.2563477 L8.71759259,11.2563477 L8.71759259,12.6796875 L11.318287,12.6796875 L11.318287,11.2563477 Z M11.4236111,2.3203125 L8.72569444,2.3203125 L8.72569444,3.69970703 L11.4236111,3.69970703 L11.4236111,2.3203125 Z M8.32006836,6.9609375 L8.32006836,8.33178711 L11.318287,8.33178711 L11.318287,6.9609375 L8.32006836,6.9609375 Z" id="形状"></path>
                    </g>
                </g>
            </g>
        </g>
    </g>
</svg>