<?xml version="1.0" encoding="UTF-8"?>
<svg width="64px" height="32px" viewBox="0 0 64 32" version="1.1" xmlns="http://www.w3.org/2000/svg" xmlns:xlink="http://www.w3.org/1999/xlink">
    <title>美团</title>
    <g id="页面-1" stroke="none" stroke-width="1" fill="none" fill-rule="evenodd">
        <g id="聚合新首页" transform="translate(-736.000000, -3337.000000)">
            <g id="美团" transform="translate(736.000000, 3337.000000)">
                <rect id="矩形" stroke="#979797" fill="#D8D8D8" opacity="0" x="0.5" y="0.5" width="63" height="31"></rect>
                <path d="M7.60272718,1.09844599 C7.60272718,1.14675274 7.6137931,1.1863172 7.62713285,1.1863172 C7.64062419,1.1863172 7.67412515,1.23240139 7.70156274,1.28870995 C7.72915177,1.34516673 7.76522962,1.39125092 7.78205611,1.39125092 C7.79873081,1.39125092 7.81252515,1.41851615 7.81252515,1.45200487 C7.81252515,1.48534544 7.82935144,1.53098501 7.84996738,1.55336046 C7.93879789,1.65027065 7.96229404,1.68346301 7.96229404,1.71220998 C7.96229404,1.7289544 7.97578539,1.74273517 7.99215691,1.74273517 C8.00868002,1.74273517 8.02217139,1.76940768 8.02217139,1.80215553 C8.02217139,1.83490355 8.04005879,1.86839233 8.06203889,1.87654207 C8.08386759,1.88484019 8.12009714,1.93714781 8.14253227,1.99286383 C8.16481572,2.04857985 8.19270793,2.09407121 8.20422872,2.09407121 C8.21590099,2.09407121 8.23378836,2.12711536 8.24424813,2.16727237 C8.25455611,2.20757758 8.27623334,2.24047353 8.29245307,2.24047353 C8.30852139,2.24047353 8.32170956,2.26032972 8.32170956,2.28448309 C8.32170956,2.30863652 8.3352009,2.32834444 8.35172404,2.32834444 C8.36824715,2.32834444 8.38173852,2.35338695 8.38173852,2.38376404 C8.38173852,2.41428923 8.40189973,2.44688904 8.42660849,2.45607624 C8.45131733,2.46541162 8.47163007,2.49978939 8.47163007,2.5323892 C8.47163007,2.56513722 8.48496982,2.59195777 8.50149293,2.59195777 C8.51801605,2.59195777 8.53150742,2.61166578 8.53150742,2.63581913 C8.53150742,2.65997256 8.55166862,2.67982869 8.57637738,2.67982869 C8.60442117,2.67982869 8.62139896,2.70739028 8.62139896,2.75302985 C8.62139896,2.79333507 8.6348903,2.82623101 8.65126182,2.82623101 C8.66778494,2.82623101 8.68127631,2.84401269 8.68127631,2.86594339 C8.68127631,2.88772595 8.714929,2.94107097 8.75616075,2.98448799 C8.7973928,3.02790501 8.8310452,3.07502637 8.8310452,3.08895538 C8.8310452,3.12896417 8.93351885,3.29433372 8.95837926,3.29463014 C8.97080949,3.29463014 8.9808143,3.31448633 8.9808143,3.3386397 C8.9808143,3.36294131 8.99430564,3.38264926 9.01082878,3.38264926 C9.02735189,3.38264926 9.04069165,3.40132002 9.04069165,3.42413986 C9.04069165,3.47644766 9.13801122,3.64581797 9.1680257,3.64596618 C9.18045593,3.64611436 9.19061233,3.66597055 9.19061233,3.69012395 C9.19061233,3.71427738 9.20410367,3.7339853 9.2204752,3.7339853 C9.23699831,3.7339853 9.25048968,3.760806 9.25048968,3.79355388 C9.25048968,3.8263019 9.26837708,3.85979068 9.29035747,3.86794042 C9.31218616,3.87623854 9.34841572,3.92854616 9.37085085,3.98426218 C9.3931343,4.03982998 9.42921233,4.08546955 9.45073775,4.08546955 C9.47271803,4.08546955 9.4901507,4.11777295 9.4901507,4.15867071 C9.4901507,4.19897593 9.50364204,4.23187187 9.52016518,4.23187187 C9.53653668,4.23187187 9.55002805,4.25172806 9.55002805,4.27588143 C9.55002805,4.30003486 9.56351939,4.31974279 9.58004253,4.31974279 C9.59641403,4.31974279 9.6099054,4.33293087 9.6099054,4.34908259 C9.6099054,4.36834607 8.40659814,4.37827419 6.05985746,4.37827419 L2.50980952,4.37827419 L2.50980952,5.88334364 C2.50980952,7.22867431 2.51496351,7.39019273 2.55725666,7.40619522 C2.58332982,7.41597514 5.32676998,7.4239769 8.65366963,7.4239769 L14.702783,7.4239769 L14.702783,9.1517622 L9.41886407,9.1517622 C5.0064467,9.1517622 4.12935469,9.15828214 4.10116809,9.19147458 C4.07721718,9.21962889 4.06706084,9.65424208 4.06599953,10.6922466 L4.06448365,12.1534544 L9.3835553,12.1608634 L14.7027733,12.1682724 L14.7027733,13.9542939 L8.35912026,13.9617029 L2.01561356,13.9691119 L2.007731,15.484556 L2,17 L31,17 L31,13.9544342 L18.3276799,13.9544342 L18.3276799,12.168264 L23.6528104,12.1608549 L28.9777945,12.1534459 L28.9855255,10.7064609 C28.9926501,9.39120968 28.9888604,9.25458625 28.9435357,9.20554018 C28.8954823,9.15367701 28.7017526,9.15175059 23.610678,9.15175059 L18.3276958,9.15175059 L18.3276958,7.42396528 L30.488091,7.42396528 L30.5055236,7.32868509 C30.5150737,7.2763773 30.519015,6.59445037 30.5143158,5.81324106 L30.5056752,4.39293073 L26.9930631,4.38552172 C23.8985375,4.37900178 23.4804509,4.37277818 23.4804509,4.33425109 C23.4804509,4.31009766 23.4939423,4.29038974 23.5104654,4.29038974 C23.5269885,4.29038974 23.5404799,4.27646076 23.5404799,4.25927172 C23.5404799,4.24208276 23.5741323,4.18473697 23.6153643,4.13198455 C23.6564448,4.07923241 23.6902488,4.01418099 23.6902488,3.98750837 C23.6902488,3.96083585 23.7037401,3.93905341 23.7201116,3.93905341 C23.7366348,3.93905341 23.7501261,3.92245717 23.7501261,3.90215642 C23.7501262,3.88185569 23.7837785,3.82969601 23.8250106,3.78627928 C23.8662426,3.74286226 23.899895,3.6803301 23.899895,3.64743415 C23.899895,3.61453821 23.9136895,3.58756917 23.9303641,3.58756917 C23.9470388,3.58756917 23.9832682,3.54148497 24.0108574,3.48517641 C24.0382949,3.42871964 24.0717958,3.38263545 24.0852873,3.38263545 C24.0986271,3.38263545 24.109693,3.34973921 24.109693,3.30943429 C24.109693,3.26853652 24.126974,3.23623313 24.1489543,3.23623313 C24.1706314,3.23623313 24.2065577,3.19059356 24.2289928,3.13487754 C24.2512763,3.07916153 24.2875059,3.02685402 24.3094862,3.01870399 C24.3313149,3.01055405 24.3493537,2.97691698 24.349354,2.94431745 C24.349354,2.91156943 24.3628453,2.88474888 24.3792169,2.88474888 C24.39574,2.88474888 24.4092314,2.86504087 24.4092314,2.84088752 C24.4092314,2.81673409 24.4227227,2.79687796 24.4390942,2.79687796 C24.4556173,2.79687796 24.4691087,2.77879992 24.4691087,2.75657274 C24.4691087,2.73434565 24.4894215,2.69981956 24.5141303,2.67981516 L24.5141303,2.67981516 C24.5406084,2.65615025 24.5566885,2.62338557 24.5590002,2.58838782 C24.5590002,2.55815905 24.5724916,2.53341284 24.5890147,2.53341284 C24.6053862,2.53341284 24.6188776,2.51355665 24.6188776,2.48940328 C24.6188776,2.46524985 24.6314594,2.44554192 24.6466182,2.44554192 C24.674662,2.44554192 24.7686466,2.28313597 24.7686466,2.23468102 C24.7686466,2.22015932 24.8024506,2.17792783 24.843531,2.14058621 C24.8847631,2.10324459 24.9185671,2.05123321 24.9185671,2.02485728 C24.9185671,1.99848113 24.9317552,1.97699488 24.9478236,1.97699488 C24.9640435,1.97699488 24.9857206,1.94395072 24.9960285,1.90379372 C25.0063365,1.8634885 25.0269524,1.83059256 25.0415049,1.83059256 C25.056209,1.83059256 25.068336,1.81073637 25.068336,1.78658299 C25.068336,1.76242956 25.0818273,1.74272164 25.0981989,1.74272164 C25.114722,1.74272164 25.1282134,1.7169382 25.1282134,1.68552383 C25.1282134,1.65410968 25.1450396,1.61795344 25.1656556,1.60506189 C25.1862715,1.59217017 25.2234106,1.5420851 25.2481194,1.49377835 C25.2728282,1.44547161 25.3098158,1.388422 25.3304316,1.36723223 C25.3510475,1.34589421 25.3678738,1.30973828 25.3678738,1.28662208 C25.3678738,1.26365409 25.3780302,1.24468686 25.3903088,1.24453865 C25.4172915,1.24439047 25.4876284,1.10258172 25.4876284,1.04864392 C25.4876284,0.957957332 22.2888153,1.00567153 22.257731,1.09680275 C22.2519707,1.11384352 22.2146799,1.12777256 22.1748124,1.12777256 C22.1349446,1.12777256 22.1023532,1.14081245 22.1023532,1.15696415 C22.1023532,1.17311585 22.0750674,1.18630396 22.0415665,1.18630396 C22.0080654,1.18630396 21.9728971,1.20601197 21.9634987,1.23016531 C21.9539486,1.25431874 21.9216604,1.27417487 21.891646,1.27417487 C21.8329815,1.27417487 21.383371,1.68611666 21.383371,1.73975776 C21.383371,1.75739125 21.3706376,1.77191295 21.3548725,1.77191295 C21.3391073,1.77191295 21.3025745,1.82140536 21.2734697,1.88171469 C21.2220814,1.98870104 21.1987369,2.02322728 21.1212753,2.10768998 C21.1006593,2.13006525 21.083833,2.17570499 21.083833,2.20919377 C21.083833,2.24253434 21.0724639,2.26979951 21.0586694,2.26979951 C21.0447233,2.26979951 21.0078873,2.31588371 20.9769634,2.37234048 C20.9458879,2.42864904 20.9099616,2.47473323 20.8972281,2.47473323 C20.8844947,2.47473323 20.8741867,2.50777739 20.8741868,2.54793439 C20.8741868,2.59357396 20.8572089,2.62128376 20.8291652,2.62128376 L20.8291652,2.62128376 C20.8044187,2.62136507 20.7843783,2.64095495 20.7842952,2.66514512 C20.7842952,2.68929855 20.7708039,2.70900647 20.7542807,2.70900647 C20.7377576,2.70900647 20.7244179,2.73538263 20.7244179,2.76768608 C20.7244179,2.79984127 20.711836,2.82621748 20.6963741,2.82621748 C20.6810637,2.82621748 20.6592351,2.85481633 20.6478659,2.88978682 C20.6364968,2.9249056 20.601783,2.98002878 20.5708591,3.01248039 C20.5399352,3.044932 20.51462,3.09397978 20.51462,3.12139317 L20.51462,3.12139312 C20.5137848,3.15016842 20.4964245,3.17602505 20.46975,3.18822247 C20.4450412,3.19755785 20.4247284,3.2317877 20.4247284,3.26453543 C20.4247284,3.29728346 20.4112371,3.32410401 20.3948656,3.32410401 C20.3783425,3.32410401 20.3648511,3.33818116 20.3648511,3.35537023 C20.3648511,3.37270737 20.3480248,3.40515906 20.3274089,3.42768243 C20.2344853,3.5288898 20.2150822,3.55867395 20.2150822,3.599572 C20.2150822,3.62357725 20.1814298,3.67870034 20.1401978,3.72211736 C20.0989657,3.7656823 20.0653133,3.81902755 20.0653133,3.84080988 C20.0653133,3.86259243 20.0550053,3.88052226 20.0424235,3.88052226 C20.0195337,3.88052226 19.9654167,3.9672078 19.9282777,4.06352545 C19.9173634,4.09167976 19.8965958,4.11479578 19.8820432,4.11479578 C19.8674908,4.11479578 19.8555153,4.14102376 19.8555153,4.17332718 C19.8555153,4.20548237 19.8442978,4.23185859 19.8303517,4.23185859 C19.8165572,4.23185859 19.7898777,4.26475453 19.7710808,4.30505975 L19.7369736,4.3782609 L16.5308724,4.3782609 C13.8276019,4.3782609 13.3246248,4.37203733 13.3246248,4.33795569 C13.3246248,4.3157286 13.3056763,4.28223967 13.2824834,4.26342094 C13.2592904,4.24460201 13.21821,4.18369976 13.1912273,4.12798375 C13.1642446,4.07241594 13.1292279,4.02692458 13.1136143,4.02692458 C13.0978492,4.02692458 13.0849642,4.00054843 13.0849642,3.96824497 C13.0849642,3.93608978 13.0714729,3.90971357 13.0551013,3.90971357 C13.0385782,3.90971357 13.0250868,3.89000556 13.0250868,3.86585221 C13.0250868,3.84169878 13.0131114,3.82184265 12.9984074,3.82184265 C12.9837033,3.82184265 12.9632391,3.78894671 12.9529309,3.74864149 C12.9424714,3.70848449 12.9207941,3.67544033 12.904726,3.67544033 C12.8885061,3.67544033 12.875318,3.64906418 12.875318,3.61690893 C12.875318,3.58475374 12.8618266,3.55837753 12.8453035,3.55837753 C12.828932,3.55837753 12.8154406,3.53852134 12.8154406,3.51436797 L12.8154406,3.51436807 C12.8153572,3.49012011 12.7952247,3.47050643 12.7704191,3.47050643 C12.7425268,3.47050643 12.7255491,3.44279666 12.7255491,3.39730527 C12.7255491,3.35700006 12.7120577,3.32410411 12.6955346,3.32410411 C12.6790115,3.32410411 12.6656717,3.30617426 12.6656717,3.28439173 C12.6656717,3.26260917 12.6318677,3.20926415 12.5906357,3.16569892 C12.5495552,3.12228191 12.5157512,3.06108333 12.5157512,3.02966918 C12.5157512,2.99825475 12.5022599,2.97261958 12.4858884,2.97261958 C12.4693652,2.97261958 12.4558739,2.95602334 12.4558739,2.93572258 C12.4558739,2.91542185 12.4222215,2.86326218 12.3809894,2.81984545 C12.3397574,2.77642843 12.306105,2.72011987 12.306105,2.69478111 L12.306105,2.69478116 C12.3045069,2.66719299 12.2871525,2.64283559 12.261235,2.63180437 C12.2363746,2.622469 12.2162134,2.59001736 12.2162134,2.55949218 C12.2162134,2.52896699 12.2060571,2.50407258 12.1936268,2.50407258 C12.1811966,2.50407258 12.1528496,2.46421199 12.1308693,2.41560883 C12.1088891,2.36685746 12.0746302,2.31084502 12.0550752,2.29113704 C12.0353688,2.27128085 11.9955011,2.20578509 11.9665479,2.14532727 C11.9375946,2.08486945 11.9009103,2.03552553 11.8852968,2.03552553 C11.8695316,2.03552553 11.8567982,2.00914938 11.8567982,1.97699413 C11.8567982,1.94469073 11.8433069,1.91831452 11.8267837,1.91831452 C11.8102606,1.91831452 11.7967692,1.90008831 11.7967692,1.87756497 C11.7967692,1.85518969 11.776608,1.82925822 11.7518993,1.81992282 C11.7271904,1.81073562 11.7068777,1.78391478 11.7068777,1.76050245 C11.7068777,1.70641644 11.3535266,1.36100673 11.2390767,1.30321694 C11.1916296,1.27921169 11.1419088,1.24305554 11.1287208,1.22290293 C11.1155326,1.20275038 11.0785451,1.18630235 11.0464083,1.18630235 C11.0142718,1.18630235 10.9878952,1.17311427 10.9878952,1.15696255 C10.9878952,1.14081085 10.9553038,1.12777095 10.9155877,1.12777095 C10.8757202,1.12777095 10.8384293,1.11384197 10.832669,1.09680114 C10.8087181,1.02656357 10.5109993,1.01189353 9.09304367,1.01130098 L7.60263117,1.01056007 L7.60263117,1.09843128 M35,16 L35,31 L47.4055843,30.9919783 C59.1810027,30.9842651 59.8129353,30.9811798 59.8489274,30.9305814 C59.8730715,30.8966433 59.9261584,30.8772059 59.9946917,30.8772059 C60.0540773,30.8772059 60.1026652,30.8634764 60.1026652,30.8466616 C60.1026652,30.8300011 60.1314581,30.8162716 60.1666996,30.8162716 C60.2448306,30.8162716 60.4582271,30.7226335 60.4582271,30.6883868 C60.4582271,30.6748115 60.4772725,30.6638588 60.5003669,30.6638588 C60.553154,30.6638588 60.7245619,30.5648213 60.7248619,30.534277 C60.7248619,30.5216274 60.7392584,30.5112917 60.7568039,30.5112917 C60.7741997,30.5112917 60.8070418,30.4941684 60.8298361,30.4731885 C60.9211637,30.3889605 60.9606042,30.3588791 60.9796493,30.3588791 C61.0240384,30.3588791 61.4586313,29.8794278 61.4976232,29.7873317 C61.5207176,29.7327222 61.5540095,29.6881399 61.571405,29.6881399 C61.5888008,29.6881399 61.6213429,29.6401638 61.6436872,29.5815436 C61.6661817,29.5227691 61.6927251,29.474793 61.7029228,29.474793 C61.7129703,29.474793 61.7446126,29.4164813 61.7731057,29.3452112 C61.8017487,29.2739413 61.8375898,29.1918728 61.853036,29.1627168 L61.853036,29.1627168 C61.8701871,29.1255829 61.8796353,29.0851829 61.8807792,29.0440877 C61.8807792,29.0079901 61.9041735,28.9609394 61.9326666,28.9394969 C61.9820045,28.9024735 61.9850038,28.195791 61.9922019,14.9502385 L62,1 L35,1 L35,16 M59,15.683805 C59,25.1441712 58.9949544,26.3717016 58.9560428,26.4045392 L58.9560429,26.4045392 C58.9302248,26.4286152 58.9145354,26.4619118 58.9122488,26.4974812 C58.9122488,26.5282108 58.899081,26.553367 58.8829541,26.553367 L58.8829541,26.553367 C58.8672131,26.5530289 58.8541427,26.5656641 58.8536593,26.5816864 C58.8536593,26.6378735 58.6314336,26.8290298 58.4956116,26.8895841 C58.4191198,26.9236277 58.3566836,26.9624916 58.3566836,26.9757477 C58.3566836,26.9891543 54.0013927,27 48.6783418,27 L39,27 L39,5 L59,5 L59,15.6838246 M51.3427647,6.03002582 C51.3163464,6.05708924 51.3078809,6.47784297 51.3078809,7.77359734 L51.3078809,9.48143287 L45.6613842,9.48890896 L40.0148876,9.49638502 L40.0074438,11.04782 L40,12.5994052 L40.0652429,12.6435139 C40.1221661,12.68224 40.7386904,12.6895665 44.9715873,12.702575 L49.8128305,12.7173776 L49.756491,12.7837652 C49.7255482,12.8203979 49.6911021,12.8503023 49.6798635,12.8503023 C49.6484828,12.8503023 49.5771097,12.9308945 49.5771097,12.9663311 C49.5771097,12.9838252 49.5587191,12.9980299 49.5362416,12.9980299 C49.5137642,12.9980299 49.4911409,13.0080478 49.4857406,13.020159 C49.4804862,13.0324198 49.4126162,13.0947704 49.3348209,13.1587655 L49.3348208,13.1587656 C49.2336147,13.2439664 49.1352795,13.3326845 49.0399886,13.4247646 C48.8474713,13.6122647 48.8057274,13.6481497 48.7807688,13.6481497 C48.769822,13.6481497 48.7166938,13.6946509 48.6628354,13.7516186 C48.6089773,13.8084368 48.558038,13.854938 48.5497186,13.854938 C48.5224246,13.854938 48.4522193,13.9386702 48.4522193,13.9711164 L48.4522193,13.9711164 C48.4521395,13.988589 48.4383326,14.0027331 48.4212766,14.0028151 C48.4043455,14.0028151 48.3732567,14.019412 48.3523849,14.0397469 L48.3523848,14.0397469 C48.3142632,14.0738737 48.27441,14.1059157 48.2329918,14.1357398 C48.1883291,14.168186 48.0855752,14.2613381 48.0047148,14.3425282 C47.9237087,14.4238678 47.8063589,14.5295797 47.7438894,14.5777257 L47.7438894,14.5777257 C47.6612096,14.644091 47.5826308,14.7156502 47.5086065,14.79199 C47.4417581,14.8616671 47.3735963,14.9187844 47.3571029,14.9187844 C47.3406097,14.9187844 47.3271817,14.9371755 47.3271817,14.9594543 C47.3271817,14.9818826 47.2892328,15.016422 47.2426725,15.0361588 C47.1962582,15.0558957 47.1348103,15.1040416 47.1060568,15.1430668 C47.0774492,15.1822416 47.0431493,15.2142391 47.0298673,15.2142391 C46.9954214,15.2142391 46.9233187,15.2928875 46.9233187,15.3304175 L46.9233187,15.3304175 C46.9234015,15.3475862 46.9100081,15.3616398 46.8932515,15.3619666 C46.8766124,15.3619666 46.8325333,15.3920203 46.7951683,15.4285038 C46.7578034,15.4651365 46.684387,15.5282345 46.6318422,15.5689045 C46.5792977,15.6095745 46.4739167,15.7058662 46.3977269,15.7831689 C46.3215374,15.860322 46.253959,15.9234201 46.2475371,15.9234201 C46.2326495,15.9234201 46.1021637,16.0337671 45.9938636,16.1376844 C45.9474492,16.1823914 45.9029322,16.2190241 45.8950507,16.2190241 C45.8684865,16.2190241 45.7984271,16.3032049 45.7984271,16.3350529 L45.7984271,16.3350529 C45.7985895,16.352337 45.785085,16.3665054 45.7682139,16.3667513 C45.7517208,16.3667513 45.706912,16.3966558 45.6686712,16.4331389 C45.5666472,16.5309261 45.5143944,16.5735397 45.4965877,16.5735397 C45.4878302,16.5735397 45.3891632,16.6666917 45.277214,16.7804775 C45.1652648,16.8941138 45.0635328,16.9872659 45.0511264,16.9872659 C45.03872,16.9872659 44.9609249,17.053803 44.8781673,17.1349931 C44.7954096,17.2163327 44.7211174,17.2827203 44.7129436,17.2827203 C44.6859416,17.2827203 44.6157361,17.366602 44.6157361,17.3988987 C44.6157361,17.4162432 44.5993888,17.4304478 44.5793927,17.4304478 C44.5593966,17.4304478 44.5080196,17.463791 44.4652543,17.5043114 C44.4224888,17.5449814 44.3795775,17.5783246 44.3697983,17.5783246 C44.3404608,17.5783246 44.2696716,17.660412 44.2696716,17.6943534 L44.2696716,17.6943534 C44.2698348,17.7115802 44.2564183,17.7257247 44.2396044,17.7260521 C44.2231112,17.7260521 44.1572847,17.7791324 44.0930634,17.8441743 C44.0289884,17.9092162 43.9676862,17.9624458 43.9567393,17.9624458 C43.9459385,17.9624458 43.8469796,18.0488692 43.7370739,18.1544316 C43.6271682,18.2601435 43.5267498,18.3465669 43.5140515,18.3465669 C43.5012072,18.3465669 43.4908443,18.3664533 43.4908443,18.3908252 C43.4908443,18.4151972 43.4736213,18.4352331 43.4527494,18.4352331 C43.4150925,18.4352331 43.324745,18.5092462 43.1014314,18.7235106 L43.1014313,18.7235107 C43.0173122,18.8025222 42.9307141,18.8787186 42.8417735,18.9519797 L42.8417734,18.9519797 C42.7438709,19.0338509 42.6495867,19.1201603 42.5592034,19.2106502 C42.4830137,19.2879529 42.4097433,19.3512005 42.3963153,19.3512005 C42.3830332,19.3512005 42.3644966,19.3712364 42.3554472,19.3956083 C42.3462519,19.4199804 42.3252341,19.4398666 42.308595,19.4398666 C42.2919559,19.4398666 42.2341567,19.4863679 42.1802986,19.5433356 C42.1262946,19.6001537 42.07375,19.6468045 42.0632411,19.6468045 C42.033028,19.6468045 41.9619468,19.7281442 41.9619468,19.7628333 C41.9619468,19.7801778 41.9491026,19.7945317 41.9333392,19.7945317 C41.9073589,19.7945317 41.8113191,19.8692926 41.7149874,19.9643883 C41.6945534,19.9847232 41.6637565,20.0013201 41.6468254,20.0013201 C41.6135471,20.0013201 41.6001191,24.3486501 41.6331054,24.3826019 C41.6552909,24.4051797 41.7889877,24.3437262 41.7889877,24.3108314 C41.7889877,24.2972249 41.801832,24.2860108 41.8177413,24.2860108 C41.8553982,24.2860108 42.0773991,24.0585884 42.0773991,24.0201614 C42.0773991,24.0038635 42.0968114,23.9905561 42.1206023,23.9905561 C42.1443933,23.9905561 42.1639515,23.9781458 42.1639515,23.9630441 C42.1639515,23.9477929 42.189494,23.9271588 42.2207287,23.9169915 C42.2519635,23.906824 42.3499007,23.8260824 42.4383509,23.7377151 C42.5268008,23.6491982 42.6054718,23.5768298 42.6132075,23.5768298 C42.6210892,23.5768298 42.6631249,23.5403466 42.7069121,23.4956397 C42.8169637,23.3831995 43.0103567,23.2230617 43.0364846,23.2226134 C43.048453,23.2224638 43.0580862,23.2022784 43.0580862,23.1779064 C43.0580862,23.1535344 43.0728279,23.1336481 43.0907805,23.1336481 C43.1087333,23.1336482 43.1444926,23.1103228 43.1701811,23.0817642 C43.1957236,23.0532056 43.2814004,22.9768001 43.3603633,22.9119077 L43.360363,22.9119079 C43.4615308,22.826829 43.5597701,22.73816 43.6549021,22.646062 C43.8409975,22.4639447 43.8868279,22.4244709 43.9116407,22.4244709 C43.9222956,22.4244709 43.9739645,22.3778201 44.0263631,22.3210019 C44.0786156,22.2640342 44.1353931,22.217533 44.1523242,22.217533 L44.1523242,22.217533 C44.1693565,22.2174507 44.1831213,22.2032828 44.1831213,22.1858345 C44.1831213,22.145015 44.2565376,22.0698058 44.2963841,22.0698058 C44.313461,22.0698058 44.3273268,22.0597878 44.3273268,22.0476766 C44.3274728,22.0354158 44.3855636,21.985625 44.4564988,21.9368811 C44.52758,21.8881372 44.5859627,21.8316179 44.5862547,21.8112829 C44.5866926,21.790948 44.6009964,21.7743511 44.6183654,21.7743511 C44.6355883,21.7743511 44.7065233,21.7145425 44.7758532,21.6412768 C44.8453288,21.5681607 44.9134909,21.5083521 44.9275026,21.5083521 C44.9415144,21.5083521 45.0206231,21.441815 45.1033808,21.3606249 C45.1859925,21.2794348 45.2637878,21.2128977 45.2760479,21.2128977 C45.2883084,21.2128977 45.3156024,21.1797037 45.3369122,21.139034 C45.358076,21.0983641 45.3868295,21.0651704 45.4006955,21.0651704 C45.4145615,21.0651704 45.4415636,21.051564 45.4606838,21.0349672 C45.6113116,20.9047338 45.6715919,20.8583821 45.6902745,20.8583821 C45.702097,20.8582326 45.7118761,20.8383462 45.7118761,20.8139743 C45.7118761,20.7896023 45.7253042,20.7695664 45.7417973,20.7695664 C45.7582905,20.7695664 45.8223658,20.7197757 45.8842516,20.658771 C46.0268516,20.5182207 46.145223,20.4150509 46.1640513,20.4150509 C46.172079,20.4150509 46.2352785,20.3552423 46.3047541,20.2821262 C46.3740837,20.2088605 46.4442892,20.1490519 46.4607824,20.1490519 C46.4772755,20.1490519 46.4907035,20.1291655 46.4907035,20.1047936 C46.4907035,20.0804216 46.5109916,20.0603858 46.5356583,20.0603858 C46.560471,20.0603858 46.5725856,20.0470783 46.5628063,20.03093 C46.5530272,20.0146321 46.5647037,20.0013247 46.5886407,20.0013247 C46.6127237,20.0013247 46.6648302,19.9681307 46.7043847,19.9274611 C46.7440851,19.8867911 46.7878723,19.8535974 46.8018839,19.8535974 C46.8157499,19.8535974 46.8445035,19.8204035 46.8656673,19.7797338 C46.886977,19.7390639 46.9160226,19.7058702 46.9303263,19.7058702 C46.9662317,19.7058702 47.0387724,19.6282684 47.0387724,19.5896919 C47.0387724,19.5723474 47.0562872,19.5581427 47.0778889,19.558143 C47.0993446,19.558143 47.1518892,19.5247998 47.1946547,19.4842794 C47.2374203,19.4436094 47.2791639,19.4104158 47.2873376,19.4104158 C47.2955112,19.4104158 47.3794366,19.3305713 47.4737248,19.2330832 C47.5680132,19.1355951 47.6548576,19.0557507 47.6665341,19.0556011 C47.6782107,19.0556011 47.7522109,18.995643 47.8307358,18.9226764 C47.9094068,18.8495602 47.9841367,18.7897517 47.9966891,18.7897517 C48.0092414,18.7897517 48.0194584,18.7698653 48.0194584,18.7454934 C48.0194584,18.7211214 48.0359516,18.7010855 48.0559478,18.7010855 C48.0759439,18.7010855 48.116666,18.6678916 48.1464412,18.6272219 C48.1762164,18.5867015 48.2135816,18.5533583 48.2293448,18.5533583 C48.2451082,18.5533583 48.2881656,18.5201644 48.3249469,18.4794947 C48.3617282,18.4388247 48.3999688,18.4056311 48.41004,18.4056311 C48.420257,18.4056311 48.4824347,18.3489625 48.5485533,18.2795845 L48.5485533,18.2795844 C48.6222087,18.2031796 48.7005003,18.1316158 48.7829606,18.0653201 C48.8458681,18.016875 48.9724129,17.9006969 49.0642202,17.8072458 C49.1558812,17.7137946 49.2408283,17.6373893 49.2529428,17.6373893 C49.2650572,17.6373893 49.309866,17.6040461 49.3526315,17.5635256 C49.3953971,17.5228557 49.4384543,17.489662 49.4480876,17.489662 C49.4774251,17.489662 49.5483603,17.4074251 49.5483603,17.3734837 C49.5483603,17.3561392 49.5622262,17.3419345 49.5791573,17.3419345 C49.6191495,17.3419345 49.6925661,17.2667252 49.6925661,17.2257562 L49.6925661,17.2257562 C49.6924029,17.2085294 49.7058194,17.1943848 49.7226332,17.1940575 C49.754014,17.1940575 49.7932765,17.1646017 49.9090204,17.0538063 C49.9471153,17.0171735 49.9868154,16.9872691 49.9970326,16.9872691 C50.0073956,16.9872691 50.0920507,16.9074247 50.1851713,16.8099366 C50.2782919,16.7124485 50.3654285,16.632604 50.3788566,16.632604 C50.401042,16.632604 50.6056741,16.4483933 50.8367234,16.2203727 C50.8869328,16.1708811 50.9353906,16.1303607 50.9445859,16.1303607 C50.9658956,16.1303607 51.0927324,16.0210604 51.1931508,15.9160963 C51.2359164,15.8713894 51.2791196,15.8347567 51.2893365,15.8347567 C51.2995535,15.8347567 51.3078731,17.370642 51.3078731,19.2478929 C51.3078731,21.5034262 51.298094,22.6608847 51.2789735,22.6608847 C51.2632102,22.6608847 51.250074,22.6840606 51.249928,22.7126194 C51.2494901,22.8681217 51.2335808,22.8693181 49.0544408,22.8681217 C47.4884677,22.8672246 47.0262213,22.8752988 46.9812649,22.904007 C46.9244877,22.9401913 46.9233198,22.9715907 46.9233201,24.4705442 L46.9233201,26 L49.9088704,26 C51.8800206,26 52.8944207,25.9899821 52.8944207,25.9703947 C52.8944207,25.9540968 52.94463,25.9407894 53.0062239,25.9407894 C53.0704449,25.9407894 53.1333526,25.9219496 53.1539325,25.8965311 C53.1736367,25.872159 53.2207809,25.8522728 53.2584379,25.8522728 C53.2962408,25.8522728 53.3270378,25.8389653 53.3270378,25.8226674 C53.3270378,25.8063696 53.353894,25.7930621 53.3867342,25.7930621 C53.4195745,25.7930621 53.4646752,25.7764652 53.4867149,25.7561303 C53.5754568,25.6746411 53.6139896,25.6453349 53.632234,25.6453349 C53.6771888,25.6453349 54.1635187,25.1009255 54.1635187,25.0506878 C54.1635187,25.0201855 54.1762169,24.9952153 54.1918343,24.9952153 C54.2074517,24.9952153 54.2283236,24.9620214 54.2382486,24.9213517 C54.2481737,24.8806818 54.2678778,24.8474881 54.2820357,24.8474881 C54.2961936,24.8474881 54.3077242,24.8142942 54.3077242,24.7736245 C54.3077242,24.7329545 54.3207144,24.6997609 54.3366238,24.6997609 C54.3525331,24.6997609 54.3655233,24.641298 54.3655233,24.5699761 C54.3655233,24.4817584 54.3793892,24.4346592 54.4087265,24.4231459 C54.4469674,24.4080442 54.4519297,23.7287683 54.4519297,18.5550299 L54.4519297,12.7039474 L56.1981597,12.6958733 C57.7131961,12.6888458 57.9480394,12.6819678 57.9716843,12.6435408 C57.9880315,12.6170754 57.9992702,11.9706949 57.9995621,11.0403697 L58,9.48160736 L54.4525225,9.48160736 L54.4450786,7.74566056 L54.4376348,6.00956652 L52.907566,6.00194094 C51.7416607,5.99610961 51.3693243,6.00283806 51.3427597,6.030051 M14.5253983,18.3700312 C14.5253983,18.5969919 14.5140647,18.7400595 14.4958712,18.7400595 C14.4785726,18.7400595 14.4664933,18.842529 14.4664933,18.9881436 C14.4664933,19.1725587 14.4551597,19.2456656 14.4222029,19.2730806 C14.392825,19.2974995 14.3780616,19.3638648 14.3780616,19.4711283 C14.3780616,19.5715004 14.3621051,19.6485022 14.3360079,19.6748686 C14.2997701,19.7112724 13.4488544,19.7171149 8.25060368,19.7171149 L2.20741181,19.7171149 L2.19130616,19.78378 C2.1825077,19.8203333 2.17892866,20.5431622 2.18340248,21.3898839 L2.19160441,22.9294722 L7.60713935,22.9369626 L13.0228183,22.9444531 L12.9856858,23.0094703 L12.9856857,23.0094703 C12.9552445,23.0590609 12.9206727,23.1059695 12.8823412,23.1496916 C12.8459545,23.1910388 12.8161291,23.2368806 12.8161291,23.2514119 C12.8161291,23.2659434 12.78526,23.3065416 12.74768,23.3415971 C12.7099512,23.3766523 12.6602921,23.4481113 12.6373267,23.5003947 C12.6142121,23.5528278 12.5843867,23.5955233 12.5709654,23.5955233 C12.5426314,23.5955233 12.4624016,23.6716264 12.4624013,23.6984424 C12.4624013,23.7083298 12.4292954,23.7525235 12.388733,23.7964176 C12.3481705,23.8403118 12.3150646,23.8873517 12.3150646,23.9008348 C12.3150646,23.9337929 12.237668,24.0100455 12.2042638,24.0100455 C12.1896494,24.0100455 12.1599734,24.0433033 12.1382009,24.0840512 C12.1165776,24.1247994 12.0833225,24.1580568 12.0645326,24.1580568 C12.0457426,24.1580568 12.0133822,24.1899661 11.9926538,24.2289165 L11.9926538,24.2289165 C11.9661162,24.2735497 11.928967,24.310869 11.8845372,24.3375282 C11.8457643,24.3583516 11.8140005,24.3874147 11.8140005,24.4020958 C11.8140005,24.4320578 11.7394372,24.513404 11.711998,24.513404 C11.694252,24.513404 11.6574177,24.5445644 11.4666852,24.7202904 C11.4134472,24.7692779 11.360209,24.8094267 11.3484281,24.8094267 C11.3366471,24.8094267 11.3020498,24.8426845 11.2716281,24.8834324 C11.2412064,24.9241806 11.1978106,24.957438 11.1749943,24.957438 C11.152178,24.957438 11.0992381,24.9894971 11.0571844,25.0285974 L11.0571844,25.0285974 C11.0103563,25.0712842 10.9588797,25.1085231 10.9037335,25.1396059 C10.825144,25.1803541 10.7829411,25.210016 10.7098694,25.2757824 C10.6873513,25.2961564 10.6546927,25.3127852 10.6372448,25.3127852 C10.6199462,25.3127852 10.605779,25.3261182 10.605779,25.3422977 C10.605779,25.3586269 10.5837083,25.3719599 10.5568657,25.3719599 C10.5300229,25.3719599 10.4647057,25.4052177 10.4114674,25.4459656 C10.3583786,25.4867138 10.3008158,25.5199712 10.283517,25.5199712 C10.2662184,25.5199712 10.2520513,25.5333043 10.2520513,25.5496335 C10.2520513,25.5659627 10.2250594,25.5791459 10.1922517,25.5791459 C10.1592946,25.5791459 10.1246975,25.5992204 10.1153025,25.6236392 C10.1060567,25.6480581 10.0666875,25.6679826 10.0279146,25.6679826 C9.98914168,25.6679826 9.95737789,25.6813156 9.95737789,25.6976448 C9.95737789,25.7139741 9.93038602,25.7273071 9.89742914,25.7273071 C9.86447211,25.7273071 9.83002412,25.7472317 9.82062913,25.7716505 C9.81123417,25.7960694 9.77186493,25.8159939 9.73309204,25.8159939 C9.69431915,25.8159939 9.66255536,25.8293269 9.66255536,25.8456562 C9.66255536,25.8619854 9.63019495,25.8753184 9.59067657,25.8753184 C9.5511582,25.8753185 9.51059575,25.8886515 9.50045528,25.9048309 C9.49046382,25.9211601 9.45750694,25.9344931 9.42723411,25.9344931 C9.39696157,25.9344931 9.35222367,25.9544177 9.32791586,25.9788365 C9.30360827,26.0032554 9.26274757,26.0233298 9.23694879,26.0233298 C9.21129905,26.0233298 9.16730675,26.035764 9.13912179,26.0511943 C9.11093692,26.0664748 9.05083893,26.0868489 9.00565385,26.0964367 C8.96046848,26.1060245 8.93138889,26.1268479 8.94108218,26.1425779 C8.95122277,26.1590569 8.91483594,26.1713412 8.85563267,26.1713412 C8.79896474,26.1713412 8.74423523,26.1846743 8.73424392,26.2010035 C8.72425246,26.2171829 8.67697937,26.2305159 8.62940811,26.2305159 C8.5719944,26.2305159 8.54276565,26.2454968 8.54276565,26.2750092 C8.54276565,26.3060197 8.51159819,26.3193526 8.43957025,26.3193526 C8.38275316,26.3193526 8.33637485,26.3326856 8.33637485,26.3490148 C8.33637485,26.3651942 8.28328575,26.3785273 8.21856493,26.3785273 C8.15369496,26.3785273 8.10060614,26.3918603 8.10060614,26.4081895 C8.10060614,26.4245187 8.06332451,26.4378518 8.01784112,26.4378518 C7.97235774,26.4378518 7.90927732,26.457327 7.87781155,26.4812965 C7.84634578,26.5051161 7.77759866,26.5251906 7.72480787,26.5256399 C7.67216623,26.5262391 7.62906873,26.5398717 7.62906873,26.5562009 C7.62906873,26.5725301 7.58224296,26.5858631 7.52497869,26.5858631 C7.45966126,26.5858631 7.41462533,26.6023421 7.40388796,26.6302065 C7.39285262,26.6592694 7.34707087,26.6746998 7.27220958,26.6746998 C7.20912917,26.6746998 7.15753132,26.6880328 7.15753132,26.7042122 C7.15753132,26.7205414 7.10399505,26.7338745 7.03867761,26.7338745 C6.9602372,26.7338745 6.91415719,26.7490052 6.90297264,26.7782179 C6.89148993,26.8084792 6.84436599,26.8227111 6.75653059,26.8227111 C6.68524814,26.8227111 6.62708895,26.8360441 6.62708895,26.8522235 C6.62708895,26.8685527 6.57474562,26.8818858 6.51091944,26.8818858 C6.44694439,26.8818858 6.38654817,26.8952188 6.37655657,26.9115481 C6.36656511,26.9277274 6.30706368,26.9410605 6.24428158,26.9410605 C6.18149947,26.9410605 6.11036617,26.9611349 6.08605865,26.9855537 C6.05966328,27.01207 5.98748616,27.0298971 5.90710703,27.0298971 C5.83299122,27.0298971 5.7722967,27.0432301 5.7722967,27.0595594 C5.7722967,27.0758886 5.71428667,27.0892217 5.64330252,27.0892217 C5.5645638,27.0892217 5.5,27.1064497 5.47762304,27.1335651 C5.45331545,27.1629276 5.38740174,27.1779085 5.28241678,27.1779085 C5.19532686,27.1779085 5.1240447,27.1912415 5.1240447,27.2075707 C5.1240447,27.2238999 5.04739385,27.237233 4.95299681,27.237233 C4.85904724,27.237233 4.76957144,27.2490679 4.75406228,27.2635994 C4.73870228,27.2781309 4.64072641,27.2958083 4.53618862,27.3028495 C4.42777369,27.3101902 4.34142954,27.330714 4.3348682,27.3504888 C4.32741187,27.3728103 4.2470328,27.3852446 4.11058235,27.3852446 C3.99366735,27.3852446 3.88540157,27.3970796 3.87004157,27.411611 C3.85453244,27.4262923 3.71837999,27.4436701 3.56716644,27.4505614 C3.40655733,27.4577523 3.28367732,27.4769279 3.27159929,27.4965528 C3.25832704,27.5182751 3.08951601,27.5352035 2.79499121,27.5444917 C2.54416081,27.5522818 2.26261156,27.5675623 2.16940748,27.5783485 L2,27.5979735 L2,31 L2.56727539,30.980375 C2.97081232,30.9664428 3.15349164,30.948915 3.19987053,30.9198521 C3.24296802,30.8927366 3.35570756,30.8788045 3.53152838,30.8788045 C3.67797043,30.8788045 3.79771878,30.8665201 3.79771878,30.8513894 C3.79771878,30.8364085 3.90061587,30.8175326 4.02618037,30.8095927 C4.35918004,30.7883198 4.686513,30.7379838 4.72185505,30.7024791 C4.73885546,30.6854008 4.83548923,30.6716184 4.93659705,30.6716184 C5.03770458,30.6716184 5.12867165,30.6582854 5.13866325,30.6419561 C5.14880383,30.6256269 5.22754244,30.6122939 5.31373743,30.6122939 C5.41708199,30.6122939 5.48299575,30.5971632 5.50715412,30.5679505 C5.53131258,30.5385879 5.59722655,30.5234572 5.7005711,30.5234572 C5.7867661,30.5234572 5.86550482,30.5101242 5.87549613,30.4939448 C5.88548759,30.4776156 5.95766483,30.4642825 6.03580693,30.4642825 C6.12602822,30.4642825 6.19104735,30.4481032 6.21446024,30.4199391 C6.2380222,30.3913256 6.30319028,30.3754459 6.39669267,30.3754459 C6.48616848,30.3754459 6.53508184,30.3640604 6.52389758,30.3459335 C6.51256399,30.3275069 6.56714423,30.3162712 6.66780459,30.3162712 C6.75698209,30.3162712 6.83691375,30.3047359 6.84571212,30.290504 C6.85436145,30.276422 6.92802997,30.2560478 7.00945289,30.2451117 C7.09087582,30.2343255 7.15753535,30.2126032 7.15753535,30.1968732 C7.15753535,30.1811432 7.21644031,30.1682596 7.28846825,30.1682596 C7.36034703,30.1682596 7.42745403,30.1549266 7.43744535,30.1385973 C7.44758593,30.122418 7.5003766,30.1090849 7.55510611,30.1090849 C7.60968646,30.1090849 7.67425813,30.0890105 7.69856566,30.0645917 C7.72287324,30.0401728 7.79012933,30.0202483 7.84799021,30.0202483 C7.9058511,30.0202483 7.95327349,30.0069152 7.95327349,29.990586 C7.95327349,29.9742568 8.00472218,29.9609237 8.06750428,29.9609237 C8.13311974,29.9609237 8.19739339,29.9420478 8.21856925,29.9165803 C8.23870129,29.8921615 8.29999217,29.8722369 8.35472168,29.8722369 C8.4094509,29.872237 8.45433796,29.8589039 8.45433796,29.8425747 C8.45433796,29.8262455 8.48983003,29.8129124 8.53322583,29.8129124 C8.62344712,29.8129124 8.78390708,29.7670709 8.90604218,29.7063982 C8.95197303,29.6836272 9.02832586,29.6649011 9.07559881,29.6649011 C9.12287176,29.6649011 9.16164465,29.6515681 9.16164465,29.6353886 C9.16164465,29.6190594 9.20175964,29.6057264 9.2509713,29.6057264 C9.30316548,29.6057264 9.34730705,29.5872999 9.35729837,29.5612331 C9.36758808,29.5341177 9.41232589,29.5168897 9.4724238,29.5168897 C9.52655669,29.5168897 9.57890002,29.5035567 9.58889133,29.4872275 C9.59903191,29.4710481 9.6397434,29.4577151 9.67956008,29.4577151 C9.75173718,29.4577151 9.76829012,29.4517227 9.95231212,29.3591407 C10.0062959,29.3318754 10.0759379,29.3097037 10.1071051,29.3097037 C10.1381234,29.3097037 10.1636239,29.2963707 10.1636239,29.2800415 C10.1636239,29.2637122 10.2026951,29.2503792 10.2505646,29.2503792 C10.2984342,29.2503792 10.3480933,29.2324021 10.3610671,29.2103802 C10.3831378,29.1729278 10.4407005,29.1528534 10.6426175,29.1121052 C10.6870571,29.1031167 10.723593,29.0771998 10.723593,29.0545785 C10.723593,29.0309086 10.7538655,29.0135309 10.7954718,29.0135309 C10.8351393,29.0135309 10.8757018,29.0001979 10.8856931,28.9840185 C10.8956845,28.9676893 10.9252114,28.9543562 10.9511597,28.9543562 C11.0160296,28.9543562 11.2246575,28.8596768 11.2246572,28.8303142 C11.2246572,28.817131 11.2577631,28.8063447 11.2983255,28.8063447 C11.338888,28.8063447 11.3719939,28.7930117 11.3719939,28.7766825 C11.3719939,28.7605031 11.4055472,28.7471701 11.4465571,28.7471701 C11.4875668,28.7471701 11.528875,28.7270956 11.5381208,28.7026768 C11.5475158,28.6782579 11.5834553,28.6572845 11.6182016,28.6560861 C11.6529479,28.6548877 11.7212479,28.6285213 11.7698632,28.5972111 C11.8184783,28.5660508 11.878129,28.5324936 11.9024365,28.5226061 C12.0336677,28.4695736 12.202032,28.3771414 12.2306621,28.3425354 L12.2306621,28.3425354 C12.2538372,28.3184778 12.2853473,28.3043136 12.3186467,28.3029859 C12.3490684,28.3029859 12.3739725,28.291151 12.3739725,28.2766195 C12.3739725,28.262088 12.4072275,28.2418637 12.4476408,28.2316767 C12.4882033,28.2214897 12.5213092,28.2000669 12.5213092,28.1840375 C12.5213092,28.1680079 12.5453185,28.1549746 12.5746963,28.1549746 C12.6040742,28.1549746 12.6549263,28.1299565 12.687585,28.0993954 C12.7202437,28.0688344 12.7757187,28.0346779 12.8109125,28.0234422 C12.8462554,28.0122065 12.8750367,27.9904841 12.8750367,27.9753534 C12.8750366,27.9602227 12.8983004,27.9473391 12.9266345,27.9467399 C12.9903115,27.9456912 13.0812786,27.8790262 13.0812786,27.8334841 C13.0812786,27.8149077 13.1096126,27.7997771 13.1442099,27.7997771 C13.178807,27.7997771 13.2378611,27.7663698 13.2754411,27.7257714 C13.313021,27.6850232 13.3643203,27.6516159 13.3893736,27.6516159 C13.4144268,27.6516159 13.4350061,27.6384327 13.4350061,27.6221035 C13.4350061,27.6057743 13.4491731,27.5924412 13.466621,27.5924412 C13.4839197,27.5924412 13.5165785,27.5758124 13.5392456,27.5554384 C13.6302126,27.4734928 13.6691347,27.4444299 13.6882227,27.4444299 C13.699258,27.4444299 13.7389256,27.4111721 13.7765055,27.3704242 C13.8140855,27.329676 13.8604638,27.2964186 13.8795518,27.2964186 C13.89864,27.2964186 13.9581414,27.2498279 14.0115285,27.1927506 C14.0650648,27.1358232 14.1197943,27.0892325 14.1332155,27.0892325 C14.1466369,27.0892325 14.1934626,27.0558252 14.2371564,27.015077 C14.2808505,26.9744787 14.3246935,26.9410714 14.3346851,26.9410714 C14.3646594,26.9410714 14.4369859,26.8588261 14.4369859,26.8248194 C14.4369859,26.8074416 14.4502581,26.79306 14.4665129,26.79306 C14.5406287,26.79306 15.4391134,25.8897098 15.4391134,25.8151065 C15.4391134,25.7993765 15.4532804,25.7864929 15.4705792,25.7864929 C15.5080099,25.7864929 15.5864504,25.7124872 15.5864504,25.6771323 C15.5864504,25.6636495 15.6183633,25.6284445 15.6574345,25.5989321 C15.6963565,25.5695695 15.7443753,25.5063501 15.7640599,25.4587108 C15.7837445,25.4110716 15.8181928,25.3719713 15.8405616,25.3719713 C15.8627814,25.3719713 15.881124,25.3580391 15.881124,25.3411106 C15.881124,25.3240324 15.9142299,25.2742957 15.9547924,25.2304015 C15.9953548,25.1865073 16.0284607,25.1366211 16.0284607,25.1196924 C16.0284607,25.102764 16.0550052,25.0698059 16.0873657,25.0462858 C16.1198752,25.0227658 16.1464198,24.9926542 16.1464198,24.979321 C16.1464198,24.9658382 16.1993597,24.8828438 16.2642294,24.7946062 C16.3290994,24.7065185 16.3821882,24.6203783 16.3821882,24.6034499 C16.3821882,24.5865215 16.3944166,24.5725892 16.4094783,24.5725892 C16.4245401,24.5725892 16.4410933,24.5514661 16.4463125,24.525549 C16.4583917,24.4656255 16.5350425,24.5295939 16.6620983,24.7057693 C16.7090729,24.7709363 16.7781186,24.8524324 16.8154,24.8868886 C16.8526816,24.9213448 16.8831033,24.9586473 16.8831033,24.9695834 C16.8831033,24.9805194 16.8966738,25.0056875 16.9132267,25.0253124 C16.9296306,25.0450872 16.9701929,25.0943743 17.00315,25.1351225 C17.0692129,25.2169182 17.4705122,25.6585545 17.5978663,25.7897893 C17.642455,25.8357806 17.6788417,25.8807234 17.6788417,25.8898617 C17.6788417,25.9121833 18.0856583,26.3115752 18.2549167,26.45539 L18.2549167,26.45539 C18.3661926,26.5527159 18.4748938,26.6529729 18.5809079,26.7560565 C18.6855945,26.8579267 18.7779037,26.9410709 18.7862549,26.9410707 C18.794606,26.9410707 18.8371069,26.974478 18.8808011,27.0150763 C18.9244952,27.0558245 18.9713207,27.0892318 18.9847419,27.0892318 C19.0199357,27.0892318 19.0936041,27.1678816 19.0936041,27.2054838 C19.0936041,27.2228616 19.1134378,27.2372432 19.1377453,27.2372432 C19.1620529,27.2372432 19.1818866,27.2505762 19.1818866,27.2667556 C19.1818866,27.2830848 19.2003783,27.2964179 19.2230454,27.2964179 C19.2455635,27.2964179 19.2716605,27.3163425 19.2810554,27.3407613 C19.2903013,27.3651801 19.3153546,27.3852545 19.3366796,27.3852545 C19.3578555,27.3852545 19.3943913,27.4119205 19.417655,27.4444292 C19.4410679,27.4769378 19.4771563,27.5036039 19.497885,27.5036039 C19.5186136,27.5036039 19.5356138,27.5163377 19.5356138,27.5319178 C19.5356138,27.5473481 19.5819921,27.5822535 19.6388092,27.6092193 C19.6954772,27.6363348 19.7418555,27.6736371 19.7418555,27.6922135 C19.7418555,27.7107898 19.7845055,27.7449463 19.8365508,27.7681667 C19.8885958,27.7912373 19.9598783,27.8411238 19.9946246,27.8790254 C20.0295201,27.9167774 20.0724684,27.9477879 20.0900654,27.9477879 C20.1076623,27.9477879 20.1577687,27.9810457 20.2014629,28.0217936 C20.245157,28.0625418 20.2995879,28.0957993 20.3222553,28.0957993 C20.3449225,28.0957993 20.3966694,28.129057 20.4372316,28.1698049 C20.4776449,28.2105531 20.5301373,28.2438106 20.5536991,28.2438106 C20.5772611,28.2438106 20.5966474,28.2571436 20.5966474,28.2734729 C20.5966474,28.2896522 20.6164812,28.3029853 20.6407887,28.3029853 C20.6650963,28.3029853 20.6850792,28.3130225 20.6852283,28.325157 C20.6853774,28.3549691 20.8558287,28.4509968 20.9084704,28.4509968 C20.9314358,28.4509968 20.9502258,28.4643298 20.9502258,28.4806591 C20.9502258,28.4969883 20.9700596,28.5103213 20.9945162,28.5103213 C21.0188238,28.5103213 21.0388067,28.5202087 21.0388067,28.5324931 C21.0391049,28.5623052 21.2095562,28.6583329 21.2620487,28.6583329 C21.2850142,28.6583329 21.3039533,28.6713663 21.3039533,28.6873958 C21.3039533,28.7032756 21.3370595,28.7246983 21.3776216,28.735035 C21.4180349,28.7452221 21.45129,28.7654462 21.45129,28.7799778 C21.45129,28.7945093 21.4769397,28.8063442 21.5084054,28.8063442 C21.5398711,28.8063442 21.5731262,28.8184788 21.582372,28.8333099 C21.6033988,28.8676162 21.8931512,29.0135304 21.9401261,29.0135301 C21.9595125,29.0135301 21.9830744,29.0336045 21.9924694,29.0580234 C22.0017152,29.0824423 22.042874,29.1023668 22.0840331,29.1023668 C22.1250427,29.1023668 22.1585964,29.1156998 22.1585964,29.132029 C22.1585964,29.1483583 22.1903602,29.1615415 22.229133,29.1615415 C22.2679059,29.1615415 22.3072752,29.1816159 22.316521,29.2060347 C22.3259159,29.2304536 22.3605131,29.2503781 22.3934701,29.2503781 C22.426278,29.2503781 22.4532697,29.2637111 22.4532697,29.2800404 C22.4532697,29.2963696 22.4863759,29.3097026 22.5269381,29.3097026 C22.5675005,29.3097026 22.6006064,29.3210881 22.6006064,29.3351702 C22.6006064,29.3651321 22.8296643,29.4577141 22.903781,29.4577141 C22.9315185,29.4577141 22.9543348,29.4710471 22.9543348,29.4872265 C22.9543348,29.5035558 22.981774,29.5168888 23.0153273,29.5168888 C23.0488807,29.5168888 23.0963028,29.5368134 23.1206106,29.5612322 C23.1449182,29.5858009 23.1969631,29.6057255 23.2363326,29.6057255 C23.2757019,29.6057254 23.3079134,29.6190585 23.3079134,29.6353877 C23.3079134,29.6515671 23.3358,29.6649001 23.3698009,29.6649001 C23.4036525,29.6649001 23.4732946,29.6867723 23.524445,29.7135883 C23.7007124,29.8058706 23.7200987,29.8129118 23.7921266,29.8129118 C23.8319433,29.8129118 23.8726549,29.8262448 23.8826462,29.842574 C23.8926377,29.8589032 23.9464724,29.8722363 24.0022454,29.8722363 C24.0727821,29.8722363 24.1036513,29.8857191 24.1036513,29.9165797 C24.1036513,29.9475902 24.1348187,29.9609231 24.2068467,29.9609231 C24.2635146,29.9609231 24.3100421,29.9742561 24.3100421,29.9905854 C24.3100421,30.0069146 24.3553766,30.0202476 24.4107024,30.0202476 C24.4660283,30.0202476 24.5162837,30.0347791 24.5220999,30.0526064 C24.5323896,30.083467 24.6730157,30.1231664 24.8993908,30.1594203 C24.9562079,30.1684089 25.0109374,30.1889327 25.0210779,30.2049624 C25.0312185,30.2208422 25.1008604,30.2409167 25.175722,30.2493058 C25.2507324,30.257845 25.3120236,30.2764213 25.3120236,30.2905032 C25.3120236,30.3047351 25.371674,30.3162704 25.4445969,30.3162704 C25.5176689,30.3162704 25.5773193,30.3296034 25.5773193,30.3459327 C25.5773193,30.3621121 25.6439789,30.3754451 25.7255509,30.3754451 C25.8302376,30.3754451 25.8788527,30.3886283 25.890783,30.4199383 C25.9022657,30.4499003 25.9490913,30.4642818 26.0354355,30.4642818 C26.105823,30.4642818 26.1714387,30.4776148 26.1814301,30.493944 C26.1914215,30.5101234 26.2685197,30.523906 26.3526271,30.524505 C26.4401642,30.5249544 26.5300875,30.5439802 26.5628953,30.5688484 C26.59451,30.5929677 26.6826437,30.6122931 26.7600403,30.6122931 C26.8369895,30.6122931 26.9082719,30.6256261 26.9182632,30.6419554 C26.9282547,30.6582846 27.0207131,30.6716176 27.1237594,30.6716176 C27.2439552,30.6716176 27.3153868,30.6843514 27.3229922,30.7072722 C27.3304486,30.729444 27.4182839,30.747421 27.5539889,30.7547616 C27.6743338,30.7610536 27.7855821,30.7782817 27.8009421,30.7929629 C27.8163021,30.8076442 27.9381383,30.8196289 28.0717554,30.8196289 C28.2053725,30.8196289 28.3228841,30.8329619 28.3328757,30.8491413 C28.3431655,30.8660698 28.4910987,30.8788036 28.6757173,30.8788036 C28.9076088,30.8788036 29.0114006,30.8900393 29.0397341,30.9185029 C29.081042,30.96 30.9100757,31.0200734 30.9715169,30.9818722 C30.989412,30.9707863 31,30.3510259 31,29.3227352 L31,27.681275 L30.4289958,27.681275 C29.9573086,27.681275 29.8514293,27.6734849 29.8211579,27.6369316 C29.7923765,27.6020262 29.7096113,27.5924383 29.4344743,27.5924383 C29.2207763,27.5924383 29.0844745,27.580903 29.0844745,27.5629259 C29.0844745,27.545548 28.9854545,27.5332636 28.846469,27.5332636 C28.6743773,27.5332636 28.5963841,27.5209793 28.5644712,27.4887704 C28.5343478,27.4585091 28.4599337,27.444427 28.3307903,27.444427 C28.224165,27.444427 28.1412508,27.4315434 28.1412508,27.4147647 C28.1412508,27.3984355 28.0635558,27.3852523 27.9669221,27.3852523 C27.8616388,27.3852523 27.7881196,27.3717695 27.7812597,27.3510958 C27.7749964,27.3323697 27.6943189,27.3107971 27.6020097,27.303007 C27.5095514,27.2953668 27.4339444,27.2773897 27.4339444,27.2631579 C27.4339443,27.248926 27.3677323,27.2372409 27.2866077,27.2372409 C27.2056322,27.2372409 27.139271,27.2239079 27.139271,27.2075786 C27.139271,27.1912494 27.0745502,27.1779164 26.9955131,27.1779164 C26.9036514,27.1779164 26.8384832,27.1618868 26.8150703,27.133573 C26.7940434,27.1081054 26.7297699,27.0892295 26.6641545,27.0892295 C26.6012232,27.0892295 26.5499237,27.0758965 26.5499237,27.0595673 C26.5499237,27.0432381 26.4957908,27.029905 26.429877,27.029905 C26.362472,27.029905 26.2904438,27.0104298 26.2656888,26.9855616 C26.2413812,26.9611427 26.1693533,26.9410684 26.1056763,26.9410684 C26.0419993,26.9410684 25.9899542,26.9277354 25.9899542,26.9115559 C25.9899542,26.8952267 25.9434268,26.8818937 25.8867588,26.8818937 C25.8299417,26.8818937 25.7835634,26.8685607 25.7835634,26.8522314 C25.7835634,26.8360521 25.7252551,26.822719 25.6541218,26.822719 C25.5662864,26.822719 25.5191626,26.8084871 25.5076797,26.7782258 C25.4970918,26.7503613 25.4519064,26.7338823 25.3865893,26.7338823 C25.3294739,26.7338823 25.2824993,26.7205493 25.2824993,26.7042201 C25.2824993,26.6880407 25.2417876,26.6747077 25.1919797,26.6747077 C25.1423205,26.6747077 25.0816263,26.6546332 25.0573185,26.6302144 C25.0330109,26.6057955 24.9817114,26.585871 24.9432368,26.585871 C24.9049114,26.585871 24.8652439,26.572538 24.8552523,26.5562088 C24.8452608,26.5398795 24.7914261,26.5266963 24.7356531,26.5266963 C24.6798798,26.5266963 24.6342472,26.5139625 24.6342472,26.4983824 C24.6342473,26.4828023 24.5875706,26.4613796 24.5307535,26.4505933 C24.4737873,26.4398071 24.4199527,26.4192831 24.4111543,26.4049014 C24.4022068,26.3903699 24.3559777,26.3785349 24.3082572,26.378535 C24.2605368,26.378535 24.2216148,26.365202 24.2216148,26.3490226 C24.2216148,26.3326933 24.1765786,26.3193603 24.1215511,26.3193603 C24.0599619,26.3193603 24.0150748,26.3024318 24.0046361,26.2750169 C23.9947937,26.2492497 23.9508015,26.2305236 23.9000986,26.2305236 C23.8519307,26.2305236 23.8042103,26.2171906 23.794219,26.2010112 C23.7842275,26.184682 23.7453056,26.171349 23.7077257,26.171349 C23.6701457,26.171349 23.6228728,26.1514243 23.6027407,26.1270055 C23.5824595,26.1025867 23.5344407,26.0825123 23.4959662,26.0825123 C23.4573424,26.0825123 23.4258769,26.0691793 23.4258769,26.0529999 C23.4258769,26.0366707 23.3960516,26.0228884 23.3595157,26.0224389 C23.323129,26.0218397 23.2675049,26.001915 23.2360391,25.9779456 C23.2045733,25.954126 23.1547653,25.934501 23.1255366,25.934501 C23.0961587,25.934501 23.0721495,25.9211679 23.0721495,25.9048387 C23.0721495,25.8886593 23.0464997,25.8753263 23.0150341,25.8753263 C22.9835683,25.8753263 22.9495675,25.8619933 22.9395762,25.845664 C22.9295847,25.8293348 22.8970753,25.8160018 22.8672499,25.8160018 C22.8375737,25.8160018 22.8056607,25.7960772 22.7962658,25.7716584 C22.7870199,25.7472395 22.7524225,25.7273149 22.7194658,25.7273149 C22.6865087,25.7273149 22.6596662,25.7139819 22.6596662,25.6976527 C22.6596662,25.6813235 22.6326743,25.6679904 22.5997174,25.6679904 C22.5667604,25.6679904 22.5330579,25.6503129 22.5248561,25.6287403 C22.516505,25.607018 22.4638636,25.5712136 22.407792,25.5491915 C22.3518695,25.5270198 22.3059387,25.5006533 22.3059387,25.4906162 C22.3059387,25.4804292 22.2528496,25.4486696 22.1879799,25.4199064 C22.1232591,25.391143 22.07017,25.3553387 22.07017,25.3402081 C22.07017,25.3250773 22.0495905,25.312793 22.0245374,25.312793 C21.9994842,25.312793 21.9481849,25.2793857 21.9106049,25.2387873 C21.873025,25.1980391 21.8254537,25.1647816 21.8048745,25.1647816 C21.784295,25.1647816 21.7367237,25.1313743 21.699144,25.090776 C21.6615641,25.0500278 21.6169753,25.0167703 21.5999749,25.0167703 L21.5999749,25.0167703 C21.5833115,25.0171052 21.5695129,25.0038462 21.5691058,24.987108 C21.5691058,24.9707788 21.5488246,24.9574458 21.5240696,24.9574458 L21.5240696,24.9574458 C21.496674,24.955632 21.4726264,24.938484 21.4618838,24.9131024 C21.452638,24.8886835 21.4322076,24.8686091 21.4166984,24.8686091 C21.4010402,24.8686091 21.3445213,24.8220185 21.2911342,24.765091 C21.2375979,24.7080138 21.1848072,24.6614231 21.1739209,24.6614231 C21.1521485,24.6614231 21.1033842,24.6232219 20.994373,24.5207523 C20.9553018,24.484199 20.9095201,24.4542371 20.8926688,24.4542371 L20.8926688,24.4542371 C20.8754313,24.4539905 20.8616338,24.4397949 20.8617997,24.4224777 C20.8617997,24.40495 20.8428606,24.3716924 20.819746,24.348472 C20.7966314,24.3251018 20.7633763,24.3060759 20.7460776,24.3060759 C20.7286298,24.3060759 20.714463,24.2925931 20.714463,24.276114 C20.714463,24.2376131 20.4282897,23.9508777 20.3899634,23.9508777 L20.3899634,23.9508777 C20.3736315,23.9505498 20.3606341,23.9370243 20.3608838,23.9206164 C20.3608838,23.9039875 20.2876626,23.8156002 20.1980379,23.7242166 C20.1085621,23.6329828 20.0129721,23.5200267 19.9853838,23.4732862 C19.9579446,23.4265457 19.9184262,23.3883445 19.8976976,23.3883445 C19.8768199,23.3883445 19.8598196,23.3747118 19.8598196,23.3579333 C19.8598196,23.3411547 19.817915,23.2812312 19.7666155,23.224753 C19.715316,23.1681252 19.6492531,23.0818349 19.619726,23.0329973 L19.5658914,22.9443102 L30.7053188,22.9443102 L30.7053188,19.7171129 L18.1503664,19.7171129 L18.1503664,19.4633362 C18.1503664,19.2772732 18.1621474,19.1977247 18.1946568,19.1652153 C18.2307455,19.1288115 18.2387981,19.0190014 18.2387981,18.5602868 L18.2387981,18 L14.5254061,18 L14.5254061,18.3700283" id="形状" fill="#CCCCCC" fill-rule="nonzero"></path>
            </g>
        </g>
    </g>
</svg>