<?xml version="1.0" encoding="UTF-8"?>
<svg width="61px" height="40px" viewBox="0 0 61 40" version="1.1" xmlns="http://www.w3.org/2000/svg" xmlns:xlink="http://www.w3.org/1999/xlink">
    <title>小米</title>
    <g id="案例---优化" stroke="none" stroke-width="1" fill="none" fill-rule="evenodd">
        <g id="独角兽" transform="translate(-517.000000, -1916.000000)" fill="#FF6700" fill-rule="nonzero">
            <g id="更多logo" transform="translate(370.000000, 1596.000000)">
                <g id="小米" transform="translate(147.000000, 320.000000)">
                    <path d="M43.7606847,39.5526176 L43.7606847,11.529664 C43.7606847,5.16245154 38.6723569,0 32.3948656,0 L0.445942966,0 C0.199616971,0 0,0.201314318 0,0.448584954 L0,39.5523166 C0,39.7995873 0.199546694,39.9999806 0.445942966,39.9999806 L8.97983391,39.9999806 C9.22623018,39.9999806 9.42549713,39.7985244 9.42549713,39.549838 L9.42549713,8.85799538 C9.42549713,8.60881281 9.62504382,8.40664943 9.87144009,8.40664943 L28.2228365,8.40664943 C31.6689592,8.40664943 34.4635927,11.2395648 34.4635927,14.7349866 L34.4635927,39.5488934 C34.4635927,39.7978629 34.6628603,39.9988236 34.9079991,39.9988236 L43.3162783,39.9988236 C43.5608589,39.9988236 43.7606847,39.7980047 43.7606847,39.5511596 L43.7606847,39.5525759 L43.7606847,39.5526176 Z M26.5269343,39.5495727 L26.5269343,39.5495778 C26.5275479,39.7977148 26.3297047,39.9993744 26.0850373,40 C26.0842917,40 26.083546,40 26.0828003,40 L17.5509563,40 C17.30456,40 17.1050133,39.7985424 17.1050133,39.5495729 L17.1050133,16.0306333 C17.1050133,15.7816638 17.30456,15.5795701 17.5509563,15.5795701 L26.0828003,15.5795701 L26.0828003,15.5795701 C26.3278538,15.5795701 26.5266964,15.7806162 26.5269343,16.0291448 C26.5269343,16.029641 26.5269343,16.0301371 26.5269343,16.0306333 L26.5269343,39.5507493 L26.5269343,39.5495455 M60.6451613,39.5495455 C60.6451613,39.7987273 60.4453355,39.9999711 60.1990089,39.9999711 L51.6691435,39.9999711 C51.4221188,39.9999711 51.2212457,39.7985149 51.2212457,39.5495455 L51.2212457,0.452733566 C51.2212457,0.202630664 51.4221188,0.000749741662 51.6691435,0.000749741662 L60.1990089,0.000749741662 L60.1990089,0.000749741662 C60.4450258,0.000749741662 60.6447751,0.202306819 60.6451613,0.451812543 C60.6451613,0.452119545 60.6451613,0.452426546 60.6451613,0.452733545 L60.6451613,39.5495454" id="形状"></path>
                </g>
            </g>
        </g>
    </g>
</svg>