<?xml version="1.0" encoding="UTF-8"?>
<svg width="131px" height="40px" viewBox="0 0 131 40" version="1.1" xmlns="http://www.w3.org/2000/svg" xmlns:xlink="http://www.w3.org/1999/xlink">
    <title>中国移动</title>
    <g id="案例---优化" stroke="none" stroke-width="1" fill="none" fill-rule="evenodd">
        <g id="独角兽" transform="translate(-482.000000, -1636.000000)" fill-rule="nonzero">
            <g id="更多logo" transform="translate(370.000000, 1596.000000)">
                <g id="中国移动" transform="translate(112.000000, 40.000000)">
                    <path d="M39.432698,24.6450903 L39.4326961,24.6450878 C36.3344635,20.737286 32.8562948,17.1464278 29.0492325,13.9252123 L29.0492326,13.9252123 C28.2027161,13.1631825 27.1184883,12.717724 25.9807475,12.6645169 L25.9807473,12.6645169 C24.9166617,12.6974964 23.9007414,13.1156983 23.1218117,13.8413925 C22.9541721,14.0090321 22.7015799,14.2197144 22.4070779,14.4723065 C20.3047861,16.2381863 13.7475842,22.2494267 13.5788118,22.4170664 L13.5788118,22.4170664 C13.0806785,22.8949852 12.419384,23.1654967 11.7291122,23.1737102 L11.7291121,23.1737102 C10.9620404,23.1050074 10.2456146,22.7614781 9.71177292,22.2063841 L9.71177028,22.206382 C7.80559144,20.6349727 6.02068233,18.9220042 4.37222112,17.0820459 C2.77511372,15.2697254 1.42946578,13.6737507 1.42946578,13.6737507 C1.42946578,13.6737507 1.1349637,14.2627549 0.96732406,14.7248966 L0.967324088,14.7248965 C0.882240456,14.9445101 0.897554564,15.1903627 1.00923386,15.3977205 L1.00923818,15.3977259 C4.10041974,19.3105258 7.56382077,22.9142826 11.3507918,26.1583787 L11.3507917,26.1583786 C12.1824061,26.943793 13.2757026,27.3929752 14.4192768,27.419074 L14.419277,27.419074 C15.4833626,27.3860943 16.4992829,26.9678926 17.2782126,26.2421984 C17.4458522,26.0745588 17.6984444,25.8638765 17.9929464,25.6112844 C20.0952382,23.8454046 24.0880067,20.1879154 25.9377063,18.4650783 C26.3579381,18.0867564 26.6524401,17.8341642 26.7781699,17.7084345 L26.7781701,17.7084342 C27.2763034,17.2305154 27.9375979,16.9600039 28.6278697,16.9517904 L28.6278699,16.9517905 C29.3895599,17.0396004 30.0998422,17.380182 30.6452091,17.9191165 C31.8220847,18.9283525 33.7136942,20.6930995 35.9836256,23.0479834 C37.6226429,24.8138632 38.9286463,26.4109706 38.9286463,26.4528805 C38.9286463,26.4528805 39.2231484,25.8219664 39.390788,25.4017346 L39.390788,25.4017346 C39.5380093,25.1748179 39.5539577,24.8868784 39.4326979,24.6450908 L39.432698,24.6450903 Z" id="路径" fill="#8DC21F"></path>
                    <path d="M18.2455392,7.28306025 L18.2455313,7.28306682 C14.4478845,10.4451837 10.813998,13.7989394 7.35801507,17.3312511 L7.35801507,17.33125 C8.18093458,18.2197599 9.06591473,19.0487209 10.0062542,19.8118636 L10.0062542,19.8118636 C10.3931435,20.1410234 10.9736142,20.0942231 11.3027741,19.7073347 C11.3200574,19.6870202 11.336449,19.6659633 11.3519021,19.6442241 C14.2527475,16.6992033 20.2220781,11.4468721 21.0206318,10.815958 L21.0206312,10.8159585 C23.0097521,8.90333745 26.1137331,8.77692809 28.2517899,10.521455 L28.2517904,10.5214555 C32.7354146,14.1429956 36.7211179,18.3408254 40.1054848,23.0060639 C40.1054848,23.0060639 40.2312145,22.3751498 40.316167,21.8291883 L40.316167,21.8291883 C40.3858312,21.4971683 40.3258528,21.1510774 40.1485274,20.8618622 C34.6832485,13.0009222 28.8792922,8.1246475 26.6535361,6.90472929 L26.6535361,6.90472924 C24.0360356,5.30406799 20.7086719,5.45378265 18.2455018,7.28305114 L18.2455392,7.28306025 Z" id="路径" fill="#0084CF"></path>
                    <path d="M12.1074363,3.20647191 L12.1074413,3.20646784 C8.69325611,5.97875179 5.42409902,8.92503267 2.31298117,12.0336012 L2.31298117,12.0336003 C3.05280861,12.9151158 3.8384736,13.757117 4.66673237,14.5561238 L4.66673239,14.5561238 C4.86837428,14.7579031 5.19541034,14.7580135 5.39718956,14.5563724 C5.42276863,14.5308107 5.44559268,14.5026334 5.46528595,14.472304 C9.16468509,10.8986346 13.1585863,7.24227811 15.5134702,5.43675386 C19.4235516,2.41017869 24.0472342,2.11567661 28.545187,5.68934602 L28.5451873,5.68934625 C30.4288962,7.1968429 32.2121629,8.82573671 33.8836037,10.565621 L33.8836015,10.5656185 C36.2637729,13.1965981 38.4553214,15.9922581 40.4419362,18.9317466 L40.4419362,18.9317466 C40.426521,18.3378676 40.355991,17.7467028 40.231254,17.1658669 L40.2312539,17.1658667 C40.177554,16.9312958 40.0925974,16.7049993 39.9786618,16.4930427 L39.978662,16.4930431 C38.6607142,14.0821472 37.0968034,11.8140989 35.3119368,9.72515889 C30.2680224,3.83625009 27.1191156,2.07150305 25.0553357,0.978447269 C22.3232626,-0.409110583 17.068666,-0.829342389 12.1074387,3.20646873 L12.1074363,3.20647191 Z" id="路径" fill="#0084CF"></path>
                    <path d="M22.1963978,32.7167125 L22.1963972,32.7167129 C25.9940156,29.5549641 29.6279022,26.2015908 33.0839124,22.6696614 L33.0839124,22.669661 C32.2558827,21.7731811 31.3713259,20.9306121 30.4356588,20.1471375 L30.4356587,20.1471374 C30.0487694,19.8179776 29.4682987,19.8647779 29.1391388,20.2516664 C29.1218555,20.271981 29.105464,20.2930379 29.0900108,20.3147771 C26.1891654,23.2597978 20.2198349,28.5121291 19.4212812,29.1430431 L19.4212812,29.1430431 C17.416161,31.0567544 14.30149,31.1828806 12.1482126,29.4375452 L12.14821,29.437543 C7.65954529,25.81824 3.68565039,21.6034905 0.336411388,16.9098779 C0.336411388,16.9098779 0.212947057,17.5407919 0.126861835,18.0867534 L0.126861846,18.0867534 C0.0571978055,18.4187733 0.117176084,18.7648642 0.294501489,19.0540794 C5.76317848,26.9150194 11.5614712,31.7912942 13.7894927,33.0100797 L13.7894922,33.0100794 C16.3772876,34.6803734 19.7313123,34.5633371 22.1963938,32.71671 L22.1963978,32.7167125 Z" id="路径" fill="#0084CF"></path>
                    <path d="M28.3333679,36.7933008 L28.3333672,36.7933014 C31.7475807,34.0206493 35.0167378,31.0739862 38.1278281,27.9650354 L38.1278281,27.9650372 C37.3883376,27.0839365 36.6030436,26.2423133 35.7752096,25.4436463 L35.7752096,25.4436464 C35.5735677,25.2418671 35.2465317,25.2417567 35.0447524,25.4433979 C35.0191734,25.4689596 34.9963493,25.4971368 34.9766561,25.5274662 C31.2772569,29.1011356 27.2833557,32.7586248 24.9296045,34.5652818 C21.0195231,37.5918569 16.3958405,37.886359 11.8978877,34.3126896 L11.8978829,34.3126858 C10.0138201,32.8055856 8.23017109,31.1770741 6.55833379,29.4375438 L6.55833466,29.4375447 C4.17816323,26.8065651 1.98661472,24.0109051 -2.92665827e-15,21.0714204 L-2.92665827e-15,21.0714204 C0.0174725688,21.6651513 0.0879807547,22.2561306 0.210682354,22.8373036 L0.210682401,22.8373038 C0.264382306,23.0718747 0.349338933,23.2981712 0.463274565,23.5101277 L0.46327266,23.5101243 C1.78122042,25.9210202 3.34513121,28.1890684 5.12999784,30.2780085 C10.1750449,36.16805 13.3273498,37.9293989 15.3877316,39.0224547 C18.1232028,40.4088798 23.3732687,40.8291116 28.3333632,36.7933005 L28.3333679,36.7933008 Z" id="路径" fill="#0084CF"></path>
                    <path d="M58.8528445,21.9719176 L56.915927,21.9719176 L56.915927,16.6368992 L49.7130858,16.6368992 L49.7130858,6.80959153 L56.915927,6.80959153 L56.915927,3.28236283 L58.8528445,3.28236283 L58.8528445,6.80959153 L66.1021263,6.80959153 L66.1021263,16.6368992 L58.8528445,16.6368992 L58.8528445,21.9719176 Z M58.8528445,8.53242867 L58.8528445,14.9151948 L64.2444978,14.9151948 L64.2444978,8.53129597 L58.8528445,8.53242867 Z M51.6035626,8.53242867 L51.6035626,14.9151948 L56.915927,14.9151948 L56.915927,8.53129597 L51.6035626,8.53242867 Z" id="形状" fill="#0084CF"></path>
                    <path d="M81.5997316,12.9420309 L80.2937282,13.9501341 L80.4205906,14.0747312 L80.420591,14.0747316 C81.073614,14.760658 81.6791244,15.4902983 82.2329115,16.2585777 L82.3597739,16.3843075 L83.7495972,15.3342943 L83.621602,15.2074319 L83.6216033,15.2074334 C83.0154373,14.4716865 82.3829814,13.7580018 81.725463,13.0677626 L81.5997316,12.9420309 Z" id="路径" fill="#0084CF"></path>
                    <polygon id="路径" fill="#0084CF" points="84.421288 16.6368992 79.7455013 16.6368992 79.7455013 12.7732585 83.7473314 12.7732585 83.7473314 11.1818146 79.7455013 11.1818146 79.7455013 8.74197822 84.126786 8.74197822 84.126786 7.1040936 73.6798912 7.1040936 73.6798912 8.74197822 78.0181333 8.74197822 78.0181333 11.1818146 74.0174359 11.1818146 74.0174359 12.7732585 78.019266 12.7732585 78.019266 16.6368992 73.3853891 16.6368992 73.3853891 18.2747838 84.421288 18.2747838"></polygon>
                    <path d="M87.2439772,21.5120413 L70.5638327,21.5120413 L70.5638327,3.9551868 L87.2439772,3.9551868 L87.2439772,21.5120413 Z M72.3761532,5.63498133 L72.3761532,19.8718912 L85.4746993,19.8718912 L85.4746993,5.63498133 L72.3761532,5.63498133 Z" id="形状" fill="#0084CF"></path>
                    <path d="M98.5743781,14.0758639 C97.773559,13.3622627 95.5840494,11.5986483 95.5840494,11.5986483 L95.5840494,10.6743649 L98.1949235,10.6743649 L98.1949235,8.99457038 L95.5840494,8.99457038 L95.5840494,6.3044072 L95.5840496,6.30440717 C96.4794987,6.18067651 97.3659854,5.99906515 98.2379522,5.76071386 L97.9049383,4.03900881 L97.9049408,4.03900881 C96.8220298,4.30744886 95.7255122,4.51767662 94.62011,4.66879016 C92.4679795,4.96329224 91.2027532,5.08902197 91.2027532,5.08902197 L91.4134355,6.7688165 C91.4134355,6.7688165 92.8451687,6.60117686 93.9404898,6.42900641 L93.9404898,8.99457256 L90.9954691,8.99457256 L90.9954691,10.6743671 L93.6912958,10.6743671 L93.6912955,10.674368 C92.988421,12.8570956 91.9653859,14.9233958 90.6556587,16.8056746 L91.9197522,18.1490572 L91.9197523,18.1490571 C92.7008369,17.0087677 93.3771695,15.8001623 93.9404896,14.5380086 L93.9404896,22.0138304 L95.6678576,22.0138304 L95.6678576,13.8244074 C96.2999043,14.4126569 96.8896631,14.9586184 97.4371354,15.462292 L97.5651305,15.5925525 L98.7850488,14.2435065 L98.5743781,14.0758639 Z" id="路径" fill="#0084CF"></path>
                    <path d="M104.681898,12.7732585 L104.681898,12.7732586 C104.866728,12.5024582 105.008842,12.2048597 105.103263,11.890885 L103.375895,11.596383 C103.715705,11.4287433 104.007941,11.2180611 104.302443,11.0504214 L104.302444,11.0504209 C106.149737,9.94907238 107.663562,8.36712476 108.682596,6.47317908 L108.724506,6.43126903 L108.724506,4.87833694 L102.743849,4.87833694 L102.743849,4.87833718 C102.942211,4.57822399 103.125189,4.26822091 103.292073,3.94952861 L103.375893,3.78641977 L101.733477,3.15663841 L101.648525,3.28236814 L101.648524,3.282369 C100.685558,5.20187123 99.321165,6.89191669 97.6478268,8.23793276 C97.6478268,8.23793276 98.5324657,8.95153394 99.07956,9.28794593 L99.0795602,9.28794576 C100.024263,8.46418098 100.884815,7.54861368 101.648524,6.55473997 L106.745676,6.55473997 L106.745676,6.55474023 C105.984073,7.63144831 105.043977,8.57001227 103.966029,9.32985594 C103.292072,8.74198449 102.705334,8.27984277 101.859206,7.6081515 L101.732344,7.52433168 L100.638156,8.70007458 L100.765018,8.82580431 C101.522795,9.45558567 101.986069,9.83390757 102.492386,10.3379592 L102.492387,10.3379584 C101.074346,11.0919984 99.5762505,11.6847037 98.0261502,12.1049709 C98.0261502,12.1049709 99.1214714,13.5774812 99.1588505,13.5774812 C100.127309,13.2376711 102.149179,12.3598284 103.033818,11.9395966 L103.033818,11.9395974 C101.731411,14.0922943 99.8517935,15.8369218 97.6081833,16.9755829 L97.6081831,16.9755827 C98.0325988,17.4213045 98.4826687,17.8418733 98.9560964,18.2351454 L98.9560969,18.2351451 C100.776063,17.3380083 102.384243,16.0638153 103.673794,14.4972342 L107.503453,14.4972342 L107.503454,14.4972332 C107.04403,16.1579417 105.95661,17.5748082 104.471215,18.4480918 C103.839168,17.8183104 103.207121,17.188529 102.449345,16.5168378 L101.232825,17.5611874 C101.906781,18.1909688 102.496918,18.8207502 103.002103,19.3248018 L103.0021,19.3248026 C101.162284,20.0143778 99.2296563,20.4248061 97.2683716,20.542454 L97.9423283,22.0149644 C97.9423283,22.0149644 107.546494,21.7635049 109.525321,14.4134127 L109.525321,12.8151726 L104.681895,12.8151726 L104.681898,12.7732585 Z" id="路径" fill="#0084CF"></path>
                    <polygon id="路径" fill="#0084CF" points="112.727468 5.04710988 120.562356 5.04710988 120.562356 6.76881432 112.727468 6.76881432"></polygon>
                    <path d="M120.904432,18.5262433 C120.351674,17.1409509 119.467035,15.2096969 118.834988,13.8232717 L118.752301,13.6556321 L117.151796,14.3692332 L117.235615,14.5368729 C117.65698,15.4611563 118.036434,16.3423971 118.414756,17.3085905 L114.287196,18.2747838 L114.287197,18.2747824 C115.372837,16.1489164 116.260828,13.9277902 116.939981,11.6394242 L121.278223,11.6394242 L121.278223,9.91771973 L111.92665,9.91771973 L111.92665,11.6394242 L115.001931,11.6394242 L115.001931,11.6394254 C114.380619,14.0403819 113.460878,16.3540072 112.264194,18.5262431 L112.264194,18.5262432 C112.165707,18.7253039 112.021277,18.8980776 111.84283,19.0302948 L112.348014,20.2490803 C112.348014,20.2490803 117.360213,18.9045651 118.876898,18.6531056 L119.045671,19.1152473 L120.904432,18.5262433 Z" id="路径" fill="#0084CF"></path>
                    <path d="M125.069371,7.14713621 C125.11128,5.92948341 125.11128,4.7118306 125.11128,3.49304509 L125.11128,3.32540544 L123.210609,3.32540544 L123.210609,7.14713621 L120.773038,7.14713621 L120.773038,8.91075056 L123.174363,8.91075056 L123.174363,11.2622364 L123.174363,11.2622328 C123.354051,13.923144 122.642686,16.5681549 121.152493,18.7799646 L121.152493,18.7799645 C120.522348,19.6604648 119.719584,20.4034921 118.793078,20.9638107 L120.182901,22.3071932 C120.182901,22.3071932 124.940243,19.8299777 124.940243,12.0177438 L124.982152,8.9515241 L128.186562,8.9515241 C128.144652,12.1434735 128.017789,15.2946457 127.846751,18.2747802 C127.804842,19.1990636 127.425387,19.6600726 126.582658,19.6600726 L124.479234,19.6600726 C124.606096,20.2060342 124.819044,21.5494167 124.819044,21.5494167 L127.04933,21.5494167 C128.649836,21.5075068 129.534475,20.5832234 129.661337,18.7357892 C129.83011,15.8802518 129.955839,12.0528575 130.040792,7.39745931 L130.040792,7.23095237 L125.06937,7.23095237 L125.069371,7.14713621 Z" id="路径" fill="#0084CF"></path>
                    <path d="M66.6469551,29.4035642 L66.6469551,29.4035641 C66.4137038,29.2069882 66.1404285,29.0635855 65.846136,28.9833323 L65.846136,28.9833323 C65.3115439,28.8153897 64.7383126,28.8153897 64.2037205,28.9833323 L64.2037205,28.9833323 C63.9703276,29.041545 63.7442463,29.1258982 63.5297638,29.2347918 L63.5297634,29.234792 C63.3315664,29.3363111 63.1476173,29.4635139 62.9826692,29.6131139 C62.8988494,29.6969337 62.8138969,29.7388436 62.7719869,29.8226634 L62.7719869,25.2884642 L61.2972112,25.2884642 L61.2972112,36.4591544 L62.7697215,36.4591544 L62.7697215,31.2917757 L62.7697214,31.2917759 C63.0106114,30.9597828 63.310474,30.6748959 63.6543604,30.4513122 L63.6543605,30.4513122 C63.9844109,30.2518663 64.3641147,30.1497746 64.7496817,30.1568101 L64.7496816,30.1568101 C65.1142384,30.1221452 65.4736144,30.2625334 65.7181403,30.535132 L65.7181404,30.5351321 C65.9492849,30.8968443 66.0529411,31.3254213 66.0126425,31.7527849 L66.0126425,36.5021972 L67.446641,36.5021972 L67.446641,31.5874106 L67.4466409,31.5874156 C67.4554619,31.1307505 67.3841558,30.6760733 67.2359601,30.244033 L67.2359601,30.244033 C67.1149074,29.9180249 66.9120814,29.6286086 66.6469559,29.4035694 L66.6469551,29.4035642 Z" id="路径" fill="#0084CF"></path>
                    <path d="M69.047147,26.1289276 L70.3672572,26.1289276 L70.3672572,27.7249023 L69.047147,27.7249023 L69.047147,26.1289276 Z M69.047147,29.0682849 L70.3672572,29.0682849 L70.3672572,36.5010642 L69.047147,36.5010642 L69.047147,29.0682849 Z" id="形状" fill="#0084CF"></path>
                    <path d="M77.512949,29.5292939 L77.512949,29.5292939 C77.2881873,29.3121737 77.0136038,29.1534909 76.7132626,29.0671522 L76.7132628,29.0671523 C76.1361379,28.9064518 75.5280718,28.8920481 74.943985,29.0252422 L74.9439848,29.0252423 C74.7106401,29.0830929 74.4845602,29.1670648 74.2700282,29.275569 L74.2700285,29.2755688 C74.080985,29.391734 73.8983541,29.5180247 73.7229342,29.6538907 L73.722934,29.6538909 C73.6144964,29.7412207 73.5157617,29.8399553 73.428432,29.948393 L73.216617,29.109062 L72.037476,29.109062 L72.037476,36.542974 L73.4692092,36.542974 L73.4692092,31.3778607 L73.4692093,31.3778605 C73.7146244,31.0348689 74.0305345,30.7483099 74.3957582,30.5373969 L74.3957581,30.5373969 C74.7258085,30.3379511 75.1055123,30.2358594 75.4910793,30.2428949 L75.4910793,30.2428949 C75.8422249,30.2163631 76.1854076,30.3564893 76.4176281,30.6212168 L76.4176281,30.6212168 C76.6711845,30.9900523 76.7910794,31.434463 76.7574382,31.8807795 L76.7574382,36.6267937 L78.186906,36.6267937 L78.186906,31.5874101 L78.186906,31.5874121 C78.192875,31.1583141 78.1215087,30.7316486 77.9762251,30.3278494 L77.9762251,30.3278494 C77.9341561,30.0106424 77.7674387,29.7232692 77.5129507,29.5292957 L77.512949,29.5292939 Z" id="路径" fill="#0084CF"></path>
                    <path d="M81.7254614,36.584884 L81.7254615,36.584884 C81.3800077,36.5988003 81.0353666,36.5417459 80.7128274,36.4172443 L80.7128275,36.4172444 C80.4174419,36.3000212 80.1463103,36.1291237 79.9131411,35.9131927 L79.913141,35.9131927 C79.6980483,35.6954919 79.5265731,35.4386635 79.4079567,35.1565489 L79.4079564,35.156548 C79.3046151,34.8305371 79.2481707,34.4914859 79.2403168,34.1495775 L79.2403168,34.1495656 C79.2408912,33.802662 79.3125971,33.4595614 79.4510033,33.1414637 L79.4510032,33.1414639 C79.5988319,32.8549785 79.7985482,32.5984191 80.0400074,32.3848201 L80.0400071,32.3848203 C80.3069379,32.1823388 80.6059764,32.0261196 80.924646,31.9226786 L80.924646,31.9226786 C81.289132,31.7994387 81.6727889,31.7426571 82.0573463,31.755039 L82.0573466,31.755039 C82.4034446,31.7602501 82.7488616,31.7874899 83.0914977,31.8365928 L83.1096211,31.8365928 L83.1096212,31.8365929 C83.3537833,31.8674834 83.5940729,31.9236649 83.8266191,32.0042325 L83.8266191,31.7097304 L83.8266191,31.7097302 C83.8375053,31.5405062 83.822997,31.3706069 83.7835764,31.2056786 L83.7835765,31.205679 C83.7487478,31.089763 83.7063699,30.9762506 83.6567146,30.8658703 L83.6567146,30.8658703 C83.5303371,30.639823 83.3426466,30.454097 83.1152839,30.3301031 L83.1152839,30.3301031 C82.7702351,30.1798872 82.3960914,30.1083091 82.0199627,30.1205536 L82.0199627,30.1205536 C81.6805632,30.1030436 81.3403496,30.131236 81.0084613,30.2043732 L80.8374236,30.2530795 L80.8374234,30.2530796 C80.5805255,30.318552 80.3281571,30.4006577 80.0819123,30.4988755 L79.8723627,30.5792972 L79.8723627,29.3197345 L79.9561825,29.2778246 C80.003756,29.2619668 80.0569929,29.2404455 80.1136279,29.2166588 L80.1136278,29.2166588 C80.2128028,29.171812 80.314995,29.1339628 80.4194569,29.1033887 C80.5044094,29.0841328 80.5995562,29.0671423 80.6935704,29.0467538 C80.7875845,29.0263653 80.883864,29.0048439 80.9676838,28.9844551 L80.9676838,28.9844551 C81.0654358,28.9624883 81.1645981,28.947349 81.2644512,28.9391471 C81.3595981,28.9289528 81.458143,28.9187585 81.5566879,28.8995026 L81.5566879,28.8995026 C81.7643629,28.8650106 81.9749205,28.8509733 82.1853366,28.8575927 L82.1853368,28.8575927 C82.8296111,28.8398327 83.4680109,28.9843393 84.0418326,29.2778245 L84.0418326,29.2778245 C84.5031021,29.5165779 84.8731992,29.9002065 85.0952439,30.3697476 L85.0952439,30.3697476 C85.2042437,30.5296919 85.2354444,30.7302082 85.1801964,30.9157091 L85.1801964,30.915709 C85.2161449,31.1376913 85.2301824,31.3626711 85.2221063,31.5874002 L85.2221063,36.4172343 L83.9580127,36.4172343 L83.8730602,35.7863202 L83.8730602,35.7863202 C83.8346804,35.8088982 83.800246,35.8375935 83.7711172,35.8712727 L83.7711172,35.8712727 C83.7408898,35.9048559 83.7052912,35.9331817 83.6657761,35.9550925 L83.6657761,35.9550925 C83.49966,36.092641 83.3156089,36.2069583 83.1186819,36.2949026 L83.1186819,36.2949026 C82.9199156,36.3956138 82.7072908,36.4662348 82.4877678,36.5044521 L82.4877681,36.5044521 C82.236276,36.5519474 81.9813279,36.5788439 81.7254608,36.584874 L81.7254614,36.584884 Z M82.3144655,33.1414751 L82.3144655,33.1414751 C81.9263825,33.1092577 81.5391703,33.2129679 81.2191443,33.4348445 L81.2191442,33.4348445 C80.9559287,33.6306105 80.8124496,33.9484066 80.8396896,34.2753081 L80.8396896,34.2753081 C80.8435069,34.4465469 80.8721218,34.6163288 80.9246421,34.7793597 L80.9246421,34.7793596 C80.9733226,34.9255487 81.0605947,35.0558701 81.1772343,35.1565488 L81.1772343,35.1565488 C81.2817998,35.2602883 81.4131956,35.3328494 81.5566889,35.3660984 L81.5566887,35.3660983 C81.7232141,35.4062013 81.8939871,35.425979 82.0652712,35.4249989 L82.0652711,35.4249989 C82.2791277,35.4287552 82.4919607,35.3946252 82.6939197,35.3241886 C82.8955404,35.2437668 83.0597819,35.1622124 83.2194927,35.0829234 L83.2421467,35.0715964 L83.2421469,35.0715963 C83.3436506,35.0173772 83.4393019,34.9528507 83.5275873,34.8790373 C83.5751608,34.8416582 83.6193361,34.8076772 83.6635114,34.778227 L83.6635114,34.778227 C83.7409534,34.7330152 83.8115199,34.6769435 83.8730609,34.61172 L83.8730609,33.3510246 C83.7042886,33.3091147 83.4890755,33.2660721 83.2840568,33.2241622 L83.2840574,33.2241623 C82.9631889,33.1739879 82.6391998,33.1463579 82.3144688,33.1414752 L82.3144655,33.1414751 Z" id="形状" fill="#0084CF"></path>
                    <path d="M58.5583424,33.2672048 L58.5583424,33.2672049 C57.8392646,34.4917445 56.5248055,35.2431722 55.1047392,35.2415015 L55.104739,35.2415015 C52.9130489,35.2415014 51.1363236,33.4647761 51.1363236,31.273086 C51.1363237,29.0813959 52.9130489,27.3046706 55.104739,27.3046706 L55.1047392,27.3046706 C56.499317,27.3155171 57.7894088,28.0457978 58.5164325,29.2359246 L58.5583426,29.3163463 L60.1169381,29.3163463 L60.0331185,29.1067967 L60.0331185,29.1067967 C58.8385869,26.3764368 55.6568318,25.131401 52.9264719,26.3259326 C50.196112,27.5204641 48.9510762,30.7022192 50.1456078,33.4325791 C51.3401393,36.162939 54.5218944,37.4079748 57.2522543,36.2134433 C58.4960144,35.6692983 59.4889692,34.6763407 60.0331185,33.4325791 L60.1169381,33.2230296 L58.5583426,33.2230296 L58.5583424,33.2672048 Z" id="路径" fill="#0084CF"></path>
                    <path d="M95.7528217,31.9657322 C95.5421395,32.4697838 95.2895473,33.1414751 94.9520026,34.0238486 C94.6575005,33.2309584 94.4049084,32.5513383 94.1511835,31.9657322 L91.7509916,26.1708375 L89.7291216,26.1708375 L89.7291216,36.5441068 L91.2458073,36.5441068 L91.2458073,31.5466331 C91.2458073,30.5804398 91.2038974,29.5304266 91.1619875,28.3965936 C91.4145796,29.1101948 91.7090817,29.7818861 91.9628066,30.45471 L94.5306381,36.5441068 L95.2884146,36.5441068 L97.8585116,30.45471 C98.1111037,29.8668386 98.4056058,29.1532374 98.6593307,28.3965936 C98.6174208,29.5292939 98.5755108,30.5804398 98.5755108,31.5466331 L98.5755108,36.5441068 L100.091064,36.5441068 L100.091064,26.1708375 L98.0691938,26.1708375 L95.7528217,31.9657322 Z" id="路径" fill="#0084CF"></path>
                    <path d="M113.444468,36.6698365 L113.444468,36.6698365 C113.158696,36.6724837 112.874293,36.6300528 112.601739,36.5441068 L112.601738,36.5441067 C112.377046,36.4798781 112.163784,36.3808917 111.969692,36.2507374 L111.969692,36.2507374 C111.803837,36.1731866 111.659254,36.0565869 111.548327,35.9109273 L111.464507,35.8293729 L111.249294,36.5010641 L110.116594,36.5010641 L110.116594,25.3303739 L111.54946,25.3303739 L111.54946,29.5723365 L111.54946,29.5723367 C111.761875,29.3793996 112.004959,29.2232116 112.268724,29.110195 L112.268724,29.1101951 C112.651557,28.9339908 113.06959,28.8475955 113.490908,28.8576029 L113.490908,28.8576029 C113.677399,28.8635215 113.863059,28.8851189 114.045928,28.9221664 L114.159198,28.942555 L114.159198,28.942555 C114.409551,28.9882406 114.651137,29.0731018 114.875065,29.1940145 L114.875065,29.1940146 C115.109347,29.333523 115.334459,29.4878852 115.549019,29.6561549 L115.549019,29.6561548 C115.777705,29.8656619 115.976302,30.1058057 116.139156,30.369756 C116.238833,30.5441919 116.322653,30.7310874 116.411004,30.9281773 C116.471037,31.0618359 116.533335,31.1988926 116.601297,31.3359494 L116.601297,31.3359492 C116.727763,31.7577313 116.784391,32.1973592 116.768937,32.6374218 L116.768937,32.6374344 C116.767861,33.237454 116.668371,33.8332346 116.474431,34.4010487 L116.474431,34.4010483 C116.291321,34.8592199 116.035015,35.2846126 115.715522,35.6606111 L115.715522,35.660611 C115.134476,36.3037681 114.307813,36.6701669 113.44106,36.6687142 L113.444468,36.6698365 Z M113.217927,30.1432149 L113.217927,30.1432149 C112.886322,30.1432149 112.559313,30.2207736 112.263061,30.3697575 L112.263061,30.3697575 C111.980648,30.4879345 111.723437,30.6590237 111.505285,30.8738091 L111.505285,34.5279003 L111.756744,34.7793597 L111.756744,34.7793598 C111.875198,34.8871184 112.002088,34.985221 112.136199,35.0727292 L112.136199,35.0727292 C112.241232,35.1465679 112.35547,35.2063528 112.476009,35.2505631 C112.530378,35.2732171 112.589279,35.2970038 112.643648,35.3241886 L112.643648,35.3241886 C112.836073,35.3768886 113.034309,35.4054256 113.233785,35.4091411 L113.233785,35.4091411 C113.525454,35.4206033 113.815718,35.3631713 114.081045,35.2415015 L114.081045,35.2415014 C114.306612,35.0942943 114.505738,34.9101031 114.670049,34.6966726 L114.670049,34.6966724 C114.854406,34.4464221 114.983724,34.1599948 115.049504,33.8562088 L115.049504,33.8562088 C115.138286,33.4991519 115.180921,33.1321867 115.176366,32.7642857 L115.176366,32.7642833 C115.19412,32.2961864 115.137538,31.8282339 115.008725,31.3778581 L115.008725,31.3778582 C114.914813,31.0933182 114.755793,30.8346208 114.544318,30.6223471 L114.544318,30.6223471 C114.353802,30.4658447 114.1412,30.3383593 113.913404,30.2440252 L113.913404,30.2440252 C113.687789,30.1782115 113.454076,30.1442793 113.219059,30.1432149 L113.217927,30.1432149 Z" id="形状" fill="#0084CF"></path>
                    <path d="M117.82462,29.0682849 L119.299395,29.0682849 L119.299395,36.5010642 L117.82462,36.5010642 L117.82462,29.0682849 Z M117.82462,26.1289276 L119.299395,26.1289276 L119.299395,27.7249023 L117.82462,27.7249023 L117.82462,26.1289276 Z M120.941811,25.3303739 L122.416586,25.3303739 L122.416586,36.5010642 L120.941811,36.5010642 L120.941811,25.3303739 Z" id="形状" fill="#0084CF"></path>
                    <path d="M127.301923,36.7117867 L127.301923,36.7117867 C126.803968,36.7074638 126.308794,36.6369967 125.829412,36.5021969 L125.829412,36.5021969 C125.376826,36.3719063 124.958938,36.1424555 124.606096,35.8305056 L124.606096,35.8305054 C124.250691,35.506328 123.976388,35.1032128 123.805277,34.6536298 L123.805277,34.6536296 C123.591664,34.0909593 123.491571,33.4915626 123.510775,32.8900152 L123.510775,32.8900029 C123.511851,32.2899832 123.611341,31.6942027 123.805281,31.1263885 L123.805281,31.1263891 C123.989175,30.6686068 124.245408,30.2433359 124.56419,29.8668264 L124.56419,29.8668264 C124.873202,29.5404997 125.247598,29.2830539 125.662909,29.1113153 L125.662909,29.1113154 C126.060822,28.9391761 126.490055,28.8512474 126.923604,28.8530323 L126.923604,28.8530323 C127.326499,28.8521554 127.726148,28.925098 128.102745,29.0682728 L128.102745,29.0682728 C128.471809,29.2173206 128.802749,29.4472361 129.071204,29.7410967 L129.071204,29.7410967 C129.339769,30.0990243 129.552845,30.4953915 129.703251,30.9168396 L129.703251,30.9168396 C129.890634,31.4537962 129.948084,32.0275202 129.870891,32.5909706 L129.870891,33.1788421 L124.943644,33.1788421 L124.943644,33.1788437 C124.925849,33.5090669 124.983166,33.8390267 125.111284,34.1439044 L125.111284,34.1439045 C125.249209,34.4127636 125.434547,34.6545088 125.658378,34.8575057 L125.658378,34.8575055 C125.891032,35.054332 126.163998,35.1977758 126.458064,35.2777373 L126.458064,35.2777373 C126.787761,35.3665006 127.12816,35.4091933 127.469566,35.4045999 L127.469566,35.4045999 C127.808364,35.4011986 128.146448,35.372804 128.481067,35.3196474 L128.481068,35.3196473 C128.799359,35.2755997 129.110726,35.1910968 129.407615,35.0681879 L129.576387,34.9843681 L129.576387,36.2495943 L129.491435,36.2915043 L129.491435,36.2915044 C129.180877,36.4259548 128.855939,36.5243862 128.522976,36.5848738 L128.522976,36.5848738 C128.121703,36.670928 127.712319,36.7134613 127.301925,36.7117867 L127.301923,36.7117867 Z M126.848843,30.1704023 L126.848843,30.1704023 C126.609849,30.1690634 126.373774,30.2229457 126.159028,30.3278476 L126.159028,30.3278476 C125.952116,30.414131 125.765704,30.543038 125.611934,30.7061695 L125.611934,30.7061694 C125.4476,30.8749319 125.318596,31.0747912 125.232479,31.2940409 L125.232479,31.2940409 C125.151641,31.4816119 125.095297,31.6788136 125.06484,31.8807797 L128.349671,31.8807797 L128.349671,31.8807797 C128.345821,31.7158228 128.324174,31.5517625 128.285106,31.3914528 L128.268116,31.2940406 L128.268116,31.2940407 C128.214256,31.0788546 128.113712,30.8781543 127.973614,30.7061693 L127.973614,30.7061694 C127.859573,30.5369638 127.697976,30.4053213 127.509207,30.3278475 L127.509207,30.3278475 C127.307296,30.2210993 127.08174,30.1669503 126.853373,30.1704022 L126.848843,30.1704023 Z M105.146305,36.6732346 L105.146305,36.6732346 C102.988072,36.6732346 101.238489,34.9236516 101.238489,32.7654186 C101.238489,30.6071856 102.988072,28.8576026 105.146305,28.8576026 L105.146305,28.8576026 C107.293225,28.8861133 109.028451,30.6163322 109.063183,32.7631532 L109.063183,32.7630643 C109.060107,34.9239025 107.307228,36.6738112 105.14639,36.6732346 L105.146305,36.6732346 Z M105.146305,30.1636061 L105.146305,30.1636061 C103.696845,30.1636061 102.521839,31.3386198 102.521839,32.7880726 C102.521839,34.2375325 103.696852,35.4125392 105.146305,35.4125392 L105.146305,35.4125392 C106.59728,35.3825267 107.766708,34.2141041 107.797956,32.7631532 L107.797956,32.7631512 C107.782392,31.3128559 106.596644,30.1483834 105.146305,30.1590733 L105.146305,30.1636061 Z" id="形状" fill="#0084CF"></path>
                </g>
            </g>
        </g>
    </g>
</svg>