<?xml version="1.0" encoding="UTF-8"?>
<svg width="169px" height="40px" viewBox="0 0 169 40" version="1.1" xmlns="http://www.w3.org/2000/svg" xmlns:xlink="http://www.w3.org/1999/xlink">
    <title>招商银行</title>
    <g id="案例---优化" stroke="none" stroke-width="1" fill="none" fill-rule="evenodd">
        <g id="独角兽" transform="translate(-837.000000, -1636.000000)" fill-rule="nonzero">
            <g id="更多logo" transform="translate(370.000000, 1596.000000)">
                <g id="招商银行" transform="translate(467.000000, 40.000000)">
                    <path d="M53.2057416,38.8516746 C52.6315789,39.4258373 51.8660287,40 50.7177033,40 C48.6124402,40 47.4641148,38.8516746 47.4641148,37.3205742 C47.4641148,35.7894737 48.8038278,34.6411483 50.7177033,34.6411483 C51.4832536,34.6411483 52.2488038,35.0239234 52.4401914,35.0239234 C52.6315789,35.0239234 52.8229665,34.8325359 52.8229665,34.6411483 L53.0143541,34.6411483 L53.0143541,36.3636364 L52.8229665,36.3636364 C52.4401914,35.7894737 51.6746411,34.8325359 50.7177033,34.8325359 C49.3779904,34.8325359 48.9952153,35.9808612 48.9952153,37.1291866 C48.9952153,37.5119617 48.9952153,38.277512 49.3779904,38.8516746 C49.7607656,39.4258373 50.5263158,39.4258373 50.7177033,39.4258373 C51.4832536,39.4258373 52.0574163,39.2344498 52.8229665,38.4688995 L53.2057416,38.8516746 L53.2057416,38.8516746 Z M60.4784689,39.8086124 L57.4162679,39.8086124 L57.4162679,39.6172249 C57.9904306,39.6172249 58.1818182,39.6172249 58.1818182,39.0430622 L58.1818182,37.3205742 L55.8851675,37.3205742 L55.8851675,39.0430622 C55.8851675,39.4258373 56.2679426,39.6172249 56.6507177,39.6172249 L56.6507177,39.8086124 L53.5885167,39.8086124 L53.5885167,39.6172249 C54.1626794,39.6172249 54.354067,39.6172249 54.354067,39.0430622 L54.354067,35.4066986 C54.354067,34.8325359 53.9712919,34.8325359 53.5885167,34.8325359 L53.5885167,34.6411483 L56.6507177,34.6411483 L56.6507177,34.8325359 C56.2679426,34.8325359 55.8851675,34.8325359 55.8851675,35.4066986 L55.8851675,36.937799 L58.1818182,36.937799 L58.1818182,35.4066986 C58.1818182,34.8325359 57.7990431,34.8325359 57.4162679,34.8325359 L57.4162679,34.6411483 L60.4784689,34.6411483 L60.4784689,34.8325359 C60.0956938,34.8325359 59.7129187,34.8325359 59.7129187,35.4066986 L59.7129187,39.0430622 C59.7129187,39.4258373 60.0956938,39.4258373 60.4784689,39.6172249 L60.4784689,39.8086124 Z M64.1148325,39.8086124 L60.861244,39.8086124 L60.861244,39.6172249 C61.4354067,39.6172249 61.6267943,39.6172249 61.6267943,39.0430622 L61.6267943,35.4066986 C61.6267943,34.8325359 61.2440191,34.8325359 60.861244,34.8325359 L60.861244,34.6411483 L64.1148325,34.6411483 L64.1148325,34.8325359 C63.7320574,34.8325359 63.1578947,34.8325359 63.1578947,35.4066986 L63.1578947,39.0430622 C63.1578947,39.4258373 63.5406699,39.6172249 64.1148325,39.6172249 L64.1148325,39.8086124 Z M64.4976077,39.6172249 C65.0717703,39.6172249 65.2631579,39.4258373 65.2631579,39.0430622 L65.2631579,35.4066986 C64.6889952,34.8325359 64.6889952,34.8325359 64.4976077,34.8325359 L64.4976077,34.6411483 L66.4114833,34.6411483 L69.6650718,37.8947368 L69.6650718,35.5980861 C69.6650718,35.215311 69.4736842,34.8325359 68.8995215,34.8325359 L68.8995215,34.6411483 L70.8133971,34.6411483 L70.8133971,34.8325359 C70.2392344,34.8325359 70.0478469,35.0239234 70.0478469,35.4066986 L70.0478469,39.8086124 L69.8564593,39.8086124 L65.8373206,35.7894737 L65.8373206,38.8516746 C65.8373206,39.4258373 66.0287081,39.6172249 66.7942584,39.6172249 L66.7942584,39.8086124 L64.6889952,39.8086124 L64.6889952,39.6172249 L64.4976077,39.6172249 Z M72.5358852,38.0861244 L73.492823,36.3636364 L74.4497608,38.0861244 L72.5358852,38.0861244 Z M77.1291866,39.6172249 C76.7464115,39.6172249 76.5550239,39.4258373 76.1722488,38.6602871 L74.0669856,34.8325359 L73.8755981,34.8325359 L71.7703349,38.8516746 C71.5789474,39.4258373 71.3875598,39.6172249 70.8133971,39.8086124 L70.8133971,40 L72.7272727,40 L72.7272727,39.8086124 C72.3444976,39.8086124 71.9617225,39.8086124 71.9617225,39.4258373 C71.9617225,39.2344498 72.15311,39.0430622 72.3444976,38.4688995 L74.4497608,38.4688995 C74.6411483,38.6602871 74.8325359,39.2344498 74.8325359,39.4258373 C74.8325359,39.6172249 74.6411483,39.6172249 74.0669856,39.6172249 L74.0669856,39.8086124 L77.1291866,39.8086124 L77.1291866,39.6172249 L77.1291866,39.6172249 Z M88.2296651,39.8086124 L85.1674641,39.8086124 L85.1674641,39.6172249 C85.7416268,39.6172249 85.9330144,39.6172249 85.9330144,39.0430622 L85.9330144,35.215311 L83.6363636,39.6172249 L83.4449761,39.6172249 L81.1483254,35.4066986 L81.1483254,38.8516746 C81.1483254,39.4258373 81.3397129,39.6172249 82.1052632,39.6172249 L82.1052632,39.8086124 L80,39.8086124 L80,39.6172249 C80.7655502,39.6172249 80.7655502,39.4258373 80.7655502,39.0430622 L80.7655502,35.4066986 C80.7655502,35.0239234 80.5741627,34.8325359 80,34.8325359 L80,34.6411483 L82.2966507,34.6411483 L84.2105263,38.0861244 L86.1244019,34.6411483 L88.4210526,34.6411483 L88.4210526,34.8325359 C87.84689,34.8325359 87.6555024,34.8325359 87.6555024,35.5980861 L87.6555024,38.8516746 C87.6555024,39.4258373 87.84689,39.4258373 88.4210526,39.6172249 L88.4210526,39.8086124 L88.2296651,39.8086124 Z M88.6124402,34.8325359 L93.9712919,34.8325359 L93.9712919,36.3636364 L93.7799043,36.3636364 C93.5885167,35.215311 92.8229665,35.215311 91.6746411,35.215311 C91.1004785,35.215311 90.9090909,35.215311 90.9090909,35.5980861 L90.9090909,37.3205742 C91.8660287,37.3205742 92.2488038,37.1291866 92.4401914,36.1722488 L92.6315789,36.1722488 L92.6315789,38.6602871 L92.4401914,38.6602871 C92.2488038,37.5119617 91.8660287,37.3205742 90.9090909,37.3205742 L90.9090909,39.0430622 C90.9090909,39.4258373 91.1004785,39.4258373 91.6746411,39.4258373 C92.6315789,39.4258373 93.5885167,39.2344498 94.1626794,38.0861244 L94.354067,38.0861244 L93.9712919,39.6172249 L88.6124402,39.6172249 L88.6124402,39.4258373 C89.1866029,39.4258373 89.3779904,39.4258373 89.3779904,38.8516746 L89.3779904,35.4066986 C89.3779904,35.0239234 88.9952153,35.0239234 88.6124402,34.8325359 L88.6124402,34.8325359 Z M97.2248804,35.215311 C97.2248804,35.0239234 97.2248804,34.8325359 97.7990431,34.8325359 C98.5645933,34.8325359 98.9473684,35.215311 98.9473684,35.9808612 C98.9473684,36.937799 98.5645933,37.1291866 97.2248804,37.1291866 L97.2248804,35.215311 Z M101.244019,39.6172249 C101.052632,39.6172249 101.052632,39.6172249 100.861244,39.4258373 L98.9473684,37.3205742 C99.5215311,37.1291866 100.478469,36.937799 100.478469,35.9808612 C100.478469,34.6411483 98.5645933,34.6411483 97.7990431,34.6411483 L94.9282297,34.6411483 L94.9282297,34.8325359 C95.5023923,34.8325359 95.6937799,34.8325359 95.6937799,35.5980861 L95.6937799,38.8516746 C95.6937799,39.4258373 95.5023923,39.4258373 94.9282297,39.6172249 L94.9282297,39.8086124 L97.9904306,39.8086124 L97.9904306,39.6172249 C97.4162679,39.6172249 97.2248804,39.6172249 97.2248804,38.8516746 L97.2248804,37.3205742 L97.4162679,37.3205742 L99.3301435,39.6172249 L101.244019,39.6172249 L101.244019,39.6172249 Z M107.559809,38.8516746 C106.794258,39.4258373 106.220096,40 105.07177,40 C102.966507,40 101.818182,38.8516746 101.818182,37.3205742 C101.818182,35.7894737 103.157895,34.6411483 105.07177,34.6411483 C105.837321,34.6411483 106.602871,35.0239234 106.794258,35.0239234 C106.985646,35.0239234 107.177033,34.8325359 107.177033,34.6411483 L107.368421,34.6411483 L107.368421,36.3636364 L107.177033,36.3636364 C106.794258,35.7894737 106.028708,34.8325359 105.07177,34.8325359 C103.732057,34.8325359 103.349282,35.9808612 103.349282,37.1291866 C103.349282,37.5119617 103.349282,38.277512 103.732057,38.8516746 C104.114833,39.4258373 104.880383,39.4258373 105.07177,39.4258373 C105.837321,39.4258373 106.411483,39.2344498 107.177033,38.4688995 L107.559809,38.8516746 L107.559809,38.8516746 Z M115.023923,39.8086124 L111.961722,39.8086124 L111.961722,39.6172249 C112.535885,39.6172249 112.727273,39.6172249 112.727273,39.0430622 L112.727273,37.3205742 L110.430622,37.3205742 L110.430622,39.0430622 C110.430622,39.4258373 110.813397,39.6172249 111.196172,39.6172249 L111.196172,39.8086124 L108.133971,39.8086124 L108.133971,39.6172249 C108.708134,39.6172249 108.899522,39.6172249 108.899522,39.0430622 L108.899522,35.4066986 C108.899522,34.8325359 108.516746,34.8325359 108.133971,34.8325359 L108.133971,34.6411483 L111.196172,34.6411483 L111.196172,34.8325359 C110.813397,34.8325359 110.430622,34.8325359 110.430622,35.4066986 L110.430622,36.937799 L112.727273,36.937799 L112.727273,35.4066986 C112.727273,34.8325359 112.344498,34.8325359 111.961722,34.8325359 L111.961722,34.6411483 L115.023923,34.6411483 L115.023923,34.8325359 C114.641148,34.8325359 114.258373,34.8325359 114.258373,35.4066986 L114.258373,39.0430622 C114.258373,39.4258373 114.641148,39.4258373 115.023923,39.6172249 L115.023923,39.8086124 Z M116.937799,38.0861244 L117.894737,36.3636364 L118.851675,38.0861244 L116.937799,38.0861244 Z M121.5311,39.6172249 C121.148325,39.6172249 120.956938,39.4258373 120.574163,38.6602871 L118.4689,34.8325359 L118.277512,34.8325359 L116.172249,38.8516746 C115.980861,39.4258373 115.789474,39.6172249 115.215311,39.8086124 L115.215311,40 L117.129187,40 L117.129187,39.8086124 C116.746411,39.8086124 116.363636,39.8086124 116.363636,39.4258373 C116.363636,39.2344498 116.555024,39.0430622 116.746411,38.4688995 L118.851675,38.4688995 C119.043062,38.6602871 119.23445,39.2344498 119.23445,39.4258373 C119.23445,39.6172249 119.043062,39.6172249 118.4689,39.6172249 L118.4689,39.8086124 L121.5311,39.8086124 L121.5311,39.6172249 L121.5311,39.6172249 Z M121.913876,39.6172249 C122.488038,39.6172249 122.679426,39.4258373 122.679426,39.0430622 L122.679426,35.4066986 C122.105263,34.8325359 122.105263,34.8325359 121.913876,34.8325359 L121.913876,34.6411483 L123.827751,34.6411483 L127.08134,37.8947368 L127.08134,35.5980861 C127.08134,35.215311 126.889952,34.8325359 126.124402,34.8325359 L126.124402,34.6411483 L128.038278,34.6411483 L128.038278,34.8325359 C127.272727,34.8325359 127.272727,35.0239234 127.272727,35.4066986 L127.272727,39.8086124 L127.08134,39.8086124 L123.062201,35.7894737 L123.062201,38.8516746 C123.062201,39.4258373 123.253589,39.6172249 124.019139,39.6172249 L124.019139,39.8086124 L121.913876,39.8086124 L121.913876,39.6172249 L121.913876,39.6172249 Z M133.205742,39.8086124 L129.952153,39.8086124 L129.952153,39.6172249 C130.717703,39.6172249 130.909091,39.6172249 130.909091,38.8516746 L130.909091,35.0239234 C130.334928,35.0239234 129.37799,35.0239234 129.186603,36.3636364 L128.995215,36.3636364 L128.995215,34.8325359 L134.545455,34.8325359 L134.545455,36.3636364 L134.354067,36.3636364 C134.162679,35.215311 133.205742,35.215311 132.631579,35.0239234 L132.631579,38.8516746 C132.631579,39.4258373 132.822967,39.4258373 133.588517,39.6172249 L133.588517,39.8086124 L133.205742,39.8086124 Z M138.947368,36.1722488 C138.755981,35.5980861 138.181818,34.8325359 137.22488,34.8325359 C136.842105,34.8325359 136.267943,35.0239234 136.267943,35.5980861 C136.267943,35.9808612 136.45933,36.1722488 137.22488,36.5550239 L138.564593,37.1291866 C138.947368,37.3205742 139.521531,37.7033493 139.521531,38.4688995 C139.521531,39.0430622 138.947368,40 137.22488,40 C136.267943,40 135.885167,39.8086124 135.69378,39.8086124 C135.502392,39.8086124 135.502392,40 135.502392,40 L135.311005,40 L135.311005,38.0861244 L135.502392,38.0861244 C135.69378,38.8516746 136.267943,39.6172249 137.416268,39.6172249 C138.564593,39.6172249 138.564593,38.8516746 138.564593,38.8516746 C138.564593,38.277512 138.181818,38.0861244 137.607656,37.8947368 L137.033493,37.7033493 C135.502392,37.1291866 135.502392,36.3636364 135.502392,36.1722488 C135.502392,35.7894737 135.69378,34.6411483 137.607656,34.6411483 C138.373206,34.6411483 138.755981,34.8325359 139.138756,34.8325359 C139.330144,34.8325359 139.330144,34.6411483 139.521531,34.6411483 L139.712919,34.6411483 L139.712919,36.1722488 L138.947368,36.1722488 L138.947368,36.1722488 Z M144.497608,37.1291866 L144.688995,37.1291866 C145.263158,37.1291866 146.028708,37.3205742 146.028708,38.277512 C146.028708,38.6602871 145.837321,39.4258373 144.880383,39.4258373 C144.497608,39.4258373 144.30622,39.2344498 144.30622,39.0430622 L144.30622,37.1291866 L144.497608,37.1291866 Z M144.497608,35.4066986 C144.497608,35.215311 144.497608,35.0239234 145.07177,35.0239234 C145.837321,35.0239234 146.028708,35.4066986 146.028708,35.9808612 C146.028708,36.7464115 145.837321,37.1291866 144.688995,37.1291866 L144.688995,35.4066986 L144.497608,35.4066986 Z M142.200957,39.8086124 L145.263158,39.8086124 C147.177033,39.8086124 147.942584,39.0430622 147.942584,38.4688995 C147.942584,37.7033493 146.985646,37.3205742 146.220096,37.1291866 C146.602871,37.1291866 147.559809,36.937799 147.559809,35.9808612 C147.559809,34.8325359 145.645933,34.8325359 145.07177,34.8325359 L142.200957,34.8325359 L142.200957,35.0239234 C142.583732,35.0239234 142.966507,35.0239234 142.966507,35.5980861 L142.966507,39.2344498 C142.966507,39.6172249 142.583732,39.8086124 142.200957,39.8086124 L142.200957,39.8086124 Z M149.665072,38.0861244 L150.62201,36.3636364 L151.578947,38.0861244 L149.665072,38.0861244 L149.665072,38.0861244 Z M154.258373,39.6172249 C153.875598,39.6172249 153.684211,39.4258373 153.301435,38.6602871 L151.196172,34.8325359 L151.004785,34.8325359 L148.899522,38.8516746 C148.708134,39.4258373 148.516746,39.6172249 147.942584,39.8086124 L147.942584,40 L149.856459,40 L149.856459,39.8086124 C149.473684,39.8086124 149.090909,39.8086124 149.090909,39.4258373 C149.090909,39.2344498 149.282297,39.0430622 149.473684,38.4688995 L151.578947,38.4688995 C151.770335,38.6602871 151.961722,39.2344498 151.961722,39.4258373 C151.961722,39.6172249 151.770335,39.6172249 151.196172,39.6172249 L151.196172,39.8086124 L154.258373,39.8086124 L154.258373,39.6172249 L154.258373,39.6172249 Z M154.832536,39.6172249 C155.406699,39.6172249 155.598086,39.4258373 155.598086,39.0430622 L155.598086,35.4066986 C155.023923,34.8325359 155.023923,34.8325359 154.832536,34.8325359 L154.832536,34.6411483 L156.746411,34.6411483 L160,37.8947368 L160,35.5980861 C160,35.215311 159.808612,34.8325359 159.23445,34.8325359 L159.23445,34.6411483 L161.148325,34.6411483 L161.148325,34.8325359 C160.574163,34.8325359 160.382775,35.0239234 160.382775,35.4066986 L160.382775,39.8086124 L160.191388,39.8086124 L156.172249,35.7894737 L156.172249,38.8516746 C156.172249,39.4258373 156.363636,39.6172249 157.129187,39.6172249 L157.129187,39.8086124 L155.023923,39.8086124 L155.023923,39.6172249 L154.832536,39.6172249 Z M168.421053,39.8086124 L165.358852,39.8086124 L165.358852,39.6172249 C165.933014,39.6172249 166.124402,39.6172249 166.124402,39.4258373 C166.124402,39.2344498 166.124402,39.2344498 165.933014,39.0430622 L164.210526,37.3205742 L164.019139,37.5119617 L164.019139,39.0430622 C164.019139,39.4258373 164.401914,39.4258373 164.784689,39.6172249 L164.784689,39.8086124 L161.722488,39.8086124 L161.722488,39.6172249 C162.296651,39.6172249 162.488038,39.6172249 162.488038,39.0430622 L162.488038,35.4066986 C162.488038,34.8325359 162.105263,34.8325359 161.722488,34.8325359 L161.722488,34.6411483 L164.784689,34.6411483 L164.784689,34.8325359 C164.210526,34.8325359 164.019139,34.8325359 164.019139,35.5980861 L164.019139,37.1291866 L165.933014,35.5980861 C166.124402,35.4066986 166.315789,35.4066986 166.315789,35.215311 C166.315789,35.0239234 166.124402,35.0239234 165.550239,35.0239234 L165.550239,34.8325359 L168.229665,34.8325359 L168.229665,35.0239234 C167.272727,35.0239234 166.889952,35.4066986 165.358852,36.7464115 L168.229665,39.6172249 C168.421053,39.8086124 168.421053,39.8086124 168.61244,39.8086124 L168.421053,39.8086124 Z" id="形状" fill="#231815"></path>
                    <path d="M55.8851675,2.67942584 C55.8851675,4.40191388 55.6937799,6.69856459 56.076555,8.22966507 L56.8421053,8.22966507 L56.8421053,8.42105263 L57.0334928,8.42105263 L57.0334928,8.22966507 L57.7990431,8.22966507 C57.9904306,7.84688995 58.1818182,7.46411483 58.1818182,6.69856459 L57.9904306,6.69856459 L57.9904306,6.12440191 L57.7990431,6.12440191 L57.7990431,5.55023923 L57.6076555,5.55023923 L57.6076555,4.97607656 L57.4162679,4.97607656 C57.4162679,4.784689 57.6076555,4.40191388 57.6076555,4.21052632 C58.9473684,4.40191388 60.0956938,4.59330144 61.4354067,4.784689 L63.1578947,4.784689 C63.5406699,4.97607656 64.3062201,5.35885167 65.0717703,5.16746411 L65.0717703,4.97607656 L65.8373206,4.97607656 L65.8373206,4.784689 L66.6028708,4.784689 L66.6028708,4.59330144 L67.1770335,4.59330144 L67.1770335,4.40191388 L71.0047847,4.40191388 C71.1961722,4.97607656 71.3875598,4.784689 71.3875598,5.55023923 C71.0047847,5.93301435 71.1961722,6.31578947 71.0047847,6.88995215 L70.8133971,6.88995215 L70.8133971,7.46411483 L70.6220096,7.46411483 L70.6220096,8.03827751 L70.430622,8.03827751 L70.430622,8.61244019 L70.2392344,8.61244019 L70.2392344,9.18660287 L70.0478469,9.18660287 L70.0478469,9.76076555 L69.8564593,9.76076555 C69.8564593,10.1435407 69.6650718,10.3349282 69.6650718,10.7177033 L69.4736842,10.7177033 C69.4736842,11.291866 69.2822967,11.6746411 69.2822967,12.2488038 L69.0909091,12.2488038 L69.0909091,12.8229665 L68.8995215,12.8229665 L68.8995215,13.2057416 L68.708134,13.2057416 C68.708134,13.3971292 68.5167464,13.5885167 68.5167464,13.9712919 L68.3253589,13.9712919 L68.3253589,14.5454545 C68.1339713,14.5454545 68.1339713,14.7368421 67.9425837,14.7368421 C67.5598086,15.1196172 67.1770335,15.5023923 66.9856459,16.076555 C66.6028708,16.076555 66.4114833,16.2679426 66.0287081,16.2679426 C66.0287081,16.8421053 66.0287081,17.0334928 66.2200957,17.4162679 C66.7942584,17.4162679 67.1770335,17.6076555 67.7511962,17.6076555 L67.7511962,17.4162679 C68.3253589,17.4162679 68.8995215,17.2248804 69.6650718,17.2248804 C69.6650718,17.7990431 69.4736842,18.1818182 69.4736842,18.7559809 L69.2822967,18.7559809 L69.2822967,20.861244 L69.0909091,20.861244 C68.8995215,21.4354067 69.2822967,22.3923445 69.2822967,22.7751196 L69.2822967,25.2631579 L69.4736842,25.2631579 L69.4736842,26.2200957 L69.6650718,26.2200957 C69.6650718,26.9856459 69.4736842,27.7511962 69.4736842,28.3253589 C68.8995215,28.5167464 68.5167464,28.5167464 67.7511962,28.3253589 L67.7511962,28.1339713 C66.7942584,28.1339713 65.8373206,28.3253589 64.8803828,28.3253589 L64.8803828,28.5167464 C64.4976077,28.5167464 63.7320574,28.3253589 63.5406699,28.1339713 L58.9473684,28.1339713 L58.9473684,28.3253589 L58.3732057,28.3253589 L58.3732057,28.5167464 C57.9904306,28.5167464 58.1818182,28.5167464 57.9904306,28.3253589 C57.0334928,27.5598086 57.7990431,26.4114833 57.4162679,25.0717703 C57.0334928,23.3492823 57.4162679,20.861244 57.4162679,19.138756 C56.8421053,18.7559809 56.8421053,18.1818182 56.076555,17.9904306 L56.076555,17.7990431 L55.5023923,17.7990431 C55.5023923,17.9904306 55.3110048,18.1818182 55.3110048,18.5645933 L55.1196172,18.5645933 L55.1196172,22.5837321 L55.3110048,22.5837321 L55.3110048,23.1578947 L55.5023923,23.1578947 L55.5023923,25.4545455 L55.3110048,25.4545455 C55.3110048,26.0287081 55.5023923,26.4114833 55.5023923,26.9856459 L55.3110048,26.9856459 C55.3110048,27.3684211 55.1196172,27.7511962 55.1196172,27.9425837 C54.1626794,28.3253589 52.2488038,28.1339713 50.9090909,28.1339713 L50.9090909,27.9425837 L50.5263158,27.9425837 L50.5263158,27.7511962 C50.1435407,27.5598086 49.9521531,27.1770335 49.569378,26.9856459 L49.569378,26.6028708 L49.7607656,26.6028708 L49.7607656,26.2200957 C50.1435407,26.0287081 50.3349282,25.645933 50.7177033,25.4545455 L50.7177033,25.2631579 L51.1004785,25.2631579 L51.1004785,25.0717703 L51.8660287,25.0717703 L51.8660287,24.8803828 L52.0574163,24.8803828 L52.0574163,21.8181818 L51.4832536,20.0956938 L50.7177033,20.0956938 C50.5263158,20.4784689 50.1435407,20.861244 49.7607656,21.0526316 C49.569378,21.0526316 49.1866029,21.2440191 48.9952153,21.2440191 C48.9952153,21.4354067 48.8038278,21.4354067 48.8038278,21.6267943 L48.4210526,21.6267943 L48.4210526,21.8181818 C48.2296651,22.0095694 48.0382775,22.0095694 47.6555024,22.2009569 C47.2727273,20.2870813 46.1244019,19.3301435 45.9330144,17.0334928 C46.8899522,17.0334928 47.4641148,16.8421053 48.2296651,16.4593301 L49.9521531,16.4593301 L49.9521531,16.2679426 L50.3349282,16.2679426 C50.7177033,16.076555 50.9090909,15.6937799 51.4832536,15.6937799 C51.6746411,15.3110048 51.6746411,15.3110048 51.8660287,15.1196172 L52.0574163,15.1196172 L52.0574163,13.3971292 C51.4832536,13.0143541 51.6746411,12.6315789 50.7177033,12.6315789 C50.3349282,13.2057416 49.3779904,13.0143541 48.8038278,12.8229665 L48.6124402,12.6315789 L48.6124402,11.6746411 L48.4210526,11.6746411 L48.4210526,11.1004785 L48.2296651,11.1004785 L48.2296651,10.7177033 L48.0382775,10.7177033 L48.0382775,10.3349282 C47.84689,9.76076555 47.6555024,9.37799043 47.4641148,8.42105263 C48.9952153,8.42105263 50.3349282,8.22966507 51.6746411,8.22966507 C51.8660287,8.03827751 52.0574163,7.46411483 52.2488038,7.46411483 C51.8660287,5.55023923 51.4832536,3.8277512 51.4832536,2.10526316 C51.6746411,1.9138756 51.8660287,1.9138756 52.2488038,1.9138756 C53.3971292,2.29665072 54.9282297,2.67942584 55.8851675,2.67942584 L55.8851675,2.67942584 Z M93.9712919,4.01913876 L93.5885167,4.01913876 C93.3971292,4.40191388 93.3971292,4.59330144 93.0143541,4.784689 L92.8229665,4.784689 L92.8229665,5.16746411 L92.6315789,5.16746411 L92.6315789,5.93301435 C93.0143541,6.12440191 93.7799043,6.12440191 94.5454545,6.12440191 C94.9282297,6.50717703 95.5023923,6.12440191 96.076555,6.12440191 C97.2248804,6.12440191 98.5645933,5.93301435 99.7129187,5.93301435 L99.7129187,5.74162679 L100.095694,5.74162679 L100.095694,5.55023923 L100.669856,5.55023923 L100.669856,5.35885167 C101.244019,5.35885167 101.818182,5.55023923 102.583732,5.55023923 C102.583732,5.74162679 102.77512,5.93301435 102.77512,6.12440191 C103.157895,6.50717703 102.966507,8.22966507 102.77512,8.80382775 C102.583732,8.80382775 102.583732,8.99521531 102.392344,8.99521531 L102.392344,9.76076555 L102.200957,10.1435407 C102.009569,10.3349282 101.818182,10.3349282 101.435407,10.3349282 C101.052632,9.95215311 100.287081,9.95215311 99.7129187,10.1435407 C99.5215311,10.1435407 99.7129187,10.3349282 99.5215311,10.3349282 C98.5645933,10.3349282 97.6076555,10.1435407 96.4593301,10.1435407 C96.2679426,10.7177033 95.8851675,11.1004785 95.8851675,12.0574163 C96.2679426,12.2488038 96.4593301,12.2488038 97.0334928,12.2488038 C97.6076555,11.6746411 99.138756,12.2488038 99.5215311,12.4401914 C99.7129187,12.8229665 99.7129187,13.3971292 99.7129187,14.1626794 L99.9043062,14.1626794 L99.9043062,14.9282297 L100.095694,14.9282297 C100.478469,16.076555 99.3301435,17.0334928 99.7129187,18.1818182 C99.9043062,18.9473684 99.7129187,20.4784689 99.9043062,21.4354067 L100.095694,21.4354067 C100.095694,21.6267943 99.9043062,21.4354067 99.9043062,21.6267943 C99.9043062,22.0095694 100.095694,22.0095694 100.095694,22.0095694 L100.095694,24.4976077 L100.287081,24.4976077 L100.287081,25.8373206 C100.095694,26.6028708 99.9043062,27.3684211 99.7129187,28.3253589 C98.7559809,28.3253589 97.2248804,28.3253589 96.4593301,28.1339713 L95.5023923,28.1339713 L95.5023923,28.3253589 C94.9282297,28.3253589 94.5454545,28.1339713 93.9712919,28.1339713 L93.9712919,27.9425837 L93.5885167,27.9425837 L93.5885167,27.7511962 C93.2057416,27.7511962 93.0143541,27.5598086 92.6315789,27.5598086 L92.6315789,27.3684211 C92.4401914,27.1770335 92.6315789,27.3684211 92.4401914,26.9856459 C92.8229665,26.7942584 93.0143541,26.4114833 93.0143541,25.8373206 C91.6746411,25.2631579 90.3349282,25.2631579 88.4210526,25.2631579 L88.0382775,24.4976077 C88.2296651,24.1148325 88.0382775,23.5406699 88.0382775,22.7751196 C88.0382775,21.8181818 88.0382775,20.4784689 87.84689,19.5215311 C87.4641148,19.5215311 87.2727273,19.3301435 86.6985646,19.3301435 C86.6985646,21.0526316 86.8899522,22.9665072 86.8899522,24.6889952 C86.8899522,25.645933 87.0813397,26.6028708 86.3157895,26.9856459 L86.3157895,27.1770335 L85.7416268,27.1770335 L85.7416268,27.3684211 C85.7416268,27.7511962 85.5502392,27.7511962 85.1674641,27.7511962 C84.9760766,27.3684211 84.2105263,27.3684211 83.6363636,27.1770335 C83.6363636,25.0717703 83.4449761,22.9665072 83.4449761,21.0526316 C83.4449761,20.0956938 83.6363636,19.138756 83.6363636,18.1818182 L83.4449761,18.1818182 L83.4449761,16.6507177 C83.4449761,15.5023923 83.062201,13.0143541 83.6363636,12.2488038 C84.0191388,11.8660287 85.1674641,12.0574163 85.7416268,12.0574163 C86.1244019,12.4401914 87.0813397,12.2488038 87.6555024,12.0574163 C87.6555024,11.4832536 87.2727273,10.5263158 87.0813397,10.3349282 L86.507177,10.3349282 L86.507177,10.5263158 L85.5502392,10.5263158 L85.5502392,10.7177033 L83.6363636,10.7177033 L83.6363636,10.9090909 C83.062201,10.9090909 82.2966507,11.1004785 81.722488,11.1004785 C81.5311005,10.7177033 81.5311005,10.7177033 81.3397129,10.5263158 L81.1483254,10.5263158 L81.1483254,9.56937799 L80.9569378,9.56937799 C80.9569378,9.37799043 80.7655502,8.99521531 80.7655502,8.80382775 C80.5741627,8.61244019 80.3827751,8.61244019 80.1913876,8.61244019 L80.1913876,8.03827751 L80,8.03827751 C80,7.27272727 80.1913876,6.69856459 80.1913876,5.93301435 C80.3827751,5.93301435 80.3827751,5.74162679 80.9569378,5.74162679 C81.3397129,6.50717703 81.722488,5.93301435 82.6794258,6.31578947 L82.6794258,6.50717703 L85.5502392,6.50717703 C86.8899522,6.88995215 88.4210526,6.50717703 90.1435407,6.50717703 C90.3349282,6.12440191 90.3349282,6.31578947 90.5263158,5.93301435 C89.9521531,5.55023923 89.569378,4.97607656 88.9952153,4.59330144 L88.9952153,3.63636364 L88.8038278,3.63636364 C88.8038278,3.25358852 88.6124402,2.8708134 88.6124402,2.48803828 C88.8038278,2.48803828 88.9952153,2.29665072 89.1866029,2.29665072 L89.1866029,2.10526316 C89.3779904,2.10526316 89.3779904,2.29665072 89.569378,2.29665072 C90.1435407,2.10526316 90.5263158,2.48803828 91.291866,2.29665072 L91.291866,2.10526316 L91.8660287,2.10526316 L91.8660287,1.9138756 C92.0574163,1.9138756 91.8660287,2.10526316 92.0574163,2.10526316 L92.2488038,2.10526316 L92.2488038,1.9138756 L92.4401914,1.9138756 L92.4401914,2.10526316 L93.3971292,2.10526316 L93.3971292,2.29665072 L93.7799043,2.29665072 L93.7799043,2.48803828 C94.1626794,2.67942584 94.354067,2.67942584 94.7368421,2.8708134 C94.354067,3.25358852 94.1626794,3.44497608 93.9712919,4.01913876 L93.9712919,4.01913876 Z M118.851675,2.10526316 C119.043062,2.10526316 119.425837,2.29665072 119.617225,2.29665072 C119.808612,2.48803828 119.808612,2.67942584 120,2.8708134 L120.191388,2.8708134 C120.191388,3.06220096 120.382775,3.25358852 120.382775,3.44497608 C120.574163,3.63636364 120.76555,3.8277512 121.148325,4.01913876 C121.148325,4.21052632 121.339713,4.40191388 121.339713,4.59330144 C121.5311,4.784689 121.722488,4.784689 122.105263,4.97607656 L122.105263,5.35885167 L122.296651,5.35885167 C122.679426,6.50717703 121.5311,7.46411483 123.253589,7.46411483 C123.444976,7.65550239 123.253589,7.46411483 123.636364,7.65550239 C123.636364,7.46411483 124.210526,7.08133971 124.210526,7.08133971 L124.210526,4.59330144 L124.976077,4.59330144 L124.976077,4.97607656 C125.550239,4.97607656 125.741627,5.16746411 126.124402,5.55023923 C126.124402,5.74162679 126.315789,5.74162679 126.315789,5.93301435 L127.272727,5.93301435 L127.272727,6.12440191 C127.464115,6.12440191 127.655502,5.93301435 128.038278,5.93301435 C128.038278,5.93301435 128.038278,6.12440191 128.421053,6.12440191 C128.421053,6.12440191 128.421053,5.93301435 128.803828,5.93301435 C128.803828,5.93301435 128.803828,6.12440191 129.186603,6.12440191 L129.186603,5.93301435 L129.37799,5.93301435 L129.37799,6.12440191 L131.291866,6.12440191 L131.291866,5.93301435 L131.674641,5.93301435 L131.674641,5.74162679 L132.248804,5.74162679 C132.631579,5.55023923 132.631579,5.35885167 133.397129,5.16746411 L133.397129,5.55023923 L133.779904,5.55023923 L133.779904,6.12440191 L134.162679,6.12440191 C134.162679,7.08133971 134.354067,7.84688995 134.354067,8.80382775 L134.162679,8.80382775 L134.162679,9.18660287 L133.971292,9.18660287 L133.971292,9.95215311 L133.779904,9.95215311 L133.779904,10.9090909 L133.588517,10.9090909 L133.588517,11.8660287 L133.397129,11.8660287 L133.397129,16.076555 L133.205742,16.076555 C133.205742,16.6507177 133.014354,17.0334928 133.014354,17.6076555 C133.397129,17.6076555 133.588517,17.4162679 133.971292,17.4162679 C134.162679,16.8421053 134.162679,16.4593301 134.92823,16.4593301 C135.119617,16.8421053 135.119617,16.6507177 135.502392,16.8421053 L135.502392,19.5215311 C135.502392,19.5215311 135.69378,19.5215311 135.69378,19.9043062 L135.502392,19.9043062 L135.502392,20.0956938 L135.119617,20.0956938 C134.92823,20.2870813 134.92823,20.4784689 134.736842,20.6698565 C134.354067,20.861244 131.866029,20.6698565 131.674641,20.6698565 C131.674641,20.861244 131.483254,21.0526316 131.483254,21.4354067 C131.866029,21.6267943 132.248804,22.0095694 132.631579,22.0095694 C133.205742,22.2009569 133.779904,22.2009569 134.354067,22.3923445 L134.354067,22.5837321 L134.736842,22.5837321 L134.736842,22.7751196 C135.311005,22.9665072 136.076555,22.9665072 136.650718,23.1578947 C136.45933,23.7320574 136.267943,24.1148325 136.076555,24.6889952 L136.076555,25.2631579 L135.502392,25.8373206 L135.502392,26.2200957 C134.92823,26.7942584 134.354067,27.3684211 133.588517,27.9425837 C132.631579,27.7511962 132.248804,26.9856459 131.483254,26.7942584 L131.483254,26.4114833 C131.100478,26.2200957 131.100478,25.8373206 130.909091,25.645933 C130.717703,25.645933 130.717703,25.4545455 130.526316,25.4545455 C130.143541,24.8803828 130.526316,24.4976077 129.569378,24.4976077 C129.186603,25.2631579 128.995215,25.0717703 128.421053,25.645933 L128.421053,25.8373206 C128.229665,25.8373206 128.229665,26.0287081 128.038278,26.0287081 L128.038278,26.4114833 C127.84689,26.6028708 127.464115,26.7942584 127.272727,27.1770335 C127.272727,27.3684211 127.08134,27.3684211 127.08134,27.5598086 L126.507177,27.5598086 L126.507177,27.7511962 L126.124402,27.7511962 L126.124402,27.9425837 L125.550239,27.9425837 L125.550239,28.1339713 L124.976077,28.1339713 L124.976077,28.3253589 L124.593301,28.3253589 L124.593301,28.5167464 L123.827751,28.5167464 L123.827751,28.708134 L123.444976,28.708134 L123.444976,28.8995215 L122.488038,28.8995215 C122.296651,28.1339713 122.105263,27.3684211 121.913876,26.7942584 C121.722488,26.6028708 121.339713,26.4114833 121.148325,26.2200957 C120.574163,26.4114833 120.382775,26.6028708 120,26.9856459 L120,27.1770335 C119.808612,27.1770335 119.425837,27.3684211 119.23445,27.3684211 L119.23445,27.5598086 L118.851675,27.5598086 C118.851675,27.7511962 118.660287,27.7511962 118.660287,27.9425837 L118.277512,27.9425837 L118.277512,28.1339713 L117.894737,28.1339713 C117.894737,28.3253589 117.703349,28.3253589 117.703349,28.5167464 L117.320574,28.5167464 L117.320574,28.708134 C116.937799,28.5167464 117.129187,28.708134 116.937799,28.5167464 C116.746411,28.3253589 116.555024,28.1339713 116.172249,27.9425837 L116.172249,27.5598086 C115.789474,27.1770335 115.598086,27.1770335 115.406699,26.6028708 C115.023923,26.4114833 115.023923,26.6028708 114.832536,26.0287081 L114.641148,26.0287081 L114.641148,25.4545455 L114.449761,25.4545455 L114.449761,25.0717703 L114.258373,25.0717703 C114.258373,24.6889952 114.066986,24.3062201 114.066986,24.1148325 C115.215311,24.4976077 117.320574,23.923445 117.703349,23.3492823 L117.894737,23.3492823 C117.894737,23.1578947 118.086124,22.7751196 118.086124,22.5837321 L117.894737,22.5837321 C117.703349,22.0095694 117.703349,22.0095694 117.129187,22.0095694 C116.746411,22.5837321 116.363636,23.1578947 115.406699,23.1578947 C115.215311,22.0095694 115.215311,21.0526316 115.023923,19.9043062 L117.703349,19.9043062 C117.894737,19.5215311 117.894737,19.138756 117.894737,18.5645933 C117.320574,18.5645933 116.555024,18.7559809 115.980861,18.7559809 C115.789474,18.3732057 115.598086,17.9904306 115.215311,17.7990431 L115.023923,17.9904306 C114.449761,18.3732057 114.449761,19.138756 114.258373,19.7129187 L114.066986,19.7129187 L114.066986,20.0956938 C113.875598,20.2870813 113.684211,20.2870813 113.492823,20.4784689 L113.492823,21.0526316 C113.110048,21.0526316 112.91866,21.0526316 112.727273,20.861244 L112.727273,20.6698565 C112.535885,20.6698565 112.344498,20.4784689 112.15311,20.4784689 C112.15311,20.2870813 111.961722,20.0956938 111.961722,19.9043062 L111.196172,19.9043062 L110.813397,19.7129187 L110.813397,17.9904306 C111.578947,17.7990431 112.91866,17.4162679 113.492823,17.0334928 C113.492823,16.8421053 113.684211,16.6507177 113.684211,16.4593301 C113.875598,16.4593301 113.875598,16.2679426 114.066986,16.2679426 C114.066986,16.076555 114.258373,15.8851675 114.258373,15.6937799 L114.641148,15.3110048 L114.641148,14.9282297 C114.832536,14.9282297 114.832536,14.7368421 115.023923,14.7368421 C115.215311,14.354067 115.215311,14.1626794 115.406699,13.7799043 L115.598086,13.7799043 L115.598086,13.3971292 L115.789474,13.3971292 L115.789474,13.0143541 L115.980861,13.0143541 L115.980861,12.6315789 L116.172249,12.6315789 L116.172249,12.2488038 L116.363636,12.2488038 L116.363636,11.8660287 L116.555024,11.8660287 L116.555024,11.4832536 L116.746411,11.4832536 L116.746411,11.1004785 L116.937799,11.1004785 C117.320574,9.56937799 117.511962,8.03827751 117.894737,6.50717703 C118.4689,4.784689 118.851675,3.8277512 118.851675,2.10526316 L118.851675,2.10526316 Z M154.449761,10.7177033 C153.875598,10.7177033 153.684211,10.7177033 153.301435,10.9090909 C153.110048,11.291866 153.110048,11.6746411 153.110048,12.2488038 C153.875598,12.6315789 154.449761,12.8229665 154.641148,13.5885167 L155.023923,13.5885167 C155.215311,14.1626794 155.215311,13.9712919 155.789474,14.1626794 L155.789474,13.9712919 L155.980861,13.9712919 L155.980861,12.8229665 L156.172249,12.8229665 L156.172249,12.6315789 L156.937799,12.6315789 C157.320574,13.0143541 158.851675,12.6315789 159.617225,12.6315789 C161.913876,12.4401914 164.019139,12.4401914 166.315789,12.2488038 C166.698565,12.2488038 166.889952,12.0574163 167.272727,12.0574163 L167.272727,11.8660287 L167.655502,11.8660287 C167.84689,11.8660287 167.655502,11.4832536 168.229665,11.4832536 L168.229665,11.6746411 L168.61244,11.6746411 L168.61244,12.4401914 L168.421053,12.4401914 C168.421053,12.6315789 168.61244,12.8229665 168.61244,13.0143541 L168.61244,15.1196172 L168.421053,15.1196172 C168.421053,15.5023923 168.61244,15.6937799 168.61244,16.076555 L167.464115,16.076555 L167.464115,16.2679426 C166.889952,16.4593301 166.124402,16.2679426 165.741627,16.076555 C165.167464,16.076555 164.401914,16.2679426 163.827751,16.2679426 C163.636364,16.6507177 163.444976,16.8421053 163.444976,17.6076555 C164.019139,18.1818182 163.253589,19.138756 163.444976,19.9043062 C163.636364,20.6698565 163.444976,22.2009569 163.636364,23.1578947 C164.019139,24.4976077 163.827751,26.6028708 163.827751,28.1339713 C161.722488,28.5167464 159.808612,28.1339713 157.894737,27.9425837 C157.511962,27.3684211 157.129187,27.3684211 156.937799,26.7942584 L156.746411,26.7942584 L156.746411,26.0287081 C156.937799,25.8373206 156.746411,26.0287081 156.937799,25.645933 C157.511962,25.8373206 157.894737,25.8373206 158.4689,26.0287081 C158.851675,25.645933 159.043062,25.2631579 159.425837,24.8803828 L159.617225,24.8803828 L159.617225,23.1578947 C159.808612,22.9665072 160.191388,21.6267943 160,21.0526316 C159.808612,20.0956938 160,17.9904306 159.808612,16.6507177 C159.425837,16.4593301 158.851675,16.4593301 158.277512,16.4593301 C157.894737,16.8421053 155.980861,16.4593301 155.406699,16.4593301 C155.406699,16.076555 155.598086,15.8851675 155.598086,15.5023923 C155.406699,15.3110048 155.023923,15.3110048 154.641148,15.3110048 L154.641148,15.6937799 L154.258373,15.6937799 C154.066986,16.076555 153.875598,16.076555 153.684211,16.4593301 L153.492823,16.4593301 C153.110048,17.2248804 153.875598,18.3732057 153.875598,18.9473684 L153.684211,18.9473684 C153.684211,19.3301435 153.875598,19.7129187 153.875598,19.9043062 L153.684211,19.9043062 C153.684211,21.2440191 153.492823,22.3923445 153.492823,23.7320574 L153.492823,26.4114833 L153.301435,26.4114833 C153.110048,26.7942584 153.110048,27.1770335 152.91866,27.3684211 C152.535885,27.5598086 152.344498,27.5598086 152.15311,27.9425837 L152.15311,28.1339713 L150.62201,28.1339713 C150.239234,27.7511962 150.239234,27.9425837 149.856459,27.7511962 L149.856459,27.5598086 L149.473684,27.5598086 C149.473684,27.3684211 149.282297,27.3684211 149.282297,27.1770335 C148.899522,27.1770335 148.516746,26.9856459 148.133971,26.9856459 L148.133971,26.7942584 C147.942584,26.6028708 148.133971,26.7942584 147.942584,26.4114833 L148.325359,26.4114833 C148.708134,25.645933 149.282297,25.8373206 149.282297,24.4976077 L149.473684,24.4976077 L149.473684,23.923445 L149.665072,23.923445 L149.665072,22.3923445 C149.665072,21.0526316 149.856459,19.7129187 149.665072,18.9473684 C149.282297,18.7559809 149.473684,18.7559809 149.090909,18.5645933 C148.899522,18.9473684 148.899522,18.7559809 148.516746,18.9473684 C148.516746,19.138756 148.325359,19.138756 148.325359,19.3301435 L148.133971,19.3301435 L148.133971,19.7129187 C147.942584,19.7129187 147.942584,19.9043062 147.751196,19.9043062 C147.368421,20.2870813 147.368421,20.4784689 146.602871,20.6698565 C146.220096,20.2870813 146.220096,20.4784689 145.645933,20.2870813 L145.645933,20.0956938 L145.263158,20.0956938 L145.263158,19.9043062 C145.07177,19.9043062 144.880383,19.7129187 144.688995,19.7129187 C144.497608,19.138756 144.30622,19.138756 144.114833,18.3732057 C144.30622,18.3732057 144.497608,17.9904306 144.497608,17.9904306 C145.07177,17.7990431 145.454545,17.6076555 146.028708,17.4162679 L146.028708,17.2248804 L146.602871,17.2248804 C146.794258,17.0334928 146.794258,16.8421053 146.985646,16.6507177 C148.133971,15.8851675 149.856459,14.9282297 150.047847,13.0143541 C149.665072,12.6315789 149.856459,12.4401914 149.090909,12.4401914 C148.708134,13.2057416 147.942584,13.7799043 146.985646,13.7799043 C146.794258,13.5885167 146.602871,13.5885167 146.411483,13.3971292 C146.028708,12.6315789 145.837321,11.8660287 145.645933,10.7177033 C146.028708,10.5263158 146.411483,10.1435407 146.602871,10.1435407 L147.177033,10.1435407 C147.368421,9.95215311 147.368421,9.76076555 147.559809,9.56937799 L148.325359,9.56937799 L148.325359,9.37799043 L148.708134,9.37799043 C149.473684,8.80382775 150.047847,8.22966507 150.62201,7.46411483 L150.62201,7.08133971 C150.813397,6.88995215 151.004785,6.88995215 151.196172,6.69856459 L151.196172,6.31578947 L151.38756,6.31578947 C151.38756,6.12440191 151.578947,5.93301435 151.578947,5.55023923 L151.770335,5.55023923 C151.770335,5.16746411 151.961722,4.97607656 151.961722,4.59330144 C152.15311,4.59330144 152.15311,4.40191388 152.344498,4.40191388 L152.344498,4.01913876 C152.535885,4.01913876 152.535885,3.8277512 152.727273,3.8277512 L152.727273,3.44497608 C152.91866,3.44497608 152.91866,3.25358852 153.110048,3.25358852 C153.492823,2.8708134 152.91866,2.8708134 153.684211,2.67942584 L153.684211,2.48803828 C153.875598,2.48803828 154.258373,2.29665072 154.449761,2.29665072 C154.641148,2.67942584 155.023923,2.67942584 155.215311,3.25358852 L155.406699,3.25358852 L155.406699,3.8277512 L155.598086,3.8277512 L155.023923,5.55023923 L155.023923,5.74162679 L155.215311,5.74162679 C155.215311,6.69856459 155.406699,7.65550239 155.406699,8.80382775 L155.215311,8.80382775 C154.641148,9.95215311 154.641148,10.3349282 154.449761,10.7177033 L154.449761,10.7177033 Z M166.315789,10.5263158 C164.976077,10.5263158 163.827751,10.3349282 162.488038,10.3349282 L162.488038,10.5263158 L159.23445,10.5263158 L159.23445,10.7177033 C159.043062,10.7177033 158.851675,10.5263158 158.660287,10.5263158 L158.660287,10.7177033 C157.703349,10.9090909 156.746411,10.7177033 155.980861,10.9090909 L155.980861,9.76076555 C155.598086,9.37799043 155.980861,8.22966507 155.789474,7.65550239 C155.598086,7.27272727 155.406699,6.88995215 155.406699,6.31578947 C156.555024,6.31578947 157.511962,6.50717703 158.660287,6.50717703 C159.043062,6.50717703 159.808612,6.12440191 160.382775,6.31578947 L160.382775,6.50717703 L161.339713,6.50717703 L161.339713,6.69856459 C161.5311,6.69856459 161.913876,6.50717703 162.105263,6.50717703 C162.105263,6.50717703 162.105263,6.69856459 162.488038,6.69856459 L162.488038,6.50717703 C162.870813,6.50717703 163.444976,6.31578947 163.827751,6.31578947 C164.593301,5.93301435 165.167464,5.35885167 166.315789,5.16746411 C166.698565,5.74162679 166.889952,5.16746411 166.889952,6.31578947 C166.698565,6.50717703 166.507177,7.84688995 166.507177,8.22966507 L166.698565,8.22966507 L166.698565,9.56937799 C166.507177,9.56937799 166.507177,9.76076555 166.315789,9.76076555 C166.507177,9.95215311 166.507177,10.3349282 166.315789,10.5263158 L166.315789,10.5263158 Z M121.5311,10.5263158 C121.722488,9.95215311 121.913876,9.95215311 122.105263,8.99521531 C121.913876,8.99521531 121.722488,8.80382775 121.5311,8.80382775 C121.339713,8.61244019 121.339713,8.42105263 121.148325,8.22966507 L120.574163,8.22966507 C120.191388,8.80382775 120,8.80382775 119.808612,9.95215311 C120,9.95215311 120.191388,10.1435407 120.382775,10.1435407 L120.382775,10.3349282 C120.956938,10.3349282 121.148325,10.3349282 121.5311,10.5263158 Z M58.3732057,8.80382775 C57.9904306,9.76076555 57.6076555,11.6746411 56.8421053,12.2488038 L56.8421053,12.4401914 C56.076555,12.8229665 56.076555,11.8660287 55.6937799,13.0143541 L55.5023923,13.0143541 L55.5023923,13.2057416 L55.6937799,13.2057416 C55.8851675,13.3971292 56.076555,13.5885167 56.2679426,13.9712919 L56.6507177,13.9712919 L57.0334928,14.354067 L57.0334928,14.7368421 L57.2248804,14.7368421 C57.2248804,14.9282297 57.4162679,14.9282297 57.4162679,15.1196172 L57.9904306,15.1196172 C57.9904306,14.9282297 58.3732057,14.7368421 58.3732057,14.7368421 L58.3732057,14.1626794 L58.5645933,14.1626794 C58.5645933,13.7799043 58.7559809,13.5885167 58.7559809,13.2057416 C58.9473684,13.2057416 58.9473684,13.0143541 59.138756,13.0143541 L59.138756,12.6315789 C59.3301435,12.6315789 59.3301435,12.4401914 59.5215311,12.4401914 L59.5215311,12.0574163 C59.7129187,12.0574163 59.7129187,11.8660287 59.9043062,11.8660287 L59.9043062,11.4832536 C60.0956938,10.9090909 60.4784689,10.7177033 60.6698565,9.95215311 C60.4784689,9.76076555 60.2870813,9.37799043 60.0956938,9.18660287 C59.138756,8.99521531 58.7559809,8.80382775 58.3732057,8.80382775 L58.3732057,8.80382775 Z M65.645933,8.99521531 C65.4545455,9.18660287 64.4976077,9.18660287 63.923445,9.18660287 C63.923445,9.37799043 63.7320574,9.56937799 63.7320574,9.76076555 C63.3492823,10.1435407 63.5406699,11.291866 63.3492823,11.6746411 L63.1578947,11.6746411 L63.1578947,12.0574163 C62.9665072,12.0574163 62.9665072,12.2488038 62.7751196,12.2488038 C62.3923445,12.6315789 62.3923445,13.0143541 62.2009569,13.7799043 C62.3923445,13.9712919 62.7751196,14.7368421 63.3492823,14.354067 L63.3492823,14.1626794 L63.7320574,14.1626794 C63.923445,13.9712919 63.923445,13.7799043 64.1148325,13.5885167 L64.3062201,13.5885167 L64.3062201,13.2057416 C64.4976077,13.0143541 64.6889952,13.0143541 64.8803828,12.8229665 C65.0717703,12.4401914 65.0717703,12.0574163 65.2631579,11.6746411 C65.645933,10.9090909 66.4114833,10.3349282 66.4114833,9.18660287 C66.0287081,8.99521531 66.0287081,8.99521531 65.645933,8.99521531 L65.645933,8.99521531 Z M129.569378,9.18660287 C129.569378,9.37799043 129.569378,9.37799043 129.569378,9.18660287 C129.37799,9.37799043 128.995215,9.37799043 128.803828,9.37799043 C128.421053,9.37799043 127.464115,9.56937799 127.272727,9.95215311 C127.08134,10.1435407 127.08134,10.3349282 126.889952,10.7177033 C127.272727,10.9090909 127.84689,10.9090909 128.61244,10.9090909 L128.61244,11.1004785 L129.37799,11.1004785 C129.760766,10.5263158 130.334928,10.5263158 130.334928,9.56937799 C130.143541,9.37799043 130.143541,9.37799043 129.569378,9.18660287 Z M91.4832536,9.95215311 C91.291866,10.1435407 91.1004785,10.1435407 90.9090909,10.1435407 C90.5263158,10.7177033 90.3349282,10.5263158 90.1435407,11.4832536 C90.7177033,12.0574163 90.7177033,12.6315789 92.0574163,12.6315789 C92.2488038,12.4401914 92.6315789,12.2488038 92.6315789,12.0574163 L92.6315789,11.291866 L92.8229665,11.291866 C92.8229665,10.9090909 93.0143541,10.5263158 93.0143541,10.1435407 C92.4401914,10.1435407 92.0574163,9.95215311 91.4832536,9.95215311 L91.4832536,9.95215311 Z M122.679426,12.8229665 C121.913876,12.6315789 121.722488,12.6315789 120.956938,12.8229665 C120.76555,13.0143541 120.76555,13.2057416 120.76555,13.5885167 C120.956938,13.5885167 121.148325,13.9712919 121.148325,13.9712919 C121.913876,14.354067 122.488038,13.7799043 123.062201,14.5454545 C123.827751,15.3110048 123.253589,16.6507177 123.062201,17.4162679 L123.062201,19.3301435 L123.253589,19.3301435 C123.253589,19.9043062 123.062201,20.4784689 123.062201,21.2440191 L123.062201,22.9665072 L122.870813,22.9665072 L122.870813,23.3492823 C122.679426,23.5406699 122.488038,23.5406699 122.296651,23.7320574 C122.105263,24.1148325 122.488038,24.6889952 122.488038,24.8803828 C122.870813,25.0717703 123.062201,25.0717703 123.444976,25.0717703 C123.444976,24.8803828 123.827751,24.6889952 123.827751,24.6889952 C124.019139,24.1148325 124.019139,23.5406699 124.210526,22.9665072 L124.401914,22.9665072 L124.401914,22.5837321 L124.593301,22.5837321 C124.593301,22.0095694 124.401914,21.4354067 124.401914,20.861244 L124.593301,20.861244 C124.784689,19.9043062 124.593301,18.3732057 124.401914,17.6076555 L124.401914,14.5454545 L124.210526,14.5454545 C124.210526,13.3971292 124.019139,12.0574163 124.019139,10.9090909 C123.636364,10.9090909 123.636364,10.9090909 123.444976,11.1004785 C123.062201,11.4832536 122.870813,11.8660287 122.679426,12.8229665 L122.679426,12.8229665 Z M118.277512,12.6315789 C118.086124,13.0143541 117.894737,13.2057416 117.703349,13.5885167 L118.4689,13.5885167 C118.660287,13.3971292 118.660287,13.2057416 118.660287,12.8229665 C118.4689,12.6315789 118.4689,12.6315789 118.277512,12.6315789 Z M130.143541,14.9282297 C130.143541,14.5454545 130.334928,14.354067 130.334928,13.9712919 C129.760766,13.5885167 129.760766,13.3971292 128.995215,13.3971292 C128.61244,13.7799043 128.229665,13.7799043 127.464115,13.7799043 C127.272727,14.1626794 127.08134,14.1626794 126.889952,14.7368421 C127.08134,14.9282297 127.272727,15.1196172 127.464115,15.5023923 C127.84689,15.5023923 127.84689,15.3110048 127.84689,15.3110048 L129.37799,15.3110048 L129.37799,15.1196172 C129.569378,15.1196172 129.760766,14.9282297 130.143541,14.9282297 L130.143541,14.9282297 Z M64.1148325,17.0334928 L64.1148325,16.2679426 L63.7320574,15.8851675 C63.5406699,15.8851675 63.3492823,15.6937799 63.1578947,15.6937799 C62.5837321,15.3110048 62.2009569,14.7368421 62.0095694,14.1626794 L61.6267943,14.1626794 C61.0526316,15.1196172 60.4784689,15.5023923 60.2870813,16.8421053 L60.4784689,17.0334928 C61.6267943,17.4162679 62.7751196,17.4162679 64.1148325,17.0334928 Z M94.354067,17.0334928 C94.9282297,17.2248804 94.9282297,17.4162679 95.6937799,17.6076555 C96.076555,17.0334928 96.4593301,16.8421053 96.4593301,15.6937799 C96.2679426,15.5023923 95.8851675,15.5023923 95.5023923,15.5023923 L95.5023923,15.3110048 C95.3110048,15.1196172 94.5454545,15.5023923 94.354067,15.5023923 C94.1626794,15.8851675 94.1626794,16.076555 94.1626794,16.6507177 C94.354067,17.0334928 94.1626794,16.8421053 94.354067,17.0334928 L94.354067,17.0334928 Z M86.8899522,15.8851675 C86.6985646,16.6507177 86.507177,17.2248804 86.507177,17.9904306 C86.6985646,18.1818182 87.0813397,18.1818182 87.4641148,18.1818182 L87.4641148,17.9904306 L87.84689,17.9904306 L87.84689,17.7990431 L88.2296651,17.7990431 L88.2296651,17.6076555 C88.8038278,17.2248804 88.8038278,17.2248804 88.8038278,16.076555 C88.4210526,15.6937799 88.6124402,15.5023923 87.84689,15.3110048 L87.84689,15.5023923 C87.2727273,15.8851675 87.0813397,15.8851675 86.8899522,15.8851675 Z M90.9090909,19.138756 L92.8229665,19.138756 C93.0143541,18.9473684 93.0143541,18.9473684 93.0143541,18.3732057 C92.4401914,17.7990431 92.8229665,16.4593301 92.4401914,15.6937799 C91.4832536,15.5023923 90.7177033,15.3110048 90.7177033,16.6507177 C90.7177033,16.8421053 91.1004785,17.7990431 91.1004785,18.1818182 L90.9090909,18.1818182 C90.9090909,18.5645933 91.1004785,18.7559809 90.9090909,19.138756 L90.9090909,19.138756 Z M122.105263,18.3732057 L122.105263,17.9904306 C122.296651,17.9904306 122.296651,17.7990431 122.488038,17.7990431 L122.488038,17.2248804 C122.105263,17.0334928 121.913876,17.0334928 121.339713,17.0334928 C121.148325,17.4162679 120.956938,17.6076555 120.76555,18.1818182 C120.956938,18.1818182 121.148325,18.3732057 121.339713,18.3732057 L121.339713,18.5645933 C121.5311,18.5645933 121.722488,18.5645933 122.105263,18.3732057 Z M132.057416,17.7990431 C131.866029,17.7990431 131.483254,17.6076555 131.291866,17.6076555 L131.291866,17.4162679 C130.909091,17.2248804 128.421053,17.7990431 128.229665,17.9904306 L128.038278,17.9904306 L128.038278,18.5645933 L128.229665,18.5645933 C128.229665,18.7559809 128.421053,18.9473684 128.421053,19.3301435 C128.61244,19.3301435 128.61244,19.5215311 128.803828,19.5215311 C128.803828,19.7129187 128.995215,19.9043062 128.995215,20.0956938 L129.569378,20.0956938 C130.143541,18.9473684 131.866029,18.7559809 132.057416,17.7990431 L132.057416,17.7990431 Z M94.9282297,25.4545455 L95.3110048,25.4545455 L95.3110048,25.645933 L95.5023923,25.645933 L95.5023923,25.4545455 L96.076555,25.4545455 L96.076555,25.2631579 C96.4593301,24.8803828 96.2679426,24.1148325 96.2679426,23.3492823 C96.2679426,22.2009569 96.8421053,19.5215311 96.2679426,18.9473684 L96.2679426,18.7559809 L95.6937799,18.7559809 C95.5023923,18.9473684 95.3110048,19.3301435 95.1196172,19.5215311 C94.9282297,21.6267943 94.9282297,23.5406699 94.9282297,25.4545455 L94.9282297,25.4545455 Z M126.698565,22.7751196 L127.08134,22.7751196 L127.08134,22.9665072 C127.272727,22.9665072 127.655502,22.7751196 127.84689,22.5837321 C128.038278,22.0095694 128.421053,21.8181818 128.61244,21.0526316 C128.038278,20.6698565 127.84689,19.9043062 127.464115,19.138756 C126.507177,19.3301435 126.698565,20.0956938 126.698565,21.0526316 C126.315789,21.6267943 126.698565,22.3923445 126.698565,22.7751196 L126.698565,22.7751196 Z M120.956938,20.6698565 C120.76555,21.0526316 120.574163,20.861244 120.574163,21.6267943 C121.148325,22.0095694 121.148325,22.2009569 122.105263,22.2009569 C122.296651,22.2009569 122.105263,22.3923445 122.488038,22.3923445 L122.488038,22.2009569 C123.062201,22.0095694 122.870813,22.0095694 123.062201,21.6267943 C122.870813,21.4354067 122.679426,21.4354067 122.488038,21.2440191 C122.488038,21.0526316 122.296651,20.861244 122.296651,20.6698565 L120.956938,20.6698565 Z M61.4354067,24.3062201 L62.9665072,24.3062201 L62.9665072,24.1148325 C63.3492823,24.1148325 63.1578947,24.3062201 63.3492823,24.3062201 L63.5406699,24.3062201 L63.5406699,24.1148325 C64.3062201,24.1148325 65.0717703,24.3062201 65.645933,24.3062201 C65.8373206,23.923445 65.8373206,23.5406699 65.8373206,22.9665072 C65.8373206,22.7751196 66.0287081,22.0095694 66.0287081,21.2440191 C65.8373206,21.2440191 65.645933,21.0526316 65.4545455,21.0526316 C65.0717703,20.6698565 62.3923445,20.861244 61.6267943,20.861244 C61.2440191,21.4354067 61.2440191,21.2440191 61.2440191,22.2009569 C60.861244,22.5837321 61.2440191,23.7320574 61.4354067,24.3062201 L61.4354067,24.3062201 Z M90.5263158,23.5406699 L92.2488038,24.1148325 C92.6315789,23.5406699 93.0143541,23.3492823 93.2057416,22.7751196 L93.0143541,22.7751196 L93.0143541,21.4354067 C92.2488038,21.2440191 91.6746411,21.4354067 90.7177033,21.4354067 C90.5263158,21.8181818 90.5263158,22.7751196 90.5263158,23.5406699 Z" id="形状" fill="#231815"></path>
                    <path d="M31.1961722,16.4593301 L39.6172249,16.4593301 C39.6172249,16.076555 39.4258373,15.8851675 39.4258373,15.5023923 L30.8133971,15.5023923 L31.1961722,16.4593301 Z" id="路径" fill="#E50012"></path>
                    <path d="M35.7894737,28.3253589 L31.5789474,34.2583732 L8.03827751,34.2583732 L3.8277512,28.1339713 L14.354067,2.29665072 L19.9043062,16.076555 L25.8373206,2.29665072 L30.6220096,14.354067 L39.4258373,14.354067 C36.937799,6.12440191 29.2822967,-1.9780224e-12 20.2870813,-1.9780224e-12 C8.99521531,0.19138756 4.90642276e-13,8.99521531 4.90642276e-13,20.0956938 C4.90642276e-13,31.1961722 8.99521531,40 19.9043062,40 C28.5167464,40 35.9808612,34.4497608 38.6602871,26.7942584 L35.215311,26.7942584 L35.7894737,28.3253589 L35.7894737,28.3253589 Z" id="路径" fill="#E50012"></path>
                    <path d="M18.1818182,27.9425837 L12.4401914,14.354067 L6.88995215,28.1339713 L29.0909091,28.3253589 L23.5406699,14.354067 L18.1818182,27.9425837 Z M31.7703349,18.3732057 L39.8086124,18.3732057 C39.8086124,17.9904306 39.8086124,17.7990431 39.6172249,17.4162679 L31.3875598,17.4162679 L31.7703349,18.3732057 Z M33.3014354,22.2009569 L39.8086124,22.2009569 L39.8086124,21.2440191 L32.9186603,21.2440191 L33.3014354,22.2009569 Z M39.8086124,19.3301435 L32.15311,19.3301435 L32.5358852,20.2870813 L39.8086124,20.2870813 L39.8086124,20.0956938 L39.8086124,19.3301435 Z M34.8325359,25.8373206 L39.0430622,25.8373206 C39.0430622,25.4545455 39.2344498,25.2631579 39.2344498,24.8803828 L34.4497608,24.8803828 L34.8325359,25.8373206 Z M34.0669856,23.923445 L39.4258373,23.923445 C39.4258373,23.5406699 39.6172249,23.3492823 39.6172249,22.9665072 L33.6842105,22.9665072 L34.0669856,23.923445 Z" id="形状" fill="#E50012"></path>
                </g>
            </g>
        </g>
    </g>
</svg>