<?xml version="1.0" encoding="UTF-8"?>
<svg width="127px" height="40px" viewBox="0 0 127 40" version="1.1" xmlns="http://www.w3.org/2000/svg" xmlns:xlink="http://www.w3.org/1999/xlink">
    <title>滴滴</title>
    <defs>
        <polygon id="path-1" points="-1.75933664e-15 -1.32896176e-15 49.2185618 -1.32896176e-15 49.2185618 40 -1.75933664e-15 40"></polygon>
    </defs>
    <g id="案例---优化" stroke="none" stroke-width="1" fill="none" fill-rule="evenodd">
        <g id="独角兽" transform="translate(-858.000000, -1915.000000)">
            <g id="更多logo" transform="translate(370.000000, 1596.000000)">
                <g id="滴滴" transform="translate(488.000000, 319.000000)">
                    <g id="Fill-1-Clipped" transform="translate(-0.000000, 0.000000)">
                        <mask id="mask-2" fill="white">
                            <use xlink:href="#path-1"></use>
                        </mask>
                        <g id="path-1"></g>
                        <path d="M24.7613178,31.2008517 C33.1805655,30.9368322 39.8563662,24.2200662 39.9548978,15.8806592 L39.9548978,8.7103609 L49.2185618,8.7103609 L49.2185618,16.6385691 C49.0376859,29.5339016 37.8556106,39.7077582 24.7613178,40 L24.7613178,39.9978833 C11.4518035,39.9153331 0.183302083,29.6689453 5.5873136e-13,16.6365935 L5.5873136e-13,2.3846149 C-0.0198138708,0.927215397 0.927216021,-0.0182316049 2.35691023,0.00194733853 L39.9508158,-2.82222898e-05 L39.9508158,8.70626867 L10.4705691,8.71431203 C9.71454986,8.71431203 9.26003744,9.17602883 9.26003744,9.92787086 L9.26003744,15.7354555 C9.36053973,24.1857761 16.1510594,31.1142093 24.7592064,31.2008517 L24.7613178,31.2008517 Z" id="Fill-1" fill="#FF7E41" fill-rule="nonzero" mask="url(#mask-2)"></path>
                    </g>
                    <path d="M59.5431301,34.5128943 L62.2400821,35.4936191 C63.9942269,31.5539274 65.4478501,27.8442473 66.7594472,24.1102961 L64.0610877,23.1469279 C62.7345701,26.6192585 60.7940597,31.6816332 59.5431301,34.5128943" id="Fill-4" fill="#595959" fill-rule="nonzero"></path>
                    <path d="M66.3958091,10.108607 C65.0987103,8.96461608 63.0737443,7.4201508 61.6478505,6.3520779 L59.9066556,8.63667298 C61.0898799,9.59679558 63.4060774,11.3193435 64.6180167,12.3659675 L66.3958091,10.108607 Z" id="Fill-6" fill="#595959" fill-rule="nonzero"></path>
                    <path d="M66.3958091,17.988809 C64.7394921,16.5680984 62.7947589,15.0193998 60.9292733,13.6636006 L59.1937087,15.952429 C61.1025482,17.3480217 63.01364,18.8768236 64.6180167,20.2460283 L66.3958091,17.988809 Z" id="Fill-8" fill="#595959" fill-rule="nonzero"></path>
                    <path d="M83.2912137,10.0929013 L82.2128552,13.7411978 L76.1112125,13.7411978 L75.032854,10.0929013 L83.2912137,10.0929013 Z M82.345873,26.6668694 L82.345873,28.7179249 C82.345873,29.1591806 81.9890475,29.5168982 81.5490334,29.5168982 L75.9781948,29.5168982 L75.9781948,26.6668694 L82.345873,26.6668694 Z M80.7524754,4.02172037 L77.5715923,4.02172037 L77.5715923,7.53638433 L67.2161976,7.53638433 L67.2161976,10.0929013 L71.9009553,10.0979813 L73.1813036,13.7462778 L68.0969299,13.7411978 L68.0969299,35.9999836 L70.9658898,35.9999836 L70.9658898,16.2977147 L77.7276946,16.2977147 L77.7276946,18.9270452 L72.5681552,18.9270452 L72.5681552,21.4835621 L77.7276946,21.4835621 L77.7276946,24.1103525 L73.428055,24.1103525 L73.428055,32.0734151 L82.9037028,32.0734151 C84.0040198,32.0734151 84.8960127,31.1791917 84.8960127,30.0761231 L84.8960127,24.1103525 L80.5963731,24.1103525 L80.5963731,21.4835621 L85.4276613,21.4835621 L85.4276613,18.9270452 L80.5963731,18.9270452 L80.5963731,16.2977147 L87.3583186,16.2977147 L87.3583186,31.8456612 C87.3583186,32.7281725 86.6446679,33.4436077 85.7643581,33.4436077 L82.366283,33.4436077 L83.1144197,35.9999836 L86.2426588,35.9999836 C88.443152,35.9999836 90.2269971,34.2115365 90.2269971,32.0055406 L90.2269971,13.7411978 L85.1426234,13.7411978 L86.4231124,10.0929013 L91.1078701,10.0929013 L91.1078701,7.53638433 L80.7524754,7.53638433 L80.7524754,4.02172037 Z" id="Fill-10" fill="#595959" fill-rule="nonzero"></path>
                    <path d="M95.3622977,34.5128943 L98.0591089,35.4936191 C99.8133944,31.5539274 101.267018,27.8442473 102.578474,24.1102961 L99.8802552,23.1469279 C98.5537378,26.6192585 96.6132273,31.6816332 95.3622977,34.5128943" id="Fill-12" fill="#595959" fill-rule="nonzero"></path>
                    <path d="M102.214836,10.108607 C100.917737,8.96461608 98.8927711,7.4201508 97.4668773,6.3520779 L95.7256824,8.63667298 C96.9090475,9.59679558 99.225245,11.3193435 100.437044,12.3659675 L102.214836,10.108607 Z" id="Fill-14" fill="#595959" fill-rule="nonzero"></path>
                    <path d="M102.214836,17.988809 C100.55866,16.5680984 98.6139265,15.0193998 96.7484409,13.6636006 L95.0128763,15.952429 C96.9217158,17.3480217 98.8326668,18.8768236 100.437044,20.2460283 L102.214836,17.988809 Z" id="Fill-16" fill="#595959" fill-rule="nonzero"></path>
                    <path d="M119.110381,10.0929013 L118.031882,13.7411978 L111.93038,13.7411978 L110.852021,10.0929013 L119.110381,10.0929013 Z M118.16504,26.6668694 L118.16504,28.7179249 C118.16504,29.1591806 117.808216,29.5168982 117.36806,29.5168982 L111.797221,29.5168982 L111.797221,26.6668694 L118.16504,26.6668694 Z M116.571503,4.02172037 L113.39076,4.02172037 L113.39076,7.53638433 L103.035365,7.53638433 L103.035365,10.0929013 L107.720122,10.0979813 L109.000471,13.7462778 L103.916097,13.7411978 L103.916097,35.9999836 L106.785057,35.9999836 L106.785057,16.2977147 L113.546721,16.2977147 L113.546721,18.9270452 L108.387182,18.9270452 L108.387182,21.4835621 L113.546721,21.4835621 L113.546721,24.1103525 L109.247223,24.1103525 L109.247223,32.0734151 L118.722871,32.0734151 C119.823047,32.0734151 120.71504,31.1791917 120.71504,30.0761231 L120.71504,24.1103525 L116.415541,24.1103525 L116.415541,21.4835621 L121.246829,21.4835621 L121.246829,18.9270452 L116.415541,18.9270452 L116.415541,16.2977147 L123.177346,16.2977147 L123.177346,31.8456612 C123.177346,32.7281725 122.463694,33.4436077 121.583526,33.4436077 L118.18545,33.4436077 L118.933447,35.9999836 L122.061685,35.9999836 C124.26232,35.9999836 126.046164,34.2115365 126.046164,32.0055406 L126.046164,13.7411978 L120.961791,13.7411978 L122.24228,10.0929013 L126.926897,10.0929013 L126.926897,7.53638433 L116.571503,7.53638433 L116.571503,4.02172037 Z" id="Fill-18" fill="#595959" fill-rule="nonzero"></path>
                </g>
            </g>
        </g>
    </g>
</svg>