<?xml version="1.0" encoding="UTF-8"?>
<svg width="151px" height="40px" viewBox="0 0 151 40" version="1.1" xmlns="http://www.w3.org/2000/svg" xmlns:xlink="http://www.w3.org/1999/xlink">
    <title>中国银联</title>
    <g id="案例---优化" stroke="none" stroke-width="1" fill="none" fill-rule="evenodd">
        <g id="独角兽" transform="translate(-1220.000000, -1636.000000)" fill-rule="nonzero">
            <g id="更多logo" transform="translate(370.000000, 1596.000000)">
                <g id="中国银联" transform="translate(850.000000, 40.000000)">
                    <path d="M14.7417952,35.9454147 L19.4438729,15.752764 C19.4032277,15.742616 19.3567074,15.7365273 19.3088518,15.7365273 C19.3086381,15.7365273 19.3084779,15.7365273 19.3084779,15.7365273 C19.0501326,15.7615233 18.8155548,15.8474603 18.6145186,15.9795973 C18.5911249,16.3313037 18.3616211,17.4621054 18.2550143,17.9822144 C18.0228933,19.0702879 18.0070305,19.1956951 17.9056044,19.7344443 L17.8362779,19.8063879 C17.0095408,19.8063879 16.7241164,19.8063879 15.771972,19.8383272 L15.7266267,19.7608823 C15.8866438,19.1119105 16.0431182,18.4629226 16.1960493,17.8139187 C16.6684095,15.9652299 16.9598692,13.8333066 17.0017429,11.640015 L16.8762822,14.4399402 C17.8044454,14.3117556 18.0283946,14.2852641 19.0341095,14.0771244 L19.1194591,14.173156 L18.9674001,14.7332158 C19.1381526,14.6318966 19.2981697,14.5279069 19.4741565,14.4398868 C19.7459612,14.3058805 20.0624169,14.2136944 20.396498,14.1815414 L22.1813615,4.05148748 C22.714823,1.8164824 24.9339119,0.000106820488 27.160852,0.000106820488 L12.5211041,0.000106820488 C10.2886627,0.000106820488 8.05915889,1.81637558 7.54161363,4.05148748 L0.108403136,35.9473375 C-0.408981898,38.177055 0.975304808,39.9905998 3.20224494,39.9905998 L17.8340881,39.9905998 C15.6016467,39.9905998 14.2201374,38.1770015 14.7456408,35.9473375 L14.7417952,35.9454147 Z M13.2802239,19.1694173 C12.4958945,19.594456 11.5630845,19.8443091 10.5719506,19.8443091 C10.5085527,19.8443091 10.4455286,19.8432943 10.3827181,19.8412648 C9.51971543,19.841425 7.99148811,19.7028788 7.4366625,18.756022 C7.27632494,18.4636543 7.18210927,18.1154195 7.18210927,17.7451797 C7.18210927,17.7200235 7.18237632,17.6945468 7.18333771,17.6694974 L7.37801805,16.2167922 L7.48200779,15.7714042 L8.65815478,10.5251829 C8.65815478,10.5251829 8.71946974,10.2371415 8.73276889,10.1890723 C8.75675009,10.2237355 9.15957015,10.2423223 11.4239509,10.2237355 L11.4080346,10.2904449 C11.2000551,10.9065321 10.0371539,15.5632644 10.0371539,15.5632644 L9.81320472,16.9528388 L9.81320472,17.18747 C9.88514832,17.8729904 10.3145667,18.2329755 11.0401448,18.2329755 C11.0524826,18.2331891 11.0665295,18.2332959 11.0808435,18.2332959 C11.514588,18.2332959 11.9123341,18.0789938 12.2220067,17.8224109 C12.8057807,17.3501041 12.9792038,16.6112802 13.219176,15.5764568 C13.219176,15.5764568 14.3286136,10.4635475 14.392599,10.1863483 C14.5472751,10.2210116 15.0299969,10.2395984 16.6702789,10.2210116 C16.6582082,10.2489451 16.6506239,10.2812049 16.6496625,10.3152807 C16.4463298,10.9197244 15.2488187,15.7579448 15.2488187,15.7579448 L15.1154533,16.2778935 C14.8434349,17.2913529 14.5260712,18.4357208 13.2804909,19.16899 L13.2802239,19.1694173 Z" id="形状" fill="#E03333"></path>
                    <path d="M32.3634905,35.9454147 L33.5983353,30.6564653 L33.0649806,30.6564653 C32.6302746,30.6564653 32.310187,30.6564653 32.0915255,30.6298136 C32.0652477,30.6320568 32.0347504,30.6333387 32.0037191,30.6333387 C31.8253288,30.6333387 31.6573536,30.5897559 31.5096209,30.5122042 C31.3874183,30.4029269 31.1925243,30.248144 31.1954084,30.1042568 C31.2705032,29.63195 31.4021061,29.2075522 31.5850362,28.8118891 L33.8467464,21.1454895 L35.6230642,21.1454895 L35.3563869,22.0388827 C35.3563869,22.0388827 35.4711121,21.9482455 35.6230642,21.8335737 L36.1298206,19.8012071 C35.8125104,19.8012071 35.4924228,19.814613 34.9669728,19.8412648 L34.9323096,19.7745554 C35.0123715,19.4198045 35.1030621,19.0651605 35.1989869,18.7077391 L35.3109882,18.2195161 C35.4844113,17.4592747 35.655057,16.5738397 35.673804,16.3071623 C35.6897202,16.1444213 35.7457476,15.7391444 35.2844433,15.7391444 C35.0266321,15.7637665 34.7930691,15.8491695 34.5924068,15.980986 C34.5669301,16.333814 34.3375865,17.4647225 34.2256386,17.9847247 C33.9963484,19.0727982 33.9829425,19.1982054 33.8789527,19.7369545 L33.8096262,19.8088981 C32.9828891,19.8088981 32.7001886,19.8088981 31.7479374,19.8408375 L31.7052092,19.7633926 C31.8634814,19.1144208 32.0190302,18.4654329 32.1718545,17.816429 C32.6367373,15.9891043 32.9232832,13.8815361 32.9636614,11.7140416 L32.8466395,14.4425573 C33.7748028,14.3143727 34.0016361,14.2878812 35.0044668,14.0797415 L35.0845288,14.1757731 L34.9378108,14.7358329 C35.1031331,14.6327154 35.2720521,14.5349394 35.4445672,14.4425039 C35.833554,14.2541794 36.2902116,14.1431929 36.7724527,14.1405758 C36.7424361,14.1406826 36.7569103,14.1405224 36.7713311,14.1405224 C37.0086862,14.1405224 37.2329558,14.1959088 37.4322294,14.2942904 L39.8078103,4.05138065 C40.341165,1.81637558 42.5576367,0 44.7925884,0 L27.1497961,0 C24.9228559,0 22.6959158,1.81626876 22.1703056,4.05138065 L19.7699424,14.3144261 C20.0781729,14.2039203 20.4337783,14.1394007 20.8041784,14.137745 C21.1943402,14.1381189 21.6741779,14.2609625 21.874306,14.7704428 C22.0664227,15.2237355 21.9410154,15.7839022 21.6902009,16.8853816 L21.5620163,17.4454414 C21.295339,18.6696576 21.2632394,18.8964375 21.1192988,19.7364739 L21.0232672,19.8084175 C20.2231818,19.8084175 19.9403745,19.8084175 19.0016361,19.8403568 L18.9642489,19.7736474 C19.0469814,19.4188965 19.1350014,19.0642525 19.2149566,18.7068312 L19.3269579,18.2160444 C19.5002741,17.455803 19.6736437,16.570368 19.6897736,16.3036906 C19.7031796,16.1569727 19.7484715,15.8262031 19.4230963,15.7516424 L14.7422759,35.9468034 C14.219443,38.1765209 15.5930477,39.9900657 17.8333404,39.9900657 L35.4549822,39.9900657 C33.2252648,39.9900657 31.8383609,38.1764674 32.3637575,35.9440795 L32.3634905,35.9454147 Z M32.9581601,21.8285531 L32.576811,23.0953373 L29.7282824,23.0953373 L29.4189303,23.3620146 C29.2855649,23.4901992 29.2402196,23.4366287 29.0669568,23.5299899 C28.7894906,23.6800192 28.4596289,23.7687871 28.1095782,23.7702825 L27.216185,23.7701757 L27.5867987,22.5513539 L27.853476,22.5513539 C27.8807687,22.5540779 27.9124944,22.5556268 27.9445405,22.5556268 C28.0803093,22.5556268 28.2092417,22.527533 28.326584,22.4768467 C28.5054015,22.3273514 28.6408499,22.1213481 28.7028057,21.8853816 L29.1631486,21.1297335 L31.2383503,21.1297335 L30.8755345,21.825936 L32.9611511,21.825936 L32.9581601,21.8285531 Z M25.4903398,15.1206537 C25.4102778,15.4194306 25.1542291,16.4170272 25.0768911,16.7209849 C24.9887642,17.0838007 24.8955099,17.4411152 24.8102137,17.7878011 C24.6315031,18.550446 24.5595061,18.8333066 24.5140005,19.0387224 C24.468495,19.2441382 24.4633142,19.3374993 24.3885933,19.734925 L24.3458651,19.7695882 L24.3005198,19.8015275 L23.2043279,19.8015275 C22.9081147,19.8015275 22.6069344,19.8174438 22.1588224,19.8361908 L22.1321707,19.8015275 L22.1027951,19.7641404 C22.2742419,19.1163275 22.5349373,18.5484698 22.8756947,18.0386156 C22.5376079,18.5572825 22.6575673,18.0249426 22.6864622,17.4685681 C22.7189356,17.6864285 22.8096262,17.2809379 22.8682173,16.9289644 C22.9268083,16.5769909 23.1348946,15.6325909 23.1883049,15.3286332 C23.1871298,15.3122363 23.1862219,15.2932222 23.1862219,15.2738343 C23.1862219,14.9829087 23.349497,14.7302783 23.5896294,14.6026278 C24.0979347,14.2540191 24.8446634,14.1739038 25.2739749,14.4246114 C25.4396535,14.5073439 25.5517082,14.6755862 25.5517082,14.8699995 C25.5517082,14.9633606 25.5258576,15.0511136 25.4807794,15.1255141 L25.4903398,15.1206537 Z M25.8928928,17.0091332 C26.0641795,16.0714629 26.5420409,15.2667842 27.2166123,14.6836511 C27.5713631,14.4039417 28.3709145,14.086311 29.2448129,14.086311 C29.2901048,14.086311 29.335183,14.0866848 29.3799942,14.0888746 C30.1415175,14.0887678 30.8777243,14.2621375 31.2991311,14.7954922 C31.5658085,15.1474657 31.7899179,15.7236554 31.5071106,16.9586071 C31.3192134,17.85184 30.8860563,18.6235646 30.2822535,19.2237889 C30.0127454,19.4604497 29.1603179,19.8452171 28.2179475,19.8452171 C28.1656589,19.8452171 28.1136908,19.8440955 28.0619362,19.841692 C28.0482632,19.8427068 28.023374,19.8427068 27.9986985,19.8427068 C27.5575833,19.8427068 27.1345742,19.76617 26.7417418,19.6258078 C25.506256,19.1271164 25.7088945,17.7644074 25.8796471,17.0094536 L25.8928928,17.0091332 Z M30.2431038,30.6567324 L27.8986611,30.6567324 C27.6986932,30.6538482 27.5065765,30.6253271 27.3238067,30.5741067 C27.1926845,30.5500187 27.0516815,30.439139 26.976373,30.2895903 C26.8987145,30.2221332 26.8413519,30.0911179 26.8413519,29.9463227 C26.8413519,29.8883726 26.8505385,29.8326657 26.8676298,29.7803771 L27.5386761,27.5545052 L26.3812227,27.5545052 L26.7625718,26.2822731 L27.9254196,26.2822731 L28.2321013,25.2475031 L27.0771047,25.2475031 L27.4452081,24.0340223 L32.5314123,24.0340223 L32.1579678,25.250227 L30.1228773,25.250227 L29.8055671,26.2824334 L31.8860563,26.2824334 L31.5074311,27.5359718 L29.4269418,27.5359718 L28.9280902,29.1921701 C28.8667752,29.3788389 29.4215474,29.4028735 29.6216756,29.4028735 L30.6646174,29.26155 L30.2458277,30.6484004 L30.2431038,30.6567324 Z" id="形状" fill="#004889"></path>
                    <path d="M35.2998789,22.5033916 L34.8758549,23.9142766 C35.1645373,23.6699781 35.5137335,23.4876355 35.8971656,23.3923517 L35.4892182,22.5006676 L35.2943776,22.5006676 L35.2998789,22.5033916 Z M28.3280795,18.5667895 C28.5938488,18.5408855 28.818065,18.3842867 28.9378642,18.1629547 C29.2280421,17.6543823 29.4209065,17.0318325 29.4609642,16.3679966 C29.6188448,15.9291246 29.5867987,15.347487 29.0855436,15.347487 C28.4507628,15.347487 28.1973312,16.1288789 27.9893517,17.0651605 C27.9086488,17.3572611 27.861808,17.6929445 27.8606864,18.0390963 C27.8610603,18.5666293 28.2614769,18.5666293 28.3281863,18.5666293 L28.3280795,18.5667895 Z M33.4329238,28.7683598 C33.3583097,29.0350371 33.323593,29.146985 33.3716088,29.2137478 C33.4305737,29.2934359 33.5240417,29.3446029 33.6296871,29.3446029 C33.6327315,29.3446029 33.6358293,29.3445495 33.6387669,29.3445495 L33.9051237,29.3178978 L34.6332122,26.1839983 L34.2118588,26.1839983 L33.4276362,28.7656893 L33.4329238,28.7683598 Z M34.7157844,24.4450676 L34.5370738,25.0344496 L34.9051772,25.0344496 L35.0411062,24.4450676 L34.7157844,24.4450676 Z" id="形状" fill="#004889"></path>
                    <path d="M48.3980469,18.5879934 C48.722888,18.5776852 49.0112499,18.4289911 49.2071053,18.1990066 C49.362262,17.9750574 49.4747974,17.6931581 49.5140005,17.3883459 C49.5023037,17.4730545 49.571737,17.206217 49.6357225,16.920846 C49.6784507,16.7314533 49.7157844,16.5660952 49.7504477,16.4086952 C49.795793,15.7712973 49.5824725,15.3977995 49.1797058,15.3977995 C48.542308,15.3977995 48.2943776,16.1765743 48.0809503,17.0914383 C47.9986451,17.3948619 47.9503088,17.743524 47.9485463,18.103242 C47.950202,18.5878331 48.3450105,18.5878331 48.3983139,18.5878331 L48.3980469,18.5879934 Z M37.4309476,25.0263313 L37.6203403,24.4476313 L35.0332015,24.4476313 L34.8972724,25.0370133 L37.0496519,25.0370133 C37.1072281,25.0308711 37.1740443,25.027346 37.2417685,25.027346 C37.3094927,25.027346 37.3763089,25.0308711 37.4420569,25.0376542 L37.4309476,25.0263313 Z" id="形状" fill="#008089"></path>
                    <path d="M60.7280688,0.000961384394 L44.7733607,0.000961384394 C42.5383556,0.000961384394 40.3114155,1.81723014 39.7885826,4.05234204 L37.4042425,14.2915131 C37.6327849,14.4109918 37.8018283,14.6174758 37.8691787,14.8658335 C38.0254036,15.2275811 37.9001032,15.7876409 37.6468318,16.8892806 L37.5186472,17.4493404 C37.2519699,18.6735566 37.2145293,18.9003365 37.0785468,19.7403728 L36.9797913,19.8123164 L36.121008,19.8123164 L35.6463511,21.8501309 C36.098362,21.5116701 36.6411169,21.2682797 37.2314603,21.160658 C36.9956007,21.2480372 37.7671117,21.1242322 38.5642596,21.1048977 L40.4762395,21.1674411 L39.5001139,24.4294184 C39.3385479,25.037494 39.0458063,25.5634247 38.6525467,25.9966352 C38.8658138,25.7633392 38.6296337,25.9495807 38.350405,26.0395236 C38.2940571,26.1009988 38.0083657,26.1880041 37.7035001,26.2018907 C37.675887,26.2003418 37.3851216,26.2082465 36.9797913,26.2109705 L34.6326781,26.2109705 L33.9045896,29.3235058 L34.8540101,29.2328687 L34.4405614,30.6572665 L33.597641,30.6572665 L32.3627961,35.9567377 C31.8293346,38.1864552 33.2215794,40 35.4538606,40 L51.4031209,40 C53.6381259,40 55.8678968,38.1864018 56.3878989,35.9567377 L63.8184389,4.05276932 C64.3519004,1.81776425 62.9543146,0.00138866635 60.7245971,0.00138866635 L60.7280688,0.000961384394 Z M49.3288806,14.1367836 C49.6780768,14.2668376 49.95346,14.5252898 50.1031155,14.8531752 C50.0303174,14.6408695 50.0490109,14.566202 50.059693,14.4889708 L50.1316366,14.4276558 C51.0944097,14.2916199 51.3612472,14.2542328 52.364078,14.0676708 L52.3960173,14.1504032 C52.2121258,14.9078673 52.0306378,15.6653848 51.8626626,16.4253058 C51.4920489,18.0256369 51.3586301,18.825669 51.2171464,19.6604177 L51.1290195,19.7271271 C50.1635225,19.7271271 49.8834392,19.7271271 48.9953871,19.7590664 L48.9366892,19.6871228 C48.9659046,19.5751215 48.9953871,19.4603963 49.0248161,19.3510121 C48.718722,19.6364365 48.3132848,19.8186722 47.8657604,19.8407841 C47.9211468,19.8356567 47.8782584,19.8368317 47.8348359,19.8368317 C47.4771475,19.8368317 47.1371378,19.7611494 46.8300289,19.624793 C45.6002581,19.1455963 45.8002794,17.7853976 45.9735957,17.0413395 C46.1414107,16.1109865 46.6165482,15.3130374 47.288182,14.7377023 C47.9019191,14.1822892 48.9073136,13.9662981 49.3367319,14.1343268 L49.3288806,14.1367836 Z M38.3030835,19.8282861 L39.8606864,13.4272285 L40.4767736,10.5441436 L40.5513877,10.1920098 C40.836812,10.2266731 41.5329078,10.234738 43.2664975,10.2133205 L43.9333244,10.2133205 C45.2908525,10.2133205 46.4618721,10.2346312 47.0538179,11.061582 C47.2519699,11.3478075 47.3704872,11.7024515 47.3704872,12.0846018 C47.3704872,12.1139775 47.3694724,12.1433531 47.3684042,12.1727287 C47.3650928,12.4903595 47.3225782,12.8008332 47.2452402,13.096993 C47.0165909,14.1768413 46.3407377,15.1254607 45.4162064,15.7218929 C44.5414,16.3800673 43.0610282,16.3800673 41.7570706,16.3800673 L41.6210347,16.3800673 C41.5010753,16.4566576 41.4074471,16.5649202 41.3509391,16.6933184 C41.4130018,16.6040699 41.1116078,17.8629493 41.1116078,17.8629493 C41.1116078,17.8629493 40.7568569,19.572451 40.6954351,19.8580356 C40.4287578,19.8340544 39.8152343,19.8340544 38.2950719,19.8580356 L38.3030835,19.8282861 Z M38.8712082,27.1892325 C38.8226049,27.4527052 38.6828837,27.6774555 38.4868681,27.8342146 C38.3255158,27.9861133 38.0199024,28.1150991 37.6838985,28.1150991 C37.6531342,28.1150991 37.6225836,28.1140309 37.5922465,28.1118411 L36.6149993,28.152059 L36.6149993,29.0401111 C36.6149993,29.2934359 36.6682493,29.2668376 36.708307,29.3067884 C36.7547739,29.3524542 36.8154479,29.3839662 36.8831721,29.3941142 L37.1511313,29.3841265 L38.0926471,29.3282059 L37.7058501,30.6216952 L36.6229574,30.6216952 C35.8654933,30.6216952 35.3053801,30.605779 35.1187647,30.4561769 C34.9321493,30.3065748 34.9134557,30.1894995 34.9161263,29.9494205 L34.9854528,26.4822411 L36.7083604,26.4822411 L36.6843792,27.1890723 L37.1005518,27.1890723 C37.1161476,27.1905143 37.1345207,27.1914757 37.1528405,27.1914757 C37.241181,27.1914757 37.3250885,27.1718208 37.4003969,27.1369439 C37.4644358,27.0829461 37.5114902,27.0045933 37.5263383,26.9153982 L37.6848065,26.4049565 L39.0423347,26.4049565 L38.8795937,27.1891791 L38.8712082,27.1892325 Z M44.9147376,30.6273567 L43.0636988,30.6273567 L43.189106,30.213908 L39.4284373,30.213908 L39.8070625,28.9842974 L40.1884117,28.9842974 L42.1620804,22.4497677 L42.556889,21.1295733 L44.4452081,21.1295733 L44.2479107,21.7964001 C44.7010966,21.4781285 45.2476436,21.2613363 45.8390553,21.1908348 C45.618738,21.2178604 47.5657551,21.1669604 48.2191226,21.1538215 L50.2355195,21.1538215 L50.2568302,21.9059446 C50.2568302,22.0313518 50.3528618,22.0900497 50.5848759,22.0900497 L50.9929836,22.0900497 L50.6168152,23.3302889 L49.5314123,23.3302889 C48.5898965,23.3996154 48.2325285,22.9941783 48.2537858,22.5302035 L48.2351456,21.7940501 L48.0325072,22.4527586 L47.3843739,22.4527586 L45.4399739,28.8885328 L45.9733286,28.8885328 L45.5706688,30.221973 L45.0373141,30.221973 L44.9146308,30.6354217 L44.9147376,30.6273567 Z M53.2603019,24.9118197 L51.2386707,24.9118197 L50.9213605,25.9173744 L52.9483326,25.9173744 L52.6149459,27.0241948 L50.4198917,27.0241948 L50.030531,27.4881696 L50.9213605,27.4881696 L51.1374049,28.8803076 C51.1417311,28.9917214 51.1701988,29.0956043 51.2175203,29.1882177 C51.3244476,29.2144955 51.4612846,29.2426427 51.6045309,29.2426427 C51.6287791,29.2426427 51.6529206,29.2422689 51.6766881,29.2402393 L51.9401609,29.2403461 L51.5294361,30.5951503 L50.8439156,30.5951503 C50.7373088,30.5951503 50.5772383,30.5951503 50.366428,30.5765102 C50.1276308,30.5291353 49.9187434,30.4240773 49.7477238,30.2759173 C49.6806939,30.2741548 49.5427352,30.0873257 49.5128255,29.8661005 L49.3049528,28.5122577 L48.3074097,29.8777974 C48.0001406,30.3404903 47.4812066,30.6414036 46.891878,30.6414036 C46.8737719,30.6414036 46.8556659,30.6412434 46.8377734,30.6403888 L45.4428581,30.6404422 L45.8056739,29.4322491 L46.3390286,29.4322491 C46.4897523,29.4270149 46.6290462,29.3823639 46.7483113,29.3084976 C46.8766561,29.2639 46.9933041,29.1536613 47.0567554,29.0139401 L48.4753315,27.0264915 L46.5549662,27.0264915 L46.8830119,25.919671 L49.0780661,25.919671 L49.3900888,24.9141163 L47.2244102,24.9141163 L47.5952375,23.668536 L53.6283519,23.668536 L53.2497266,24.9167868 L53.2603019,24.9118197 Z M54.5323202,21.0844416 L54.4469707,21.1804732 L54.4632074,21.1804732 L53.6818155,22.5139134 C53.4174882,22.9952465 52.9139364,23.3162421 52.3353433,23.3162421 C52.3061813,23.3162421 52.2770727,23.3152273 52.2481777,23.3138386 L51.0092737,23.2953052 L51.3720895,22.0923997 L51.6121151,22.0923997 C51.6274973,22.0935747 51.64555,22.0943759 51.6637094,22.0943759 C51.7506613,22.0943759 51.8338211,22.077979 51.9101977,22.0480692 C51.9878028,22.0116434 52.0517349,21.9461625 52.0869322,21.8653528 L52.5003809,21.2123057 C53.1164681,20.273407 53.2737078,19.8788656 53.9166604,18.8119425 C53.8046591,17.617102 53.7486851,17.230305 53.649983,16.4461892 C53.596733,15.9795439 53.5217984,15.4993858 53.4660915,15.027346 C53.3837864,14.1271698 53.2239829,13.3017679 52.9904199,12.5079314 L53.2551745,13.5710089 L53.2551745,13.4644021 L53.3326193,13.3976927 C54.2901048,13.2777333 54.3168099,13.2430166 55.3542505,13.0455589 L55.4396001,13.1309085 L55.5783065,15.7980559 L55.5783065,15.9501148 C56.1331855,14.7179405 56.111768,15.0567217 56.7864996,13.4910004 L56.7864996,13.5044063 C56.7862325,13.4976232 56.7854848,13.4897719 56.7854848,13.4818138 C56.7854848,13.4738557 56.785645,13.4660578 56.7864996,13.4579394 L56.8558261,13.3923517 C57.7652957,13.2723922 57.9466235,13.2376756 58.9334312,13.0402179 L59.010876,13.1255675 C59.010876,13.1255675 55.0662625,19.9560968 54.5328009,21.084228 L54.5323202,21.0844416 Z" id="形状" fill="#008089"></path>
                    <path d="M38.0255638,23.1888052 L38.2362673,22.4926027 L35.4944524,22.4926027 L35.227775,23.6607915 C35.678237,23.3861027 36.2162918,23.2101159 36.7924815,23.1758799 C36.6387134,23.1886984 38.0256173,23.1886984 38.0256173,23.1886984 L38.0255638,23.1888052 Z M43.7147162,14.6247396 C44.3055938,14.3109544 44.7245971,13.7409069 44.8249016,13.0667094 C44.9575726,12.4883833 44.736294,11.947017 44.2002688,11.7389307 L42.7972885,11.6296 L42.5306111,11.6029482 L42.5306111,11.7202906 L42.5146949,11.8670085 L41.8531556,14.7315601 L41.8265039,14.8755007 L42.1864889,14.8755007 C42.2582189,14.8809486 42.3418059,14.8838861 42.4260339,14.8838861 C42.8905962,14.8838861 43.3334205,14.7917 43.7376292,14.6243658 L43.7147162,14.6247396 Z M42.1143317,28.9043423 L43.6185244,28.9043423 L44.0532304,27.4587406 L42.5302907,27.4587406 L42.1143317,28.9043423 Z M44.0640192,22.4500881 L43.5651675,24.0957646 C44.3665348,23.7231213 45.297422,23.4684078 46.2766988,23.3822037 C44.7461215,23.6871762 45.1078156,23.6438605 45.4790702,23.6404422 L45.5654346,22.452812 L44.063859,22.452812 L44.0640192,22.4500881 Z M42.7971816,26.6320568 C43.5849827,26.2193559 44.5039594,25.9328099 45.4771475,25.826844 C43.9867346,26.1760936 44.4533799,26.120173 44.4533799,26.120173 L44.8214833,24.922662 L43.3172906,24.922662 L42.7971816,26.6320568 Z" id="形状" fill="#008089"></path>
                    <path d="M70.0283946,8.54109918 L76.8403371,8.54109918 L77.0617226,7.29551888 L79.3848011,7.29551888 L79.1634157,8.54109918 L86.0657818,8.54109918 L83.8946553,20.7883886 C83.820789,21.208567 83.662481,21.5820648 83.4369295,21.9051434 C83.3878989,22.013673 83.0530701,22.3241468 82.6495557,22.5120974 C82.7554682,22.4876355 82.4294521,22.6032153 82.0764638,22.6032153 C82.0536576,22.6032153 82.0309049,22.6028948 82.0082055,22.60188 L76.6691573,22.6019335 L76.4024799,24.1675479 L74.0794014,24.1675479 L74.3460787,22.6019335 L67.5369669,22.6019335 L70.0308515,8.53570475 L70.0283946,8.54109918 Z M70.2953924,20.3484484 L74.7468158,20.3484484 L76.4429649,10.7708701 L71.9943189,10.7708701 L70.2981697,20.3484484 L70.2953924,20.3484484 Z M77.0697875,20.3484484 L80.8997293,20.3484484 C80.9413893,20.3538963 80.9892983,20.3569407 81.0380618,20.3569407 C81.2166657,20.3569407 81.3857091,20.3155477 81.5357919,20.2414677 C81.6431999,20.1087967 81.7143424,19.9335042 81.719897,19.7418683 L83.3187327,10.7707098 L78.7846302,10.7707098 L77.0884811,20.3482882 L77.0697875,20.3484484 Z M93.6910555,14.5981947 L96.9822481,14.5981947 L97.336999,12.5924264 L94.0458063,12.5924264 L94.376576,10.7254713 L103.82613,10.7254713 L103.49536,12.5924264 L99.6788245,12.5924264 L99.3240737,14.5981947 L103.074007,14.5981947 L102.745961,16.4465096 L98.9959212,16.4465096 L98.523828,19.1135502 L99.8572682,19.1135502 L100.633372,17.9533729 L102.076357,17.9533729 L101.935033,19.1135502 L102.604371,19.1135502 L102.273601,20.964589 L92.5733393,20.964589 L92.901385,19.1162741 L96.1925777,19.1162741 L96.6646708,16.4492336 L93.3628495,16.4492336 L93.6908953,14.6009187 L93.6910555,14.5981947 Z M91.5895226,7.52208514 L107.76834,7.52208514 L105.223929,21.8816963 C105.130408,22.4279229 104.951804,22.9165198 104.700669,23.3587566 C104.744573,23.2841425 104.408141,23.6543823 103.990473,23.9029536 C103.971744,23.9724937 103.386313,24.0072638 102.234184,24.0072638 L88.6720949,24.0072638 L91.6057059,7.51658388 L91.5895226,7.52208514 Z M91.4293987,22.0820381 L102.169825,22.0820381 C102.193005,22.0850825 102.220031,22.0868451 102.24743,22.0868451 C102.40451,22.0868451 102.548236,22.029429 102.658849,21.9345725 C102.771919,21.7717246 102.843382,21.5707419 102.85182,21.3535758 L104.96505,9.46119746 L93.6671811,9.46119746 L91.432176,22.0792074 L91.4293987,22.0820381 Z M111.995387,12.3869572 L118.705904,12.3869572 L118.345918,14.4167067 L115.481367,14.4167067 L115.115987,16.475725 L118.028448,16.475725 L117.679038,18.4439994 L114.766578,18.4439994 L114.254427,21.3350959 C114.195729,21.6631416 114.195729,21.8685574 114.254427,21.9352668 C114.313125,22.0019762 114.470471,22.0445976 114.729084,22.0445976 L116.449374,22.0445976 L116.099964,24.0236073 L113.166086,24.0236073 C112.877724,24.019655 112.602127,23.9697698 112.344637,23.8812156 C112.106694,23.8113016 111.881837,23.6097313 111.767806,23.3489825 C111.731434,23.2346846 111.690041,23.0191209 111.690041,22.7939967 C111.690041,22.6270897 111.712793,22.4655771 111.755361,22.3120761 L112.43506,18.4759921 L110.776085,18.4759921 L111.130835,16.4730545 L112.789811,16.4730545 L113.155191,14.4140362 L111.634921,14.4140362 L111.994906,12.3842867 L111.995387,12.3869572 Z M116.108243,8.62372483 L119.375348,8.62372483 L119.028662,10.5733056 L115.265269,10.5733056 L114.953246,11.0053944 C114.685501,11.3726967 114.322952,11.6565187 113.901225,11.8224643 C114.177089,11.7067243 113.784897,11.7761577 113.208814,11.7761577 L112.003185,11.7761577 L112.341913,9.87186882 L112.704729,9.87186882 C112.738217,9.87582118 112.777473,9.87785077 112.816676,9.87785077 C113.006069,9.87785077 113.183658,9.82711104 113.336518,9.73850344 C113.550159,9.47684666 113.698266,9.14677135 113.74265,8.78470331 L114.334542,7.31426588 L116.574942,7.31426588 L116.108136,8.61037227 L116.108243,8.62372483 Z M120.391584,7.50082786 L129.193058,7.50082786 L128.206251,13.0777119 C128.065515,14.0972066 127.775497,15.0196016 127.356494,15.8670085 C127.537928,15.3660204 127.198666,15.6966832 126.782814,15.8900817 C126.797182,15.9501682 126.442591,16.0992362 126.054726,16.1287187 C125.925366,16.1372643 125.577719,16.1542488 125.226119,16.1542488 C125.16662,16.1542488 125.107068,16.1539283 125.047729,16.1529135 L121.133506,16.1529669 L120.277286,20.9858463 C120.197224,21.4339582 120.191937,21.7112642 120.255976,21.8208086 C120.322471,21.9191903 120.433672,21.9831758 120.559666,21.9831758 C120.573927,21.9831758 120.587813,21.9828019 120.6017,21.9809325 L121.722835,21.9810394 L121.373425,23.9600491 L120.005268,23.9600491 C119.431802,23.9600491 119.002544,23.9441329 118.722514,23.9147038 C118.425874,23.8888533 118.165232,23.7524969 117.978349,23.5475084 C117.832806,23.4153715 117.7223,23.1795652 117.7223,22.9182823 C117.7223,22.9170539 117.7223,22.9156118 117.7223,22.9142766 C117.755308,22.3270309 117.841726,21.7767452 117.977441,21.2462212 L120.391958,7.49858463 L120.391584,7.50082786 Z M125.992449,12.9391657 L121.666487,12.9391657 L121.426461,14.2913529 L125.227294,14.2913529 C125.236054,14.2916733 125.246362,14.2917268 125.25667,14.2917268 C125.410118,14.2917268 125.548397,14.2269401 125.645764,14.123164 C125.759314,14.0052876 125.834248,13.8500774 125.850004,13.678043 L125.984812,12.9441329 L125.992449,12.9391657 Z M122.010289,11.0507931 L126.328293,11.0507931 L126.613717,9.450462 L122.277019,9.450462 L121.991595,11.0507931 L122.010289,11.0507931 Z M127.896685,16.7876943 L127.685982,17.9745767 C127.558545,18.7189553 127.335023,19.3854617 127.025404,20.0012818 C127.296514,19.4121669 126.821857,19.5721305 125.989672,19.5721305 L124.810855,19.5721305 L124.861541,21.1724617 C124.85823,21.2142819 124.85636,21.2632591 124.85636,21.3126102 C124.85636,21.5396037 124.896418,21.7573573 124.969697,21.9589809 C125.012372,22.013406 125.084048,22.0607809 125.167101,22.0748278 L125.549625,22.0498852 L126.763106,22.0498852 L126.413696,24.0288949 L124.989298,24.0288949 C123.979311,24.0288949 123.349016,23.9151845 123.098415,23.6877637 C122.856307,23.4522779 122.705957,23.1236447 122.705957,22.7597607 C122.705957,22.7493991 122.70601,22.7387705 122.706171,22.7287294 L122.476827,16.7530844 L124.751997,16.7530844 L124.789384,17.9745233 L125.605492,17.9745233 C125.625201,17.9769268 125.647953,17.9780484 125.67092,17.9780484 C125.791467,17.9780484 125.903575,17.9417828 125.996989,17.8797201 C126.075449,17.7889227 126.126669,17.669444 126.133079,17.5381616 L126.277286,16.7876943 L127.896685,16.7876943 Z M141.27766,9.50371201 L139.197385,21.2389574 L139.949508,21.2389574 L139.592086,23.2499065 L138.839963,23.2499065 L138.671988,24.1941462 L136.340951,24.1941462 L136.508927,23.2499065 L131.521425,23.2499065 L131.878846,21.2389574 L132.468228,21.2389574 L134.548504,9.50371201 L133.959122,9.50371201 L134.313872,7.50077445 L142.384534,7.50077445 L142.029783,9.50371201 L141.27766,9.50371201 Z M136.87954,9.50371201 L136.428704,12.0427282 L138.495734,12.0427282 L138.94657,9.50371201 L136.87954,9.50371201 Z M134.799478,21.2391711 L136.866508,21.2391711 L137.354731,18.4893447 L135.287701,18.4893447 L134.799478,21.2391711 Z M135.631396,16.5396571 L137.698426,16.5396571 L138.154443,13.9739358 L136.087413,13.9739358 L135.631396,16.5396571 Z M142.680534,7.36212145 L144.99293,7.36212145 L145.01157,8.60236073 C145.01157,8.82657694 145.171641,8.93574748 145.483664,8.93574748 L146.046501,8.93574748 L145.699815,10.8853282 L144.203634,10.8853282 C143.193646,10.8853282 142.687781,10.4808348 142.686035,9.67184746 L142.686035,7.35945094 L142.680534,7.36212145 Z M143.563298,17.8918977 L140.813472,17.8918977 L141.165606,15.9048764 L144.176768,15.9048764 L144.571577,13.6751589 L141.562978,13.6751589 L141.915111,11.6881376 L150.060494,11.6881376 L149.70836,13.6751589 L146.923871,13.6751589 L146.529062,15.9048764 L149.313552,15.9048764 L148.948172,17.8892806 L145.950202,17.8892806 L145.387365,19.1162207 L146.814326,19.1162207 L147.257044,21.5806762 C147.281986,21.8046253 147.357402,22.0071036 147.471806,22.1817017 C147.502037,22.1753458 147.619539,22.2280083 147.749486,22.2280083 C147.772453,22.2280083 147.795045,22.2263526 147.817104,22.223148 L148.185367,22.2233616 L147.838681,24.1729424 L146.897166,24.1729424 C146.750448,24.1729424 146.531786,24.1570261 146.240967,24.1302142 C145.944113,24.1076751 145.673323,24.0128719 145.440882,23.8634834 C145.334275,23.7969877 145.198026,23.5115099 145.1154,23.0607809 L144.637912,20.5217647 L143.325623,23.0235539 C142.9238,23.7845805 142.230376,24.1650911 141.245347,24.1650911 L139.703874,24.1650911 L140.05056,22.2155103 L140.759955,22.2155103 C140.770797,22.2157774 140.783402,22.2158842 140.79622,22.2158842 C140.973649,22.2158842 141.139755,22.1670672 141.281719,22.0820915 C141.507164,21.8995887 141.674338,21.6447151 141.746282,21.3526144 L143.568479,17.8785985 L143.563298,17.8918977 Z M150.929906,7.32478769 L150.100392,9.61849063 C149.79638,10.4417187 149.148247,10.8533355 148.155992,10.8533355 L146.651799,10.8533355 L146.998485,8.90375474 L147.569227,8.90375474 C147.585143,8.90487636 147.603676,8.90551728 147.622477,8.90551728 C147.746549,8.90551728 147.863944,8.87737008 147.968629,8.82705763 C148.07358,8.76146985 148.151826,8.65128452 148.176181,8.52219196 L148.611902,7.322224 L150.929906,7.32478769 Z M71.1889458,31.1900871 L72.1038099,31.4567644 C71.7151969,32.4752978 71.0071907,33.2986701 70.1039167,33.8239064 C70.1164147,33.8629493 69.4175416,34.118731 68.6589025,34.118731 C68.6482739,34.118731 68.6375918,34.1186776 68.6269632,34.1186242 C68.5795883,34.1217219 68.5223325,34.1234311 68.4647563,34.1234311 C67.8443429,34.1234311 67.2711976,33.9215938 66.8072228,33.5798216 C66.3290409,33.1614058 66.0054816,32.5619292 65.9438996,31.8869839 C65.9021328,31.7442183 65.8651195,31.3756342 65.8651195,30.9982375 C65.8651195,30.6207873 65.9021328,30.2522566 65.9728479,29.895583 C66.1353219,28.9112856 66.5459399,28.0086525 67.1376719,27.2548737 C67.2822001,26.9690755 68.0250832,26.3709341 68.9051237,26.0656946 C68.7979828,26.0503124 69.4342056,25.8723495 70.1124089,25.8720291 C70.1477665,25.8697858 70.1933788,25.8683437 70.2394185,25.8683437 C70.8527817,25.8683437 71.4121472,26.1006783 71.8339279,26.481707 C72.274509,26.9351066 72.5514945,27.553704 72.5639391,28.2367142 L71.575903,28.4375901 C71.5509604,27.9375634 71.3492299,27.4888106 71.0325606,27.1488544 C70.7944043,26.9410351 70.4284907,26.7891364 70.0268991,26.7891364 C69.9938916,26.7891364 69.9611511,26.7901512 69.9286243,26.7921807 C69.9194911,26.7918603 69.903468,26.7918069 69.887445,26.7918069 C69.353663,26.7918069 68.8583364,26.9565775 68.4496946,27.2377824 C67.8955633,27.6269294 67.4806725,28.1991134 67.2928287,28.8662073 C67.1324912,29.0739198 66.9224821,29.8432409 66.8794868,30.6570528 C66.8974327,30.2507611 66.8605796,30.6022539 66.8605796,30.9623992 C66.8605796,31.2301447 66.8809289,31.4931368 66.9205059,31.749773 C66.9817674,32.2143887 67.2459879,32.6356887 67.6245063,32.9078139 C67.8662945,33.0893553 68.2603553,33.2308925 68.6873702,33.2308925 C68.6989602,33.2308925 68.7101764,33.2308391 68.7216596,33.2306788 C68.722888,33.2306788 68.7265733,33.2307323 68.7302586,33.2307323 C69.2788886,33.2307323 69.7824938,33.0385088 70.177783,32.7179405 C70.7596342,32.2238423 71.172175,31.5373071 71.3161156,30.7565561 L71.1889458,31.1900871 Z M73.2854047,33.9853122 L74.6990136,26.0132992 L75.5897363,26.0132992 L75.0695205,28.8778508 C75.4945058,28.3920846 76.112943,28.0847621 76.8036443,28.0773914 C76.7980362,28.077338 76.8137922,28.0771778 76.8294948,28.0771778 C77.1719613,28.0771778 77.4911944,28.1766811 77.7597945,28.3486621 C78.024015,28.5174919 78.2133543,28.7977888 78.2615303,29.1239652 C78.273334,29.2046681 78.2888764,29.3904289 78.2888764,29.5798216 C78.2888764,29.8482081 78.257845,30.109491 78.1991471,30.3598782 L77.5556605,33.9987716 L76.6701721,33.9987716 L77.3183054,30.3368584 C77.4053999,29.84787 77.372481,29.4922662 77.2195499,29.2700422 C77.0616692,29.0628639 76.8147002,28.9304599 76.5369669,28.9304599 C76.5096743,28.9304599 76.4828624,28.9316349 76.4561572,28.9341986 C76.1636293,28.938685 75.8886734,29.0255301 75.6558047,29.1725151 C75.3442094,29.352294 75.0925403,29.6500561 74.963875,30.0067831 C74.85855,30.1818085 74.7255585,30.6614325 74.7032864,31.1697912 L74.1736705,34.0013353 L73.2854047,33.9853122 Z M80.699975,27.1387598 L80.9001032,26.0132457 L81.7908258,26.0132457 L81.5906976,27.1387598 L80.699975,27.1387598 Z M79.4862806,33.9853122 L80.5105289,28.2109705 L81.4012515,28.2109705 L80.3770033,33.9853122 L79.4862806,33.9853122 Z M82.2975822,33.9853122 L83.3218305,28.2109705 L84.1219159,28.2109705 L83.975198,29.0324734 C84.3901956,28.4539871 85.0601737,28.0813972 85.8173707,28.080329 C85.8265573,28.0801688 85.8397496,28.080062 85.8527283,28.080062 C86.145096,28.080062 86.4213872,28.1491748 86.6660061,28.2718047 C86.9184229,28.389788 87.119192,28.6088768 87.215277,28.8775837 C87.2610496,28.9682209 87.3171838,29.2114512 87.3171838,29.4677135 C87.3171838,29.4731614 87.3171838,29.4786626 87.3171304,29.4841105 C87.2940037,29.9307269 87.2287898,30.3510121 87.1249603,30.7557015 L86.5676244,33.985152 L85.6769018,33.985152 L86.2983834,30.4699567 C86.3422332,30.2825402 86.3674962,30.0673503 86.3674962,29.8464455 C86.3674962,29.7504139 86.3626893,29.6555573 86.3535027,29.5619826 C86.3207089,29.363884 86.2012836,29.1869893 86.0340561,29.0771778 C85.9154319,28.9896384 85.722888,28.9223949 85.5145346,28.9223949 C85.5021969,28.9223949 85.4900193,28.9225551 85.4778418,28.9227688 C85.0726183,28.9265075 84.7019512,29.0785131 84.4180223,29.3271912 C84.1033826,29.5868718 83.8793266,30.0858837 83.7459612,30.8271645 L83.1859014,33.9823746 L82.2975822,33.9853122 Z M92.0484234,33.2732468 C91.5048674,33.731026 90.8357973,34.0570956 90.1001245,34.1935053 C90.6813348,34.0464135 90.332833,34.1159002 89.9687888,34.1159002 C89.9676671,34.1159002 89.9663853,34.1159002 89.9652637,34.1159002 C89.3866705,34.1159002 88.9732218,33.9612242 88.7172265,33.6519254 C88.5286349,33.4151044 88.414337,33.1116274 88.414337,32.7813385 C88.414337,32.6692304 88.4274759,32.559953 88.4523117,32.4554292 C88.5133062,32.1023874 88.667555,31.7835817 88.8881927,31.5229397 C88.9922893,31.3443893 89.3169167,31.0793142 89.6989602,30.9278428 C89.6471523,30.9105378 90.0362993,30.765262 90.4553027,30.7205576 C90.4443536,30.6963094 90.9322562,30.6290659 91.4343659,30.6200395 C91.6811746,30.5715964 92.4546617,30.3711478 93.1767148,30.0715697 C92.512505,30.1870427 92.5284747,30.1015863 92.5364328,30.0536773 C92.6057593,29.6535277 92.57382,29.3736047 92.4323363,29.2107568 C92.2180544,29.0005341 91.924031,28.8711745 91.6000978,28.8711745 C91.557156,28.8711745 91.514321,28.8734177 91.4725008,28.8779576 C91.4469173,28.8753939 91.4109188,28.8742723 91.3747066,28.8742723 C91.0538713,28.8742723 90.7541864,28.9647492 90.49974,29.1218288 C90.1684897,29.3977995 89.929372,29.7875875 89.8437554,30.2318539 L89.0667431,29.8457512 C89.2623849,29.2876142 89.595825,28.8190995 90.0273798,28.4656305 C89.9470508,28.5118838 90.3677099,28.2717513 90.8419394,28.1849597 C90.8754277,28.1391871 91.2829478,28.0637184 91.7079331,28.0637184 C91.7225675,28.0637184 91.7371485,28.0637718 91.7518898,28.0638787 C91.7838291,28.0623298 91.8238334,28.0614752 91.8642115,28.0614752 C92.2065712,28.0614752 92.533976,28.1259414 92.8346756,28.2436041 C93.0873595,28.3467393 93.3014812,28.5495914 93.4227758,28.804839 C93.4508162,28.8631095 93.5100482,29.0868451 93.5100482,29.3243604 C93.5100482,29.3305026 93.5100482,29.3364311 93.5099948,29.3424665 C93.4838237,29.7841692 93.4166871,30.1982054 93.3115223,30.5966992 L93.1607452,31.5472948 C92.9785628,32.4067724 92.8684309,33.3986541 92.8571613,34.4142499 C92.9124944,33.2885755 92.9122273,33.306735 92.9122273,33.3250547 C92.9122273,33.5542381 92.9496145,33.7750361 93.0183535,33.9810394 L92.0833003,33.9664584 C92.0440972,33.816696 92.0215047,33.6445014 92.0215047,33.4672862 C92.0215047,33.3922448 92.0255104,33.3183251 92.0333617,33.2453667 L92.0484234,33.2732468 Z M92.3605529,31.0860439 C91.7162651,31.3317844 90.9713524,31.484057 90.1941266,31.5064893 C90.4314817,31.5075041 90.0597998,31.6211611 89.7194697,31.7885488 C89.8244209,31.7451797 89.6522262,31.9058911 89.5461535,32.1069273 C89.5084459,32.1279175 89.4276896,32.3236661 89.4112926,32.5374139 C89.4116665,32.486781 89.4047232,32.5457993 89.4047232,32.6065267 C89.4047232,32.7904182 89.4706314,32.959248 89.5799622,33.0901565 C89.7476169,33.2561555 89.9798447,33.3594509 90.2361604,33.3594509 C90.2659634,33.3594509 90.2951788,33.3582225 90.3242873,33.3554452 C90.3241805,33.3556588 90.3282931,33.3556588 90.3325125,33.3556588 C90.680961,33.3556588 91.0078316,33.2635261 91.2903718,33.1024943 C91.6712403,32.8899749 91.9716195,32.5509267 92.1352151,32.1422849 C92.18259,32.072905 92.3030301,31.6512845 92.3217237,31.2033862 L92.3638109,31.0964589 L92.3605529,31.0860439 Z M106.042709,26.0186936 L107.002918,26.0186936 L106.186809,30.6247396 C106.042869,31.572451 105.718241,32.4219409 105.247911,33.1709662 C105.265536,33.153501 104.731861,33.6315761 104.085864,33.8869305 C104.027593,33.9609037 103.455089,34.1259414 102.844022,34.1259414 C102.804926,34.1259414 102.76615,34.1255675 102.727161,34.1238584 C102.685341,34.1267425 102.629741,34.1284516 102.57382,34.1284516 C102.042548,34.1284516 101.545085,33.9832826 101.119192,33.730118 C100.724864,33.4648294 100.445742,33.0276665 100.390356,32.5230999 C100.368992,32.3839128 100.348963,32.1117876 100.348963,31.8348021 C100.348963,31.4051701 100.397299,30.9865406 100.488631,30.5846819 L101.297689,26.0161299 L102.273815,26.0161299 L101.457706,30.6167815 C101.382184,30.9355338 101.339029,31.3016076 101.339029,31.6779362 C101.339029,31.842333 101.347414,32.0047535 101.36349,32.1650377 C101.412895,32.4822945 101.606454,32.7664904 101.877991,32.9380975 C102.088428,33.0732789 102.406593,33.1735833 102.747777,33.1735833 C102.776191,33.1735833 102.804499,33.1732094 102.832646,33.1715003 C103.541256,33.1715715 104.07335,32.993822 104.428918,32.6382524 C104.784488,32.2826828 105.051185,31.6070234 105.229003,30.6112802 L106.045112,26.0104684 L106.042709,26.0186936 Z M107.642933,33.9905464 L108.675139,28.2135342 L109.475225,28.2135342 L109.331284,29.0350371 C109.745801,28.4563905 110.415833,28.0836939 111.172923,28.0828927 C111.182643,28.0827325 111.195729,28.0826256 111.208654,28.0826256 C111.501022,28.0826256 111.777313,28.1517385 112.021932,28.2743684 C112.274349,28.3923517 112.475011,28.6114405 112.570882,28.8801474 C112.616655,28.9706778 112.672789,29.213641 112.672789,29.4696897 C112.672789,29.4752978 112.672789,29.4810127 112.672736,29.4865139 C112.649609,29.933077 112.584395,30.3534156 112.480566,30.7583186 L111.92323,33.9877691 L111.032507,33.9877691 L111.653989,30.4725738 C111.697839,30.2851573 111.723102,30.0699674 111.723102,29.8490627 C111.723102,29.753031 111.718295,29.6581744 111.709108,29.5645997 C111.676795,29.3666613 111.557583,29.18982 111.390249,29.0802756 C111.271411,28.9921487 111.079081,28.9249586 110.870941,28.9249586 C110.858336,28.9249586 110.845945,28.9251188 110.83334,28.9253325 C110.426034,28.9253859 110.052376,29.0759494 109.766043,29.3245741 C109.445475,29.5892752 109.221579,30.0880735 109.088161,30.8295145 L108.528101,33.9846178 L107.642933,33.9905464 Z M115.057503,27.1442077 L115.257631,26.0186936 L116.14312,26.0186936 L115.942992,27.1442077 L115.057503,27.1442077 Z M113.844076,33.9905464 L114.868324,28.2162047 L115.759047,28.2162047 L114.734798,33.9905464 L113.844076,33.9905464 Z M116.833768,31.1021204 C117.022021,30.0352347 117.432748,29.2431074 118.065942,28.7257384 C118.538462,28.3259627 119.15487,28.0829461 119.827999,28.0829461 C119.829174,28.0829461 119.830403,28.0829461 119.831738,28.0829461 C119.864746,28.0808631 119.903521,28.0796347 119.942618,28.0796347 C120.567891,28.0796347 121.121222,28.3869572 121.460163,28.8587833 C121.828978,29.3816696 121.931615,30.1018533 121.768073,31.0193345 C121.653188,31.8236928 121.351366,32.5415265 120.908382,33.1497089 C120.788209,33.3367516 120.249994,33.7605619 119.615053,33.9743631 C119.702325,33.987502 119.240487,34.1181435 118.748151,34.1185707 C118.716746,34.1212413 118.672736,34.1227902 118.628672,34.1227902 C118.004253,34.1227902 117.451297,33.8161619 117.112302,33.3452438 C116.754133,32.8241024 116.658635,32.0754847 116.82581,31.0993965 L116.833768,31.1021204 Z M117.748578,31.1021204 C117.617047,31.8435614 117.665953,32.3974256 117.895296,32.7637131 C118.09238,33.0968328 118.449534,33.3169364 118.858176,33.3169364 C118.874947,33.3169364 118.891664,33.3167227 118.908382,33.3158682 C119.389555,33.3071089 119.820842,33.0909042 120.116254,32.7528174 C120.546207,32.2491054 120.825649,31.5905571 120.865547,30.8684506 C120.979845,30.2917962 120.922304,29.8176948 120.692925,29.4461358 C120.496535,29.1133365 120.139862,28.8931795 119.73154,28.8931795 C119.716959,28.8931795 119.702432,28.8933397 119.687958,28.8935534 C119.206945,28.9011376 118.775497,29.1147252 118.478055,29.4501415 C118.050934,29.9407146 117.773574,30.5842547 117.734371,31.2916733 L117.748578,31.1021204 Z M122.850966,33.9905464 L123.877778,28.2135342 L124.677863,28.2135342 L124.531145,29.0350371 C124.946143,28.4565508 125.616121,28.0839609 126.373318,28.0828927 C126.382505,28.0827325 126.395697,28.0826256 126.408676,28.0826256 C126.701043,28.0826256 126.977334,28.1517385 127.221953,28.2743684 C127.47437,28.3923517 127.675139,28.6114405 127.770904,28.8801474 C127.816676,28.9706778 127.872811,29.213641 127.872811,29.4696897 C127.872811,29.4752978 127.872811,29.4810127 127.872757,29.4865139 C127.849631,29.933077 127.784417,30.3534156 127.680587,30.7583186 L127.123251,33.9877691 L126.232529,33.9877691 L126.85401,30.4725738 C126.89786,30.2851039 126.923123,30.069914 126.923123,29.848582 C126.923123,29.7527106 126.918316,29.6579608 126.909236,29.564386 C126.876442,29.3662875 126.757017,29.1893927 126.58979,29.0795813 C126.471326,28.9920419 126.279049,28.924745 126.071123,28.924745 C126.058518,28.924745 126.046127,28.9249052 126.033522,28.9251188 C125.628405,28.9288576 125.257738,29.0808631 124.973703,29.3295412 C124.659063,29.5892218 124.435007,30.0880201 124.301641,30.8295145 L123.741582,33.9847247 L122.850966,33.9905464 Z M128.656873,36.2043476 L130.073152,28.2164717 L130.873238,28.2164717 L130.739872,28.9658709 C131.073152,28.547188 131.520944,28.2329755 132.035979,28.0694333 C131.760702,28.1649842 132.064767,28.0828927 132.387739,28.0828927 C132.399062,28.0828927 132.410545,28.0829461 132.421868,28.0831063 C132.436769,28.0827325 132.456317,28.0820915 132.476186,28.0820915 C132.88173,28.0820915 133.253732,28.2266197 133.543056,28.4667521 C133.877083,28.7652086 134.100819,29.1865086 134.1436,29.6599904 C134.172762,29.759921 134.198933,30.0226459 134.198933,30.2915665 C134.198933,30.5604871 134.172762,30.8230519 134.123038,31.0773914 C133.994853,31.8286599 133.692231,32.5176521 133.258219,33.1037761 C133.21063,33.2573306 132.68283,33.7241895 132.047889,33.9821076 C132.163416,33.9730278 131.728603,34.1129627 131.261477,34.1167548 C131.28001,34.1167014 131.265696,34.1168616 131.251329,34.1168616 C130.983904,34.1168616 130.734425,34.0401645 130.523721,33.9076003 C130.254267,33.7308658 130.047729,33.4655771 129.945876,33.153234 L129.542682,36.1886984 L128.656873,36.2043476 Z M130.361407,31.1367836 C130.229876,31.8800406 130.26899,32.4294718 130.47875,32.7850772 C130.648541,33.1047375 130.979417,33.3188592 131.360072,33.3188592 C131.366214,33.3188592 131.37241,33.3188057 131.378499,33.3187523 C131.835797,33.300219 132.239686,33.0820915 132.506577,32.7492923 C132.924618,32.2448326 133.199735,31.5790739 133.238137,30.8507184 C133.351153,30.3208353 133.311095,29.7714576 133.100338,29.4033008 C132.936849,29.075255 132.603783,28.8537628 132.219069,28.8537628 C132.216666,28.8537628 132.214262,28.8537628 132.211859,28.8537628 C131.745908,28.8840464 131.339509,29.1179832 131.077852,29.4665385 C130.662695,29.9599957 130.382772,30.6274101 130.340631,31.3585964 L130.361407,31.1367836 Z M138.802843,33.2704161 C138.259287,33.7281953 137.590217,34.0542648 136.854331,34.1906746 C137.435541,34.0435828 137.08752,34.1130695 136.722995,34.1130695 C136.721873,34.1130695 136.720752,34.1130695 136.71947,34.1130695 C136.140877,34.1130695 135.727428,33.9583934 135.471433,33.6490947 C135.282841,33.4122737 135.168543,33.1086364 135.168543,32.7785077 C135.168543,32.6663996 135.181682,32.5571223 135.206518,32.4525984 C135.267512,32.0995567 135.421761,31.7807509 135.642879,31.5202158 C135.746976,31.3418256 136.071603,31.0765903 136.453647,30.9251188 C136.401839,30.9078139 136.790986,30.7625381 137.209989,30.7178337 C137.19904,30.6935854 137.686943,30.6263419 138.189053,30.6173156 C138.435968,30.5688725 139.209348,30.3684239 139.931402,30.0688458 C139.267192,30.1841051 139.283161,30.0988624 139.29112,30.0509534 C139.360446,29.6508038 139.328507,29.3708807 139.18713,29.2080329 C138.972688,28.9978102 138.678825,28.8684506 138.354891,28.8684506 C138.311683,28.8684506 138.269115,28.8706938 138.227294,28.8752337 C138.201711,28.87267 138.165712,28.8715484 138.1295,28.8715484 C137.808665,28.8715484 137.50898,28.9620253 137.254534,29.1191048 C136.923283,29.3950756 136.684166,29.7848635 136.598549,30.2291299 L135.821537,29.8430273 C136.017178,29.2848902 136.350619,28.8163756 136.782173,28.4629066 C136.701844,28.5091599 137.122503,28.2690274 137.596733,28.1822358 C137.630221,28.1364632 138.037741,28.0609945 138.462727,28.0609945 C138.477361,28.0609945 138.491942,28.0610479 138.506683,28.0611547 C138.538623,28.0596058 138.578627,28.058591 138.619005,28.058591 C138.961365,28.058591 139.28877,28.1230572 139.589469,28.24072 C139.842153,28.3438552 140.056275,28.5467073 140.177569,28.8019548 C140.20561,28.8602254 140.264842,29.0839609 140.264842,29.3214763 C140.264842,29.3276184 140.264842,29.333547 140.264788,29.3395823 C140.238617,29.7812851 140.171481,30.1953213 140.066316,30.5938151 L139.915539,31.5444106 C139.733356,32.4038883 139.623224,33.3957699 139.611955,34.4114725 C139.667288,33.2857982 139.667021,33.3039577 139.667021,33.3222774 C139.667021,33.5514608 139.704408,33.7722587 139.773147,33.978262 L138.838094,33.963681 C138.798891,33.8139187 138.776298,33.6417241 138.776298,33.4645089 C138.776298,33.3894675 138.780304,33.3155477 138.788155,33.2425893 L138.802843,33.2704161 Z M139.114919,31.08332 C138.470631,31.3290605 137.725719,31.4813331 136.948493,31.5037654 C137.185848,31.5047802 136.814166,31.6184372 136.473676,31.7858249 C136.578627,31.7424558 136.406432,31.9031672 136.300253,32.1042034 C136.262545,32.1251936 136.181789,32.3209422 136.165392,32.53469 C136.166407,32.484057 136.158822,32.5430754 136.158822,32.6038028 C136.158822,32.7876943 136.224731,32.9565241 136.334061,33.0874326 C136.501716,33.2534316 136.733944,33.356727 136.99026,33.356727 C137.020063,33.356727 137.049278,33.3554986 137.078387,33.3525076 C137.07828,33.3527213 137.082392,33.3527213 137.086612,33.3527213 C137.434953,33.3527213 137.761931,33.2605886 138.044471,33.0995567 C138.42534,32.8870373 138.725719,32.5479891 138.889421,32.1391871 C138.94171,32.0668162 139.065515,31.6409763 139.085383,31.1881109 L139.126029,31.0881803 L139.114919,31.08332 Z M141.011196,36.2069647 L141.075235,35.286813 C141.233276,35.341879 141.415352,35.374299 141.605012,35.3753672 C141.578841,35.375207 141.591018,35.3753672 141.603035,35.3753672 C141.770477,35.3753672 141.928571,35.334722 142.067705,35.262725 C142.262599,35.1538749 142.420105,34.9853656 142.515336,34.7822464 C142.830136,34.3183251 143.133025,33.5588314 143.266604,32.7422956 C142.835797,34.1772152 142.875695,34.0998237 142.931508,33.9932169 L141.963394,28.2083534 L142.923604,28.2083534 L143.424966,31.5530097 C143.489005,31.9770336 143.539691,32.422475 143.568906,32.8864498 C143.746691,32.436593 143.946748,31.9982748 144.169077,31.5714896 L145.889368,28.205576 L146.780197,28.205576 L143.742436,34.0732789 C142.826504,35.9023661 141.619539,37.4506222 140.16443,38.7220531 C142.741688,35.81253 142.353449,36.1467179 141.892946,36.3436949 C142.127471,36.2344176 141.863944,36.3190194 141.58071,36.3190194 C141.576491,36.3190194 141.572325,36.3190194 141.568159,36.318966 C141.360179,36.3143727 141.163683,36.267158 140.986094,36.1858142 L141.011196,36.2069647 Z" id="形状" fill="#394144"></path>
                </g>
            </g>
        </g>
    </g>
</svg>