<?xml version="1.0" encoding="UTF-8"?>
<svg width="109px" height="43px" viewBox="0 0 109 43" version="1.1" xmlns="http://www.w3.org/2000/svg" xmlns:xlink="http://www.w3.org/1999/xlink">
    <title>抖音</title>
    <g id="案例---优化" stroke="none" stroke-width="1" fill="none" fill-rule="evenodd">
        <g id="独角兽" transform="translate(-867.000000, -1773.000000)" fill-rule="nonzero">
            <g id="更多logo" transform="translate(370.000000, 1596.000000)">
                <g id="抖音" transform="translate(497.000000, 177.000000)">
                    <g transform="translate(32.000000, 0.000000)" fill="#000000" id="形状">
                        <path d="M0,0 L0.193165069,0 L0,0.193592821 L0,0 Z M16.1668016,9.90933332 C17.300636,9.90933332 18.4344753,9.9069258 19.5707121,9.90451829 C19.5611033,11.6403387 19.5731143,13.378562 19.5635055,15.114368 C20.6348875,15.1288131 21.7062647,15.1288131 22.7776467,15.1288131 C22.7920599,16.2627555 22.7968643,17.396693 22.7704401,18.5306353 C21.7014605,18.6221209 20.6300833,18.6076756 19.5587013,18.6076756 C19.5779188,20.6660996 19.5490925,22.7269361 19.5779188,24.7877534 C20.6661127,24.4579238 21.7495066,24.096795 22.864122,23.8656746 C22.8689264,25.0525816 22.7560233,26.2346685 22.7680343,27.4239832 C21.7086642,27.7562205 20.6420917,28.0571614 19.5707097,28.3484696 C19.6716017,30.4646785 19.3569143,32.5688441 19.5322746,34.6754078 C19.4770241,38.2481625 16.0611022,41.1829237 12.5611011,40.9879092 C12.5683077,39.8804517 12.5731121,38.7729941 12.5562967,37.6631288 C14.2930865,37.6992415 16.1211574,36.5508558 16.2148408,34.6874367 C16.1836122,32.9299517 16.1259593,31.1700543 16.1716013,29.4125502 C14.9608953,29.6677467 13.7934275,30.0986931 12.5827216,30.3635214 C12.5586996,29.1501344 12.5586996,27.9343397 12.6091457,26.7233557 C13.834266,26.5668674 14.9849171,26.1094391 16.1643968,25.7675739 C16.1764078,23.3937646 16.1283639,21.0199506 16.1980276,18.6461413 C14.9969312,18.4246498 13.7766157,18.523358 12.5635026,18.4992829 C12.5755136,17.3773791 12.5707092,16.2530724 12.5659048,15.1287609 C13.7670012,15.1239458 14.9681024,15.1167233 16.1691988,15.1215383 C16.1571878,13.3833102 16.15959,11.6474946 16.1667966,9.90924252 L16.1668016,9.90933332 Z M35.8479755,9.90933332 C36.9962242,9.89970327 38.1444778,9.89970327 39.2903241,9.91414834 C39.2590956,17.1559661 39.2831175,24.4001819 39.2807153,31.6443978 C40.7124263,31.6756955 42.1465348,31.6660654 43.5806481,31.6492128 C43.5638327,32.7711166 43.6479096,33.9002387 43.5350064,35.0197348 C42.1153074,35.1810385 40.6763941,34.9426945 39.2590974,35.1665933 C39.2999348,37.109457 39.2639018,39.0547333 39.278315,41 C38.134871,40.9855549 36.9914236,40.99037 35.8479783,40.9927774 C35.8503805,39.0186135 35.8311629,37.0420419 35.8455761,35.0654606 C31.7354173,35.0823133 27.6252585,35.0799057 23.5151237,35.0654606 C23.4886995,33.9315183 23.4838951,32.7951731 23.5031127,31.658823 C27.6180762,31.6467855 31.7330493,31.6973433 35.845577,31.6323404 C35.8383704,24.3929208 35.8359682,17.151151 35.8479792,9.90933327 L35.8479755,9.90933332 Z M59.8723442,9.9069258 C61.0061787,9.94544605 62.1352131,9.82266287 63.2690523,9.77691985 C63.2594436,10.7351094 63.2570414,11.6933037 63.2762589,12.6539009 C67.3287653,12.6851986 71.3860764,12.6153806 75.4385923,12.6851986 C75.7989217,13.6987605 75.5010495,14.9434476 75.5899305,16.0460898 C66.2261834,16.0364598 56.8623883,16.0147921 47.4986411,16.0581274 C47.4674126,14.924185 47.4746192,13.7902475 47.4842279,12.6587129 C51.5799724,12.6587129 55.6781289,12.6538979 59.7762518,12.6611204 C59.8555242,11.7462648 59.8675352,10.8265937 59.8723395,9.90692269 L59.8723442,9.9069258 Z M24.8315124,18.4897196 C24.9468178,17.4135622 24.5696731,16.087018 25.0164816,15.1649392 C27.9519655,15.0638238 30.8970588,15.1432715 33.8373474,15.1384565 C33.844554,16.2579526 33.8469562,17.3774487 33.8229342,18.4945323 C30.8273956,18.5089774 27.8294641,18.5186075 24.8315087,18.4897172 L24.8315124,18.4897196 Z M52.7041944,17.4183728 C53.7563573,17.1078035 54.9622585,17.4857833 56.0744763,17.3870751 C56.0888894,18.4078602 56.0888894,19.42865 56.0816828,20.449435 C59.7354221,20.4662876 63.3915829,20.4999929 67.0477054,20.4325824 C67.0429011,19.3804972 67.0429011,18.3260043 67.078934,17.2763269 C68.1383041,17.3750351 69.2024742,17.3894803 70.2618442,17.2546592 C70.5116726,18.3067444 70.4275958,19.3901249 70.4396068,20.4614717 C72.6207994,20.4590642 74.8019968,20.4879544 76.9831846,20.4446191 C76.987989,21.6122645 76.9855868,22.7775022 77,23.9451476 C66.718609,23.9258874 56.4372181,23.9258874 46.1557793,23.9427401 C46.1581815,22.7823178 46.1605837,21.6218955 46.1485727,20.4614732 C48.3201606,20.4807334 50.4893412,20.4398056 52.6609482,20.4879559 C52.670557,19.4647631 52.5936867,18.4367502 52.7041878,17.4183729 L52.7041944,17.4183728 Z M24.8531434,23.9042098 C27.8775107,23.6225305 30.9115066,23.9812501 33.9406643,23.8897647 C33.8373699,24.9803684 33.7917279,26.0733797 33.8229565,27.1688036 C30.8298203,27.1519509 27.8342721,27.2554742 24.8459358,27.1663961 C24.8507402,26.0806078 24.8555446,24.9924071 24.8531424,23.9042111 L24.8531434,23.9042098 Z M49.7903225,28.8998123 C49.7831159,27.2602952 51.3709669,25.8639323 52.9684279,25.8856017 C57.9697899,25.6881853 62.9783782,25.8735641 67.982133,25.7868935 C67.9797308,26.9473158 67.9845352,28.107738 67.9557088,29.2681603 C63.3963377,29.2705678 58.8393785,29.2344551 54.2824098,29.2801979 C53.1509729,29.2801979 53.1389658,30.601922 52.9852228,31.4156636 C53.4008027,31.6178949 53.8548189,31.6997507 54.3160383,31.6756755 C58.8706047,31.6371553 63.427583,31.6853056 67.9821111,31.6491928 C67.9797089,32.7927612 67.9797089,33.9363343 67.9676979,35.0799027 C63.0311812,35.0823102 58.0946644,35.0558275 53.1581477,35.0847177 C53.0980929,36.001981 53.0260271,37.4850117 54.3136036,37.4898271 C59.1035844,37.5524226 63.8983509,37.5066797 68.6907725,37.5114948 C69.4378566,37.5692753 70.0360024,36.8518366 69.9927642,36.1319858 C70.0215906,32.6892374 69.9831555,29.2440814 69.9999708,25.7989061 C71.1073838,25.8037212 72.2147968,25.8085362 73.3222098,25.7844611 C73.4110908,29.7111196 73.3414274,33.6425935 73.348634,37.5716597 C73.4567326,39.4085941 71.7439657,41.1251529 69.9086877,40.9831079 C64.3788491,40.9734779 58.8417841,41.0529261 53.3191239,40.9205124 C51.5991508,41.2214519 49.8719706,39.7143486 49.7951038,38.0001975 C49.701418,34.969133 49.7182333,31.9332627 49.7902994,28.8997952 L49.7903225,28.8998123 Z"></path>
                    </g>
                    <g transform="translate(0.000000, 3.000000)">
                        <path d="M13.9825119,15.7146182 L13.9825119,14.1545018 L13.9825119,14.1545018 C13.4317839,14.0776428 12.8765674,14.037494 12.320522,14.034321 C5.52965841,14.034321 -2.50408017e-05,19.467464 -2.50408017e-05,26.1386358 C-2.50408017e-05,30.2296948 2.08280816,33.8525367 5.26113694,36.0452946 L5.26113634,36.0452946 C3.13926831,33.8268687 1.95364178,30.8762348 1.95058146,27.8064491 C1.95058146,21.2300176 7.3216388,15.8669983 13.9825119,15.7146519" id="路径" fill="#20F4F2"></path>
                        <path d="M14.2729166,33.3338381 C17.3046848,33.3338381 19.7762252,30.9659678 19.8906001,28.0146095 L19.900429,1.66823254 L24.8010505,1.66823254 L24.8010505,1.66823155 C24.696401,1.11830678 24.6434515,0.559791339 24.6428943,-9.8520669e-07 L17.949869,-9.8520669e-07 L17.9378063,26.346376 C17.8256674,29.2963862 15.3545912,31.6678235 12.3232627,31.6678235 L12.3232625,31.6678235 C11.4145053,31.668583 10.5188811,31.4508452 9.71190165,31.0329674 L9.71190165,31.0329678 C10.7785233,32.4839299 12.4730303,33.3394014 14.2738364,33.3360662 M33.956661,10.6098629 L33.956661,9.14580133 L33.956661,9.14580133 C32.1586929,9.14829696 30.3979054,8.63389408 28.884058,7.66387174 L28.884058,7.66387174 C30.2152321,9.16446465 31.9936112,10.1972843 33.956661,10.6098629" id="形状" fill="#20F4F2"></path>
                        <path d="M28.8840179,7.66387232 L28.8840176,7.66387232 C27.4111309,6.013947 26.5964902,3.87995071 26.5952217,1.66822992 L24.8010005,1.66822992 L24.8010005,1.66822992 C25.2793698,4.14391915 26.7572342,6.31288939 28.8862486,7.66387232 M12.3231963,20.6130182 C9.21904798,20.6130182 6.6939163,23.0921362 6.6939163,26.1404409 C6.6939163,28.2612498 7.91985035,30.1055117 9.7100479,31.0307636 L9.71004789,31.0307636 C9.018917,30.0977374 8.64542767,28.9675567 8.64450664,27.8064379 C8.64450664,24.7603729 11.1678549,22.2790151 14.2737867,22.2790151 L14.2737869,22.2790151 C14.8375019,22.280692 15.3977632,22.3671403 15.9357658,22.5354603 L15.9357658,15.8245587 L15.9357658,15.8245588 C15.3850079,15.7484078 14.8297873,15.709005 14.2737921,15.706612 C14.1755029,15.706612 14.0794477,15.7106329 13.9833929,15.7146538 L13.9833929,20.8672182 L13.983393,20.8672183 C13.4452197,20.6998868 12.8850004,20.6141969 12.3214151,20.6130071" id="形状" fill="#FD1A52"></path>
                        <path d="M33.9548621,10.6076028 L33.9548621,15.7204374 L33.9548622,15.7204374 C30.621156,15.725604 27.3678388,14.6971462 24.6428525,12.7766818 L24.6428525,26.1350597 C24.6428525,32.808869 19.1140901,38.2353136 12.3205471,38.2353136 L12.3205476,38.2353136 C9.79845114,38.2391397 7.33510786,37.47408 5.25894349,36.0421288 L5.25894349,36.0421285 C7.6039012,38.5145648 10.8635651,39.9121826 14.2711586,39.9062484 C21.0660412,39.9062484 26.5930453,34.4771055 26.5930453,27.8041753 L26.5930453,14.4457975 L26.5930456,14.4457976 C29.3185301,16.3650814 32.5720231,17.3921446 35.9054739,17.3855342 L35.9054739,10.8122425 L35.9054739,10.8122425 C35.2499532,10.8115982 34.5962663,10.7430252 33.9548835,10.6076028" id="路径" fill="#FD1A52"></path>
                        <path d="M24.6428524,26.1381829 L24.6428524,12.779805 L24.6428517,12.7798045 C27.3682357,14.6989501 30.6215362,15.7260008 33.9548614,15.719541 L33.9548614,10.6098462 L33.9548614,10.6098462 C31.9926703,10.1974276 30.2149819,9.16527275 28.8840591,7.66564273 L28.8840592,7.66564283 C26.7552584,6.31403872 25.2781224,4.14431492 24.8010425,1.66824471 L19.9004629,1.66824471 L19.890634,28.0146217 C19.7762612,30.9632922 17.3047396,33.3338503 14.2729505,33.3338503 L14.2729503,33.3338503 C12.4721945,33.3369028 10.7778131,32.4814977 9.71101592,31.0307575 L9.71101555,31.0307573 C7.86819383,30.0938837 6.70369233,28.2054711 6.69398804,26.1382158 C6.69398804,23.0921508 9.21733628,20.6112535 12.3232681,20.6112535 L12.3232683,20.6112535 C12.8862926,20.6138674 13.4458003,20.7001428 13.9834586,20.867252 L13.9834586,15.7146875 C7.32258557,15.8665889 1.95152784,21.2295927 1.95152784,27.8064847 L1.95152784,27.8059942 C1.95389835,30.8760059 3.13910527,33.827046 5.26084771,36.0458857 L5.2608475,36.0458855 C7.33707023,37.4781884 9.80059353,38.2435625 12.3229119,38.2399789 C19.1137755,38.2399789 24.6434589,32.8126426 24.6434589,26.1401311" id="路径" fill="#231916"></path>
                    </g>
                </g>
            </g>
        </g>
    </g>
</svg>