<?xml version="1.0" encoding="UTF-8"?>
<svg width="82px" height="40px" viewBox="0 0 82 40" version="1.1" xmlns="http://www.w3.org/2000/svg" xmlns:xlink="http://www.w3.org/1999/xlink">
    <title>美团</title>
    <g id="案例---优化" stroke="none" stroke-width="1" fill="none" fill-rule="evenodd">
        <g id="独角兽" transform="translate(-1254.000000, -1776.000000)" fill="#25B7AA" fill-rule="nonzero">
            <g id="更多logo" transform="translate(370.000000, 1596.000000)">
                <g id="美团" transform="translate(884.000000, 180.000000)">
                    <path d="M7.71539769,0.131843111 C7.71539769,0.197030691 7.72999493,0.250420985 7.74759163,0.250420985 C7.7653883,0.250420985 7.80957999,0.31260934 7.84577339,0.388594978 C7.88216656,0.464780616 7.92975748,0.526968971 7.95195359,0.526968971 C7.97394948,0.526968971 7.99214583,0.563762062 7.99214583,0.608953445 C7.99214583,0.653944906 8.01434168,0.715533261 8.04153651,0.745727826 C8.15871439,0.876503371 8.18970857,0.921294832 8.18970857,0.960087457 C8.18970857,0.982683226 8.20750523,1.00127969 8.22910119,1.00127969 C8.25089712,1.00127969 8.26869382,1.03727294 8.26869382,1.08146456 C8.26869382,1.1256564 8.29228939,1.17084786 8.32128373,1.18184554 C8.35007833,1.19304344 8.39786936,1.26363001 8.42746393,1.33881604 C8.45685842,1.41400206 8.49365151,1.47539042 8.50884879,1.47539042 C8.52424588,1.47539042 8.54784141,1.51998188 8.56163908,1.57417178 C8.57523652,1.62856169 8.60383132,1.67295315 8.62522705,1.67295315 C8.64642305,1.67295315 8.66381979,1.69974811 8.66381979,1.7323419 C8.66381979,1.76493576 8.68161645,1.79153064 8.70341242,1.79153064 C8.72520834,1.79153064 8.74300504,1.82532428 8.74300504,1.86631667 C8.74300504,1.9075089 8.76960003,1.95150075 8.80219378,1.96389842 C8.83478765,1.97649605 8.86158253,2.02288717 8.86158253,2.06687901 C8.86158253,2.11107086 8.87917923,2.14726388 8.90097515,2.14726388 C8.92277108,2.14726388 8.94056778,2.17385887 8.94056778,2.20645262 C8.94056778,2.23904649 8.96716277,2.26584136 8.99975652,2.26584136 C9.03674957,2.26584136 9.05914527,2.30303438 9.05914527,2.36462273 C9.05914527,2.41901264 9.07694193,2.4634041 9.09853789,2.4634041 C9.12033381,2.4634041 9.13813051,2.4873996 9.13813051,2.51699401 C9.13813051,2.5463885 9.18252198,2.61837499 9.23691188,2.67696373 C9.29130179,2.73555286 9.33569325,2.79914083 9.33569325,2.81793734 C9.33569325,2.87192724 9.47086802,3.09508532 9.50366181,3.09548532 C9.52005874,3.09548532 9.53325626,3.12228028 9.53325626,3.15487407 C9.53325626,3.18766789 9.55105292,3.21426281 9.57284888,3.21426281 C9.59464481,3.21426281 9.61224151,3.23945807 9.61224151,3.27025233 C9.61224151,3.34083913 9.74061744,3.56939604 9.78021007,3.56959604 C9.796607,3.56979601 9.81000448,3.59659096 9.81000448,3.62918479 C9.81000448,3.66177865 9.82780114,3.68837353 9.8493971,3.68837353 C9.87119302,3.68837353 9.88898972,3.72456674 9.88898972,3.76875839 C9.88898972,3.81295024 9.9125853,3.8581417 9.94158002,3.86913937 C9.97037462,3.88033728 10.0181657,3.95092385 10.0477602,4.02610987 C10.0771547,4.1010959 10.1247459,4.16268425 10.1531404,4.16268425 C10.182135,4.16268425 10.2051307,4.2062761 10.2051307,4.26146562 C10.2051307,4.31585553 10.2229274,4.36024699 10.2447233,4.36024699 C10.2663193,4.36024699 10.284116,4.38704195 10.284116,4.41963573 C10.284116,4.4522296 10.3019126,4.47882448 10.3237086,4.47882448 C10.3453045,4.47882448 10.3631012,4.49662114 10.3631012,4.5184171 C10.3631012,4.54441221 8.77579779,4.55780973 5.68017154,4.55780973 L0.99724186,4.55780973 L0.99724186,6.588827 C0.99724186,8.40428465 1.00404058,8.62224582 1.05983021,8.64384039 C1.09422377,8.65703791 4.71314316,8.66783589 9.10171406,8.66783589 L17.0812042,8.66783589 L17.0812042,10.9993973 L10.1110953,10.9993973 C4.29059918,10.9993973 3.13361192,11.0081956 3.09643049,11.0529872 C3.06483643,11.09098 3.05143903,11.6774692 3.05003903,13.0782052 L3.04803942,15.0500334 L10.0645189,15.0600315 L17.0811914,15.0700296 L17.0811914,17.4801778 L8.71316889,17.4901759 L0.345339423,17.500174 L0.334941403,19.5451913 L0.324743305,21.5902086 L38.5791452,21.5902086 L38.5791452,17.4803671 L21.8628685,17.4803671 L21.8628685,15.0700182 L28.8873402,15.06002 L35.9116189,15.0500219 L35.921817,13.0973907 C35.9312153,11.3225237 35.9262162,11.1381571 35.8664275,11.0719719 C35.8030395,11.0019851 35.5474873,10.9993854 28.8317627,10.9993854 L21.8628894,10.9993854 L21.8628894,8.66782407 L37.9038772,8.66782407 L37.9268729,8.53924814 C37.9394705,8.46866134 37.9446695,7.54843446 37.9384707,6.49423088 L37.9270728,4.57759187 L33.2935254,4.56759377 C29.2114831,4.55879544 28.6599779,4.55039699 28.6599779,4.49840658 C28.6599779,4.46581272 28.6777745,4.43921784 28.6995705,4.43921784 C28.7213664,4.43921784 28.7391631,4.42042137 28.7391631,4.3972256 C28.7391631,4.37402995 28.783555,4.29664462 28.8379445,4.22545782 C28.8921344,4.15427141 28.9367259,4.06648771 28.9367259,4.03049431 C28.9367259,3.99450106 28.9545225,3.96510673 28.9761185,3.96510673 C28.9979144,3.96510673 29.0157111,3.94271092 29.0157111,3.91531605 C29.0157111,3.88792121 29.0601029,3.81753429 29.1144925,3.75894555 C29.1688824,3.70035642 29.2132738,3.61597233 29.2132738,3.57158087 C29.2132738,3.52718902 29.2314704,3.49079601 29.2534661,3.49079601 C29.275462,3.49079601 29.3232529,3.42860765 29.3596463,3.35262201 C29.3958395,3.27643638 29.4400311,3.21424802 29.4578276,3.21424802 C29.4754243,3.21424802 29.4900216,3.16985617 29.4900216,3.11546665 C29.4900216,3.06027713 29.5128173,3.01668528 29.5418119,3.01668528 C29.5704065,3.01668528 29.6177975,2.95509693 29.6473921,2.8799109 C29.6767866,2.80472488 29.7245777,2.73413846 29.7535723,2.7231404 C29.7823669,2.71214246 29.8061626,2.66675089 29.8061626,2.62275942 C29.8061626,2.57856758 29.8239592,2.54237456 29.8455552,2.54237456 C29.8673511,2.54237456 29.8851478,2.51577957 29.8851478,2.48318582 C29.8851478,2.45059195 29.9029445,2.42379707 29.9245405,2.42379707 C29.9463364,2.42379707 29.9641331,2.39940165 29.9641331,2.36940717 C29.9641331,2.3394128 29.990928,2.29282153 30.0235218,2.26582658 L30.0235218,2.26582658 C30.0584496,2.23389194 30.0796612,2.18967762 30.0827106,2.14244987 C30.0827106,2.10165763 30.1005072,2.06826384 30.1223032,2.06826384 C30.1438991,2.06826384 30.1616958,2.04146889 30.1616958,2.0088751 C30.1616958,1.97628123 30.1782927,1.94968636 30.1982889,1.94968636 C30.235282,1.94968636 30.3592587,1.7305275 30.3592587,1.66513992 C30.3592587,1.64554361 30.4038501,1.58855428 30.45804,1.5381636 C30.5124299,1.48777292 30.5570214,1.41758612 30.5570214,1.3819931 C30.5570214,1.34639978 30.5744181,1.31740513 30.5956141,1.31740513 C30.6170101,1.31740513 30.6456048,1.27281367 30.6592021,1.21862377 C30.6727996,1.16423386 30.6999944,1.1198424 30.7191909,1.1198424 C30.7385872,1.1198424 30.7545842,1.09304744 30.7545842,1.06045365 C30.7545842,1.02785979 30.7723808,1.00126491 30.7939768,1.00126491 C30.8157727,1.00126491 30.8335694,0.966471431 30.8335694,0.924079273 C30.8335694,0.881687423 30.8557653,0.832896352 30.8829601,0.815499845 C30.910155,0.798103105 30.9591458,0.73051576 30.9917395,0.66532818 C31.0243334,0.6001406 31.0731244,0.523154963 31.100319,0.494560397 C31.1275138,0.465765793 31.1497097,0.416975147 31.1497097,0.385780969 C31.1497097,0.354786792 31.1631071,0.329191451 31.1793041,0.328991451 C31.2148974,0.32879149 31.30768,0.13742755 31.30768,0.064641136 C31.30768,-0.0577359617 27.0880704,0.00665200477 27.0470665,0.129629102 C27.039468,0.152624793 26.990277,0.171421338 26.9376871,0.171421338 C26.8850968,0.171421338 26.842105,0.189018039 26.842105,0.210813963 C26.842105,0.232609887 26.8061117,0.250406587 26.7619201,0.250406587 C26.7177283,0.250406587 26.6713372,0.27700158 26.6589395,0.309595331 C26.6463419,0.342189198 26.60375,0.368984075 26.5641574,0.368984075 C26.4867717,0.368984075 25.8936831,0.924879272 25.8936831,0.9972653 C25.8936831,1.02106084 25.8768863,1.04065715 25.8560902,1.04065715 C25.8352941,1.04065715 25.787103,1.10744473 25.7487104,1.1888292 C25.6809232,1.33320203 25.650129,1.37979349 25.547948,1.49377175 C25.5207532,1.52396609 25.4985574,1.58555467 25.4985574,1.63074613 C25.4985574,1.67573759 25.4835602,1.71253061 25.4653636,1.71253061 C25.4469671,1.71253061 25.398376,1.77471896 25.3575838,1.8509046 C25.3165916,1.92689024 25.2692005,1.98907859 25.2524036,1.98907859 C25.2356067,1.98907859 25.2220093,2.03367005 25.2220093,2.08785996 C25.2220093,2.14944832 25.1996135,2.18684133 25.1626206,2.18684133 L25.1626206,2.18684133 C25.129977,2.18695106 25.1035415,2.21338663 25.1034318,2.24603007 C25.1034318,2.27862394 25.0856352,2.30521882 25.0638392,2.30521882 C25.0420433,2.30521882 25.0244466,2.34081214 25.0244466,2.38440407 C25.0244466,2.42779592 25.0078497,2.46338932 24.9874535,2.46338932 C24.9672573,2.46338932 24.9384629,2.50198206 24.9234656,2.5491734 C24.9084684,2.59656447 24.8626768,2.6709505 24.8218846,2.71474235 C24.7810924,2.75853419 24.7476986,2.82472177 24.7476986,2.86171479 L24.7476986,2.86171473 C24.7465969,2.90054558 24.7236966,2.93543782 24.6885098,2.95189765 C24.655916,2.96449528 24.6291211,3.01068678 24.6291211,3.05487824 C24.6291211,3.09907009 24.6113244,3.1352631 24.5897285,3.1352631 C24.5679325,3.1352631 24.5501358,3.15425953 24.5501358,3.17745534 C24.5501358,3.20085095 24.52794,3.24464253 24.5007451,3.2750371 C24.378168,3.41161148 24.3525731,3.45180371 24.3525731,3.50699362 C24.3525731,3.53938753 24.3081812,3.61377344 24.2537917,3.67236257 C24.1994018,3.7311517 24.1550104,3.80313811 24.1550104,3.83253229 C24.1550104,3.86192678 24.1414129,3.8861222 24.124816,3.8861222 C24.0946217,3.8861222 24.023235,4.00310007 23.9742444,4.13307601 C23.9598471,4.17106886 23.9324521,4.2022632 23.913256,4.20226281 C23.8940596,4.20226281 23.8782626,4.23765617 23.8782626,4.28124806 C23.8782626,4.32463991 23.8634654,4.36023331 23.8450688,4.36023331 C23.8268722,4.36023331 23.7916789,4.40462516 23.7668836,4.45901468 L23.7218921,4.55779604 L19.4926685,4.55779604 C15.9267377,4.55779604 15.2632519,4.54939764 15.2632519,4.50340614 C15.2632519,4.47341177 15.2382566,4.42822011 15.2076624,4.40282516 C15.1770681,4.37742993 15.1228783,4.29524534 15.0872849,4.22005932 C15.0516916,4.14507329 15.0055004,4.08368494 14.9849043,4.08368494 C14.9641082,4.08368494 14.9471114,4.04809161 14.9471114,4.00449969 C14.9471114,3.96110784 14.9293148,3.92551444 14.9077188,3.92551444 C14.8859229,3.92551444 14.8681262,3.89891944 14.8681262,3.86632569 C14.8681262,3.83373183 14.8523291,3.80693695 14.8329328,3.80693695 C14.8135365,3.80693695 14.7865417,3.76254549 14.7729441,3.70815558 C14.7591467,3.65396567 14.7305522,3.60937421 14.7093561,3.60937421 C14.6879601,3.60937421 14.6705635,3.57378089 14.6705635,3.53038896 C14.6705635,3.48699712 14.6527668,3.45140371 14.6309708,3.45140371 C14.6093749,3.45140371 14.5915782,3.42460876 14.5915782,3.39201497 L14.5915782,3.39201511 C14.5914681,3.35929368 14.5649111,3.33282598 14.5321895,3.33282598 C14.4953964,3.33282598 14.4730007,3.29543301 14.4730007,3.23404462 C14.4730007,3.17965471 14.4552041,3.13526325 14.4334081,3.13526325 C14.4116122,3.13526325 14.3940155,3.11106779 14.3940155,3.08167334 C14.3940155,3.05227885 14.349424,2.98029236 14.2950341,2.92150323 C14.2408442,2.8629141 14.1962527,2.78032962 14.1962527,2.73793778 C14.1962527,2.69554593 14.1784561,2.66095214 14.1568601,2.66095214 C14.1350642,2.66095214 14.1172675,2.63855633 14.1172675,2.61116145 C14.1172675,2.58376662 14.072876,2.5133797 14.0184861,2.45479095 C13.9640962,2.39620182 13.9197048,2.32021619 13.9197048,2.28602278 L13.9197048,2.28602285 C13.9175967,2.24879397 13.8947043,2.21592485 13.860516,2.20103876 C13.8277222,2.18844113 13.8011273,2.14464924 13.8011273,2.10345701 C13.8011273,2.06226477 13.7877298,2.02867098 13.7713329,2.02867098 C13.7549359,2.02867098 13.717543,1.97488107 13.6885484,1.9092935 C13.6595538,1.84350592 13.6143624,1.76791989 13.588567,1.74132494 C13.5625719,1.71452998 13.5099818,1.62614667 13.4717892,1.54456181 C13.4335963,1.46297695 13.3852055,1.39638976 13.3646093,1.39638976 C13.3438133,1.39638976 13.3270164,1.36079644 13.3270164,1.31740451 C13.3270164,1.27381266 13.3092197,1.23821926 13.2874238,1.23821926 C13.2656279,1.23821926 13.2478312,1.21362388 13.2478312,1.18322974 C13.2478312,1.15303541 13.2212362,1.11804216 13.1886424,1.10544449 C13.1560485,1.09304682 13.1292537,1.05685342 13.1292537,1.02525963 C13.1292537,0.952273217 12.6631422,0.486159783 12.5121693,0.408175305 C12.449581,0.375781399 12.3839934,0.326990444 12.3665969,0.299795491 C12.3492002,0.272600614 12.3004093,0.250404807 12.2580175,0.250404807 C12.2156256,0.250404807 12.1808318,0.232608145 12.1808318,0.210812182 C12.1808318,0.189016258 12.13784,0.171419557 12.0854497,0.171419557 C12.0328594,0.171419557 11.9836687,0.15262309 11.9760703,0.129627321 C11.9444762,0.0348451765 11.5517502,0.0150486712 9.68130036,0.0142490581 L7.71527143,0.0132492406 L7.71527143,0.131827114 M44.0719926,20.0890658 L44.0719926,39.5325985 L60.6137127,39.5222005 C76.3151642,39.5122024 77.1577889,39.5082031 77.2057811,39.4426153 C77.237975,39.3986234 77.3087617,39.3734285 77.4001446,39.3734285 C77.4793299,39.3734285 77.5441174,39.3556318 77.5441174,39.3338358 C77.5441174,39.3122399 77.5825102,39.2944432 77.6295015,39.2944432 C77.7336821,39.2944432 78.018227,39.1730661 78.018227,39.1286743 C78.018227,39.1110776 78.0436222,39.0968802 78.0744165,39.0968802 C78.1448033,39.0968802 78.3733602,38.9685043 78.3737602,38.9289117 C78.3737602,38.9125147 78.3929566,38.8991173 78.4163521,38.8991173 C78.4395477,38.8991173 78.4833397,38.8769214 78.5137338,38.8497266 C78.6355109,38.7405472 78.6881012,38.7015545 78.7134962,38.7015545 C78.7726849,38.7015545 79.3521751,38.0800725 79.4041673,37.9606943 C79.4349615,37.8899075 79.4793533,37.8321183 79.5025487,37.8321183 C79.5257443,37.8321183 79.5691363,37.76993 79.5989304,37.6939443 C79.6289248,37.6177587 79.664318,37.5555703 79.6779157,37.5555703 C79.6913132,37.5555703 79.7335052,37.4799847 79.7714982,37.3876018 C79.809691,37.2952193 79.8574819,37.1888391 79.878078,37.1510464 L79.878078,37.1510464 C79.9009474,37.1029121 79.9135457,37.0505442 79.9150711,36.9972751 C79.9150711,36.9504841 79.9462652,36.8894953 79.9842582,36.8617008 C80.0500458,36.8137097 80.054045,35.8976824 80.0636435,18.7283212 L80.0740415,0.645520768 L44.0719926,0.645520768 L44.0719926,20.0890534 M75.6472711,19.6885288 C75.6472711,32.2467787 75.6404519,33.8762752 75.5878619,33.9198659 L75.5878619,33.9198659 C75.5529681,33.9518257 75.5317635,33.9960256 75.5286731,34.0432426 C75.5286731,34.0840348 75.5108765,34.1174286 75.4890805,34.1174286 L75.4890805,34.1174286 C75.4678062,34.1169798 75.4501412,34.1337525 75.4494879,34.1550215 C75.4494879,34.2296076 75.1491442,34.4833598 74.9655772,34.5637431 C74.8621966,34.6089346 74.7778125,34.6605249 74.7778125,34.6781218 C74.7778125,34.6959184 68.8915249,34.7103157 61.697285,34.7103157 L48.6167576,34.7103157 L48.6167576,5.50621365 L75.6472711,5.50621365 L75.6472711,19.6885547 M65.3412196,6.73899234 C65.3050264,6.77518555 65.2934285,7.33787978 65.2934285,9.07075449 L65.2934285,11.3547252 L57.5576834,11.3647233 L49.8219382,11.3747214 L49.8117402,13.4495302 L49.8015421,15.5245397 L49.8909254,15.5835284 C49.9689106,15.6353187 50.8135538,15.6451168 56.6126561,15.6625137 L63.2451977,15.6823099 L63.1680121,15.7710932 C63.1256202,15.8200839 63.0784288,15.8600765 63.0630319,15.8600765 C63.02004,15.8600765 62.9222583,15.9678564 62.9222583,16.0152474 C62.9222583,16.038643 62.897063,16.0576393 62.8662688,16.0576397 C62.8354746,16.0576397 62.8044804,16.0710371 62.7970816,16.0872341 C62.7898829,16.103631 62.6969002,16.1870154 62.5903204,16.2725991 L62.5903202,16.2725993 C62.4516671,16.3865424 62.3169471,16.5051894 62.1863978,16.6283325 C61.9226475,16.8790856 61.865458,16.9270763 61.8312646,16.9270763 C61.8162674,16.9270763 61.7434813,16.9892646 61.6696949,17.0654502 C61.5959088,17.1414359 61.526122,17.2036242 61.514724,17.2036242 C61.477331,17.2036242 61.3811492,17.3156033 61.3811492,17.3589951 L61.3811492,17.3589951 C61.3810398,17.3823621 61.3621242,17.4012777 61.3387574,17.4013873 C61.3155617,17.4013873 61.2729698,17.4235832 61.2443752,17.450778 L61.2443751,17.4507781 C61.1921482,17.4964174 61.137549,17.5392687 61.0808058,17.579154 C61.0196175,17.6225459 60.8788439,17.7471226 60.7680644,17.855702 C60.6570854,17.9644814 60.4963153,18.105855 60.4107316,18.170243 L60.4107316,18.170243 C60.2974595,18.2589965 60.189806,18.3546961 60.0883922,18.456789 C59.9968093,18.5499715 59.9034271,18.6263572 59.880831,18.6263572 C59.8582352,18.6263572 59.8398388,18.6509526 59.8398388,18.6807471 C59.8398388,18.7107415 59.7878485,18.7569327 59.7240605,18.7833277 C59.6604725,18.8097227 59.5762881,18.8741106 59.5368958,18.9263009 C59.4977032,18.9786912 59.4507121,19.021483 59.4325152,19.021483 C59.3853242,19.021483 59.2865428,19.1266632 59.2865428,19.1768539 L59.2865428,19.1768539 C59.2866563,19.1998145 59.2683072,19.2186091 59.2453506,19.2190462 C59.2225548,19.2190462 59.1621661,19.2592384 59.1109758,19.3080295 C59.0597855,19.3570201 58.9592041,19.4414042 58.8872177,19.4957941 C58.8152313,19.550184 58.6708585,19.6789596 58.5664779,19.7823402 C58.4620977,19.8855208 58.3695147,19.9699049 58.3607167,19.9699049 C58.3403205,19.9699049 58.161554,20.1174773 58.0131819,20.2564509 C57.9495939,20.3162396 57.8886052,20.3652303 57.8778071,20.3652303 C57.841414,20.3652303 57.745432,20.4778094 57.745432,20.5204012 L57.745432,20.5204013 C57.7456544,20.5435162 57.7271533,20.5624642 57.7040397,20.5627931 C57.681444,20.5627931 57.6200557,20.6027857 57.5676654,20.6515764 C57.4278918,20.782352 57.356305,20.8393411 57.3319096,20.8393411 C57.3199119,20.8393411 57.1847372,20.9639178 57.0313663,21.1160891 C56.877995,21.2680604 56.7386214,21.3926371 56.7216245,21.3926371 C56.7046277,21.3926371 56.5980478,21.4816204 56.4846691,21.5901998 C56.3712905,21.6989792 56.2695095,21.7877625 56.2583115,21.7877625 C56.2213184,21.7877625 56.1251363,21.8999416 56.1251363,21.9431334 C56.1251363,21.9663291 56.1027405,21.9853257 56.0753456,21.9853257 C56.0479508,21.9853257 55.9775639,22.0299171 55.9189751,22.084107 C55.860386,22.1384969 55.8015972,22.1830884 55.7881996,22.1830884 C55.7480073,22.1830884 55.6510252,22.2928678 55.6510252,22.3382593 L55.6510252,22.3382593 C55.6512488,22.3612975 55.6328681,22.3802137 55.609833,22.3806515 C55.5872372,22.3806515 55.4970543,22.4516383 55.4090706,22.538622 C55.3212869,22.6256057 55.2373028,22.6967921 55.2223055,22.6967921 C55.2075083,22.6967921 55.0719339,22.8123704 54.9213622,22.953544 C54.7707905,23.0949176 54.6332162,23.2104959 54.6158197,23.2104959 C54.598223,23.2104959 54.5840256,23.2370909 54.5840256,23.2696846 C54.5840256,23.3022785 54.5604301,23.3290734 54.5318353,23.3290734 C54.480245,23.3290734 54.3564683,23.4280547 54.0505269,23.7146008 L54.0505268,23.7146009 C53.9352829,23.8202668 53.8166429,23.9221679 53.6947936,24.0201435 L53.6947935,24.0201435 C53.5606662,24.1296338 53.431496,24.2450595 53.3076703,24.366076 C53.2032901,24.4694566 53.1029087,24.5540407 53.0845122,24.5540407 C53.0663156,24.5540407 53.0409204,24.5808357 53.0285227,24.6134294 C53.0159251,24.6460233 52.9871305,24.6726182 52.9643347,24.6726182 C52.941539,24.6726182 52.8623537,24.7348065 52.7885677,24.8109922 C52.7145817,24.8869778 52.6425953,24.9493662 52.628198,24.9493662 C52.5868058,24.9493662 52.489424,25.0581456 52.489424,25.1045371 C52.489424,25.1277327 52.4718273,25.1469289 52.4502314,25.1469289 C52.4146381,25.1469289 52.2830628,25.2469103 52.1510877,25.3740862 C52.1230929,25.4012811 52.0809009,25.4234769 52.0577051,25.4234769 C52.0121137,25.4234769 51.9937172,31.2373707 52.0389087,31.2827761 C52.069303,31.3129704 52.2524687,31.2307858 52.2524687,31.1867939 C52.2524687,31.1685973 52.2700654,31.1536002 52.2918613,31.1536002 C52.3434516,31.1536002 52.6475945,30.8494572 52.6475945,30.7980669 C52.6475945,30.776271 52.6741895,30.7584743 52.7067833,30.7584743 C52.7393771,30.7584743 52.766172,30.7418774 52.766172,30.7216812 C52.766172,30.7012851 52.8011655,30.6736901 52.8439573,30.6600929 C52.8867491,30.6464954 53.0209239,30.5385158 53.1421014,30.4203379 C53.2632785,30.30196 53.3710583,30.2051783 53.3816564,30.2051783 C53.3924543,30.2051783 53.4500435,30.1563876 53.5100323,30.0965988 C53.6608039,29.9462272 53.9257539,29.7320671 53.9615492,29.7314675 C53.9779461,29.7312676 53.9911437,29.7042727 53.9911437,29.6716788 C53.9911437,29.6390849 54.0113399,29.61249 54.0359351,29.61249 C54.0605305,29.6124901 54.1095211,29.5812959 54.1447145,29.5431032 C54.179708,29.5049104 54.2970858,29.4027296 54.4052656,29.3159459 L54.4052653,29.3159462 C54.5438659,29.202166 54.6784546,29.0835847 54.8087861,28.9604176 C55.0637384,28.7168634 55.1265263,28.6640731 55.1605201,28.6640731 C55.1751174,28.6640731 55.2459042,28.6016848 55.3176906,28.5256991 C55.389277,28.4495135 55.4670627,28.3873252 55.4902584,28.3873252 L55.4902584,28.3873252 C55.5135927,28.3872151 55.5324506,28.3682677 55.5324506,28.3449333 C55.5324506,28.2903434 55.6330316,28.1897624 55.6876215,28.1897624 C55.7110171,28.1897624 55.7300134,28.1763649 55.7300134,28.160168 C55.7302133,28.143771 55.8097982,28.0771835 55.90698,28.0119959 C56.0043617,27.9468083 56.0843466,27.8712223 56.0847466,27.8440274 C56.0853465,27.8168325 56.1049428,27.7946367 56.1287385,27.7946367 C56.152334,27.7946367 56.2495156,27.7146518 56.3444977,27.6166701 C56.4396798,27.5188883 56.5330624,27.4389034 56.5522585,27.4389034 C56.5714549,27.4389034 56.6798344,27.3499201 56.7932131,27.2413407 C56.9063917,27.1327613 57.0129719,27.043778 57.0297688,27.043778 C57.0465657,27.043778 57.0839587,26.9993861 57.1131533,26.9449966 C57.1421479,26.8906067 57.1815405,26.8462152 57.200537,26.8462152 C57.2195334,26.8462152 57.2565265,26.8280186 57.2827215,26.8058226 C57.4890827,26.6316552 57.5716671,26.5696669 57.5972625,26.5696669 C57.6134594,26.5694669 57.6268569,26.5428719 57.6268569,26.5102781 C57.6268569,26.4776842 57.6452535,26.4508894 57.6678492,26.4508894 C57.6904449,26.4508894 57.7782286,26.3843018 57.8630127,26.3027173 C58.0583758,26.1147526 58.2205455,25.9767786 58.2463405,25.9767786 C58.2573384,25.9767786 58.3439222,25.8967938 58.4391044,25.799012 C58.5340865,25.7010303 58.6302687,25.6210454 58.6528644,25.6210454 C58.6754602,25.6210454 58.6938566,25.5944504 58.6938566,25.5618567 C58.6938566,25.5292628 58.7216514,25.5024679 58.755445,25.5024679 C58.7894386,25.5024679 58.8060357,25.4846713 58.792638,25.4630753 C58.7792405,25.4412794 58.7952375,25.4234827 58.8280314,25.4234827 C58.8610251,25.4234827 58.9324116,25.3790908 58.9866015,25.3247013 C59.0409914,25.2703114 59.1009801,25.2259199 59.1201762,25.2259199 C59.1391727,25.2259199 59.1785654,25.1815281 59.2075599,25.1271386 C59.2367545,25.0727487 59.2765471,25.0283572 59.2961432,25.0283572 C59.3453339,25.0283572 59.4447153,24.9245766 59.4447153,24.8729863 C59.4447153,24.8497907 59.4687108,24.8307941 59.4983052,24.8307945 C59.5276997,24.8307945 59.5996862,24.786203 59.6582749,24.7320131 C59.7168641,24.6776232 59.7740532,24.6332317 59.7852512,24.6332317 C59.7964491,24.6332317 59.9114276,24.5264519 60.0406031,24.3960764 C60.169779,24.2657008 60.2887565,24.158921 60.3047534,24.158721 C60.3207504,24.158721 60.4221313,24.0785361 60.5297111,23.9809544 C60.6374909,23.8831726 60.7398715,23.8031878 60.7570684,23.8031878 C60.7742652,23.8031878 60.7882626,23.7765928 60.7882626,23.743999 C60.7882626,23.7114052 60.8108583,23.6846103 60.8382532,23.6846103 C60.8656481,23.6846103 60.9214377,23.6402184 60.96223,23.5858289 C61.0030222,23.531639 61.0542125,23.4870475 61.0758086,23.4870475 C61.0974045,23.4870475 61.1563935,23.4426557 61.2067841,23.3882662 C61.2571748,23.3338763 61.3095647,23.2894848 61.3233624,23.2894848 C61.3373598,23.2894848 61.4225438,23.2136992 61.5131267,23.1209166 L61.5131268,23.1209166 C61.6140352,23.0187367 61.7212953,22.923031 61.8342666,22.8343705 C61.9204503,22.7695825 62.0938177,22.614212 62.2195944,22.4892353 C62.3451707,22.364259 62.461549,22.262078 62.4781459,22.262078 C62.4947428,22.262078 62.5561311,22.2174866 62.6147203,22.1632967 C62.6733094,22.1089068 62.7322982,22.0645153 62.7454958,22.0645153 C62.7856881,22.0645153 62.8828702,21.9545359 62.8828702,21.9091444 C62.8828702,21.8859488 62.9018666,21.8669522 62.9250624,21.8669522 C62.9798523,21.8669522 63.0804333,21.7663712 63.0804333,21.7115813 L63.0804333,21.7115813 C63.0802097,21.6885431 63.0985905,21.6696269 63.1216256,21.669189 C63.1646174,21.669189 63.2184073,21.6297964 63.3769774,21.4816244 C63.4291677,21.4326337 63.4835572,21.3926411 63.4975549,21.3926411 C63.5117522,21.3926411 63.6277305,21.2858612 63.7553064,21.1554857 C63.8828823,21.0251102 64.0022602,20.9183303 64.0206567,20.9183303 C64.051051,20.9183303 64.3313985,20.6719765 64.6479379,20.3670336 C64.7167251,20.300846 64.7831127,20.2466561 64.7957104,20.2466561 C64.8249049,20.2466561 64.9986723,20.1004837 65.1362463,19.9601101 C65.1948355,19.9003213 65.2540242,19.8513306 65.2680215,19.8513306 C65.2820188,19.8513306 65.2934167,21.905344 65.2934167,24.4158821 C65.2934167,27.4323153 65.2800192,28.9802404 65.2538241,28.9802404 C65.2322282,28.9802404 65.2142315,29.0112346 65.2140315,29.0494276 C65.2134316,29.2573884 65.1916357,29.2589884 62.2061966,29.2573884 C60.0608011,29.2561886 59.4275199,29.2669866 59.3659292,29.3053795 C59.288144,29.3537706 59.286544,29.3957624 59.286544,31.4003851 L59.286544,33.4458 L63.3767715,33.4458 C66.077263,33.4458 67.4669991,33.4324026 67.4669991,33.4062074 C67.4669991,33.3844115 67.5357863,33.3666148 67.6201704,33.3666148 C67.7081537,33.3666148 67.7943378,33.3414195 67.8225323,33.3074261 C67.8495272,33.2748322 67.9141152,33.2482373 67.9657055,33.2482373 C68.0174958,33.2482373 68.0596881,33.2304407 68.0596877,33.2086447 C68.0596877,33.1868488 68.0964808,33.1690521 68.1414722,33.1690521 C68.1864636,33.1690521 68.248252,33.1468562 68.2784465,33.1196614 C68.4000236,33.010682 68.4528139,32.9714893 68.4778093,32.9714893 C68.5393976,32.9714893 69.2056734,32.2434244 69.2056734,32.1762392 C69.2056734,32.1354469 69.2230702,32.1020531 69.244466,32.1020531 C69.265862,32.1020531 69.2944567,32.0576613 69.308054,32.0032718 C69.3216514,31.9488819 69.3486462,31.9044904 69.3680428,31.9044904 C69.3874391,31.9044904 69.4032362,31.8600985 69.4032362,31.805709 C69.4032362,31.7513191 69.4210328,31.7069277 69.4428288,31.7069277 C69.4646247,31.7069277 69.4824214,31.6287424 69.4824214,31.5333603 C69.4824214,31.4153824 69.5014178,31.3523944 69.5416101,31.3369971 C69.5940004,31.3168009 69.6007989,30.4083726 69.6007989,23.489283 L69.6007989,15.6643487 L71.9931478,15.6535508 C74.0687597,15.6441525 74.3904968,15.6349543 74.4228906,15.583564 C74.4452864,15.5481706 74.4606835,14.6837348 74.4610834,13.4395661 L74.4616833,11.3549582 L69.6016109,11.3549582 L69.5914128,9.03339292 L69.5812147,6.71163076 L67.4850083,6.7014327 C65.8877088,6.69363418 65.377605,6.70263247 65.3412113,6.73902564 M16.8833447,22.6770406 C16.8833447,22.9799835 16.8681475,23.1709474 16.843752,23.1709474 C16.8205564,23.1709474 16.8043594,23.3077218 16.8043594,23.5020853 C16.8043594,23.7482391 16.7891623,23.8458209 16.7449707,23.8824139 C16.705578,23.9150078 16.6857819,24.003591 16.6857819,24.1467642 C16.6857819,24.280739 16.664386,24.3835196 16.6293924,24.418713 C16.5808013,24.467304 15.4398144,24.4751025 8.46951639,24.4751025 L0.366242642,24.4751025 L0.344646679,24.5640858 C0.332848892,24.6128765 0.328049784,25.5776948 0.334048697,26.7078829 L0.345046601,28.7628963 L7.60669957,28.7728944 L14.8685456,28.7828925 L14.8187549,28.8696762 L14.8187549,28.8696763 C14.7779364,28.9358689 14.7315793,28.9984816 14.6801809,29.056841 C14.6313902,29.1120305 14.5913976,29.1732192 14.5913976,29.1926153 C14.5913976,29.2120117 14.5500053,29.2662014 14.4996146,29.3129928 C14.4490243,29.3597839 14.3824368,29.4551661 14.3516426,29.5249529 C14.3206484,29.5949397 14.2806558,29.6519288 14.2626593,29.6519292 C14.2246664,29.6519292 14.1170868,29.7535102 14.1170864,29.7893036 C14.1170864,29.8025011 14.072695,29.86149 14.0183051,29.9200791 C13.9639152,29.9786682 13.9195237,30.0414562 13.9195237,30.0594531 C13.9195237,30.1034449 13.8157431,30.2052255 13.7709517,30.2052255 C13.7513553,30.2052255 13.7115629,30.2496174 13.6823683,30.3040069 C13.6533738,30.3583968 13.6087823,30.4027883 13.583587,30.4027883 C13.5583917,30.4027883 13.5149998,30.4453801 13.4872052,30.4973704 L13.4872052,30.4973704 C13.4516212,30.556946 13.401808,30.6067591 13.3422324,30.6423432 C13.2902421,30.670138 13.2476503,30.7089308 13.2476503,30.7285269 C13.2476503,30.7685195 13.1476689,30.877099 13.1108759,30.877099 C13.0870803,30.877099 13.0376895,30.9186912 12.7819376,31.153247 C12.7105512,31.2186345 12.6391644,31.2722244 12.6233675,31.2722244 C12.6075704,31.2722244 12.5611791,31.3166163 12.5203869,31.3710058 C12.4795947,31.4253957 12.4214055,31.4697872 12.3908114,31.4697872 C12.3602171,31.4697872 12.2892304,31.512579 12.2328409,31.5647693 L12.2328409,31.5647693 C12.1700494,31.6217469 12.1010248,31.6714526 12.0270797,31.7129414 C11.9216995,31.7673313 11.86511,31.8069239 11.7671286,31.8947072 C11.7369343,31.9219021 11.6931426,31.9440979 11.6697468,31.9440979 C11.6465512,31.9440979 11.6275546,31.9618946 11.6275546,31.9834905 C11.6275546,32.0052864 11.5979601,32.0230831 11.561967,32.0230831 C11.5259738,32.0230831 11.4383903,32.067475 11.3670035,32.1218645 C11.2958171,32.1762544 11.2186314,32.2206459 11.1954357,32.2206459 C11.1722401,32.2206459 11.1532435,32.2384425 11.1532435,32.2602385 C11.1532435,32.2820344 11.1170503,32.2996311 11.0730586,32.2996311 C11.0288668,32.2996311 10.9824757,32.3264261 10.969878,32.3590199 C10.9574804,32.3916137 10.9046904,32.4182086 10.8527002,32.4182086 C10.8007099,32.4182086 10.758118,32.4360053 10.758118,32.4578012 C10.758118,32.4795972 10.7219248,32.4973939 10.6777331,32.4973939 C10.6335413,32.4973939 10.5873502,32.5239889 10.5747526,32.5565826 C10.5621549,32.5891765 10.509365,32.6157714 10.4573747,32.6157714 C10.4053844,32.6157714 10.3627925,32.633568 10.3627925,32.655364 C10.3627925,32.6771599 10.3194007,32.6949566 10.2664108,32.6949566 C10.2134209,32.6949566 10.159031,32.7127533 10.1454337,32.7343492 C10.1320362,32.7561452 10.0878445,32.7739419 10.0472523,32.7739419 C10.0066601,32.7739419 9.94667133,32.8005369 9.91407715,32.8331306 C9.88148329,32.8657245 9.82669346,32.8925193 9.79210006,32.8925193 C9.7577065,32.8925193 9.69871752,32.9091162 9.66092451,32.9297124 C9.62313162,32.9501085 9.54254664,32.9773034 9.48195828,32.9901011 C9.42136954,33.0028987 9.38237691,33.0306933 9.39537458,33.0516895 C9.40897202,33.0736853 9.36018118,33.0900822 9.28079593,33.0900822 C9.2048103,33.0900822 9.13142388,33.1078789 9.1180266,33.1296749 C9.10462912,33.1512708 9.04124096,33.1690675 8.97745299,33.1690675 C8.90046736,33.1690675 8.86127473,33.1890637 8.86127473,33.2284562 C8.86127473,33.2698485 8.8194825,33.287645 8.72290074,33.287645 C8.6467151,33.287645 8.58452675,33.3054416 8.58452675,33.3272376 C8.58452675,33.3488335 8.51333995,33.3666302 8.42655625,33.3666302 C8.33957255,33.3666302 8.26838614,33.3844269 8.26838614,33.4062228 C8.26838614,33.4280188 8.21839545,33.4458155 8.1574071,33.4458155 C8.09641874,33.4458155 8.01183466,33.4718106 7.96964242,33.5038046 C7.92745018,33.5355986 7.83526765,33.5623937 7.76448085,33.5629933 C7.69389405,33.5637932 7.63610491,33.5819898 7.63610491,33.6037856 C7.63610491,33.6255815 7.57331656,33.6433782 7.49653131,33.6433782 C7.40894761,33.6433782 7.34855926,33.6653741 7.33416159,33.702567 C7.31936438,33.7413596 7.25797595,33.7619557 7.15759497,33.7619557 C7.07301088,33.7619557 7.00382369,33.7797524 7.00382369,33.8013483 C7.00382369,33.8231442 6.93203728,33.8409409 6.84445358,33.8409409 C6.73927338,33.8409409 6.67748502,33.8611371 6.66248774,33.9001297 C6.64709065,33.9405219 6.58390249,33.9595184 6.46612462,33.9595184 C6.37054247,33.9595184 6.29255722,33.9773151 6.29255722,33.9989111 C6.29255722,34.020707 6.22237042,34.0385037 6.13678634,34.0385037 C6.05100225,34.0385037 5.97001778,34.0563003 5.95662011,34.0780963 C5.94322263,34.0996922 5.86343758,34.1174889 5.77925349,34.1174889 C5.6950694,34.1174889 5.59968726,34.1442839 5.56709347,34.1768777 C5.53170011,34.212271 5.43491831,34.2360664 5.3271385,34.2360664 C5.22775713,34.2360664 5.14637266,34.2538631 5.14637266,34.275659 C5.14637266,34.297455 5.06858741,34.3152517 4.97340526,34.3152517 C4.86782506,34.3152517 4.78124136,34.3382474 4.75124718,34.3744404 C4.71865332,34.413633 4.63027008,34.4336292 4.48949648,34.4336292 C4.37271822,34.4336292 4.27713646,34.4514258 4.27713646,34.4732218 C4.27713646,34.4950177 4.17435587,34.5128144 4.04777955,34.5128144 C3.92180322,34.5128144 3.80182574,34.5286115 3.78102962,34.5480078 C3.7604335,34.5674042 3.62905834,34.5909997 3.48888435,34.6003981 C3.34351152,34.6101963 3.22773326,34.6375911 3.2189352,34.6639861 C3.20893706,34.6937805 3.10115733,34.7103775 2.91819187,34.7103775 C2.76142137,34.7103775 2.61624854,34.7261746 2.59565243,34.7455709 C2.57485635,34.7651672 2.39229047,34.7883627 2.18952928,34.7975612 C1.97416965,34.8071594 1.8094007,34.8327546 1.79320535,34.8589495 C1.77540869,34.8879441 1.54905116,34.9105398 1.15412491,34.9229375 C0.817788181,34.9333356 0.440260759,34.9537317 0.31528405,34.968129 L0.0881267486,34.994324 L0.0881267486,39.5352847 L0.848782359,39.5090896 C1.3898822,39.4904931 1.63483563,39.4670974 1.69702475,39.4283048 C1.75481389,39.3921116 1.90598555,39.3735153 2.14174246,39.3735153 C2.33810558,39.3735153 2.4986753,39.3571183 2.4986753,39.3369221 C2.4986753,39.3169259 2.6366493,39.2917307 2.80501785,39.2811326 C3.25153478,39.2527379 3.69045326,39.1855505 3.73784318,39.1381594 C3.76063891,39.1153637 3.89021445,39.0969672 4.02578922,39.0969672 C4.1613636,39.0969672 4.2833407,39.0791705 4.29673837,39.0573745 C4.31033581,39.0355786 4.41591586,39.0177819 4.53149412,39.0177819 C4.67006811,39.0177819 4.75845142,38.9975857 4.79084521,38.9585932 C4.82323912,38.9194005 4.91162231,38.8992044 5.0501963,38.8992044 C5.16577457,38.8992044 5.27135477,38.8814078 5.28475244,38.8598118 C5.29814992,38.8380159 5.39493187,38.8202192 5.49971207,38.8202192 C5.62068917,38.8202192 5.70787287,38.7986232 5.73926704,38.7610304 C5.7708611,38.7228376 5.85824453,38.7016417 5.98362124,38.7016417 C6.10359873,38.7016417 6.1691863,38.6864446 6.15418941,38.6622491 C6.13899228,38.6376537 6.21217854,38.6226564 6.34715331,38.6226564 C6.46673079,38.6226564 6.57391061,38.6072593 6.58570867,38.5882629 C6.59730649,38.5694664 6.69608809,38.5422714 6.80526752,38.5276741 C6.91444695,38.5132769 7.00383026,38.4842823 7.00383026,38.4632862 C7.00383026,38.4422901 7.08281551,38.4250933 7.17939726,38.4250933 C7.27577902,38.4250933 7.36576233,38.4072967 7.37915961,38.3855007 C7.39275705,38.3639048 7.4635437,38.3461081 7.53693011,38.3461081 C7.61011652,38.3461081 7.69670022,38.3193131 7.72929401,38.2867194 C7.76188788,38.2541255 7.85207111,38.2275306 7.92965636,38.2275306 C8.00724161,38.2275306 8.07082996,38.209734 8.07082996,38.187938 C8.07082996,38.1661421 8.13981715,38.1483454 8.22400124,38.1483454 C8.31198455,38.1483454 8.39816863,38.1231501 8.4265632,38.0891566 C8.45355811,38.0565628 8.53574263,38.0299679 8.60912904,38.0299679 C8.68251507,38.0299679 8.74270381,38.0121712 8.74270381,37.9903753 C8.74270381,37.9685793 8.79029488,37.9507826 8.84848401,37.9507826 C8.96946111,37.9507826 9.18462074,37.8895943 9.34839085,37.8086094 C9.4099792,37.7782151 9.51236018,37.7532199 9.57574815,37.7532199 C9.63913612,37.7532199 9.69112641,37.7354232 9.69112641,37.7138273 C9.69112641,37.6920313 9.74491632,37.6742346 9.8109039,37.6742346 C9.8808907,37.6742346 9.94007983,37.6496393 9.95347711,37.6148459 C9.96727451,37.5786527 10.0272631,37.5556572 10.107848,37.5556572 C10.1804344,37.5556572 10.2506212,37.5378605 10.2640185,37.5160645 C10.2776159,37.4944686 10.3322057,37.4766719 10.3855956,37.4766719 C10.4823774,37.4766719 10.5045731,37.4686734 10.7513269,37.3450967 C10.8237133,37.3087036 10.9170958,37.2791092 10.9588877,37.2791092 C11.0004799,37.2791092 11.0346733,37.2613125 11.0346733,37.2395165 C11.0346733,37.2177206 11.0870636,37.1999239 11.1512516,37.1999239 C11.2154396,37.1999239 11.2820271,37.1759284 11.2994236,37.146534 C11.3290181,37.0965433 11.4062035,37.0697484 11.6769526,37.0153585 C11.7365414,37.0033607 11.785532,36.9687674 11.785532,36.9385728 C11.785532,36.9069788 11.8261243,36.8837833 11.8819138,36.8837829 C11.9351037,36.8837829 11.9894936,36.8659863 12.0028909,36.8443903 C12.0162884,36.8225944 12.0558808,36.8047977 12.0906746,36.8047977 C12.1776583,36.8047977 12.4574055,36.6784214 12.4574055,36.6392287 C12.4574055,36.621632 12.501797,36.6072347 12.5561869,36.6072347 C12.6105768,36.6072347 12.6549682,36.5894381 12.6549682,36.5676421 C12.6549682,36.5460462 12.6999597,36.5282495 12.7549496,36.5282495 C12.8099391,36.5282495 12.865329,36.5014545 12.8777267,36.4688608 C12.8903243,36.4362669 12.9385154,36.408272 12.9851065,36.4066724 C13.0316976,36.4050727 13.1232805,36.3698793 13.1884685,36.3280871 C13.2536561,36.2864949 13.3336413,36.2417034 13.3662351,36.2285058 C13.5422021,36.157719 13.7679606,36.0343423 13.8063505,35.9881508 L13.8063505,35.9881508 C13.8374258,35.9560391 13.8796774,35.9371331 13.9243284,35.9353609 C13.9651206,35.9353609 13.9985144,35.9195639 13.9985144,35.9001675 C13.9985144,35.8807712 14.0431058,35.853776 14.0972957,35.8401788 C14.1516857,35.8265813 14.1960771,35.7979865 14.1960771,35.7765908 C14.1960771,35.7551948 14.2282711,35.7377982 14.2676635,35.7377982 C14.3070562,35.7377982 14.3752433,35.7044045 14.4190352,35.6636121 C14.462827,35.6228199 14.5372131,35.5772284 14.5844041,35.5622312 C14.6317952,35.547234 14.6703878,35.5182393 14.6703878,35.4980432 C14.6703878,35.477847 14.701582,35.4606502 14.739575,35.4598504 C14.8249591,35.4584506 14.9469362,35.3694675 14.9469362,35.3086787 C14.9469362,35.2838834 14.9849291,35.2636873 15.0313203,35.2636873 C15.0777114,35.2636873 15.1568966,35.2190958 15.2072873,35.1649059 C15.257678,35.110516 15.3264648,35.0659245 15.3600586,35.0659245 C15.3936522,35.0659245 15.4212469,35.0483278 15.4212469,35.0265319 C15.4212469,35.004736 15.4402434,34.9869393 15.4636392,34.9869393 C15.4868348,34.9869393 15.5306267,34.9647434 15.5610209,34.9375486 C15.682998,34.8281692 15.7351883,34.7893765 15.7607833,34.7893765 C15.7755805,34.7893765 15.8287705,34.7449847 15.8791611,34.6905952 C15.9295518,34.6362053 15.9917402,34.5918138 16.0173351,34.5918138 C16.0429303,34.5918138 16.1227153,34.5296254 16.1943018,34.4534398 C16.2660882,34.3774542 16.3394746,34.3152658 16.3574711,34.3152658 C16.3754677,34.3152658 16.438256,34.2706743 16.4968451,34.2162844 C16.5554342,34.1620945 16.614223,34.1175031 16.6276206,34.1175031 C16.6678129,34.1175031 16.764795,34.0077236 16.764795,33.9623322 C16.764795,33.9391365 16.7825917,33.9199403 16.8043876,33.9199403 C16.903769,33.9199403 18.1085408,32.7141655 18.1085408,32.6145864 C18.1085408,32.5935904 18.1275372,32.5763936 18.150733,32.5763936 C18.2009237,32.5763936 18.3061039,32.4776122 18.3061039,32.4304211 C18.3061039,32.4124245 18.3488957,32.3654335 18.401286,32.3260405 C18.4534763,32.2868479 18.5178643,32.2024638 18.5442593,32.1388759 C18.5706543,32.0752879 18.6168457,32.0230976 18.6468398,32.0230976 C18.6766343,32.0230976 18.7012298,32.0045011 18.7012298,31.9819054 C18.7012298,31.9591096 18.7456212,31.8927221 18.8000111,31.8341329 C18.854401,31.7755438 18.8987925,31.7089566 18.8987925,31.6863609 C18.8987925,31.6637651 18.9343858,31.6197733 18.9777777,31.5883791 C19.0213696,31.556985 19.056963,31.5167927 19.056963,31.4989958 C19.056963,31.4809992 19.1279498,31.3702199 19.2149331,31.252442 C19.3019168,31.1348641 19.3731032,31.0198859 19.3731032,30.9972901 C19.3731032,30.9746944 19.3895001,30.9560979 19.4096963,30.9560979 C19.4298925,30.9560979 19.4520882,30.9279032 19.459087,30.8933095 C19.475284,30.8133247 19.5780645,30.8987085 19.7484327,31.1338641 C19.8114206,31.2208478 19.9040036,31.3296272 19.9539939,31.3756187 C20.0039845,31.4216102 20.0447768,31.4714009 20.0447768,31.4859981 C20.0447768,31.5005954 20.0629734,31.5341892 20.085169,31.5603842 C20.1071649,31.5867792 20.1615547,31.6525667 20.2057465,31.7069566 C20.2943298,31.816136 20.8324293,32.4056239 21.0031974,32.5807936 C21.0629862,32.6421819 21.1117769,32.7021707 21.1117769,32.7143683 C21.1117769,32.7441627 21.6572744,33.2772635 21.8842317,33.4692247 L21.8842318,33.4692248 C22.0334409,33.5991335 22.1791975,33.7329546 22.321351,33.8705487 C22.4617246,34.0065231 22.5855014,34.1175025 22.5966994,34.1175021 C22.6078973,34.1175021 22.6648866,34.1620936 22.7234757,34.2162835 C22.7820649,34.2706734 22.8448528,34.3152649 22.8628493,34.3152649 C22.9100404,34.3152649 23.0088218,34.4202451 23.0088218,34.4704358 C23.0088218,34.4936314 23.0354168,34.5128276 23.0680105,34.512828 C23.1006044,34.512828 23.1271993,34.5306247 23.1271993,34.5522206 C23.1271993,34.5740165 23.1519946,34.5918132 23.1823888,34.5918132 C23.2125831,34.5918132 23.2475764,34.6184082 23.260174,34.651002 C23.2725717,34.6835959 23.3061655,34.7103907 23.3347601,34.7103907 C23.3631547,34.7103907 23.4121457,34.7459841 23.4433395,34.789376 C23.4747336,34.8327678 23.5231244,34.8683612 23.5509193,34.8683612 C23.5787141,34.8683612 23.6015096,34.8853581 23.6015096,34.9061541 C23.6015096,34.9267502 23.663698,34.9733413 23.7398836,35.0093347 C23.8158692,35.0455279 23.8780576,35.0953184 23.8780576,35.1201138 C23.8780576,35.1449091 23.9352467,35.1905006 24.0050339,35.2214947 C24.0748207,35.252289 24.1704029,35.3188765 24.2169939,35.3694668 C24.263785,35.4198575 24.3213741,35.4612497 24.3449699,35.4612497 C24.3685654,35.4612497 24.4357528,35.5056416 24.4943419,35.5600311 C24.552931,35.614421 24.6259171,35.6588125 24.6563116,35.6588125 C24.6867059,35.6588125 24.756093,35.7032043 24.8104825,35.7575938 C24.8646724,35.8119837 24.9350592,35.8563752 24.966653,35.8563752 C24.9982471,35.8563752 25.0242422,35.8741718 25.0242422,35.8959678 C25.0242422,35.9175637 25.0508372,35.9353604 25.0834309,35.9353604 C25.1160248,35.9353604 25.1428196,35.9487579 25.1430196,35.9649549 C25.1432196,36.0047475 25.3717766,36.1329234 25.4423634,36.1329234 C25.4731576,36.1329234 25.4983529,36.1507201 25.4983529,36.1725161 C25.4983529,36.194312 25.5249479,36.2121087 25.5577416,36.2121087 C25.5903355,36.2121087 25.6171304,36.2253062 25.6171304,36.2417031 C25.6175303,36.2814958 25.8460873,36.4096717 25.9164741,36.4096717 C25.9472683,36.4096717 25.9726636,36.4270684 25.9726636,36.4484643 C25.9726636,36.4696603 26.0170555,36.498255 26.071445,36.5120523 C26.1256349,36.5256497 26.1702263,36.5526445 26.1702263,36.572041 C26.1702263,36.5914374 26.2046199,36.6072344 26.246812,36.6072344 C26.2890042,36.6072344 26.3335957,36.6234314 26.3459933,36.6432277 C26.3741881,36.6890191 26.7627149,36.8837827 26.8257033,36.8837823 C26.8516984,36.8837823 26.8832924,36.9105772 26.8958901,36.943171 C26.9082878,36.9757649 26.9634773,37.0023598 27.0186672,37.0023598 C27.0736567,37.0023598 27.1186486,37.0201564 27.1186486,37.0419524 C27.1186486,37.0637483 27.1612404,37.081345 27.2132307,37.081345 C27.265221,37.081345 27.3180109,37.10814 27.3304086,37.1407337 C27.3430062,37.1733276 27.3893973,37.1999225 27.4335892,37.1999225 C27.477581,37.1999225 27.513774,37.2177192 27.513774,37.2395151 C27.513774,37.261311 27.5581659,37.2791077 27.6125554,37.2791077 C27.6669453,37.2791077 27.7113368,37.2943049 27.7113368,37.3131013 C27.7113368,37.353094 28.0184789,37.4766707 28.1178615,37.4766707 C28.1550545,37.4766707 28.1856487,37.4944673 28.1856487,37.5160633 C28.1856487,37.5378592 28.2224417,37.5556559 28.2674331,37.5556559 C28.3124246,37.5556559 28.3760126,37.5822509 28.4086067,37.6148447 C28.4412006,37.6476385 28.5109873,37.6742334 28.5637776,37.6742334 C28.6165675,37.6742334 28.6597598,37.6920301 28.6597598,37.713826 C28.6597598,37.735422 28.6971527,37.7532187 28.7427442,37.7532187 C28.7881357,37.7532187 28.8815182,37.7824132 28.9501054,37.8182066 C29.1864612,37.9413833 29.2124561,37.9507818 29.3090379,37.9507818 C29.3624278,37.9507818 29.4170177,37.9685784 29.430415,37.9903744 C29.4438125,38.0121703 29.5159991,38.029967 29.5907847,38.029967 C29.6853668,38.029967 29.7267591,38.0479637 29.7267591,38.0891558 C29.7267591,38.130548 29.7685513,38.1483445 29.8651331,38.1483445 C29.9411187,38.1483445 30.0035071,38.1661412 30.0035071,38.1879371 C30.0035071,38.2097331 30.0642958,38.2275298 30.1384818,38.2275298 C30.2126679,38.2275298 30.2800551,38.2469261 30.2878539,38.2707216 C30.3016513,38.3119139 30.4902158,38.3649038 30.7937607,38.4132948 C30.8699464,38.4252926 30.9433328,38.4526875 30.9569301,38.4740836 C30.9705275,38.4952796 31.0639099,38.5220746 31.1642912,38.5332723 C31.2648722,38.5446702 31.3470571,38.5694655 31.3470571,38.5882618 C31.3470571,38.6072583 31.4270419,38.6226554 31.5248237,38.6226554 C31.6228054,38.6226554 31.7027903,38.6404521 31.7027903,38.662248 C31.7027903,38.6838439 31.7921736,38.7016406 31.901553,38.7016406 C32.0419266,38.7016406 32.1071142,38.7192373 32.1231115,38.7610294 C32.1385086,38.801022 32.2012968,38.8202181 32.317075,38.8202181 C32.4114572,38.8202181 32.4994409,38.8380148 32.5128381,38.8598108 C32.5262356,38.8814067 32.629616,38.8998034 32.7423951,38.900603 C32.8597729,38.9012029 32.9803504,38.9265981 33.0243423,38.9597917 C33.0667341,38.9919857 33.184912,39.0177809 33.2886926,39.0177809 C33.3918732,39.0177809 33.4874553,39.0355775 33.5008526,39.0573735 C33.5142501,39.0791694 33.638227,39.0969661 33.776401,39.0969661 C33.9375707,39.0969661 34.0333528,39.1139629 34.0435509,39.1445572 C34.053549,39.1741516 34.1713268,39.1981471 34.3532927,39.2079452 C34.5146624,39.2163436 34.6638345,39.2393393 34.6844306,39.2589355 C34.7050267,39.2785318 34.868396,39.2945288 35.0475623,39.2945288 C35.2267285,39.2945288 35.384299,39.3123254 35.3976967,39.3339214 C35.4114941,39.3565172 35.6098567,39.373514 35.8574105,39.373514 C36.1683523,39.373514 36.3075259,39.3885112 36.3455181,39.4265039 C36.4009076,39.4818935 38.8534461,39.5620783 38.9358321,39.511088 C38.9598276,39.4962908 38.9740249,38.6690464 38.9740249,37.2965034 L38.9740249,35.1055133 L38.2083693,35.1055133 C37.5758873,35.1055133 37.4339145,35.0951152 37.3933238,35.0463245 C37.3547311,34.9997335 37.2437518,34.9869358 36.8748224,34.9869358 C36.5882763,34.9869358 36.4055101,34.9715387 36.4055101,34.9475432 C36.4055101,34.9243475 36.272735,34.9079505 36.0863703,34.9079505 C35.8556138,34.9079505 35.7510332,34.8915536 35.7082413,34.8485618 C35.6678491,34.8081696 35.5680677,34.789373 35.3949003,34.789373 C35.2519271,34.789373 35.1407481,34.7721763 35.1407481,34.7497804 C35.1407481,34.7279845 35.0365675,34.7103878 34.9069919,34.7103878 C34.7658183,34.7103878 34.667237,34.6923912 34.6580389,34.6647963 C34.6496405,34.639801 34.5414606,34.6110064 34.4176839,34.6006084 C34.2937072,34.5904103 34.1923262,34.5664148 34.1923262,34.5474185 C34.1923262,34.528422 34.1035429,34.5128249 33.9947635,34.5128249 C33.8861841,34.5128249 33.7972008,34.4950283 33.7972008,34.4732323 C33.7972008,34.4514364 33.7104171,34.4336397 33.6044369,34.4336397 C33.4812602,34.4336397 33.3938765,34.4122437 33.3624823,34.374451 C33.3342876,34.3404574 33.2481036,34.3152622 33.1601203,34.3152622 C33.0757362,34.3152622 33.006949,34.2974655 33.006949,34.2756696 C33.006949,34.2538737 32.9343626,34.236077 32.8459793,34.236077 C32.7555964,34.236077 32.6590143,34.2100819 32.6258209,34.1768882 C32.593227,34.1442944 32.4966453,34.1174995 32.4112612,34.1174995 C32.3258771,34.1174995 32.2560903,34.0997028 32.2560903,34.0781068 C32.2560903,34.0563109 32.193702,34.0385142 32.1177163,34.0385142 C32.0415307,34.0385142 31.9793423,34.0207176 31.9793423,33.9989216 C31.9793423,33.9773257 31.9011571,33.959529 31.805775,33.959529 C31.6879971,33.959529 31.6248091,33.9405325 31.6094118,33.9001402 C31.5952145,33.8629472 31.5346258,33.8409515 31.4470425,33.8409515 C31.3704569,33.8409515 31.3074689,33.8231548 31.3074689,33.8013589 C31.3074689,33.7797629 31.252879,33.7619662 31.1860918,33.7619662 C31.1195042,33.7619662 31.0381197,33.7351713 31.0055256,33.7025775 C30.9729317,33.6699836 30.9041446,33.6433888 30.8525543,33.6433888 C30.801164,33.6433888 30.7479741,33.6255921 30.7345764,33.6037961 C30.7211789,33.5820002 30.6489923,33.5644035 30.5742067,33.5644035 C30.4994207,33.5644035 30.4382323,33.5474067 30.4382323,33.5266106 C30.4382323,33.5058145 30.375644,33.4772199 30.2994583,33.4628226 C30.2230727,33.4484254 30.1508863,33.4210304 30.1390886,33.4018343 C30.1270908,33.3824379 30.0651026,33.3666409 30.0011146,33.3666409 C29.9371266,33.3666409 29.8849363,33.3488443 29.8849363,33.3272483 C29.8849363,33.3054524 29.8245476,33.2876557 29.7507616,33.2876557 C29.6681771,33.2876557 29.6079883,33.2650599 29.5939911,33.2284669 C29.5807936,33.1940734 29.5218047,33.1690782 29.4538175,33.1690782 C29.3892295,33.1690782 29.3252415,33.1512815 29.3118442,33.1296856 C29.2984468,33.1078896 29.2462567,33.0900929 29.195866,33.0900929 C29.1454753,33.0900929 29.0820873,33.0634979 29.0550924,33.0309042 C29.0278975,32.9983103 28.9635095,32.9715154 28.9119192,32.9715154 C28.8601289,32.9715154 28.8179366,32.9537188 28.817937,32.9321228 C28.817937,32.9103269 28.7779444,32.8919306 28.7289537,32.8913306 C28.680163,32.8905307 28.605577,32.8639357 28.5633848,32.8319418 C28.5211925,32.8001478 28.4544053,32.7739527 28.4152127,32.7739527 C28.3758201,32.7739527 28.3436263,32.756156 28.3436263,32.7343601 C28.3436263,32.7127642 28.3092327,32.6949675 28.2670407,32.6949675 C28.2248484,32.6949675 28.179257,32.6771708 28.1658597,32.6553748 C28.1524622,32.6335789 28.1088705,32.6157822 28.0688779,32.6157822 C28.0290853,32.6157822 27.9862934,32.5891872 27.9736958,32.5565935 C27.9612981,32.5239996 27.9149066,32.4974047 27.8707152,32.4974047 C27.8265233,32.4974047 27.7905303,32.4796081 27.7905303,32.4578121 C27.7905303,32.4360162 27.7543371,32.4182195 27.7101455,32.4182195 C27.6659536,32.4182195 27.6207622,32.3946239 27.6097645,32.3658292 C27.5985666,32.3368346 27.52798,32.2890435 27.452794,32.259649 C27.377808,32.2300545 27.3162196,32.194861 27.3162196,32.1814637 C27.3162196,32.1678663 27.2450328,32.1254742 27.1580495,32.0870816 C27.0712658,32.0486888 27.000079,32.0008979 27.000079,31.9807014 C27.000079,31.9605052 26.9724842,31.9441083 26.9388906,31.9441083 C26.905297,31.9441083 26.83651,31.8995168 26.7861194,31.8453269 C26.7357287,31.790937 26.6719407,31.7465455 26.6443461,31.7465455 C26.6167513,31.7465455 26.5529632,31.7019541 26.5025729,31.6477641 C26.4521822,31.5933742 26.3923935,31.5489828 26.3695978,31.5489828 L26.3695978,31.5489828 C26.3472538,31.5494298 26.3287515,31.5317319 26.3282055,31.5093902 C26.3282055,31.4875942 26.3010107,31.4697975 26.2678168,31.4697975 L26.2678168,31.4697975 C26.2310823,31.4673765 26.1988369,31.4444877 26.1844323,31.4106088 C26.1720346,31.3780149 26.1446397,31.35122 26.1238436,31.35122 C26.1028475,31.35122 26.0270618,31.2890317 25.9554754,31.213046 C25.883689,31.1368604 25.8129022,31.0746721 25.7983049,31.0746721 C25.7691104,31.0746721 25.7037228,31.0236818 25.5575503,30.8869074 C25.50516,30.8381167 25.4437717,30.7981241 25.4211759,30.7981241 L25.4211759,30.7981241 C25.3980623,30.7977949 25.3795613,30.7788469 25.3797837,30.7557322 C25.3797837,30.7323366 25.3543885,30.687945 25.3233942,30.6569509 C25.2924,30.6257567 25.2478085,30.6003613 25.2246128,30.6003613 C25.2012172,30.6003613 25.182221,30.5823647 25.182221,30.5603687 C25.182221,30.5089784 24.7984932,30.1262495 24.7471017,30.1262495 L24.7471017,30.1262495 C24.7252024,30.1258117 24.7077743,30.1077582 24.7081091,30.0858572 C24.7081091,30.0636614 24.6099273,29.9456836 24.4897502,29.8237065 C24.3697727,29.7019294 24.2415968,29.5511577 24.2046038,29.4887694 C24.1678107,29.426381 24.1148205,29.3753907 24.0870259,29.3753907 C24.0590312,29.3753907 24.0362356,29.3571942 24.0362356,29.3347985 C24.0362356,29.3124027 23.9800461,29.2324179 23.9112589,29.1570319 C23.8424717,29.0814462 23.7538884,28.9662676 23.7142958,28.90108 L23.6421094,28.7827021 L38.5788898,28.7827021 L38.5788898,24.4751003 L21.7440418,24.4751003 L21.7440418,24.1363639 C21.7440418,23.8880105 21.7598388,23.7818307 21.8034305,23.7384377 C21.8518216,23.6898466 21.8626193,23.5432746 21.8626193,22.9309906 L21.8626193,22.1831304 L16.8833578,22.1831304 L16.8833578,22.6770372" id="形状"></path>
                </g>
            </g>
        </g>
    </g>
</svg>