<?xml version="1.0" encoding="UTF-8"?>
<svg width="129px" height="40px" viewBox="0 0 129 40" version="1.1" xmlns="http://www.w3.org/2000/svg" xmlns:xlink="http://www.w3.org/1999/xlink">
    <title>京东</title>
    <g id="案例---优化" stroke="none" stroke-width="1" fill="none" fill-rule="evenodd">
        <g id="独角兽" transform="translate(-483.000000, -1776.000000)" fill-rule="nonzero">
            <g id="更多logo" transform="translate(370.000000, 1596.000000)">
                <g id="京东" transform="translate(113.000000, 180.000000)">
                    <path d="M98.5089409,29.1186074 L103.183625,29.1186074 L97.0705768,39.4160382 L94.3736422,39.4160382 L98.5089342,29.1186074 L98.5089409,29.1186074 Z M105.700727,12.4981787 L128.175149,12.4981787 L128.175149,15.2080321 L104.801728,15.2080321 L101.745208,23.6989208 L109.476433,23.6989208 L109.476433,19.5438203 L114.151117,19.5438203 L114.151117,23.6989208 L127.096384,23.6989208 L127.096384,26.4087742 L114.151117,26.4087742 L114.151117,32.5511045 C114.151117,34.7189819 113.61173,36.5255506 112.35316,37.6094893 C111.094589,38.693428 109.11684,39.2353973 106.419912,39.4160584 L106.419912,36.8868659 C107.498683,36.8868659 108.217868,36.706209 108.757254,36.1642423 C109.29664,35.6222724 109.476433,35.0803036 109.476433,33.4543889 L109.476433,26.4087608 L95.8119795,26.4087608 L100.306864,15.2080254 L94.7332081,15.2080254 L94.7332081,12.498172 L101.385642,12.498172 L102.10482,10.5109489 L106.779504,10.5109489 L105.700733,12.498172 L105.700727,12.4981787 Z M85.0242341,23.6989141 L85.0242341,19.5438136 L62.7296248,19.5438136 L62.7296248,23.6989141 L85.0242341,23.6989141 Z M89.6989182,17.014601 L89.6989182,26.4087407 L76.3940244,26.4087407 L76.3940244,32.5510709 C76.3940244,34.7189483 75.8546382,36.5255173 74.5960679,37.609456 C73.3374969,38.6933947 71.3597477,39.235364 68.6628195,39.4160248 L68.6628195,36.8868324 C69.7415909,36.8868324 70.460776,36.7061754 71.0001617,36.1642087 C71.539548,35.6222388 71.7193401,34.8996093 71.7193401,33.4543553 L71.7193401,26.4087272 L58.4144464,26.4087272 L58.4144464,17.014601 L89.6989182,17.014601 L89.6989182,17.014601 Z M76.2142782,12.4981988 L90.5979164,12.4981988 L90.5979164,15.2080522 L57.155969,15.2080522 L57.155969,12.4981988 L71.5396072,12.4981988 L71.5396072,10.5109757 L76.2142913,10.5109757 L76.2142913,12.4981988 L76.2142782,12.4981988 Z M57.155969,39.4160584 L61.1114677,29.1186276 L65.786152,29.1186276 L59.6731039,39.4160584 L57.155969,39.4160584 L57.155969,39.4160584 Z M81.9677599,29.1186276 L86.6424443,29.1186276 L90.597943,39.4160584 L88.0808081,39.4160584 L81.9677599,29.1186276 Z M125.658047,39.4160584 L119.544999,29.1186276 L124.219683,29.1186276 L128.175182,39.4160584 L125.658047,39.4160584 Z M34.1422449,24.782846 L28.2089927,24.782846 L28.0291971,27.3120385 L34.1422449,27.3120385 L34.1422449,24.782846 L34.1422449,24.782846 Z" id="形状" fill="#E1251B"></path>
                    <path d="M4.54669821,8.74720236 C4.54669821,8.74720236 4.00633912,11.9706281 3.10574017,13.7614143 C2.0250233,15.7312838 0.764182502,18.2383898 0.223824068,19.1337862 C-0.316535033,20.0291827 0.223824068,21.6408922 0.76418317,21.9990521 C1.30454227,22.35721 3.64609927,22.35721 4.54669889,21.461815 C5.44729851,20.7455018 7.42861497,19.6710221 7.96897339,18.0593125 C8.50933252,16.447603 8.50933252,13.2241772 8.32921258,12.507864 C8.32921258,12.507864 9.04968825,12.3287847 9.04968825,12.8660219 C9.22980819,13.4032591 9.95028787,16.8057609 14.6333965,20.0291534 C19.3165118,23.0734959 24.1797377,24.8642888 26.8815299,25.580602 C29.5833287,26.2969151 34.0862867,26.2969151 38.5893182,23.6107325 C43.0923097,20.9245432 46.6946948,18.4174372 49.7567614,8.38898662 C49.7567614,8.38898662 50.6573611,3.01661471 48.3158035,1.7630584 C45.9742458,0.509502081 40.2104268,-0.564970969 33.7260855,0.330425456 C27.0616538,1.04673861 19.6767798,3.01661471 15.5340229,5.52372072 C11.2111487,8.03082674 10.8509076,9.28438306 9.95031462,10.1797795 C9.049715,11.0751759 8.32923932,8.20991001 6.34792285,8.20991001 C4.18648911,8.20991001 4.54672362,8.74714717 4.54672362,8.74714717 L4.54669821,8.74720236 Z" id="路径" fill="#EEEDEC"></path>
                    <path d="M26.2773722,6.32889436 C26.2773722,7.05023044 26.8146964,7.59124087 27.5311316,7.59124087 C28.2475607,7.59124087 28.7848909,7.05023646 28.7848909,6.32889436 C28.7848909,5.60755827 28.2475667,5.06654782 27.5311316,5.06654782 C26.8147024,5.06654782 26.2773722,5.60755223 26.2773722,6.32889436 Z M39.3522756,2.90253288 C39.3522756,3.62386896 41.1433585,4.34521173 43.4717582,4.34521173 C45.8001646,4.34521173 47.5912408,3.62387565 47.5912408,2.90253288 C47.5912408,2.18119679 45.8001579,1.45985401 43.4717582,1.45985401 C41.3224642,1.45985401 39.3522756,2.00085842 39.3522756,2.90253288 Z" id="形状" fill="#231815"></path>
                    <path d="M27.7299359,27.1532846 C27.7299359,27.1532846 25.3801136,32.6078478 24.2955823,32.7896633 C23.391804,32.9714817 22.6687854,32.6078452 21.4034944,31.6987562 C20.3189632,30.7896648 22.3072728,33.698755 23.572557,33.8805705 C24.837848,33.8805705 22.6687787,36.6078449 22.1265131,37.1532986 C21.5842468,37.6987527 21.0419818,38.6078435 21.0419818,38.6078435 C21.0419818,38.6078435 20.8612261,39.3351127 21.5842481,39.1532978 C22.3072667,38.9714794 25.3801143,34.9714849 25.3801143,34.7896627 C25.3801143,34.6078443 27.0069112,34.6078443 27.0069112,34.7896627 C27.0069112,34.9714808 26.4646449,39.1532978 26.4646449,39.5169357 C26.6454006,39.8805716 27.3684232,40.06239 27.5491762,39.6987541 C27.7299319,39.3351182 27.9106869,36.0623947 28.2721948,35.3351188 C28.6337055,34.7896648 29.8989918,33.3351203 31.1642829,34.2442119 C32.4295737,35.1533033 32.248814,39.1533004 32.4295737,39.6987541 C32.6103293,40.06239 33.5141051,40.06239 33.5141051,39.8805722 C33.5141051,39.6987541 33.3333495,28.2442255 33.5141051,27.8805538 C34.0563714,27.1532846 30.9835299,27.5169179 27.7299292,27.1532846 L27.7299359,27.1532846 Z" id="路径" fill="#EEEDEC"></path>
                    <path d="M34.836082,16.4424751 C39.532357,17.8804215 44.2286055,17.161445 46.5767699,15.7235053 C46.9380213,15.1842755 47.1186472,15.0045354 47.29927,14.2855589 C45.3123859,16.2627343 40.254844,16.8019634 34.8360753,15.1842762 C31.2235608,14.1058181 28.1529163,12.3083835 26.5272789,10.5109489 L26.1660275,10.5109489 C25.9854014,10.6906924 25.9854014,10.8704351 25.9854014,11.0501786 C27.611032,13.2070948 30.8622998,15.1842702 34.8360613,16.4424758 L34.836082,16.4424751 Z" id="路径" fill="#231815"></path>
                </g>
            </g>
        </g>
    </g>
</svg>