<?xml version="1.0" encoding="UTF-8"?>
<svg width="105px" height="40px" viewBox="0 0 105 40" version="1.1" xmlns="http://www.w3.org/2000/svg" xmlns:xlink="http://www.w3.org/1999/xlink">
    <title>快手</title>
    <g id="案例---优化" stroke="none" stroke-width="1" fill="none" fill-rule="evenodd">
        <g id="独角兽" transform="translate(-1243.000000, -1916.000000)" fill="#FF4906" fill-rule="nonzero">
            <g id="更多logo" transform="translate(370.000000, 1596.000000)">
                <g id="快手" transform="translate(873.000000, 320.000000)">
                    <g id="编组-43" transform="translate(1.243025, 1.257716)">
                        <path d="M59.7021337,6.61946756 L59.6611722,6.61859768 L57.078483,6.62349542 L57.0821205,9.05694747 L52.1125565,9.05704484 C51.6726467,9.05706957 51.3135079,9.40191141 51.2921309,9.83528477 L51.2911241,9.87616507 L51.29101,12.4668506 L57.084497,12.4666282 L57.0838457,17.1161964 L57.0752949,19.0038827 L57.0714875,19.214036 L57.0662507,19.4197506 C57.056183,19.7642355 57.039889,20.1978154 57.0170878,20.5198752 L57.002624,20.7119988 L56.9637462,21.1596173 L50.9387318,21.1596792 C50.4988245,21.1596917 50.1396865,21.5045292 50.1183169,21.9379066 L50.1172214,21.9787874 L50.1172214,24.5693112 C54.0180499,24.5690619 56.2313503,24.5690554 56.7571224,24.5692914 C55.5368122,28.0215194 53.2555626,30.2787395 50.1172214,31.524484 C50.1992297,31.8042354 50.6870979,33.4692827 50.9387025,34.3280889 C51.0184211,34.6001938 51.4117406,34.6759791 51.601277,34.6000857 C53.8537981,33.6981388 57.8303181,31.4266245 59.8474642,26.0125615 C61.6329511,31.1605059 65.7702268,33.5591379 67.6484006,34.413423 C67.702971,34.4382443 67.7556342,34.4617617 67.8062772,34.484005 C68.4319373,34.7588067 68.6975198,34.484005 68.798202,34.143112 C69.0978702,33.1284857 69.360247,32.2407034 69.5720989,31.524484 C68.3019479,31.0142293 64.5412977,29.3667876 62.9443826,24.5692898 C63.6524683,24.5690548 65.5873677,24.5691357 68.749081,24.5695328 L68.7874001,24.5689373 C69.2138682,24.5532635 69.5557618,24.2135603 69.5766915,23.7915044 L69.5777072,23.7504112 L69.5777072,21.1596212 L67.9452282,21.1596048 L67.9452335,9.87617605 C67.9452217,9.43750657 67.5994138,9.07937437 67.1648146,9.05805453 L67.1238186,9.05705037 L60.4851754,9.05694934 L60.4826081,7.4212945 L60.4821764,7.40639261 L60.4825765,7.39432814 C60.4617785,6.98853862 60.1450201,6.66122708 59.743919,6.62244197 L59.7021337,6.61946756 Z M47.5960382,6.62001426 L45.013813,6.62001426 L45.013813,33.7387031 C45.013813,34.1773688 45.3596379,34.5354945 45.7942437,34.5567961 L45.8352403,34.5577986 L48.417322,34.5427528 L48.4171093,18.0798098 L50.4290083,18.0799754 L50.4671419,18.0794065 C50.8936097,18.0637328 51.2354958,17.7240326 51.2564115,17.3019739 L51.2574256,17.2608805 L51.2573465,14.669935 L48.4171011,14.6699345 L48.417435,7.44642403 L48.4168483,7.40828555 C48.4011302,6.98301879 48.0604686,6.64209108 47.637245,6.62122577 L47.5960382,6.62001426 Z M97.1737275,6.9443845 C96.7212242,7.59869631 95.8474184,8.34211237 94.5644386,8.35787788 C94.5586557,8.35794895 87.9353624,8.35780769 74.6945588,8.35745413 L74.6946509,10.9482943 C74.6946614,11.3728128 75.0185194,11.7219058 75.4332974,11.7633069 L75.4750697,11.7664127 L75.5160657,11.7674167 L85.9748219,11.7675594 L85.9748219,16.2357183 L76.4701572,16.2360569 C76.0302438,16.2360992 75.6711039,16.5809475 75.649716,17.014315 L75.6487084,17.0551947 L75.648623,19.6458321 L85.9748219,19.645829 L85.9748219,23.7091597 L73.5169122,23.7092653 C73.0770052,23.7092765 72.7178673,24.0541134 72.6964985,24.4874912 L72.69529,24.528372 L72.69529,27.1190585 L85.9748113,27.1190573 L85.9745189,30.1453174 L85.9721644,30.2002234 L85.9700097,30.2281125 L85.9645033,30.2757071 C85.8959599,30.7575737 85.4894171,31.1235526 85.0021181,31.1452907 L84.9562051,31.1463132 L80.3715212,31.1461266 L81.1134584,33.9297225 C81.2168998,34.2703662 81.4850009,34.5173868 81.8284692,34.552149 L81.8699371,34.5552929 L81.9118692,34.5563854 L84.9508774,34.5563854 L85.0639698,34.5550053 L85.1358397,34.5526849 L85.2098913,34.5490751 C87.5205101,34.4177175 89.3402235,32.5180071 89.3778834,30.2011431 L89.3784788,30.1278418 L89.3783092,27.1190572 L101.355406,27.1191566 L101.393997,27.1185219 C101.820465,27.1028483 102.16237,26.7631405 102.18332,26.3410886 L102.184338,26.299996 L102.184338,23.7091635 L89.3783309,23.7091595 L89.3783309,19.6458288 L98.2968752,19.6459692 L98.3354136,19.6453421 C98.7618816,19.6296684 99.1037842,19.2899615 99.1247306,18.8679089 L99.1257478,18.8268161 L99.1256447,16.2359372 L89.3783309,16.2357169 L89.3783309,11.7675275 C90.5057317,11.774687 92.2099454,11.7732801 94.4909719,11.7633069 C98.2079999,11.7778065 100.109062,9.05064994 100.614095,7.7938575 C99.8596254,7.46660134 98.8332464,7.02258378 98.1559842,6.72947965 C97.6891446,6.52744179 97.3442637,6.69779225 97.1737275,6.9443845 Z M42.763153,10.3293108 L40.1808071,10.3293108 L40.1809559,19.6232964 L40.1786596,19.9197116 L40.1749834,20.1078559 C40.1282768,22.0492748 39.8049722,24.0039675 39.2056578,25.9710939 C39.0846402,26.3683093 39.2808886,26.7904277 39.6572071,26.9573641 L39.6967733,26.9737116 L42.2046777,27.8221465 C43.0690016,25.4035249 43.5317573,22.8641523 43.5802866,20.094169 L43.583323,19.8689861 L43.5845531,19.6484286 L43.5859589,18.7358046 L43.5836782,18.7343401 L43.5843161,11.1455395 L43.5831705,11.1238249 L43.5834947,11.1084755 C43.5635512,10.7016666 43.2473496,10.3734792 42.8460281,10.3334774 L42.8042172,10.3303759 L42.763153,10.3293108 Z M60.488454,12.4662363 L64.5412977,12.4662363 L64.541525,21.1596212 L60.3849894,21.1596212 L60.4210499,20.640705 C60.4531943,20.1462987 60.4725233,19.5296871 60.4792795,18.9901219 L60.4814058,18.7573366 L60.4843059,18.1805732 L60.488454,12.4662363 Z" id="Clip-2备份-12"></path>
                        <path d="M26.7740225,19.8272284 C30.4707436,19.8272284 33.467528,22.8453923 33.467528,26.5684861 L33.467528,31.9218377 C33.467528,35.6449315 30.4707436,38.6630954 26.7740225,38.6630954 L16.9306319,38.6630954 C13.9619385,38.6630954 11.4446394,36.7166594 10.5682722,34.0218114 L4.70387867,36.9824814 C3.10007177,37.7920999 1.14825308,37.1390076 0.344369616,35.523759 C0.117915634,35.0687434 -6.40335999e-14,34.5667894 -6.40335999e-14,34.0578151 L-6.40335999e-14,24.4559319 C-6.40335999e-14,22.6491364 1.45432192,21.1844392 3.24831891,21.1844392 C3.75801139,21.1844392 4.2605513,21.305236 4.71530572,21.5370625 L10.5538091,24.5135243 C11.4166655,21.7953653 13.9454353,19.8272284 16.9306319,19.8272284 L26.7740225,19.8272284 Z M26.7309332,23.2974449 L17.0290658,23.2969934 C15.1991889,23.2969934 13.7123158,24.7760445 13.6827614,26.6118827 L13.682313,31.8227015 C13.682313,33.665633 15.1508873,35.1631135 16.9737211,35.1928788 L26.6755886,35.1933305 C28.5054655,35.1933305 29.9923385,33.7142792 30.0218931,31.878441 L30.0223414,26.6676222 C30.0223414,24.8246907 28.5537671,23.3272102 26.7309332,23.2974449 Z M4.33109187,25.3877652 C3.84725632,25.3877652 3.45401223,25.7784004 3.4453332,26.2636 L3.44518671,32.2993372 C3.44518671,32.4402392 3.47832125,32.5791381 3.54187748,32.7046615 C3.76159142,33.1385964 4.28545011,33.3139924 4.71847694,33.1017434 L4.73354507,33.0941819 L10.2368597,30.2670968 L10.2368597,28.2683871 L4.72862147,25.4826364 C4.6052602,25.4202526 4.46913099,25.3877652 4.33109187,25.3877652 Z M12.5011061,4.4408921e-14 C15.8961223,4.4408921e-14 18.8547934,1.88154338 20.405156,4.66573262 C21.7915868,3.37001254 23.6495278,2.57753969 25.6912495,2.57753969 C29.9859697,2.57753969 33.467528,6.08393594 33.467528,10.4092949 C33.467528,14.7346539 29.9859697,18.2410501 25.6912495,18.2410501 C23.1089378,18.2410501 20.8206105,16.9733732 19.4063264,15.0222159 C17.7456916,16.9910093 15.2683461,18.2410501 12.5011061,18.2410501 C7.49965992,18.2410501 3.44518671,14.157652 3.44518671,9.12052506 C3.44518671,4.08339815 7.49965992,4.4408921e-14 12.5011061,4.4408921e-14 Z M12.5011061,3.66803725 C9.5111111,3.66803725 7.08724124,6.1091992 7.08724124,9.12052506 C7.08724124,12.1318509 9.5111111,14.5730129 12.5011061,14.5730129 C15.491101,14.5730129 17.914971,12.1318509 17.914971,9.12052506 C17.914971,6.1091992 15.491101,3.66803725 12.5011061,3.66803725 Z M25.6912495,6.24557694 C23.4079806,6.24557694 21.5570255,8.10973698 21.5570255,10.4092949 C21.5570255,12.7088528 23.4079806,14.5730129 25.6912495,14.5730129 C27.9745184,14.5730129 29.8254736,12.7088528 29.8254736,10.4092949 C29.8254736,8.10973698 27.9745184,6.24557694 25.6912495,6.24557694 Z" id="形状结合"></path>
                    </g>
                </g>
            </g>
        </g>
    </g>
</svg>