<?xml version="1.0" encoding="UTF-8"?>
<svg width="160px" height="90px" viewBox="0 0 160 90" version="1.1" xmlns="http://www.w3.org/2000/svg" xmlns:xlink="http://www.w3.org/1999/xlink">
    <title>编组 38</title>
    <g id="页面-1" stroke="none" stroke-width="1" fill="none" fill-rule="evenodd">
        <g id="聚合新首页" transform="translate(-573.000000, -3616.000000)">
            <g id="编组-38" transform="translate(573.000000, 3616.000000)">
                <rect id="矩形备份-60" stroke="#979797" fill="#D8D8D8" opacity="0" x="0.5" y="0.5" width="159" height="89"></rect>
                <g id="solution-choice-cmmi" transform="translate(55.000000, 14.000000)" fill-rule="nonzero">
                    <path d="M43.1355564,9 C44.8379336,13.9922624 42.3147674,23.8353156 35.3329943,32.112017 C27.2973884,41.6518958 15.725257,48.3419646 10,45.1586331 L10,45.1586324 C10.1813907,45.5187557 10.4022954,45.8576903 10.6586578,46.1692139 L10.6586569,46.1692132 C11.4363947,46.7292322 12.2449328,47.245433 13.0804812,47.7153978 C18.3801238,49.3020107 28.9896014,44.1581512 36.9644477,34.6991288 C43.9259742,26.4426588 46.8443153,17.3070125 45.7904727,11.8094594 L43.1355564,9 Z" id="路径" fill="#2D003E"></path>
                    <path d="M14.4249889,2.85397781 C10.9821611,6.15682802 6.6659414,16.8165142 10.5048369,28.8034939 C14.2320281,40.5538409 24.5808332,49.711276 29.4860814,50.9150885 L29.4860811,50.9150884 C29.9740154,51.0283038 30.4808966,51.0283038 30.9688329,50.9150885 L30.9688331,50.9150885 C31.7648611,50.7757802 32.4853749,50.35239 33,49.7215352 C27.7291319,48.6926099 16.9943951,38.9486672 13.2773498,27.301263 C9.56031441,15.6538085 14.0491932,5.94076379 17.7459169,2 L14.4249889,2.85397781 Z" id="路径" fill="#2D003E"></path>
                    <path d="M5.53117183,9.94593442 C5.09956635,10.7060691 4.41105284,11.9020142 4,12.5912029 L4,12.5912028 C4.61716646,11.9715347 5.42814281,11.5751908 6.30189604,11.4662036 C11.1112143,11.2533659 20.1749294,13.9594452 29.1256151,19.4425694 C38.0763008,24.9256838 44.3859518,31.6047236 46.3178801,35.9729738 L46.3178802,35.9729743 C46.4558559,36.7127051 46.213406,37.4718104 45.670472,38 L47.8079468,36.2770282 L47.8079468,35.9729743 L49,33.2567599 C47.2119201,29.7094649 40.1520776,23.1216314 30.5026221,17.2736425 C20.8531667,11.4256536 11.6661457,8 7.61723511,8 L5.53117183,9.94593442 Z" id="路径" fill="#2D003E"></path>
                    <path d="M37.6493433,5.52288237 C49.1188366,12.5393113 53.0668596,27.271682 46.4564716,38.4444486 L47.3675538,39 L47.3675542,39 C54.5797449,26.8293782 50.718248,11.0212897 38.7426225,3.69159953 C26.7670218,-3.63804037 11.2122401,0.28634033 4,12.4569866 L4.91108224,13.0022501 C11.5113867,1.85007956 26.1696679,-1.49351701 37.6492942,5.52286165 L37.6493433,5.52288237 Z" id="路径" fill="#D5EDFB"></path>
                    <path d="M12.2601458,47.3090036 L12.2601437,47.3090023 C24.2357135,54.6387665 39.7882078,50.7123132 47,38.5383572 L46.0887245,37.9824725 C39.4870201,49.151637 25.1698797,52.1163352 13.6878185,45.0957477 C2.20575729,38.0751099 -2.02664073,23.7147556 4.53457241,12.5455911 L3.62329693,12 L3.62329726,12 C-3.57756878,24.1757605 0.288455163,39.9807153 12.260144,47.3089716 L12.2601458,47.3090036 Z" id="路径" fill="#007DC4"></path>
                    <path d="M41.7015588,5.90801782 L40.8963118,5.2462658 C40.2923765,4.77794899 39.6783757,4.34017457 39.0543093,3.93294256 C33.0954618,0.949968064 21.4797835,5.236085 13.2159263,15.1318229 C4.95206911,25.0275807 3.0496829,37.1325424 6.93500952,42.5588891 L6.93500985,42.5588894 C7.44053531,43.1227954 7.97473393,43.6597133 8.53543827,44.1674559 L9.31048851,44.8597503 C9.78357113,45.2568015 10.2667193,45.6334911 10.7498675,46 L10.7498676,46 C10.4952156,45.6861654 10.2757848,45.3447154 10.0956044,44.98192 C7.47855163,40.0238702 11.6356393,29.130394 19.6075846,19.5299192 C27.5795496,9.92944433 36.7190835,4.85937594 41.9934415,6.62068422 L41.9934412,6.62068412 C42.343965,6.74566786 42.6811794,6.90597271 43,7.09918173 C42.6175077,6.72249212 42.1645562,6.30507931 41.7015392,5.90802809 L41.7015588,5.90801782 Z" id="路径" fill="#007DC4"></path>
                    <path d="M41.372294,20.3904332 C37.3743017,8.14597247 26.6200327,0.102207685 21.1033829,0 L21.1033803,0 C19.8896558,0.212050451 18.6919571,0.505728863 17.5186173,0.878986539 C17.033073,1.03229807 16.4855443,1.22649267 16,1.42068727 L16,1.42068728 C16.499684,1.35460312 17.0079826,1.40000275 17.487625,1.55355727 C21.9401694,2.8413741 31.196523,10.8749181 34.9878704,22.403925 C38.779248,33.932932 35.8453209,45.3290889 33.0043704,48.9779232 L33.0043704,48.9779231 C32.704804,49.3922575 32.3213165,49.7403386 31.8783209,50 C32.3948574,49.86713 32.9113938,49.7240393 33.4279303,49.560507 C33.9444668,49.3969747 34.3886881,49.2334424 34.8535709,49.0494685 C35.5353991,48.7939493 36.2068965,48.497547 36.8577324,48.190924 C41.2586231,44.8385119 45.3805841,32.6348943 41.3722611,20.3904336 L41.372294,20.3904332 Z" id="路径" fill="#F8A41A"></path>
                    <path d="M3.58906578,12.4884709 C3.44603926,12.7361729 3.31322892,12.983875 3.18041859,13.231577 C1.88296376,17.1432051 7.62445678,28.2381822 19.0768042,35.4318824 C30.5291517,42.6255826 43.5956356,43.2964423 46.4663921,40.3859232 L46.9465525,39.6944217 L47.4880101,38.8584273 L47.4880104,38.8584268 C48.0476755,37.9401523 48.5525682,36.9889396 49,36.0098634 C43.7897483,38.0740471 32.5314983,33.780545 23.6332457,28.1969081 C14.7349431,22.6132812 5.35651008,13.1489789 5.94902855,9 L5.94902815,9 C5.27524416,9.83702798 4.65423711,10.7160447 4.08968344,11.6318347 L3.58906578,12.4884709 Z" id="路径" fill="#00A451"></path>
                </g>
                <g id="CMMI" transform="translate(57.000000, 69.000000)" fill="#000000" fill-rule="nonzero">
                    <path d="M20.4230769,0.65 L18.0192308,4.4 L15.5673077,0.65 L12.9230769,0.65 L12.9230769,10.55 L15.5673077,10.55 L15.5673077,4.85 L18.0192308,8.65 L20.4230769,5 L20.4230769,10.55 L23.0673077,10.55 L23.0673077,0.65 L20.4230769,0.65 Z M33.6923077,0.65 L31.2884615,4.4 L28.8365385,0.65 L26.1923077,0.65 L26.1923077,10.55 L28.8365385,10.55 L28.8365385,4.85 L31.2884615,8.65 L33.6923077,5 L33.6923077,10.55 L36.3365385,10.55 L36.3365385,0.65 L33.6923077,0.65 Z M39.4615385,0.55 L42.25,0.55 L42.25,10.4 L39.4615385,10.4 L39.4615385,0.55 Z M44.6057692,0 C43.8365385,0 43.2115385,0.65 43.2115385,1.45 C43.2115385,2.25 43.8365385,2.9 44.6057692,2.9 C45.375,2.9 46,2.25 46,1.45 C46,0.65 45.375,0 44.6057692,0 Z M44.6057692,2.65 C43.9807692,2.65 43.4519231,2.1 43.4519231,1.45 C43.4519231,0.8 43.9807692,0.25 44.6057692,0.25 C45.2307692,0.25 45.7596154,0.8 45.7596154,1.45 C45.7596154,2.1 45.2788462,2.65 44.6057692,2.65 Z M44.7980769,1.6 C44.7980769,1.6 44.75,1.55 44.7019231,1.55 C44.7980769,1.55 44.8942308,1.5 44.9423077,1.45 C44.9903846,1.4 45.0384615,1.3 45.0384615,1.25 C45.0384615,1.2 45.0384615,1.1 44.9903846,1.05 C44.9423077,1 44.8942308,0.95 44.8461538,0.95 C44.7980769,0.95 44.7019231,0.9 44.6057692,0.9 L44.0769231,0.9 L44.0769231,2.15 L44.2211538,2.15 L44.2211538,1.6 L44.5096154,1.6 C44.5576923,1.6 44.5576923,1.6 44.6057692,1.65 L44.7019231,1.75 C44.75,1.8 44.75,1.85 44.7980769,1.9 L44.9423077,2.15 L45.1346154,2.15 L44.9423077,1.8 C44.8942308,1.7 44.8461538,1.65 44.7980769,1.6 Z M44.6057692,1.4 L44.2692308,1.4 L44.2692308,1 L44.6538462,1 C44.75,1 44.7980769,1 44.8461538,1.05 C44.8942308,1.1 44.8942308,1.15 44.8942308,1.2 C44.8942308,1.25 44.8942308,1.3 44.8461538,1.3 C44.8461538,1.35 44.7980769,1.35 44.75,1.4 L44.6057692,1.4 Z M8.40384615,7.1 C7.97115385,7.85 7.15384615,8.4 6.28846154,8.4 C4.89423077,8.4 3.78846154,7.2 3.78846154,5.7 C3.78846154,4.2 4.89423077,3 6.28846154,3 C7.15384615,3 7.92307692,3.45 8.35576923,4.15 C8.98076923,3.6 9.84615385,2.85 10.4230769,2.35 C9.46153846,1.1 7.97115385,0.3 6.28846154,0.3 C3.35576923,0.3 1,2.7 1,5.65 C1,8.6 3.35576923,11 6.28846154,11 C8.01923077,11 9.55769231,10.15 10.5192308,8.85 L8.40384615,7.1 Z" id="形状"></path>
                </g>
            </g>
        </g>
    </g>
</svg>