<?xml version="1.0" encoding="UTF-8"?>
<svg width="160px" height="90px" viewBox="0 0 160 90" version="1.1" xmlns="http://www.w3.org/2000/svg" xmlns:xlink="http://www.w3.org/1999/xlink">
    <title>编组 37</title>
    <g id="页面-1" stroke="none" stroke-width="1" fill="none" fill-rule="evenodd">
        <g id="聚合新首页" transform="translate(-381.000000, -3616.000000)">
            <g id="编组-37" transform="translate(381.000000, 3616.000000)">
                <rect id="矩形备份-59" stroke="#979797" fill="#D8D8D8" opacity="0" x="0.5" y="0.5" width="159" height="89"></rect>
                <g id="高新技术企业" transform="translate(54.000000, 11.000000)" fill="#FF333D" fill-rule="nonzero">
                    <path d="M45.1746359,0 C53.9348752,15 40.7387895,26.7088946 27.2529468,33.5820683 C26.5842262,35.6193804 20.9892642,69 20.9892642,69 L10,69 C10,69 21.3682494,37.3433255 20.4989127,36.4702136 C19.8301922,35.7985722 14.814788,38.5075257 14.814788,38.5075257 C14.814788,38.5075257 16.3528453,30.761262 17.1330193,26.5970418 C31.5996522,22.5448056 41.8088513,12.2015723 45.1746577,0 L45.1746359,0 Z" id="路径"></path>
                    <path d="M51.1228571,17 C56.5788688,34.1625173 48.9049662,45.1286851 43.8259959,50.2328146 C38.8357413,55.336966 32.6034461,58.6134299 32.6034461,64.007293 C32.6034461,65.6343806 32.8030563,66.7042463 34.5108323,68.9108445 C33.6458548,68.9108445 23,69 23,69 C23,69 28.9439477,39.1329136 29.7202095,34.987162 C37.4162911,31.7329869 44.8018679,24.5113929 51.1228571,17 L51.1228571,17 Z M7.20721863,46.1479594 C7.20721863,49.9116167 9.93243986,51.3369071 14.031533,51.6264192 C13.2432458,54.3211087 12.3873912,57.5057419 11.3964017,60 C3.80632272,58.6415201 0,53.0739797 0,46.2370835 C0,39.4001438 5.45044246,32.474167 15,29 C14.7072076,31.6056089 14.1216229,35.2579155 13.4459482,39.4001656 C10.5180246,41.0481575 7.20721863,42.8743108 7.20721863,46.1480246 L7.20721863,46.1479594 Z" id="形状"></path>
                </g>
            </g>
        </g>
    </g>
</svg>