<?xml version="1.0" encoding="UTF-8"?>
<svg width="240px" height="168px" viewBox="0 0 240 168" version="1.1" xmlns="http://www.w3.org/2000/svg" xmlns:xlink="http://www.w3.org/1999/xlink">
    <title>编组 24</title>
    <defs>
        <rect id="path-1" x="0" y="0" width="240" height="168"></rect>
    </defs>
    <g id="页面-1" stroke="none" stroke-width="1" fill="none" fill-rule="evenodd">
        <g id="聚合新首页" transform="translate(-981.000000, -910.000000)">
            <g id="编组-24" transform="translate(981.000000, 910.000000)">
                <g id="编组-11">
                    <mask id="mask-2" fill="white">
                        <use xlink:href="#path-1"></use>
                    </mask>
                    <use id="蒙版" fill="#005BE0" xlink:href="#path-1"></use>
                    <g opacity="0.080257" mask="url(#mask-2)" stroke="#FFFFFF">
                        <g transform="translate(-185.000000, -54.000000)">
                            <path d="M204.980088,2.02987084 C205.850153,2.05346514 206.711466,2.39981976 207.370007,3.0636733 L207.370007,3.0636733 L447.603548,245.235219 C448.284215,245.921376 448.622322,246.81847 448.618724,247.714191 C448.615139,248.606467 448.272472,249.49738 447.591565,250.177063 L447.591565,250.177063 L415.650695,279.06737 C414.957144,279.694557 414.078326,279.993723 413.208261,279.970129 C412.338196,279.946535 411.476884,279.60018 410.818343,278.936327 L410.818343,278.936327 L170.584801,36.7647815 C169.904135,36.0786239 169.566027,35.1815303 169.569626,34.2858094 C169.57321,33.3935335 169.915877,32.5026198 170.596784,31.822937 L170.596784,31.822937 L202.537654,2.93263025 C203.231205,2.30544255 204.110023,2.00627654 204.980088,2.02987084 Z" id="矩形"></path>
                            <path d="M372.700512,2.02987084 C373.570577,2.05346514 374.43189,2.39981976 375.090431,3.0636733 L375.090431,3.0636733 L615.323972,245.235219 C616.004639,245.921376 616.342746,246.81847 616.339148,247.714191 C616.335563,248.606467 615.992896,249.49738 615.311989,250.177063 L615.311989,250.177063 L583.371119,279.06737 C582.677568,279.694557 581.79875,279.993723 580.928685,279.970129 C580.05862,279.946535 579.197308,279.60018 578.538767,278.936327 L578.538767,278.936327 L338.305225,36.7647815 C337.624559,36.0786239 337.286451,35.1815303 337.29005,34.2858094 C337.293634,33.3935335 337.636301,32.5026198 338.317208,31.822937 L338.317208,31.822937 L370.258078,2.93263025 C370.95163,2.30544255 371.830447,2.00627654 372.700512,2.02987084 Z" id="矩形备份-44"></path>
                            <path d="M37.7005123,2.02987084 C38.5705774,2.05346514 39.4318899,2.39981976 40.0904309,3.0636733 L40.0904309,3.0636733 L280.323972,245.235219 C281.004639,245.921376 281.342746,246.81847 281.339148,247.714191 C281.335563,248.606467 280.992896,249.49738 280.311989,250.177063 L280.311989,250.177063 L248.371119,279.06737 C247.677568,279.694557 246.79875,279.993723 245.928685,279.970129 C245.05862,279.946535 244.197308,279.60018 243.538767,278.936327 L243.538767,278.936327 L3.3052252,36.7647815 C2.62455873,36.0786239 2.28645119,35.1815303 2.29004964,34.2858094 C2.29363425,33.3935335 2.63630148,32.5026198 3.31720823,31.822937 L3.31720823,31.822937 L35.2580783,2.93263025 C35.9516296,2.30544255 36.8304472,2.00627654 37.7005123,2.02987084 Z" id="矩形备份-48"></path>
                            <path d="M400.858003,1.91383717 C401.702553,1.86592104 402.564389,2.12268262 403.266236,2.69417979 L403.266236,2.69417979 L438.293213,31.2158227 C439.219852,32.1070036 439.588466,32.999074 439.598714,33.9029676 C439.608869,34.7986381 439.277337,35.6981826 438.601712,36.3893042 L438.601712,36.3893042 L216.195934,263.896127 C215.563232,264.54334 214.735967,264.895934 213.891417,264.94385 C213.046867,264.991766 212.185031,264.735005 211.483184,264.163508 L211.483184,264.163508 L176.456207,235.641865 C175.529568,234.750684 175.160954,233.858613 175.150706,232.95472 C175.140551,232.059049 175.472082,231.159505 176.147708,230.468383 L176.147708,230.468383 L398.553486,2.96156087 C399.186188,2.31434716 400.013452,1.96175331 400.858003,1.91383717 Z" id="矩形备份-45"></path>
                            <path d="M568.578427,1.91383717 C569.422977,1.86592104 570.284813,2.12268262 570.98666,2.69417979 L570.98666,2.69417979 L606.013637,31.2158227 C606.940276,32.1070036 607.30889,32.999074 607.319138,33.9029676 C607.329293,34.7986381 606.997761,35.6981826 606.322136,36.3893042 L606.322136,36.3893042 L383.916358,263.896127 C383.283656,264.54334 382.456391,264.895934 381.611841,264.94385 C380.767291,264.991766 379.905455,264.735005 379.203608,264.163508 L379.203608,264.163508 L344.176631,235.641865 C343.249992,234.750684 342.881378,233.858613 342.87113,232.95472 C342.860975,232.059049 343.192506,231.159505 343.868132,230.468383 L343.868132,230.468383 L566.27391,2.96156087 C566.906612,2.31434716 567.733876,1.96175331 568.578427,1.91383717 Z" id="矩形备份-47"></path>
                            <path d="M233.578427,1.91383717 C234.422977,1.86592104 235.284813,2.12268262 235.98666,2.69417979 L235.98666,2.69417979 L271.013637,31.2158227 C271.940276,32.1070036 272.30889,32.999074 272.319138,33.9029676 C272.329293,34.7986381 271.997761,35.6981826 271.322136,36.3893042 L271.322136,36.3893042 L48.9163578,263.896127 C48.2836556,264.54334 47.4563915,264.895934 46.6118412,264.94385 C45.767291,264.991766 44.9054547,264.735005 44.2036081,264.163508 L44.2036081,264.163508 L9.17663113,235.641865 C8.2499918,234.750684 7.88137786,233.858613 7.87112965,232.95472 C7.86097466,232.059049 8.19250647,231.159505 8.86813207,230.468383 L8.86813207,230.468383 L231.27391,2.96156087 C231.906612,2.31434716 232.733876,1.96175331 233.578427,1.91383717 Z" id="矩形备份-49"></path>
                        </g>
                    </g>
                </g>
                <g id="编组-11" transform="translate(87.000000, 48.000000)" fill="#FFFFFF">
                    <rect id="矩形" x="23.7030423" y="52.1675084" width="19" height="19" rx="4"></rect>
                    <path d="M4.04334273,14.1352485 L43.1838296,14.067414 C45.3929652,14.0635853 47.1869273,15.8513399 47.1907559,18.0604756 C47.190764,18.0650972 47.190764,18.0697188 47.1907559,18.0743404 L47.1719411,28.9305135 C47.1681218,31.1342366 45.3826026,32.9197558 43.1788795,32.9235751 L4.03839266,32.9914095 C1.82925698,32.9952382 0.0352949314,31.2074836 0.0314662734,28.9983479 C0.0314582637,28.9937264 0.0314582637,28.9891047 0.0314662734,28.9844832 L0.0502811314,18.12831 C0.0541004089,15.924587 1.83961964,14.1390677 4.04334273,14.1352485 Z" id="矩形" transform="translate(23.611111, 23.529412) rotate(45.000000) translate(-23.611111, -23.529412) "></path>
                    <path d="M24.0288877,14.1352485 L63.1693745,14.067414 C65.3785102,14.0635853 67.1724722,15.8513399 67.1763009,18.0604756 C67.1763089,18.0650972 67.1763089,18.0697188 67.1763009,18.0743404 L67.157486,28.9305135 C67.1536668,31.1342366 65.3681475,32.9197558 63.1644244,32.9235751 L24.0239376,32.9914095 C21.8148019,32.9952382 20.0208399,31.2074836 20.0170112,28.9983479 C20.0170032,28.9937264 20.0170032,28.9891047 20.0170112,28.9844832 L20.0358261,18.12831 C20.0396454,15.924587 21.8251646,14.1390677 24.0288877,14.1352485 Z" id="矩形备份-45" transform="translate(43.596656, 23.529412) scale(-1, 1) rotate(45.000000) translate(-43.596656, -23.529412) "></path>
                </g>
            </g>
        </g>
    </g>
</svg>