<?xml version="1.0" encoding="UTF-8"?>
<svg width="240px" height="168px" viewBox="0 0 240 168" version="1.1" xmlns="http://www.w3.org/2000/svg" xmlns:xlink="http://www.w3.org/1999/xlink">
    <title>编组 20</title>
    <defs>
        <rect id="path-1" x="0" y="0" width="240" height="168"></rect>
        <polygon id="path-3" points="0 0.27138322 73.739481 0.27138322 73.739481 73.7389327 0 73.7389327"></polygon>
        <polygon id="path-5" points="0.417171711 1.62342165 32.5998623 1.62342165 32.5998623 34.829932 0.417171711 34.829932"></polygon>
    </defs>
    <g id="页面-1" stroke="none" stroke-width="1" fill="none" fill-rule="evenodd">
        <g id="聚合新首页" transform="translate(-421.000000, -910.000000)">
            <g id="编组-20" transform="translate(421.000000, 910.000000)">
                <g id="编组">
                    <mask id="mask-2" fill="white">
                        <use xlink:href="#path-1"></use>
                    </mask>
                    <use id="蒙版" fill="#005BE0" xlink:href="#path-1"></use>
                    <g mask="url(#mask-2)" stroke="#FFFFFF" stroke-width="2">
                        <g transform="translate(-80.000000, -116.000000)">
                            <circle id="椭圆形" opacity="0.033339" cx="200" cy="200" r="199"></circle>
                            <path d="M351.969504,198.872938 C351.969504,237.59617 337.510864,275.353556 311.262258,303.231637 L345.99313,344.041352 C352.772705,351.992596 351.642776,364.498767 343.733272,371.314119 C340.343484,373.585903 335.823768,375.857687 331.304051,375.857687 C325.654405,375.857687 321.134689,373.585903 316.614972,369.030976 L229.610428,266.800695 C222.830853,258.849451 223.960782,246.365997 231.870286,239.550645 C239.77979,232.723934 252.209011,233.871185 258.988586,241.81107 L286.083919,273.648671 C304.076229,253.070552 314.620955,226.852238 314.620955,198.872938 C314.620955,135.366214 263.691114,84.3340248 200.311758,84.3340248 C136.932401,85.4680735 86.0025602,136.500262 86.0025602,198.872938 C86.0025602,261.245613 136.932401,313.423191 199.179983,313.423191 C203.70708,313.423191 208.234177,313.423191 212.761274,312.277802 C222.947242,311.143753 233.13321,319.093434 234.264984,329.288532 C235.396759,339.494969 227.474339,349.701407 217.288371,350.835456 C211.6295,351.969504 205.970629,351.969504 199.179983,351.969504 C115.42869,351.969504 47.5222363,283.926586 47.5222363,200.006986 C47.5222363,116.087387 115.42869,48.0444683 199.179983,48.0444683 C284.063051,46.9104196 351.969504,114.953338 351.969504,198.872938 Z" id="形状结合" opacity="0.033339"></path>
                            <path d="M198.971666,284.879288 C151.50946,284.879288 113.087675,246.281683 113.087675,198.590935 C113.087675,150.922892 151.50946,112.325286 198.971666,112.325286 C204.621929,112.325286 211.402244,113.449157 217.052506,114.595733 C226.092926,116.866181 232.873241,125.94797 230.613136,135.02976 C228.353031,144.11155 219.312611,150.922892 210.272191,148.652444 C206.882034,147.505868 203.491876,147.505868 198.971666,147.505868 C170.720353,147.505868 146.98925,170.210342 146.98925,199.737511 C146.98925,229.253327 169.590301,251.957801 198.971666,251.957801 C227.222979,251.957801 250.954082,229.253327 250.954082,199.737511 C250.954082,194.061392 249.824029,189.520498 248.693977,184.979603 C246.433872,175.886461 250.954082,165.6808 259.994502,163.410352 C269.034922,161.139905 279.205395,165.6808 281.4655,174.762589 C283.725605,182.709155 284.855657,191.790945 284.855657,199.737511 C285.98571,246.281683 246.433872,284.879288 198.971666,284.879288" id="Fill-3" opacity="0.073339"></path>
                            <path d="M198.983482,179.415502 C209.651543,179.415502 218.297332,188.06129 218.297332,198.729352 C218.297332,209.397414 209.651543,218.043202 198.983482,218.043202 C188.31542,218.043202 179.669632,209.397414 179.669632,198.729352 C179.669632,188.06129 188.31542,179.415502 198.983482,179.415502" id="Fill-7" opacity="0.063339"></path>
                        </g>
                    </g>
                </g>
                <g id="编组" transform="translate(83.000000, 44.000000)">
                    <g>
                        <mask id="mask-4" fill="white">
                            <use xlink:href="#path-3"></use>
                        </mask>
                        <g id="Clip-2"></g>
                        <path d="M36.7326783,73.7389327 C16.4474679,73.7389327 0,57.2914649 0,37.0062545 C0,16.7210441 16.4474679,0.273576216 36.7326783,0.273576216 C57.2920131,-0.000548248929 73.739481,16.4469196 73.739481,36.73213 C73.739481,46.8747352 69.627614,56.7432159 62.2262535,63.5963275 C60.3073822,65.2410743 57.5661376,65.2410743 55.6472663,63.3222031 C54.0025195,61.4033318 54.0025195,58.6620872 55.9213908,56.7432159 C61.4038801,51.5348511 64.6933736,44.407615 64.6933736,36.73213 C64.6933736,21.38116 52.3577727,9.04555908 37.0068027,9.04555908 C21.6558327,9.31968355 9.3202318,21.6552845 9.3202318,36.73213 C9.3202318,51.8089756 21.6558327,64.4214422 36.7326783,64.4214422 C37.8291761,64.4214422 38.925674,64.4214422 40.0221718,64.1445765 C42.489292,63.870452 44.9564122,65.7920645 45.2305367,68.2564434 C45.5046611,70.7235636 43.5857899,73.1906838 41.1186697,73.4648083 C39.7480474,73.7389327 38.377425,73.7389327 36.7326783,73.7389327" id="Fill-1" fill="#FFFFFF" mask="url(#mask-4)"></path>
                    </g>
                    <path d="M14.9816463,36.7175081 C14.9816463,24.6902972 24.718939,14.9516649 36.7473593,14.9516649 C38.1793141,14.9516649 39.8976599,15.2352309 41.3296147,15.5245256 C43.6207424,16.0973863 45.3390882,18.3888292 44.7663062,20.6802721 C44.1935243,22.971715 41.9023966,24.6902972 39.6112689,24.1174364 C38.7520961,23.8281418 37.8929232,23.8281418 36.7473593,23.8281418 C29.5875853,23.8281418 23.5733751,29.556749 23.5733751,37.0068027 C23.5733751,44.4539921 29.3011944,50.1825994 36.7473593,50.1825994 C43.9071334,50.1825994 49.9213435,44.4539921 49.9213435,37.0068027 C49.9213435,35.5746509 49.6349526,34.4289295 49.3485616,33.283208 C48.7757797,30.9889008 49.9213435,28.4138919 52.2124712,27.8410311 C54.5035989,27.2681704 57.0811176,28.4138919 57.6538995,30.7053348 C58.2266814,32.7103473 58.5130724,35.0017902 58.5130724,37.0068027 C58.7994633,48.7504475 48.7757797,58.4890798 36.7473593,58.4890798 C24.718939,58.4890798 14.9816463,48.7504475 14.9816463,36.7175081 Z" id="Fill-3" fill="#FFFFFF"></path>
                    <g transform="translate(40.816327, 43.537415)">
                        <mask id="mask-6" fill="white">
                            <use xlink:href="#path-5"></use>
                        </mask>
                        <g id="Clip-6"></g>
                        <path d="M22.9950751,33.2167877 L2.85955215,10.6684246 C1.11805556,8.79296671 1.40830499,5.84849784 3.44005102,4.24096252 C5.47179705,2.63074797 8.66454082,2.90134975 10.4060374,4.7741284 L30.5415604,27.3224915 C32.283057,29.1979494 31.4726828,31.7740221 29.9610615,33.755312 C29.0903132,34.2911571 27.9293155,34.8270022 26.7683177,34.8270022 C25.3170706,34.8270022 24.1560728,34.2911571 22.9950751,33.2167877 Z" id="Fill-5" fill="#FFFFFF" mask="url(#mask-6)"></path>
                    </g>
                    <path d="M41.2334982,37.0068027 C41.2334982,39.4116046 39.2845587,41.3605442 36.8797567,41.3605442 C34.4749548,41.3605442 32.5260152,39.4116046 32.5260152,37.0068027 C32.5260152,34.6020008 34.4749548,32.6530612 36.8797567,32.6530612 C39.2845587,32.6530612 41.2334982,34.6020008 41.2334982,37.0068027 Z" id="Fill-7" fill="#FFFFFF"></path>
                </g>
            </g>
        </g>
    </g>
</svg>