<?xml version="1.0" encoding="UTF-8"?>
<svg width="240px" height="168px" viewBox="0 0 240 168" version="1.1" xmlns="http://www.w3.org/2000/svg" xmlns:xlink="http://www.w3.org/1999/xlink">
    <title>编组 23</title>
    <defs>
        <rect id="path-1" x="0" y="0" width="240" height="168"></rect>
        <path d="M2.41713501,0.197413874 C1.09530278,0.197413874 0.0242123881,1.22012742 0.0242123881,2.48177442 L0.0242123881,2.48177442 L0.0242123881,7.62080227 C0.0242123881,8.88205757 1.09530278,9.90477112 2.41713501,9.90477112 L2.41713501,9.90477112 L7.80090314,9.90477112 C9.12273538,9.90477112 10.1938258,8.88205757 10.1938258,7.62080227 L10.1938258,7.62080227 L10.1938258,2.48177442 C10.1938258,1.22012742 9.12273538,0.197413874 7.80090314,0.197413874 L7.80090314,0.197413874 L2.41713501,0.197413874 Z" id="path-3"></path>
    </defs>
    <g id="页面-1" stroke="none" stroke-width="1" fill="none" fill-rule="evenodd">
        <g id="聚合新首页" transform="translate(-701.000000, -910.000000)">
            <g id="编组-23" transform="translate(701.000000, 910.000000)">
                <g id="编组">
                    <mask id="mask-2" fill="white">
                        <use xlink:href="#path-1"></use>
                    </mask>
                    <use id="蒙版" fill="#1271EF" xlink:href="#path-1"></use>
                    <g opacity="0.117346125" mask="url(#mask-2)" id="Fill-1" stroke="#FFFFFF">
                        <g transform="translate(-24.000000, -92.000000)">
                            <path d="M142.695185,0.203312881 C144.140689,-0.0680512232 145.622537,-0.0680512232 147.068041,0.204998372 L279.15075,25.160383 C284.858425,26.2390974 289,31.3174828 289,37.2419848 L289,196.954087 C289,221.95498 281.271923,245.379938 266.028879,266.580048 C254.185659,283.050669 237.820903,298.134131 217.383957,311.410746 C183.220505,333.605296 149.473359,343.167089 148.052635,343.564864 C145.999194,344.137932 143.833416,344.144674 141.776671,343.586776 C140.349339,343.199113 106.400648,333.827781 72.0373044,311.729304 C51.4781095,298.506625 35.0125815,283.43159 23.0983257,266.920517 C7.77102876,245.67827 0,222.138698 0,196.954087 L0,37.2419848 C0,31.3141118 4.14818308,26.2323555 9.86081434,25.1586975 L142.695185,0.203312881 Z M143.138757,41.3870322 L42.9387274,60.2482189 C38.6281398,61.0590954 35.4992254,64.9007889 35.4992254,69.3805492 L35.4992254,190.094803 C35.4992254,209.128799 41.363705,226.919895 52.9252469,242.976246 C61.9105138,255.455104 74.3318977,266.848916 89.8399353,276.843633 C115.761975,293.544698 141.368686,300.626574 142.446333,300.920683 C143.996974,301.342738 145.630511,301.337753 147.179527,300.904067 C148.250672,300.604973 173.707845,293.376873 199.478721,276.602696 C214.892485,266.566438 227.2391,255.167641 236.172354,242.717032 C247.668879,226.695574 253.499225,208.990884 253.499225,190.094803 L253.499225,69.3805492 C253.499225,64.9041122 250.375187,61.0657419 246.069476,60.2498805 L146.436714,41.3886938 C145.346064,41.1826514 144.229407,41.1809898 143.138757,41.3870322 L143.138757,41.3870322 Z"></path>
                            <path d="M143.49455,76.113477 C144.29983,75.9620179 145.125358,75.9620179 145.930639,76.1144177 L219.513047,90.0430045 C222.692756,90.6450776 225,93.4795253 225,96.7862241 L225,185.927862 C225,199.881849 220.694739,212.956245 212.202939,224.788864 C205.60516,233.981769 196.488462,242.400445 185.103173,249.810649 C166.070939,262.198305 147.270626,267.535119 146.47915,267.757134 C145.335191,268.076985 144.128651,268.080748 142.982851,267.769363 C142.187694,267.552993 123.275102,262.322482 104.131509,249.988449 C92.6781164,242.608349 83.505279,234.194376 76.8679254,224.978893 C68.329189,213.122755 64,199.98439 64,185.927862 L64,96.7862241 C64,93.4776438 66.3109255,90.6413147 69.4933948,90.0420637 L143.49455,76.113477 Z M144.338488,109.074487 L95.6173725,118.214908 C93.5213987,118.607872 92,120.469615 92,122.640576 L92,181.14056 C92,190.364728 94.8515359,198.986567 100.473203,206.767722 C104.842186,212.815168 110.881942,218.336784 118.422547,223.180378 C131.026842,231.273971 143.477811,234.705957 144.001804,234.848487 C144.755786,235.053021 145.550075,235.050605 146.303266,234.840435 C146.824098,234.695489 159.202356,231.192641 171.733149,223.063617 C179.227915,218.199891 185.231315,212.675859 189.575007,206.642102 C195.165061,198.877857 198,190.297892 198,181.14056 L198,122.640576 C198,120.471226 196.480972,118.611093 194.38737,118.215714 L145.942082,109.075292 C145.411766,108.975441 144.868804,108.974636 144.338488,109.074487 L144.338488,109.074487 Z"></path>
                        </g>
                    </g>
                </g>
                <g id="编组" transform="translate(86.000000, 44.000000)">
                    <path d="M32.9268706,0.0466475284 C33.2604202,-0.0156134789 33.6023561,-0.0156134789 33.9359057,0.0470342427 L64.4139506,5.77272662 C65.7309949,6.02022379 66.6866621,7.18539407 66.6866621,8.54469495 L66.6866621,45.1885848 C66.6866621,50.9247184 64.9034108,56.2992742 61.3860829,61.1633671 C58.6532635,64.9423395 54.8771011,68.403046 50.1612819,71.4491948 C42.2780759,76.5414491 34.4909322,78.7352795 34.1631006,78.8265441 C33.6892696,78.958027 33.1895171,78.9595738 32.7149237,78.8315714 C32.3855673,78.7426271 24.5519172,76.5924954 16.6225861,71.5222838 C11.8785581,68.4885099 8.07914254,65.0297369 5.32993163,61.2414834 C1.79316252,56.3677226 0,50.9668703 0,45.1885848 L0,8.54469495 C0,7.18462064 0.957191985,6.01867694 2.27537991,5.77233991 L32.9268706,0.0466475284 Z M33.0240765,9.05593129 L9.52465111,13.4455257 C8.51370999,13.6342423 7.77990092,14.5283258 7.77990092,15.5709076 L7.77990092,43.6649303 C7.77990092,48.094743 9.15526877,52.2352933 11.8667409,55.9721139 C13.9740119,58.8763385 16.8871386,61.5280387 20.5241631,63.8541254 C26.603533,67.7409911 32.6089502,69.3891676 32.8616855,69.457616 C33.2253498,69.5558415 33.6084553,69.5546813 33.9717385,69.4537489 C34.2229489,69.3841403 40.1932958,67.701933 46.2372141,63.7980518 C49.8521291,61.4622972 52.7477206,58.8094369 54.8427932,55.9117865 C57.5390173,52.1830869 58.90638,48.0626457 58.90638,43.6649303 L58.90638,15.5709076 C58.90638,14.5290992 58.1737145,13.6357891 57.163917,13.4459124 L33.7975303,9.056318 C33.5417454,9.00836543 33.2798613,9.00797871 33.0240765,9.05593129 L33.0240765,9.05593129 Z" id="Fill-1" fill="#FFFFFF"></path>
                    <g transform="translate(12.824358, 7.638037)">
                        <path d="M1.85133525,60.8586628 L0.341280726,52.1344118 C2.59050942,51.7499481 8.56464114,50.7293925 8.56464114,36.4454097 L8.56464114,0.199556758 L17.4744594,0.199556758 L17.4744594,36.4454097 C17.4744594,54.4172834 8.97873148,59.6411313 1.85133525,60.8586628" id="Fill-7" fill="#FFFFFF"></path>
                        <path d="M35.8473115,27.8328923 L35.8473115,32.812323 C35.8473115,34.0347884 34.8502859,35.0257407 33.619857,35.0257407 L28.6079887,35.0257407 C27.3775597,35.0257407 26.3805341,34.0347884 26.3805341,32.812323 L26.3805341,27.8328923 C26.3805341,26.6104269 27.3775597,25.6194746 28.6079887,25.6194746 L33.619857,25.6194746 C34.8502859,25.6194746 35.8473115,26.6104269 35.8473115,27.8328923" id="Fill-9" fill="#016CFA"></path>
                    </g>
                    <g transform="translate(38.473074, 30.552147)">
                        <mask id="mask-4" fill="white">
                            <use xlink:href="#path-3"></use>
                        </mask>
                        <g id="Clip-12"></g>
                        <polygon id="Fill-11" fill="#FFFFFF" mask="url(#mask-4)" points="-708.314947 467.291175 299.153083 467.291175 299.153083 -212.221874 -708.314947 -212.221874"></polygon>
                        <polygon id="Fill-13" fill="#FFFFFF" mask="url(#mask-4)" points="-5.95829937 15.6148891 16.1767479 15.6148891 16.1767479 -5.51270411 -5.95829937 -5.51270411"></polygon>
                    </g>
                </g>
            </g>
        </g>
    </g>
</svg>