<?xml version="1.0" encoding="UTF-8"?>
<svg width="45px" height="32px" viewBox="0 0 45 32" version="1.1" xmlns="http://www.w3.org/2000/svg" xmlns:xlink="http://www.w3.org/1999/xlink">
    <title>小米</title>
    <g id="页面-1" stroke="none" stroke-width="1" fill="none" fill-rule="evenodd">
        <g id="聚合新首页" transform="translate(-1206.000000, -3337.000000)">
            <g id="小米" transform="translate(1206.000000, 3337.000000)">
                <rect id="矩形" stroke="#979797" fill="#D8D8D8" opacity="0" x="0.5" y="0.5" width="44" height="31"></rect>
                <path d="M32,29.6868459 L32,10.0707546 C32,5.61374543 28.3954781,2 23.9484913,2 L1.31591224,2 C1.14142583,2 1,2.14095569 1,2.31402603 L1,29.6866037 C1,29.8597224 1.14137749,30 1.31591224,30 L7.36131051,30 C7.53584526,30 7.67702941,29.8589959 7.67702941,29.6849083 L7.67702941,8.20064561 C7.67702941,8.026219 7.81835857,7.88468205 7.99289332,7.88468205 L20.9930009,7.88468205 C23.4342639,7.88468205 25.4139355,9.86774938 25.4139355,12.3145173 L25.4139355,29.6842302 C25.4139355,29.8585115 25.5550713,29.9991765 25.7287844,29.9991765 L31.6851511,29.9991765 C31.8584292,29.9991765 32,29.8586084 32,29.6858287 L32,29.6867974 L32,29.6868459 Z M20,29.6864526 L20,29.6864532 C20.0003969,29.8591937 19.8533994,29.9995732 19.671621,30 C19.6710626,30 19.6705043,30 19.669946,30 L13.3313201,30 C13.1482728,30 13,29.8597726 13,29.6864045 L13,13.31398 C13,13.1407082 13.1482728,13 13.3313201,13 L19.6699967,13 L19.6699967,13 C19.852056,12.9998134 19.9998031,13.139912 20,13.3129193 C20,13.313289 20,13.3136587 20,13.3140284 L20,29.6872717 L20,29.6864528 M44,29.684708 C44,29.8590898 43.8515566,30 43.6685491,30 L37.3327179,30 C37.1492543,30 37,29.8589929 37,29.6846596 L37,2.31640645 C37,2.14129807 37.1492036,2 37.3327179,2 L43.6685998,2 L43.6685998,2 C43.8513468,2 43.9997197,2.14111061 44,2.31577625 C44,2.31597014 44,2.31616402 44,2.31635791 L44,29.6847079" id="形状" fill="#CCCCCC" fill-rule="nonzero"></path>
            </g>
        </g>
    </g>
</svg>