<?xml version="1.0" encoding="UTF-8"?>
<svg width="112px" height="32px" viewBox="0 0 112 32" version="1.1" xmlns="http://www.w3.org/2000/svg" xmlns:xlink="http://www.w3.org/1999/xlink">
    <title>中国银联</title>
    <g id="页面-1" stroke="none" stroke-width="1" fill="none" fill-rule="evenodd">
        <g id="聚合新首页" transform="translate(-861.000000, -3337.000000)">
            <g id="中国银联" transform="translate(861.000000, 3337.000000)">
                <rect id="矩形" stroke="#979797" fill="#D8D8D8" opacity="0" x="0.5" y="0.5" width="110.034483" height="30.030303"></rect>
                <g id="编组-41" transform="translate(0.027147, 0.382756)" fill="#CCCCCC" fill-rule="nonzero">
                    <path d="M10.7272701,27.1360316 L14.1466231,11.8897916 L14.0363214,11.8897916 C13.8708688,11.8897916 13.6502654,11.9466806 13.5399637,12.0604585 C13.5399637,12.3449033 13.3745112,13.1982376 13.2642094,13.5964603 C13.0987569,14.3929056 13.0987569,14.5066835 12.9884552,14.9049062 L12.9333043,14.9617952 L11.4442312,14.9617952 L11.3890804,14.9049062 C11.4993821,14.3929056 11.6096838,13.937794 11.7199855,13.4257934 C12.0508906,12.0604585 12.271494,10.4106788 12.3266449,8.76089908 L12.2163432,10.8657904 C12.8781535,10.7520125 13.043606,10.7520125 13.815718,10.5813456 L13.8708688,10.6382346 L13.815718,11.1502352 C13.9260197,11.0933462 14.0363214,10.9795683 14.201774,10.9226794 C14.4223774,10.8089015 14.6429808,10.7520125 14.8635842,10.7520125 L16.1872048,3.12889253 C16.5732607,1.42222388 18.1726355,0.0568889551 19.8271612,0.0568889551 L9.12789531,0.0568889551 C7.47336965,0.0568889551 5.87399486,1.42222388 5.48793887,3.12889253 L0.0831550684,27.1929205 C-0.302900917,28.8995892 0.689814475,30.2649241 2.34434013,30.2649241 L13.043606,30.2649241 C11.3890804,30.2080352 10.3412141,28.8427002 10.7272701,27.1360316 L10.7272701,27.1360316 Z M9.67940386,14.5066835 C9.12789531,14.8480173 8.41093419,15.0186841 7.69397307,15.0186841 L7.52852051,15.0186841 C6.9218611,15.0186841 5.76369315,14.9049062 5.37763716,14.2222388 C5.26733545,13.994683 5.21218459,13.7102382 5.21218459,13.4257934 L5.21218459,13.3689044 L5.37763716,12.2880143 L5.43278801,11.9466806 L6.3152017,7.96445371 L6.37035255,7.73689789 C6.37035255,7.73689789 6.70125768,7.79378685 8.35578334,7.73689789 L8.35578334,7.79378685 C8.19033077,8.24889849 7.36306794,11.7760137 7.36306794,11.7760137 L7.14246452,12.8569038 L7.14246452,13.0275707 C7.19761538,13.5395713 7.52852051,13.8240161 8.02487821,13.8240161 L8.08002906,13.8240161 C8.41093419,13.8240161 8.68668847,13.7102382 8.90729189,13.5395713 C9.34849873,13.1982376 9.45880044,12.629348 9.624253,11.8329027 C9.624253,11.8329027 10.4515158,7.96445371 10.5066667,7.79378685 C10.6169684,7.79378685 10.9478735,7.8506758 12.1611923,7.79378685 L12.1611923,7.8506758 C11.9957398,8.30578744 11.1133261,11.9466806 11.1133261,11.9466806 L11.0030244,12.3449033 C10.8375718,13.0844597 10.5618175,13.937794 9.67940386,14.5066835 L9.67940386,14.5066835 Z" id="形状"></path>
                    <path d="M23.6325702,27.1360316 L24.5149839,23.1538047 L23.4119668,23.1538047 L23.3568159,23.1538047 C23.2465142,23.1538047 23.0810617,23.0969158 22.9707599,23.0400268 C22.8604582,22.9831379 22.7501565,22.8693599 22.7501565,22.755582 C22.8053074,22.4142483 22.9156091,22.0729146 23.0259108,21.7884698 L24.6804365,15.9857964 L26.004057,15.9857964 L25.7834536,16.6684638 C25.7834536,16.6684638 25.8937553,16.6115749 26.004057,16.497797 L26.390113,14.9617952 C26.1695095,14.9617952 25.9489061,14.9617952 25.5628501,15.0186841 L25.5628501,14.9617952 C25.618001,14.6773504 25.6731518,14.4497946 25.7834536,14.1653498 L25.8386044,13.8240161 C25.9489061,13.2551265 26.1143587,12.5724591 26.1143587,12.4017922 C26.1143587,12.2880143 26.1695095,11.9466806 25.8386044,11.9466806 C25.6731518,11.9466806 25.4525484,12.0035695 25.3422467,12.1173474 C25.3422467,12.4017922 25.1767941,13.2551265 25.0664924,13.6533492 C24.9010399,14.4497946 24.9010399,14.5635725 24.7907382,14.9617952 L24.7355873,15.0186841 L23.2465142,15.0186841 L23.1362125,14.9617952 C23.2465142,14.4497946 23.3568159,13.994683 23.4671176,13.4826824 C23.7980228,12.1173474 24.0186262,10.5244567 24.0186262,8.87467699 L23.9083245,10.9226794 C24.5701347,10.8089015 24.7355873,10.8089015 25.5076993,10.6382346 L25.5628501,10.6951236 L25.5076993,11.1502352 C25.618001,11.0933462 25.7283027,10.9795683 25.8937553,10.9226794 C26.1695095,10.8089015 26.5004147,10.6951236 26.8864707,10.6951236 C27.0519232,10.6951236 27.2173758,10.7520125 27.3828284,10.8089015 L29.0925049,3.07200357 C29.4785608,1.36533492 31.0779356,-5.85659467e-14 32.7324613,-5.85659467e-14 L19.8271612,-5.85659467e-14 C18.1726355,-5.85659467e-14 16.5732607,1.36533492 16.1872048,3.07200357 L14.4223774,10.8089015 C14.6429808,10.7520125 14.9187351,10.6951236 15.1944894,10.6951236 C15.4702436,10.6951236 15.8562996,10.8089015 15.9666013,11.1502352 C16.1320539,11.4915689 16.0217522,11.8897916 15.8562996,12.7431259 L15.7459979,13.1413486 C15.5253945,14.0515719 15.5253945,14.2222388 15.4150928,14.8480173 L15.3599419,14.9049062 L13.8708688,14.9049062 L13.8708688,14.8480173 C13.9260197,14.5635725 13.9811706,14.3360167 14.0363214,14.0515719 L14.0914723,13.6533492 C14.201774,13.0844597 14.3672265,12.4017922 14.3672265,12.2311253 C14.3672265,12.1173474 14.4223774,11.8897916 14.1466231,11.8329027 L10.7272701,27.0791426 C10.3412141,28.7858113 11.3339295,30.1511462 12.9884552,30.1511462 L25.8937553,30.1511462 C24.2392296,30.2080352 23.2465142,28.8427002 23.6325702,27.1360316 L23.6325702,27.1360316 Z M24.073777,16.497797 L23.7980228,17.4649092 L21.7022903,17.4649092 L21.4816869,17.692465 C21.3713851,17.8062429 21.3713851,17.749354 21.2059326,17.8062429 C20.9853292,17.9200209 20.7647257,17.9769098 20.4889715,17.9769098 L19.8271612,17.9769098 L20.1029155,17.0666865 L20.3786698,17.0666865 C20.4889715,17.0666865 20.5992732,17.0666865 20.654424,17.0097976 C20.7647257,16.8960197 20.8750274,16.7253528 20.9301783,16.5546859 L21.2610834,15.9857964 L22.7501565,15.9857964 L22.4744022,16.497797 L24.073777,16.497797 L24.073777,16.497797 Z M18.6138424,11.43468 C18.5586915,11.6622358 18.393239,12.4017922 18.3380881,12.629348 C18.2829373,12.9137928 18.2277864,13.1982376 18.1174847,13.4257934 C18.007183,13.994683 17.9520321,14.2222388 17.8968813,14.3929056 C17.8417304,14.5635725 17.8417304,14.6204615 17.7865796,14.9049062 L16.0769031,14.9049062 C16.1872048,14.3929056 16.4078082,13.994683 16.6284116,13.5964603 C16.4078082,13.994683 16.462959,13.5964603 16.462959,13.1413486 C16.462959,13.3120155 16.5732607,13.0275707 16.5732607,12.7431259 C16.6284116,12.4586812 16.7938642,11.7760137 16.7938642,11.5484579 L16.7938642,11.4915689 C16.7938642,11.2640131 16.9041659,11.0933462 17.0696184,10.9795683 C17.4556744,10.6951236 18.007183,10.6382346 18.2829373,10.8657904 C18.393239,10.9226794 18.5035407,11.0364573 18.5035407,11.2071242 C18.6689932,11.3209021 18.6138424,11.377791 18.6138424,11.43468 Z M18.8895967,12.8569038 C18.9998984,12.1742364 19.3859544,11.5484579 19.8823121,11.0933462 C20.1580663,10.8657904 20.7095749,10.6382346 21.3713851,10.6382346 L21.4816869,10.6382346 C22.0331954,10.6382346 22.584704,10.7520125 22.8604582,11.1502352 C23.0810617,11.43468 23.2465142,11.8329027 23.0259108,12.8000149 C22.9156091,13.4826824 22.584704,14.0515719 22.1434971,14.5066835 C21.9228937,14.6773504 21.3162343,14.9617952 20.654424,14.9617952 L20.5441223,14.9617952 L20.4889715,14.9617952 C20.1580663,14.9617952 19.8823121,14.9049062 19.5514069,14.7911283 C18.6138424,14.4497946 18.779295,13.4257934 18.8895967,12.8569038 Z M22.0883463,23.1538047 L20.3786698,23.1538047 C20.2132172,23.1538047 20.1029155,23.1538047 19.9374629,23.0969158 C19.8271612,23.0969158 19.7168595,22.9831379 19.6617086,22.8693599 C19.6065578,22.812471 19.5514069,22.6986931 19.5514069,22.5849152 L19.5514069,22.4711373 L20.0477646,20.8213576 L19.2756526,20.8213576 L19.5514069,19.8542453 L20.3786698,19.8542453 L20.5992732,19.0578 L19.7720103,19.0578 L20.0477646,18.1475767 L23.7428719,18.1475767 L23.4671176,19.0578 L21.9780445,19.0578 L21.7574411,19.8542453 L23.3016651,19.8542453 L23.0259108,20.8213576 L21.4816869,20.8213576 L21.0956309,22.0729146 C21.04048,22.1866925 21.4816869,22.2435814 21.5919886,22.2435814 L22.3641005,22.1298035 L22.0883463,23.1538047 L22.0883463,23.1538047 Z" id="形状"></path>
                    <path d="M25.7834536,17.0097976 L25.4525484,18.0906877 C25.6731518,17.9200209 25.8937553,17.749354 26.2246604,17.692465 L25.9489061,17.0097976 L25.7834536,17.0097976 Z M20.654424,14.0515719 C20.8750274,14.0515719 20.9853292,13.937794 21.0956309,13.7671271 C21.3162343,13.3689044 21.426536,12.9137928 21.4816869,12.4017922 C21.5919886,12.0604585 21.5919886,11.6053468 21.2059326,11.6053468 C20.7647257,11.6053468 20.5441223,12.1742364 20.3786698,12.9137928 C20.3235189,13.1413486 20.268368,13.3689044 20.268368,13.6533492 C20.3235189,14.0515719 20.5992732,14.0515719 20.654424,14.0515719 Z M24.4046822,21.7315808 C24.3495313,21.9591367 24.3495313,22.0160256 24.3495313,22.0729146 C24.4046822,22.1298035 24.459833,22.1866925 24.5149839,22.1866925 L24.7355873,22.1866925 L25.2870959,19.7973564 L24.9561907,19.7973564 L24.4046822,21.7315808 Z M25.3422467,18.4889104 L25.231945,18.944022 L25.5076993,18.944022 L25.618001,18.4889104 L25.3422467,18.4889104 Z" id="形状"></path>
                    <path d="M35.3245515,14.0515719 C35.5451549,14.0515719 35.7657583,13.937794 35.9312109,13.7671271 C36.0415126,13.5964603 36.1518143,13.3689044 36.1518143,13.1413486 C36.1518143,13.1982376 36.2069652,13.0275707 36.262116,12.8000149 C36.3172669,12.629348 36.3172669,12.5155701 36.3724177,12.4017922 C36.4275686,11.9466806 36.262116,11.6622358 35.9312109,11.6622358 C35.4900041,11.6622358 35.2694006,12.2311253 35.1039481,12.9137928 C35.0487972,13.1413486 34.9936464,13.4257934 34.9936464,13.6533492 C34.9936464,14.0515719 35.3245515,14.0515719 35.3245515,14.0515719 Z M27.3276775,18.944022 L27.4931301,18.4889104 L25.618001,18.4889104 L25.5076993,18.944022 L27.2725266,18.944022 L27.3276775,18.944022 Z" id="形状"></path>
                    <path d="M32.6773104,0.0568889551 C31.0227848,0.0568889551 29.42341,1.42222388 29.037354,3.12889253 L27.2725266,10.8657904 C27.4379792,10.9795683 27.5482809,11.0933462 27.6034318,11.3209021 C27.7137335,11.6053468 27.6034318,12.0035695 27.4379792,12.8569038 L27.3276775,13.2551265 C27.1070741,14.1653498 27.1070741,14.3360167 26.9967724,14.9617952 L26.9967724,15.0186841 L26.390113,15.0186841 L26.0592078,16.5546859 C26.390113,16.3271301 26.7761689,16.0995743 27.2173758,16.0426853 C27.0519232,16.0995743 27.6034318,16.0426853 28.2100912,15.9857964 L29.5888626,16.0426853 L28.8719014,18.4889104 C28.7615997,18.944022 28.5409963,19.3422447 28.265242,19.6835785 C28.4306946,19.5129116 28.265242,19.6266895 28.0446386,19.7404674 C27.9894878,19.7973564 27.7688843,19.8542453 27.5482809,19.8542453 L25.2870959,19.8542453 L24.7355873,22.1866925 L25.4525484,22.1298035 L25.1767941,23.2106937 L24.5701347,23.2106937 L23.5774193,27.1929205 C23.1913634,28.8995892 24.1840788,30.2649241 25.8386044,30.2649241 L37.5857365,30.2649241 C39.2402622,30.2649241 40.839637,28.8995892 41.225693,27.1929205 L46.6304768,3.12889253 C47.0165328,1.42222388 45.9686665,0.0568889551 44.3692917,0.0568889551 L32.6773104,0.0568889551 Z M36.0415126,10.6951236 C36.3172669,10.8089015 36.4827194,10.9795683 36.5930212,11.2071242 C36.5378703,11.0364573 36.5378703,10.9795683 36.5378703,10.9226794 L36.5930212,10.8657904 C37.3099823,10.7520125 37.4754348,10.7520125 38.2475468,10.5813456 L38.2475468,10.6382346 C38.1372451,11.2071242 37.9717925,11.7760137 37.8614908,12.3449033 C37.5857365,13.5395713 37.4754348,14.1653498 37.3651331,14.7911283 L37.3099823,14.8480173 L35.7657583,14.8480173 L35.7106075,14.7911283 C35.7106075,14.7342394 35.7657583,14.6204615 35.7657583,14.5635725 C35.5451549,14.7911283 35.2694006,14.9049062 34.9384955,14.9049062 C34.9936464,14.9049062 34.9384955,14.9049062 34.9384955,14.9049062 C34.6627412,14.9049062 34.4421378,14.8480173 34.2215344,14.7342394 C33.3391207,14.3929056 33.4494224,13.3689044 33.614875,12.8000149 C33.7251767,12.1173474 34.1112327,11.4915689 34.5524395,11.0364573 C34.9936464,10.7520125 35.7106075,10.5813456 36.0415126,10.6951236 Z M27.9894878,15.0186841 L29.1476557,10.183123 L29.5888626,8.02134267 L29.6440134,7.73689789 C29.8646168,7.73689789 30.3609745,7.79378685 31.6294442,7.73689789 L32.1258019,7.73689789 C33.1185173,7.73689789 34.000931,7.73689789 34.386987,8.3626764 C34.5524395,8.59023222 34.6075904,8.81778804 34.6075904,9.15912177 L34.6075904,9.21601072 C34.6075904,9.44356654 34.5524395,9.67112236 34.4972887,9.89867819 C34.3318361,10.6951236 33.8354784,11.43468 33.1736681,11.8897916 C32.5118579,12.4017922 31.4639916,12.4017922 30.5264271,12.4017922 L30.4161254,12.4017922 C30.3058237,12.4586812 30.2506728,12.5155701 30.195522,12.629348 C30.2506728,12.5724591 30.0300694,13.4826824 30.0300694,13.4826824 C30.0300694,13.4826824 29.7543151,14.7911283 29.6991643,14.9617952 C29.5337117,15.0186841 29.0925049,15.0186841 27.9894878,15.0186841 L27.9894878,15.0186841 Z M28.3755437,20.5369128 C28.3203929,20.7075797 28.265242,20.8782465 28.0997895,21.0489134 C27.9894878,21.1626913 27.7688843,21.2764692 27.4931301,21.2764692 L27.4379792,21.2764692 L26.7210181,21.3333582 L26.7210181,22.0160256 C26.7210181,22.1866925 26.7761689,22.1866925 26.7761689,22.2435814 C26.8313198,22.3004704 26.8313198,22.3004704 26.8864707,22.3004704 L27.1070741,22.3004704 L27.7688843,22.2435814 L27.4931301,23.2106937 L26.7210181,23.2106937 C26.1695095,23.2106937 25.7834536,23.2106937 25.618001,23.0969158 C25.5076993,22.9831379 25.4525484,22.8693599 25.4525484,22.6986931 L25.5076993,20.0818011 L26.7761689,20.0818011 L26.7761689,20.5938017 L27.1622249,20.5938017 C27.2173758,20.5938017 27.2725266,20.5938017 27.3276775,20.5369128 C27.3828284,20.4800238 27.3828284,20.4231349 27.4379792,20.3662459 L27.5482809,19.9680232 L28.5409963,19.9680232 L28.3755437,20.5369128 Z M32.7876122,23.1538047 L31.4088408,23.1538047 L31.5191425,22.8693599 L28.7615997,22.8693599 L29.037354,21.9591367 L29.3131083,21.9591367 L30.7470305,17.0097976 L31.0227848,16.0426853 L32.4015562,16.0426853 L32.2361036,16.5546859 C32.5670087,16.3271301 32.9530647,16.1564632 33.3942716,16.0995743 L36.648172,16.0995743 L36.648172,16.6684638 C36.648172,16.7822418 36.7033229,16.7822418 36.8687754,16.7822418 L37.1445297,16.7822418 L36.8687754,17.692465 L36.0966635,17.692465 C35.4348532,17.749354 35.1590989,17.4649092 35.1590989,17.0666865 L35.1590989,16.497797 L34.9936464,17.0097976 L34.4972887,17.0097976 L33.0633664,21.8453588 L33.4494224,21.8453588 L33.1736681,22.8693599 L32.7876122,22.8693599 L32.7876122,23.1538047 Z M38.9093571,18.8302441 L37.420284,18.8302441 L37.1996806,19.5698005 L38.6887537,19.5698005 L38.4681502,20.4231349 L36.8687754,20.4231349 L36.5930212,20.7644686 L37.2548314,20.7644686 L37.420284,21.7884698 C37.420284,21.8453588 37.420284,21.9591367 37.4754348,22.0160256 C37.5305857,22.0160256 37.6408874,22.0729146 37.7511891,22.0729146 L37.9717925,22.0729146 L37.6960383,23.0969158 L36.8687754,23.0969158 C36.7033229,23.0400268 36.5378703,22.9831379 36.4275686,22.8693599 C36.3724177,22.8693599 36.262116,22.755582 36.262116,22.5849152 L36.0966635,21.560914 L35.3797023,22.5849152 C35.1590989,22.9262489 34.7730429,23.1538047 34.3318361,23.1538047 L33.2839698,23.1538047 L33.5597241,22.2435814 L33.9457801,22.2435814 C34.0560818,22.2435814 34.1663835,22.1866925 34.2215344,22.1298035 C34.3318361,22.0729146 34.386987,22.0160256 34.4421378,21.9022477 L35.4900041,20.4231349 L34.1112327,20.4231349 L34.3318361,19.5698005 L35.8209092,19.5698005 L36.0415126,18.8302441 L34.4421378,18.8302441 L34.7178921,17.8631319 L39.1299605,17.8631319 L38.9093571,18.8302441 L38.9093571,18.8302441 Z M39.8469216,15.9289074 L39.7917708,15.9857964 L39.2402622,17.0097976 C39.0196588,17.3511313 38.6887537,17.6355761 38.2475468,17.6355761 L37.3099823,17.6355761 L37.5857365,16.7253528 L37.80634,16.7253528 C37.8614908,16.7253528 37.9166417,16.7253528 37.9717925,16.6684638 C38.0269434,16.6684638 38.0820942,16.6115749 38.0820942,16.5546859 L38.3578485,16.0426853 C38.7990554,15.3600179 38.9093571,15.0186841 39.4057148,14.2222388 C39.3505639,13.3120155 39.2954131,13.0275707 39.1851113,12.4586812 C39.1299605,12.1173474 39.0748096,11.7191247 39.0748096,11.377791 C39.0196588,10.6951236 38.9093571,10.0693451 38.7439045,9.5004555 L38.9645079,10.2969009 L38.9645079,10.2400119 L39.0196588,10.183123 C39.7366199,10.0693451 39.7366199,10.0693451 40.5087319,9.89867819 L40.5638827,9.95556714 L40.6741844,11.9466806 L40.6741844,12.0604585 C41.0602404,11.1502352 41.0602404,11.377791 41.5565981,10.183123 L41.611749,10.126234 C42.2735592,10.0124561 42.3838609,10.0124561 43.1559729,9.84178923 L43.2111238,9.89867819 C43.1008221,9.95556714 40.2329776,15.0755731 39.8469216,15.9289074 L39.8469216,15.9289074 Z" id="形状"></path>
                    <path d="M27.7688843,17.5217982 L27.9343369,17.0097976 L25.8937553,17.0097976 L25.6731518,17.8631319 C26.004057,17.6355761 26.390113,17.5217982 26.8313198,17.5217982 L27.7688843,17.5217982 Z M31.9051985,11.0933462 C32.3464053,10.8657904 32.6221596,10.4106788 32.7324613,9.89867819 C32.842763,9.44356654 32.6773104,9.04534386 32.2912545,8.87467699 L31.2433882,8.81778804 L31.0227848,8.81778804 L31.0227848,8.9884549 L30.5815779,11.1502352 L30.5815779,11.2640131 L31.0227848,11.2640131 C31.2985391,11.2640131 31.6294442,11.2071242 31.9051985,11.0933462 Z M30.7470305,21.8453588 L31.8500476,21.8453588 L32.1809527,20.7644686 L31.0779356,20.7644686 L30.7470305,21.8453588 Z M32.1809527,16.9529086 L31.7948968,18.2044656 C32.4015562,17.9200209 33.0633664,17.749354 33.7803275,17.692465 C32.6773104,17.9200209 32.9530647,17.8631319 33.1736681,17.8631319 L33.228819,16.9529086 L32.1809527,16.9529086 Z M31.2433882,20.1386901 C31.7948968,19.8542453 32.5118579,19.6266895 33.228819,19.5129116 C32.1258019,19.7973564 32.456707,19.7404674 32.456707,19.7404674 L32.7324613,18.8302441 L31.6294442,18.8302441 L31.2433882,20.1386901 Z" id="形状"></path>
                    <path d="M51.1528469,6.48534088 L56.1164239,6.48534088 L56.2818764,5.51822864 L57.9915529,5.51822864 L57.8261004,6.48534088 L62.8448282,6.48534088 L61.2454534,15.7013516 C61.1903025,16.0426853 61.0800008,16.3271301 60.9145483,16.5546859 C60.8593974,16.6115749 60.638794,16.8960197 60.3630397,17.0097976 C60.4181906,17.0097976 60.1975871,17.0666865 59.9218329,17.0666865 L55.9509713,17.0666865 L55.7303679,18.2613546 L54.0206914,18.2613546 L54.2412948,17.0666865 L49.2777178,17.0666865 L51.1528469,6.48534088 L51.1528469,6.48534088 Z M51.3182995,15.4169068 L54.5721999,15.4169068 L55.7855187,8.19200953 L52.5316183,8.19200953 L51.3182995,15.4169068 Z M56.2818764,15.4169068 L59.2048718,15.4169068 C59.3151735,15.4169068 59.480626,15.3600179 59.5909277,15.3031289 C59.6460786,15.189351 59.7012294,15.0755731 59.7012294,14.9049062 L60.8593974,8.13512058 L57.5503461,8.13512058 L56.2818764,15.4169068 L56.2818764,15.4169068 Z M68.4702154,11.0364573 L70.896853,11.0364573 L71.1726073,9.5004555 L68.7459697,9.5004555 L68.9665731,8.07823162 L75.86043,8.07823162 L75.6398266,9.5004555 L72.827133,9.5004555 L72.5513787,11.0364573 L75.3089214,11.0364573 L75.088318,12.4017922 L72.3307753,12.4017922 L71.9998701,14.3929056 L72.9925855,14.3929056 L73.5440941,13.5395713 L74.5919603,13.5395713 L74.4816586,14.3929056 L74.9780163,14.3929056 L74.7574129,15.8151295 L67.6429526,15.8151295 L67.863556,14.4497946 L70.2901936,14.4497946 L70.6210988,12.4586812 L68.1944611,12.4586812 L68.4702154,11.0364573 L68.4702154,11.0364573 Z M66.9259915,5.74578446 L78.7282745,5.74578446 L76.8531454,16.5546859 C76.7979945,16.9529086 76.632542,17.3511313 76.4670894,17.692465 C76.5222403,17.6355761 76.246486,17.9200209 75.9707317,18.0906877 C75.9707317,18.1475767 75.5295249,18.1475767 74.702262,18.1475767 L64.7751081,18.1475767 L66.9259915,5.74578446 L66.9259915,5.74578446 Z M66.8156898,16.7253528 L74.702262,16.7253528 C74.8125638,16.7253528 74.9228655,16.6684638 74.9780163,16.6115749 C75.0331672,16.497797 75.088318,16.3271301 75.1434689,16.1564632 L76.6876928,7.16800834 L68.4150646,7.16800834 L66.8156898,16.7253528 Z M81.8167224,9.38667759 L86.7251485,9.38667759 L86.4493942,10.9226794 L84.3536617,10.9226794 L84.0779074,12.4586812 L86.2287908,12.4586812 L85.9530365,13.937794 L83.8021531,13.937794 L83.4160971,16.0995743 C83.3609463,16.3271301 83.3609463,16.497797 83.4160971,16.5546859 C83.471248,16.6115749 83.5815497,16.6115749 83.7470023,16.6115749 L85.0154719,16.6115749 L84.7397177,18.0906877 L82.699136,18.0906877 C82.4785326,18.0906877 82.31308,18.0337988 82.0924766,17.9769098 C81.9270241,17.9200209 81.7615715,17.749354 81.6512698,17.5786871 C81.6512698,17.4649092 81.5961189,17.3511313 81.5961189,17.1804644 C81.5961189,17.0666865 81.5961189,16.9529086 81.6512698,16.8391307 L82.1476275,13.994683 L80.9343087,13.994683 L81.2100629,12.4586812 L82.4233818,12.4586812 L82.699136,10.9226794 L81.5961189,10.9226794 L81.8167224,9.38667759 L81.8167224,9.38667759 Z M84.8500194,6.54222983 L87.2215062,6.54222983 L86.9457519,8.02134267 L84.1882091,8.02134267 L83.9676057,8.3626764 C83.7470023,8.64712117 83.5263989,8.87467699 83.1954937,8.9884549 C83.4160971,8.87467699 83.085192,8.93156595 82.699136,8.93156595 L81.8167224,8.93156595 L82.0373258,7.50934207 L82.3682309,7.50934207 C82.5336835,7.50934207 82.6439852,7.45245312 82.7542869,7.39556416 C82.9197395,7.2248973 83.0300412,6.94045252 83.0300412,6.65600775 L83.471248,5.5751176 L85.1257737,5.5751176 L84.8500194,6.54222983 Z M87.9384673,5.68889551 L94.3911173,5.68889551 L93.6741562,9.89867819 C93.5638545,10.6951236 93.3432511,11.377791 93.0674968,12.0035695 C93.1777985,11.6053468 92.9571951,11.8897916 92.62629,12.0035695 C92.62629,12.0604585 92.3505357,12.1742364 92.0747814,12.1742364 L88.4899758,12.1742364 L87.8833164,15.8151295 C87.8281656,16.1564632 87.8281656,16.3840191 87.8833164,16.440908 C87.9384673,16.497797 87.9936181,16.5546859 88.1039198,16.5546859 L88.9863335,16.5546859 L88.7105792,18.0337988 L87.662713,18.0337988 C87.2215062,18.0337988 86.9457519,18.0337988 86.7251485,17.9769098 C86.504545,17.9769098 86.3390925,17.8631319 86.1736399,17.692465 C86.0633382,17.5786871 86.0081873,17.4080203 86.0081873,17.2373534 C86.0081873,16.7822418 86.1184891,16.3840191 86.1736399,15.9857964 L87.9384673,5.68889551 L87.9384673,5.68889551 Z M92.0747814,9.78490027 L88.9311827,9.78490027 L88.7657301,10.8089015 L91.5232729,10.8089015 C91.6335746,10.8089015 91.7438763,10.7520125 91.7990271,10.6951236 C91.9093288,10.5813456 91.9644797,10.4675677 91.9644797,10.3537898 L92.0747814,9.78490027 Z M89.1517861,8.3626764 L92.2953848,8.3626764 L92.5159882,7.16800834 L89.3172386,7.16800834 L89.1517861,8.3626764 Z M93.4535528,12.686237 L93.2881002,13.5964603 C93.1777985,14.1653498 93.0123459,14.6773504 92.7917425,15.1324621 C93.0123459,14.6773504 92.62629,14.7911283 92.0196305,14.7911283 L91.1372169,14.7911283 L91.1923677,15.9857964 L91.1923677,16.0995743 C91.1923677,16.2702412 91.2475186,16.440908 91.3026694,16.6115749 C91.3578203,16.6684638 91.4129711,16.6684638 91.468122,16.7253528 L92.62629,16.7253528 L92.3505357,18.2044656 L91.3026694,18.2044656 C90.5857083,18.2044656 90.0893506,18.0906877 89.9238981,17.9200209 C89.7584455,17.749354 89.6481438,17.5217982 89.6481438,17.2373534 L89.4826912,12.7431259 L91.1372169,12.7431259 L91.1372169,13.6533492 L91.7990271,13.6533492 C91.9093288,13.6533492 91.9644797,13.6533492 92.0196305,13.5964603 C92.0747814,13.5395713 92.1299323,13.4257934 92.1299323,13.3120155 L92.240234,12.7431259 L93.4535528,12.7431259 L93.4535528,12.686237 L93.4535528,12.686237 Z M103.215254,7.2248973 L101.67103,16.0995743 L102.222539,16.0995743 L101.946784,17.6355761 L101.395276,17.6355761 L101.284974,18.3751325 L99.5752977,18.3751325 L99.6855994,17.6355761 L96.045643,17.6355761 L96.3213972,16.0995743 L96.7626041,16.0995743 L98.306828,7.2248973 L97.8656212,7.2248973 L98.1413755,5.68889551 L104.042517,5.68889551 L103.766763,7.2248973 L103.215254,7.2248973 Z M100.016505,7.2248973 L99.6855994,9.15912177 L101.174672,9.15912177 L101.505578,7.2248973 L100.016505,7.2248973 Z M98.4722806,16.0426853 L99.9613537,16.0426853 L100.34741,13.994683 L98.8583366,13.994683 L98.4722806,16.0426853 Z M99.07894,12.5155701 L100.568013,12.5155701 L100.898918,10.5813456 L99.4098451,10.5813456 L99.07894,12.5155701 Z M104.26312,5.63200655 L105.972797,5.63200655 L105.972797,6.54222983 C105.972797,6.7128967 106.083099,6.76978566 106.303702,6.76978566 L106.689758,6.76978566 L106.414004,8.24889849 L105.310987,8.24889849 C104.594026,8.24889849 104.20797,7.96445371 104.20797,7.33867521 L104.26312,5.63200655 L104.26312,5.63200655 Z M104.86978,13.5395713 L102.884349,13.5395713 L103.160103,12.0604585 L105.366137,12.0604585 L105.641892,10.3537898 L103.435858,10.3537898 L103.711612,8.87467699 L109.667904,8.87467699 L109.39215,10.3537898 L107.351568,10.3537898 L107.075814,12.0604585 L109.116396,12.0604585 L108.840641,13.5395713 L106.634607,13.5395713 L106.248551,14.4497946 L107.296417,14.4497946 L107.627323,16.3271301 C107.627323,16.497797 107.682473,16.6684638 107.792775,16.7822418 C107.792775,16.7822418 107.903077,16.8391307 108.013379,16.8391307 L108.344284,16.8391307 L108.068529,18.3182435 L107.406719,18.3182435 C107.296417,18.3182435 107.130965,18.3182435 106.910361,18.2613546 C106.689758,18.2613546 106.469155,18.1475767 106.303702,18.0337988 C106.248551,17.9769098 106.138249,17.749354 106.083099,17.4080203 L105.752193,15.4737958 L104.814629,17.3511313 C104.538875,17.9200209 103.987366,18.2044656 103.270405,18.2044656 L102.167388,18.2044656 L102.443142,16.7253528 L102.9395,16.7253528 C103.049802,16.7253528 103.215254,16.6684638 103.270405,16.6115749 C103.435858,16.497797 103.546159,16.2702412 103.60131,16.0426853 L104.86978,13.5395713 L104.86978,13.5395713 Z M110.274564,5.5751176 L109.667904,7.28178625 C109.447301,7.90756476 108.950943,8.19200953 108.233982,8.19200953 L107.130965,8.19200953 L107.406719,6.7128967 L107.903077,6.7128967 C108.013379,6.7128967 108.068529,6.7128967 108.178831,6.65600775 C108.233982,6.59911879 108.289133,6.54222983 108.344284,6.42845192 L108.675189,5.51822864 L110.274564,5.5751176 L110.274564,5.5751176 Z M51.9801097,23.5520274 L52.64192,23.7795832 C52.3661657,24.5191396 51.8146572,25.1449181 51.1528469,25.5431408 C51.1528469,25.6000298 50.6564892,25.7706967 50.1049807,25.7706967 L49.9946789,25.7706967 C49.5534721,25.7706967 49.1122653,25.6000298 48.7813601,25.372474 C48.450455,25.0311402 48.1747007,24.6329176 48.1747007,24.120917 C48.1195499,24.007139 48.1195499,23.7226943 48.1195499,23.4382495 C48.1195499,23.1538047 48.1195499,22.8693599 48.1747007,22.5849152 C48.2850024,21.8453588 48.6159076,21.1626913 49.0019636,20.5938017 C49.1122653,20.3662459 49.6637738,19.9111343 50.2704332,19.6835785 C50.2152824,19.6835785 50.6564892,19.5129116 51.1528469,19.5129116 L51.2631486,19.5129116 C51.7043555,19.5129116 52.1455623,19.6835785 52.4213166,19.9680232 C52.7522217,20.309357 52.9728251,20.7644686 52.9728251,21.2764692 L52.255864,21.4471361 C52.255864,21.0489134 52.0904114,20.7075797 51.869808,20.4800238 C51.7043555,20.309357 51.4286012,20.1955791 51.1528469,20.1955791 L51.0976961,20.1955791 L51.0425452,20.1955791 C50.6564892,20.1955791 50.2704332,20.309357 49.9946789,20.5369128 C49.608623,20.8213576 49.2777178,21.2764692 49.1674161,21.7884698 C49.0571144,21.9591367 48.8916618,22.5280262 48.8916618,23.1538047 L48.8916618,23.3813605 C48.8916618,23.6089164 48.8916618,23.7795832 48.9468127,23.9502501 C49.0019636,24.2915838 49.1674161,24.6329176 49.4431704,24.8035844 C49.608623,24.9173623 49.8843772,25.0311402 50.2152824,25.0311402 C50.6013384,25.0311402 50.9873943,24.8604734 51.2631486,24.6329176 C51.7043555,24.2346949 51.9801097,23.7226943 52.0904114,23.1538047 L51.9801097,23.5520274 L51.9801097,23.5520274 Z M53.5243337,25.6569187 L54.5721999,19.6835785 L55.2340102,19.6835785 L54.8479542,21.8453588 C55.1788593,21.504025 55.6200662,21.2195802 56.1164239,21.2195802 C56.3921781,21.2195802 56.6127816,21.2764692 56.7782341,21.4471361 C56.9988375,21.560914 57.1091393,21.7884698 57.1642901,22.0160256 L57.1642901,22.3573593 C57.1642901,22.5849152 57.1642901,22.755582 57.1091393,22.9262489 L56.6127816,25.6569187 L55.9509713,25.6569187 L56.447329,22.8693599 C56.5024799,22.5280262 56.5024799,22.2435814 56.3921781,22.0729146 C56.2818764,21.9022477 56.1164239,21.8453588 55.8958204,21.8453588 L55.8406696,21.8453588 C55.6200662,21.8453588 55.3994628,21.9022477 55.2340102,22.0160256 C55.0134068,22.1298035 54.8479542,22.3573593 54.7376525,22.6418041 C54.6825016,22.755582 54.5721999,23.1538047 54.5721999,23.4951385 L54.1861439,25.6569187 L53.5243337,25.6569187 L53.5243337,25.6569187 Z M58.9291175,20.5369128 L59.09457,19.6835785 L59.7563803,19.6835785 L59.5909277,20.5369128 L58.9291175,20.5369128 Z M58.0467038,25.6569187 L58.8188158,21.2764692 L59.480626,21.2764692 L58.7085141,25.6569187 L58.0467038,25.6569187 Z M60.1424363,25.6569187 L60.9145483,21.2764692 L61.5212077,21.2764692 L61.410906,21.9022477 C61.7418111,21.4471361 62.1830179,21.1626913 62.7345265,21.1626913 C62.9551299,21.1626913 63.1757333,21.2195802 63.3411859,21.3333582 C63.5066385,21.4471361 63.672091,21.560914 63.7272419,21.7884698 C63.7823927,21.8453588 63.7823927,22.0160256 63.7823927,22.2435814 C63.7823927,22.5849152 63.7272419,22.8693599 63.6169402,23.2106937 L63.2308842,25.6569187 L62.5690739,25.6569187 L63.0102808,22.9831379 C63.0654316,22.8693599 63.0654316,22.6986931 63.0654316,22.5280262 L63.0654316,22.3004704 C63.0654316,22.1298035 62.9551299,22.0160256 62.8448282,21.9591367 C62.7345265,21.9022477 62.6242248,21.8453588 62.4587722,21.8453588 C62.1830179,21.8453588 61.9072637,21.9591367 61.6866602,22.1298035 C61.4660568,22.3004704 61.3006042,22.6986931 61.1903025,23.2675826 L60.8042466,25.6569187 L60.1424363,25.6569187 L60.1424363,25.6569187 Z M67.2568966,25.1449181 C66.8708406,25.4862519 66.3744829,25.7138077 65.8229744,25.8275856 C66.2641812,25.7138077 65.9884269,25.7706967 65.7126727,25.7706967 C65.2714658,25.7706967 64.9957115,25.6569187 64.7751081,25.4293629 C64.6096556,25.2586961 64.5545047,25.0311402 64.5545047,24.7466955 C64.5545047,24.6898065 64.5545047,24.5760286 64.6096556,24.5191396 C64.6648064,24.2346949 64.7751081,24.007139 64.9405607,23.8364722 C64.9957115,23.7226943 65.2714658,23.4951385 65.5472201,23.3813605 C65.4920692,23.3813605 65.7678235,23.2675826 66.0987286,23.2106937 C66.0987286,23.2106937 66.4296338,23.1538047 66.8156898,23.1538047 C66.9811423,23.0969158 67.5878017,22.9831379 68.0841594,22.755582 C67.5878017,22.8693599 67.5878017,22.755582 67.6429526,22.755582 C67.6981034,22.4711373 67.6429526,22.2435814 67.5878017,22.1298035 C67.4223492,21.9591367 67.2017457,21.9022477 66.9811423,21.9022477 L66.8708406,21.9022477 L66.8156898,21.9022477 C66.5950863,21.9022477 66.3744829,21.9591367 66.1538795,22.0729146 C65.9332761,22.3004704 65.7126727,22.5849152 65.6575218,22.9262489 L65.1060133,22.6418041 C65.2714658,22.2435814 65.4920692,21.8453588 65.8229744,21.6178029 C65.7678235,21.6746919 66.0987286,21.4471361 66.4296338,21.3902471 C66.4296338,21.3333582 66.7605389,21.2764692 67.0362932,21.2764692 L67.1465949,21.2764692 C67.4223492,21.2764692 67.6429526,21.3333582 67.863556,21.3902471 C68.0290086,21.4471361 68.1944611,21.6178029 68.3047628,21.7884698 C68.3047628,21.8453588 68.3599137,22.0160256 68.3599137,22.1866925 C68.3599137,22.5280262 68.3047628,22.812471 68.1944611,23.1538047 L68.0841594,23.8933611 C67.9738577,24.5191396 67.863556,25.315585 67.863556,26.0551414 C67.9187069,25.2018071 67.9187069,25.2018071 67.9187069,25.2586961 C67.9187069,25.4293629 67.9187069,25.6000298 67.9738577,25.7706967 L67.3120475,25.7706967 C67.2568966,25.6569187 67.2568966,25.5431408 67.2568966,25.372474 C67.2017457,25.2018071 67.2017457,25.1449181 67.2568966,25.1449181 L67.2568966,25.1449181 Z M67.4775,23.4951385 C66.9811423,23.6658053 66.4847846,23.7795832 65.8781252,23.8364722 C66.0435778,23.8364722 65.7678235,23.9502501 65.5472201,24.064028 C65.6023709,24.007139 65.4920692,24.1778059 65.4369184,24.2915838 C65.3817675,24.2915838 65.3266167,24.4622507 65.3266167,24.6329176 L65.3266167,24.6898065 C65.3266167,24.8035844 65.3817675,24.9742513 65.4369184,25.0311402 C65.5472201,25.1449181 65.7126727,25.2586961 65.9332761,25.2586961 L65.9884269,25.2586961 C66.2641812,25.2586961 66.4847846,25.2018071 66.705388,25.0880292 C66.9811423,24.9173623 67.2017457,24.6898065 67.3120475,24.3484728 C67.3671983,24.2915838 67.4223492,23.9502501 67.4223492,23.6658053 L67.4775,23.4951385 L67.4775,23.4951385 Z M77.4598048,19.6835785 L78.1767659,19.6835785 L77.5701065,23.1538047 C77.4598048,23.8933611 77.2392014,24.5191396 76.9082962,25.0880292 C76.9082962,25.0880292 76.5222403,25.4293629 76.0810334,25.6000298 C76.0258826,25.6569187 75.6398266,25.7706967 75.1986197,25.7706967 L74.9780163,25.7706967 C74.5919603,25.7706967 74.2059043,25.6569187 73.9301501,25.4862519 C73.6543958,25.2586961 73.4337924,24.9742513 73.3786415,24.5760286 C73.3786415,24.4622507 73.3234907,24.2915838 73.3234907,24.064028 C73.3234907,23.7226943 73.3786415,23.4382495 73.4337924,23.0969158 L74.0404518,19.6266895 L74.7574129,19.6266895 L74.1507535,23.0969158 C74.0956026,23.3244716 74.0404518,23.6089164 74.0404518,23.8933611 L74.0404518,24.2346949 C74.0956026,24.4622507 74.2059043,24.6898065 74.4265078,24.8035844 C74.5919603,24.9173623 74.8125638,24.9742513 75.088318,24.9742513 L75.1434689,24.9742513 C75.6398266,24.9742513 76.0258826,24.8604734 76.3016368,24.5760286 C76.5773911,24.2915838 76.7428437,23.7795832 76.9082962,23.0400268 L77.4598048,19.6835785 L77.4598048,19.6835785 Z M78.6179728,25.6569187 L79.3900847,21.2764692 L79.9967441,21.2764692 L79.8864424,21.9022477 C80.1621967,21.4471361 80.6585544,21.1626913 81.2100629,21.1626913 C81.4306664,21.1626913 81.6512698,21.2195802 81.8167224,21.3333582 C81.9821749,21.4471361 82.1476275,21.560914 82.2027783,21.7884698 C82.2579292,21.8453588 82.2579292,22.0160256 82.2579292,22.2435814 C82.2579292,22.5849152 82.2027783,22.8693599 82.0924766,23.2106937 L81.7064206,25.6569187 L81.0446104,25.6569187 L81.4858172,22.9831379 C81.5409681,22.8693599 81.5409681,22.6986931 81.5409681,22.5280262 L81.5409681,22.3004704 C81.5409681,22.1298035 81.4306664,22.0160256 81.3203647,21.9591367 C81.2100629,21.9022477 81.0997612,21.8453588 80.9343087,21.8453588 L80.8791578,21.8453588 C80.6034035,21.8453588 80.3276493,21.9591367 80.1070458,22.1298035 C79.8864424,22.3573593 79.7209899,22.6986931 79.6106881,23.2675826 L79.2246322,25.6569187 L78.6179728,25.6569187 L78.6179728,25.6569187 Z M84.0779074,20.5369128 L84.24336,19.6835785 L84.9051702,19.6835785 L84.7397177,20.5369128 L84.0779074,20.5369128 Z M83.1954937,25.6569187 L83.9676057,21.2764692 L84.629416,21.2764692 L83.857304,25.6569187 L83.1954937,25.6569187 Z M85.3463771,23.4951385 C85.4566788,22.6986931 85.7875839,22.0729146 86.2287908,21.7315808 C86.5596959,21.4471361 87.0009027,21.2195802 87.4972604,21.2195802 L87.5524113,21.2195802 C87.9936181,21.2195802 88.434825,21.4471361 88.6554284,21.7884698 C88.9311827,22.1866925 88.9863335,22.6986931 88.8760318,23.4382495 C88.7657301,24.064028 88.5451267,24.5760286 88.2693724,25.0311402 C88.1590707,25.1449181 87.7730147,25.4862519 87.3318079,25.6569187 C87.3869587,25.6569187 87.0560536,25.7706967 86.7251485,25.7706967 L86.6148467,25.7706967 C86.1736399,25.7706967 85.7324331,25.5431408 85.5118296,25.2018071 C85.2912262,24.8035844 85.2360754,24.2346949 85.3463771,23.4951385 L85.3463771,23.4951385 Z M86.0081873,23.4951385 C85.8978856,24.064028 85.9530365,24.4622507 86.1184891,24.7466955 C86.2839416,24.9742513 86.504545,25.1449181 86.8354502,25.1449181 L86.890601,25.1449181 C87.2215062,25.1449181 87.5524113,24.9742513 87.7730147,24.7466955 C88.1039198,24.3484728 88.2693724,23.8933611 88.3245233,23.3244716 C88.434825,22.8693599 88.3796741,22.5280262 88.2142215,22.2435814 C88.048769,22.0160256 87.8281656,21.8453588 87.4972604,21.8453588 L87.4421096,21.8453588 C87.1112044,21.8453588 86.7802993,22.0160256 86.5596959,22.2435814 C86.2287908,22.6418041 86.0633382,23.0969158 86.0081873,23.6089164 L86.0081873,23.4951385 L86.0081873,23.4951385 Z M89.7584455,25.6569187 L90.5305575,21.2764692 L91.1372169,21.2764692 L90.9717643,21.9591367 C91.3026694,21.504025 91.7438763,21.2195802 92.2953848,21.2195802 C92.5159882,21.2195802 92.7365917,21.2764692 92.9020442,21.3902471 C93.0674968,21.504025 93.2329494,21.6178029 93.2881002,21.8453588 C93.3432511,21.9022477 93.3432511,22.0729146 93.3432511,22.3004704 C93.3432511,22.6418041 93.2881002,22.9262489 93.1777985,23.2675826 L92.7917425,25.7138077 L92.1299323,25.7138077 L92.5711391,23.0400268 C92.62629,22.9262489 92.62629,22.755582 92.62629,22.5849152 L92.62629,22.3573593 C92.62629,22.1866925 92.5159882,22.0729146 92.4056865,22.0160256 C92.2953848,21.9591367 92.1850831,21.9022477 92.0196305,21.9022477 C91.7438763,21.9022477 91.468122,22.0160256 91.2475186,22.1866925 C91.0269152,22.3573593 90.8614626,22.755582 90.7511609,23.3244716 L90.3651049,25.7138077 L89.7584455,25.6569187 L89.7584455,25.6569187 Z M94.0050613,27.3635874 L95.0529276,21.3333582 L95.659587,21.3333582 L95.5492853,21.9022477 C95.7698887,21.560914 96.1007938,21.3333582 96.4868498,21.2195802 C96.2662464,21.2764692 96.4868498,21.2195802 96.7626041,21.2195802 L96.8177549,21.2195802 C97.0935092,21.2195802 97.3692635,21.3333582 97.5898669,21.504025 C97.8104703,21.7315808 97.9759229,22.0729146 98.0310738,22.4142483 C98.0310738,22.4711373 98.0862246,22.6986931 98.0862246,22.8693599 C98.0862246,23.0969158 98.0862246,23.2675826 98.0310738,23.4382495 C97.920772,24.007139 97.7001686,24.5191396 97.4244143,24.9742513 C97.3692635,25.0880292 96.9832075,25.4293629 96.5420007,25.6569187 C96.6523024,25.6569187 96.3213972,25.7706967 95.9904921,25.7706967 C95.7698887,25.7706967 95.6044361,25.7138077 95.4389836,25.6000298 C95.2183801,25.4862519 95.1080784,25.2586961 94.9977767,25.0311402 L94.7220224,27.3066984 L94.0050613,27.3635874 L94.0050613,27.3635874 Z M95.2183801,23.5520274 C95.1080784,24.120917 95.1632293,24.5191396 95.3286819,24.8035844 C95.4389836,25.0311402 95.7147378,25.2018071 95.9904921,25.2018071 C96.3213972,25.2018071 96.5971515,25.0311402 96.8177549,24.7466955 C97.1486601,24.3484728 97.3141126,23.8364722 97.3692635,23.3244716 C97.4244143,22.9262489 97.4244143,22.5280262 97.2589618,22.2435814 C97.1486601,22.0160256 96.8729058,21.8453588 96.5971515,21.8453588 C96.2662464,21.8453588 95.9353413,22.0729146 95.7698887,22.3004704 C95.4941344,22.6986931 95.273531,23.1538047 95.2183801,23.7226943 L95.2183801,23.5520274 L95.2183801,23.5520274 Z M101.395276,25.1449181 C101.00922,25.4862519 100.126806,25.7706967 99.851052,25.7706967 C99.4098451,25.7706967 99.1340909,25.6569187 98.9134874,25.4293629 C98.8031857,25.2586961 98.692884,25.0311402 98.692884,24.7466955 L98.692884,24.5191396 C98.7480349,24.2346949 98.8583366,24.007139 99.0237891,23.8364722 C99.07894,23.7226943 99.3546943,23.4951385 99.6304486,23.3813605 C99.5752977,23.3813605 99.851052,23.2675826 100.181957,23.2106937 C100.181957,23.2106937 100.512862,23.1538047 100.898918,23.1538047 C101.064371,23.0969158 101.615879,22.9262489 101.615879,22.9262489 L101.67103,22.755582 C101.726181,22.4711373 101.67103,22.2435814 101.615879,22.1298035 C101.450427,21.9591367 101.229823,21.8453588 101.00922,21.8453588 L100.898918,21.8453588 L100.843767,21.8453588 C100.623164,21.8453588 100.402561,21.9022477 100.181957,22.0160256 C99.9613537,22.2435814 99.7407503,22.5280262 99.6855994,22.8693599 L99.1340909,22.5849152 C99.2995434,22.1866925 99.5201468,21.7884698 99.851052,21.560914 C99.7959011,21.6178029 100.126806,21.3902471 100.457711,21.3333582 C100.457711,21.2764692 100.788617,21.2195802 101.064371,21.2195802 L101.174672,21.2195802 C101.450427,21.2195802 101.67103,21.2764692 101.891634,21.3333582 C102.057086,21.3902471 102.222539,21.560914 102.33284,21.7315808 C102.33284,21.7884698 102.387991,21.9591367 102.387991,22.1298035 C102.387991,22.4711373 102.33284,22.755582 102.222539,23.0969158 L102.112237,23.8364722 C102.001935,24.4622507 101.946784,25.1449181 101.946784,25.2018071 C101.946784,25.372474 101.946784,25.5431408 102.001935,25.7138077 L101.340125,25.7138077 C101.284974,25.6000298 101.284974,25.4862519 101.284974,25.315585 C101.395276,25.2018071 101.395276,25.1449181 101.395276,25.1449181 L101.395276,25.1449181 Z M101.615879,23.4951385 C101.119522,23.6658053 100.623164,23.7795832 100.016505,23.8364722 C100.181957,23.8364722 99.9062028,23.9502501 99.6855994,24.064028 C99.7407503,24.007139 99.6304486,24.1778059 99.5752977,24.2915838 C99.5201468,24.2915838 99.464996,24.4622507 99.464996,24.6329176 L99.464996,24.6898065 C99.464996,24.8035844 99.5201468,24.9742513 99.5752977,25.0311402 C99.6855994,25.1449181 99.851052,25.2586961 100.071655,25.2586961 L100.126806,25.2586961 C100.402561,25.2586961 100.623164,25.2018071 100.843767,25.0880292 C101.119522,24.9173623 101.340125,24.6898065 101.450427,24.3484728 C101.505578,24.2915838 101.560728,23.9502501 101.615879,23.6089164 L101.615879,23.4951385 L101.615879,23.4951385 Z M103.049802,27.3635874 L103.104952,26.6809199 C103.215254,26.7378089 103.380707,26.7378089 103.491008,26.7378089 C103.60131,26.7378089 103.711612,26.6809199 103.821914,26.6809199 C103.987366,26.624031 104.097668,26.4533641 104.152819,26.3395862 C104.373422,25.9982525 104.373422,25.8275856 104.428573,25.7706967 L103.766763,21.3902471 L104.483724,21.3902471 L104.86978,23.8933611 C104.924931,24.2346949 104.980082,24.5760286 104.980082,24.9173623 C105.090383,24.5760286 105.255836,24.2346949 105.421288,23.9502501 L106.689758,21.3902471 L107.351568,21.3902471 L105.145534,25.8275856 C104.483724,27.1929205 104.152819,27.3635874 103.766763,27.5342543 C103.932215,27.4773653 103.766763,27.5342543 103.546159,27.5342543 C103.270405,27.4204764 103.160103,27.4204764 103.049802,27.3635874 L103.049802,27.3635874 Z" id="形状"></path>
                </g>
            </g>
        </g>
    </g>
</svg>