<?xml version="1.0" encoding="UTF-8"?>
<svg width="98px" height="32px" viewBox="0 0 98 32" version="1.1" xmlns="http://www.w3.org/2000/svg" xmlns:xlink="http://www.w3.org/1999/xlink">
    <title>中国移动</title>
    <g id="页面-1" stroke="none" stroke-width="1" fill="none" fill-rule="evenodd">
        <g id="聚合新首页" transform="translate(-384.000000, -3337.000000)" fill="#CCCCCC" fill-rule="nonzero">
            <g id="中国移动" transform="translate(384.000000, 3337.000000)">
                <path d="M29.8581411,19.9925335 L29.8581396,19.9925317 C27.5341986,17.0733081 24.9252728,14.3908492 22.0696485,11.9845223 L22.0696485,11.9845224 C21.4346883,11.4152675 20.6214242,11.0824991 19.7680207,11.042752 L19.7680205,11.042752 C18.9698648,11.0673886 18.2078372,11.3797956 17.6235729,11.9219069 C17.4978287,12.0471378 17.3083629,12.2045226 17.087461,12.3932151 C15.5105613,13.7123705 10.5920956,18.2029142 10.4655018,18.3281451 L10.4655018,18.3281452 C10.091859,18.6851622 9.59583119,18.8872409 9.07806794,18.8933766 L9.07806789,18.8933766 C8.5026981,18.8420539 7.96531707,18.5854291 7.5648899,18.1707604 L7.56488792,18.1707587 C6.13508978,16.9968776 4.79625436,15.7172482 3.55976662,14.3427543 C2.36179864,12.9889066 1.3524469,11.7966744 1.3524469,11.7966744 C1.3524469,11.7966744 1.131545,12.2366749 1.00580085,12.5819061 L1.00580087,12.581906 C0.941980822,12.7459628 0.95346772,12.9296207 1.0372368,13.084522 L1.03724004,13.0845261 C3.35589219,16.0074833 5.95374097,18.6995778 8.79429509,21.122997 L8.79429505,21.1229969 C9.4180774,21.7097207 10.2381438,22.0452708 11.0959229,22.0647673 L11.095923,22.0647673 C11.8940788,22.0401306 12.6561064,21.7277237 13.2403707,21.1856124 C13.3661148,21.0603815 13.5555807,20.9029967 13.7764826,20.7143041 C15.3533823,19.3951488 18.3483022,16.6629148 19.7357361,15.3759133 C20.0509461,15.0932976 20.271848,14.9046051 20.3661561,14.8106819 L20.3661563,14.8106817 C20.7397991,14.4536647 21.2358269,14.251586 21.7535901,14.2454503 L21.7535903,14.2454503 C22.3249233,14.3110464 22.8576962,14.5654692 23.2667683,14.9680665 C24.1495262,15.7219905 25.5683961,17.0402997 27.2710399,18.7994556 C28.500444,20.118611 29.4800589,21.3116893 29.4800589,21.342997 C29.4800589,21.342997 29.7009608,20.8716888 29.826705,20.5577653 L29.8267049,20.5577654 C29.9371336,20.388253 29.9490963,20.1731552 29.858141,19.9925339 L29.8581411,19.9925335 Z" id="路径"></path>
                <path d="M13.9659489,7.02267225 L13.9659429,7.02267716 C11.1173811,9.38485587 8.39165352,11.8901934 5.79936899,14.5289167 L5.79936899,14.5289158 C6.41662943,15.1926545 7.08044069,15.8119087 7.78577619,16.3819949 L7.78577617,16.3819949 C8.07597648,16.6278854 8.51137943,16.5929244 8.75827766,16.3039093 C8.77124162,16.2887338 8.78353673,16.2730038 8.79512791,16.2567641 C10.9710116,14.0567615 15.4485231,10.1331416 16.0475071,9.66183333 L16.0475067,9.6618337 C17.5395185,8.23305896 19.8677714,8.13862808 21.4714979,9.44183239 L21.4714983,9.44183272 C24.8346022,12.1472118 27.8242226,15.2830934 30.362789,18.7681407 C30.362789,18.7681407 30.4570971,18.2968324 30.5208188,17.8889858 L30.5208188,17.8889858 C30.573073,17.6409588 30.528084,17.3824204 30.3950747,17.1663696 C26.2956452,11.2940551 21.9421786,7.65135852 20.2726701,6.74004977 L20.27267,6.74004973 C18.3093194,5.54431661 15.8135103,5.65615712 13.9659209,7.02266544 L13.9659489,7.02267225 Z" id="路径"></path>
                <path d="M9.36184357,3.97736101 L9.36184733,3.97735797 C6.80091466,6.04832192 4.34876554,8.24926582 2.01515946,10.5714426 L2.01515946,10.5714419 C2.5700937,11.2299555 3.15941005,11.8589511 3.78067539,12.4558287 L3.78067541,12.4558287 C3.93192417,12.6065627 4.17722936,12.6066452 4.32858114,12.4560144 C4.34776764,12.4369192 4.36488764,12.41587 4.37965929,12.3932133 C7.15452696,9.72359479 10.1502965,6.992207 11.9166621,5.6434362 C14.8495596,3.38251049 18.3177193,3.16251023 21.691571,5.83212872 L21.6915712,5.83212889 C23.104515,6.95826578 24.4421184,8.17508931 25.6958429,9.47482544 L25.6958412,9.47482355 C27.4811745,11.4402297 29.1250245,13.5286562 30.6151565,15.724526 L30.6151565,15.724526 C30.6035938,15.2808838 30.5506903,14.8392693 30.4571267,14.4053706 L30.4571267,14.4053705 C30.4168472,14.2301403 30.3531224,14.0610913 30.2676608,13.9027545 L30.267661,13.9027548 C29.2790868,12.1017566 28.1060191,10.407469 26.7672156,8.84697969 C22.9838458,4.44782072 20.6218947,3.1295115 19.0738822,2.31297209 C17.0245923,1.27643242 13.0831927,0.962508977 9.36184537,3.97735864 L9.36184357,3.97736101 Z" id="路径"></path>
                <path d="M16.9294328,26.0222328 L16.9294324,26.0222331 C19.777973,23.6603294 22.5037006,21.1552775 25.0960056,18.5168398 L25.0960056,18.5168395 C24.474912,17.8471471 23.8114183,17.2177274 23.1095875,16.6324527 L23.1095875,16.6324527 C22.8193871,16.3865622 22.3839842,16.4215232 22.137086,16.7105384 C22.124122,16.7257139 22.1118269,16.7414439 22.1002357,16.7576836 C19.924352,18.9576862 15.4468405,22.8813061 14.8478565,23.3526143 L14.8478566,23.3526143 C13.3438439,24.7822035 11.0075727,24.8764228 9.39242934,23.5726146 L9.39242735,23.572613 C6.0255426,20.868905 3.04477949,17.7203841 0.532562055,14.2141406 C0.532562055,14.2141406 0.439953183,14.6854488 0.37538186,15.0932954 L0.375381868,15.0932954 C0.323127843,15.3413224 0.368116713,15.5998608 0.501126024,15.8159116 C4.60310432,21.6882261 8.95232281,25.3309227 10.6235306,26.2413853 L10.6235303,26.2413851 C12.5645995,27.4891355 15.0804066,27.4017066 16.9294298,26.022231 L16.9294328,26.0222328 Z" id="路径"></path>
                <path d="M21.5326884,29.0675441 L21.5326879,29.0675445 C24.0936418,26.9963055 26.5457909,24.7950761 28.8793763,22.4726137 L28.8793763,22.4726151 C28.3246949,21.8144113 27.7356568,21.1856982 27.11471,20.5890744 L27.11471,20.5890744 C26.9634613,20.4383404 26.7181561,20.4382579 26.5668043,20.5888888 C26.5476178,20.6079841 26.5304978,20.6290331 26.5157262,20.6516899 C23.7408585,23.3213084 20.7450889,26.0535423 18.979573,27.4031593 C16.0466755,29.664085 12.5785157,29.8840853 9.20466409,27.2144668 L9.20466052,27.2144639 C7.79145126,26.0886232 6.45356105,24.8720852 5.19953922,23.5726135 L5.19953988,23.5726142 C3.4142065,21.6072081 1.77035654,19.5187816 0.280224567,17.3229147 L0.280224567,17.3229147 C0.293330497,17.7664462 0.346217704,18.2079222 0.438254461,18.6420726 L0.438254496,18.6420728 C0.478534045,18.817303 0.542258826,18.986352 0.627720353,19.1446887 L0.627718924,19.1446861 C1.61629314,20.9456844 2.7893608,22.6399719 4.12816436,24.2004612 C7.91238377,28.6004664 10.2768837,29.9162371 11.8223473,30.7327765 C13.8741861,31.76847 17.8121872,32.0823935 21.5326849,29.0675438 L21.5326884,29.0675441 Z" id="路径"></path>
                <path d="M44.4249219,17.9956081 L42.9720671,17.9956081 L42.9720671,14.0102188 L37.5693165,14.0102188 L37.5693165,6.66897953 L42.9720671,6.66897953 L42.9720671,4.03405339 L44.4249219,4.03405339 L44.4249219,6.66897953 L49.862507,6.66897953 L49.862507,14.0102188 L44.4249219,14.0102188 L44.4249219,17.9956081 Z M44.4249219,7.95598103 L44.4249219,12.7240635 L48.4691258,12.7240635 L48.4691258,7.95513487 L44.4249219,7.95598103 Z M38.9873367,7.95598103 L38.9873367,12.7240635 L42.9720671,12.7240635 L42.9720671,7.95513487 L38.9873367,7.95598103 Z" id="形状"></path>
                <path d="M61.4870445,11.2500618 L60.5074296,12.0031396 L60.6025873,12.0962166 L60.6025876,12.0962169 C61.092411,12.6086208 61.5465959,13.1536799 61.9619839,13.7276034 L62.0571416,13.8215266 L63.0996286,13.0371411 L63.0036213,12.9423717 L63.0036222,12.9423729 C62.5489456,12.392752 62.0745492,11.859612 61.5813539,11.3439864 L61.4870445,11.2500618 Z" id="路径"></path>
                <polygon id="路径" points="63.6034546 14.0102188 60.0962122 14.0102188 60.0962122 11.1239847 63.0979291 11.1239847 63.0979291 9.93513718 60.0962122 9.93513718 60.0962122 8.11251967 63.3825527 8.11251967 63.3825527 6.88897979 55.5464827 6.88897979 55.5464827 8.11251967 58.8005376 8.11251967 58.8005376 9.93513718 55.7996703 9.93513718 55.7996703 11.1239847 58.8013872 11.1239847 58.8013872 14.0102188 55.3255808 14.0102188 55.3255808 15.2337587 63.6034546 15.2337587"></polygon>
                <path d="M65.7207143,17.6520692 L53.2091708,17.6520692 L53.2091708,4.53666936 L65.7207143,4.53666936 L65.7207143,17.6520692 Z M54.568567,5.79151697 L54.568567,16.426837 L64.3936037,16.426837 L64.3936037,5.79151697 L54.568567,5.79151697 Z" id="形状"></path>
                <path d="M74.21949,12.0970628 C73.6188067,11.5639852 71.9764861,10.2465222 71.9764861,10.2465222 L71.9764861,9.55605981 L73.9348664,9.55605981 L73.9348664,8.3012122 L71.9764861,8.3012122 L71.9764861,6.29159448 L71.9764863,6.29159445 C72.6481502,6.19916463 73.3130914,6.0634965 73.9671416,5.88544225 L73.7173525,4.59928644 L73.7173544,4.59928644 C72.9050779,4.79981773 72.0825954,4.95686301 71.2534486,5.06974853 C69.6391655,5.28974878 68.690137,5.38367197 68.690137,5.38367197 L68.8481668,6.63851958 C68.8481668,6.63851958 69.9220899,6.51328867 70.743675,6.38467314 L70.743675,8.30121383 L68.5346561,8.30121383 L68.5346561,9.55606144 L70.556758,9.55606144 L70.5567578,9.55606211 C70.0295415,11.186613 69.2621771,12.7301898 68.279769,14.1362982 L69.2279479,15.1398378 L69.227948,15.1398378 C69.8138287,14.2880137 70.3211363,13.3851559 70.7436749,12.4422962 L70.7436749,18.026918 L72.0393494,18.026918 L72.0393494,11.9092186 C72.5134389,12.3486554 72.9558088,12.756502 73.3664601,13.1327585 L73.4624674,13.2300663 L74.3775111,12.2222959 L74.21949,12.0970628 Z" id="路径"></path>
                <path d="M78.8006555,11.1239847 L78.8006554,11.1239847 C78.9392937,10.9216903 79.0458916,10.6993768 79.1167151,10.4648301 L77.8210405,10.2448299 C78.0759273,10.119599 78.2951299,9.96221415 78.5160318,9.83698324 L78.5160325,9.83698287 C79.9016608,9.01424855 81.0371603,7.83249496 81.8015234,6.4176712 L81.8329595,6.38636337 L81.8329595,5.22628509 L77.3469518,5.22628509 L77.3469516,5.22628528 C77.4957407,5.00209338 77.6329899,4.7705135 77.7581669,4.53244255 L77.821039,4.41059625 L76.5890861,3.94013416 L76.5253644,4.03405735 L76.5253641,4.034058 C75.8030563,5.46797313 74.7796443,6.73047844 73.5244968,7.73598538 C73.5244968,7.73598538 74.1880521,8.26906292 74.5984198,8.52037091 L74.59842,8.52037079 C75.3070286,7.90499834 75.9525167,7.22104716 76.5253642,6.47859918 L80.3486663,6.47859918 L80.3486661,6.47859938 C79.7773989,7.28292666 79.0722461,7.9840569 78.2636921,8.55167871 C77.7581666,8.11252436 77.318062,7.76729318 76.6833939,7.26552337 L76.5882361,7.20290791 L75.7675006,8.08121663 L75.8626584,8.17513981 C76.4310559,8.6456019 76.7785516,8.92821761 77.158333,9.30475651 L77.1583341,9.30475592 C76.0946808,9.86804225 74.9709805,10.3108076 73.8082718,10.6247575 C73.8082718,10.6247575 74.629857,11.7247587 74.6578945,11.7247587 C75.3843219,11.4709123 76.9008984,10.8151423 77.5644537,10.5012189 L77.5644533,10.5012195 C76.5875359,12.1093367 75.1776614,13.4126161 73.4947607,14.2632238 L73.4947605,14.2632237 C73.8131088,14.5961888 74.1507,14.9103639 74.5058115,15.2041478 L74.5058119,15.2041477 C75.8709431,14.5339645 77.0772162,13.5821112 78.0444903,12.4118367 L80.9170646,12.4118367 L80.9170648,12.4118359 C80.5724579,13.6524258 79.7567989,14.7108598 78.6426249,15.363224 C78.1685355,14.8927619 77.694446,14.4222998 77.1260484,13.92053 L76.2135537,14.7006848 C76.7190792,15.1711468 77.1617326,15.6416089 77.5406643,16.0181478 L77.5406627,16.0181484 C76.1606418,16.533278 74.711005,16.8398779 73.2398727,16.9277638 L73.7453982,18.0277651 C73.7453982,18.0277651 80.9493489,17.8399187 82.4336397,12.34922 L82.4336397,11.1552956 L78.8006531,11.1552956 L78.8006555,11.1239847 Z" id="路径"></path>
                <polygon id="路径" points="84.8355253 5.35236261 90.7123654 5.35236261 90.7123654 6.63851796 84.8355253 6.63851796"></polygon>
                <path d="M90.9689515,15.4216051 C90.5543356,14.3867577 89.8907803,12.9440638 89.4166908,11.9083702 L89.3546684,11.7831393 L88.1541515,12.3162169 L88.2170235,12.4414478 C88.5330831,13.1319101 88.8177067,13.7902186 89.1014807,14.5119887 L86.0054557,15.2337587 L86.0054562,15.2337577 C86.8197792,13.6456837 87.4858494,11.9864481 87.9952725,10.2769827 L91.2493274,10.2769827 L91.2493274,8.99082735 L84.2348425,8.99082735 L84.2348425,10.2769827 L86.5415681,10.2769827 L86.5415679,10.2769836 C86.0755307,12.0705569 85.3856456,13.7988916 84.4880299,15.421605 L84.4880298,15.421605 C84.4141564,15.5703083 84.3058208,15.6993744 84.1719702,15.7981439 L84.5509019,16.7086065 C84.5509019,16.7086065 88.3104823,15.7042207 89.448127,15.5163744 L89.5747208,15.8616055 L90.9689515,15.4216051 Z" id="路径"></path>
                <path d="M94.093014,6.92113367 C94.1244501,6.01151723 94.1244501,5.10190078 94.1244501,4.19143819 L94.1244501,4.06620727 L92.6987832,4.06620727 L92.6987832,6.92113367 L90.8703952,6.92113367 L90.8703952,8.23859674 L92.6715953,8.23859674 L92.6715953,9.99521417 L92.6715951,9.99521148 C92.8063771,11.9829773 92.2727918,13.9588651 91.1550186,15.6111411 L91.1550187,15.611141 C90.6823555,16.2688963 90.0802141,16.8239559 89.3852546,17.2425276 L90.4277417,18.2460672 C90.4277417,18.2460672 93.9961569,16.3955266 93.9961569,10.5595967 L94.027593,8.26905557 L96.4311755,8.26905557 C96.3997395,10.6535199 96.3045817,13.0075226 96.1762887,15.233756 C96.1448527,15.9242183 95.8602291,16.2686033 95.2281098,16.2686033 L93.6503605,16.2686033 C93.7455182,16.67645 93.9052473,17.6799896 93.9052473,17.6799896 L95.5781543,17.6799896 C96.7786712,17.6486819 97.4422265,16.9582195 97.5373842,15.578141 C97.663978,13.4449847 97.7582861,10.5858275 97.8220078,7.10813115 L97.8220078,6.98374639 L94.0930139,6.98374639 L94.093014,6.92113367 Z" id="路径"></path>
                <path d="M50.2711755,23.5472299 L50.2711755,23.5472299 C50.0962169,23.4003829 49.891237,23.2932576 49.6704923,23.2333065 L49.6704923,23.2333065 C49.2695022,23.1078492 48.8395294,23.1078492 48.4385394,23.2333065 L48.4385393,23.2333065 C48.2634746,23.2767928 48.0938942,23.3398067 47.9330138,23.4211528 L47.9330135,23.421153 C47.7843487,23.4969903 47.646371,23.5920139 47.5226458,23.7037687 C47.4597737,23.7663842 47.396052,23.7976919 47.364616,23.8603074 L47.364616,20.4731496 L46.2584072,20.4731496 L46.2584072,28.8179285 L47.3629167,28.8179285 L47.3629167,24.9577702 L47.3629166,24.9577703 C47.5436048,24.7097634 47.7685276,24.4969459 48.026472,24.3299234 L48.0264721,24.3299233 C48.2740383,24.1809324 48.5588488,24.1046674 48.8480572,24.1099231 L48.8480571,24.1099231 C49.1215061,24.0840276 49.391069,24.188901 49.5744845,24.3925388 L49.5744846,24.3925389 C49.7478628,24.6627468 49.8256139,24.9829043 49.7953865,25.3021553 L49.7953865,28.8500825 L50.8710088,28.8500825 L50.8710088,25.1786167 L50.8710087,25.1786204 C50.8776252,24.8374804 50.8241395,24.4978254 50.7129799,24.1750808 L50.7129799,24.1750807 C50.62218,23.9315447 50.4700431,23.7153437 50.2711761,23.5472338 L50.2711755,23.5472299 Z" id="路径"></path>
                <path d="M52.071526,21.1009963 L53.5095973,21.1009963 L53.5095973,22.2932285 L52.071526,22.2932285 L52.071526,21.1009963 Z M52.071526,23.2967681 L53.5095973,23.2967681 L53.5095973,28.8492361 L52.071526,28.8492361 L52.071526,23.2967681 Z" id="形状"></path>
                <path d="M58.4216059,23.6411531 L58.4216059,23.6411532 C58.2530153,23.478959 58.047054,23.3604191 57.8217723,23.295922 L57.8217724,23.295922 C57.3888791,23.1758749 56.9327772,23.165115 56.4946618,23.2646142 L56.4946617,23.2646142 C56.3196331,23.3078301 56.1500537,23.3705591 55.9891362,23.4516144 L55.9891365,23.4516143 C55.8473376,23.5383926 55.7103487,23.6327348 55.5787687,23.73423 L55.5787686,23.7342301 C55.497431,23.7994676 55.4233715,23.8732248 55.3578667,23.9542304 L55.1989872,23.3272296 L54.31453,23.3272296 L54.31453,28.8805438 L55.3884531,28.8805438 L55.3884531,25.0220778 L55.3884532,25.0220776 C55.5725356,24.7658545 55.8094954,24.5517879 56.0834445,24.3942307 L56.0834445,24.3942308 C56.3310107,24.2452398 56.6158212,24.1689748 56.9050296,24.1742305 L56.9050296,24.1742305 C57.168419,24.1544106 57.4258356,24.2590883 57.600021,24.4568462 L57.600021,24.4568462 C57.7902101,24.7323754 57.8801416,25.0643611 57.8549078,25.3977704 L57.8549078,28.9431591 L58.9271316,28.9431591 L58.9271316,25.1786163 L58.9271316,25.1786178 C58.9316089,24.8580711 58.878078,24.5393415 58.7691028,24.2376936 L58.7691028,24.2376936 C58.7375474,24.0007322 58.6124951,23.7860574 58.4216072,23.6411545 L58.4216059,23.6411531 Z" id="路径"></path>
                <path d="M61.5813526,28.9118516 L61.5813527,28.9118516 C61.3222327,28.9222474 61.0637222,28.8796264 60.82179,28.7866206 L60.8217901,28.7866207 C60.6002255,28.6990521 60.3968534,28.5713874 60.2219565,28.4100818 L60.2219564,28.4100817 C60.0606184,28.247454 59.9319972,28.0555968 59.8430247,27.8448503 L59.8430245,27.8448497 C59.7655096,27.6013115 59.7231714,27.348032 59.7172804,27.092618 L59.7172804,27.0926091 C59.7177112,26.8334636 59.7714968,26.5771591 59.8753134,26.3395324 L59.8753133,26.3395325 C59.9861976,26.1255209 60.136002,25.9338647 60.3171171,25.7743011 L60.3171169,25.7743012 C60.5173379,25.6230426 60.7416426,25.506343 60.9806722,25.4290701 L60.9806722,25.4290701 C61.254068,25.3370068 61.5418437,25.2945896 61.8302949,25.3038392 L61.8302951,25.3038392 C62.0898984,25.307732 62.3489908,25.3280808 62.6059974,25.3647619 L62.6195915,25.3647619 L62.6195916,25.3647619 C62.8027342,25.3878379 62.9829721,25.4298069 63.1574017,25.4899928 L63.1574017,25.2699926 L63.1574017,25.2699924 C63.1655673,25.143578 63.1546848,25.016659 63.125116,24.8934535 L63.1251161,24.8934538 C63.0989915,24.8068617 63.0672045,24.7220652 63.0299587,24.6396084 L63.0299587,24.6396084 C62.9351647,24.4707455 62.7943807,24.3320037 62.6238391,24.2393772 L62.6238391,24.2393772 C62.3650228,24.1271623 62.0843829,24.0736916 61.802254,24.0828386 L61.802254,24.0828386 C61.5476752,24.0697582 61.2924857,24.0908186 61.0435409,24.1454539 L60.9152479,24.1818387 L60.9152477,24.1818387 C60.7225522,24.2307483 60.5332542,24.2920832 60.3485494,24.3654543 L60.1913692,24.4255313 L60.1913692,23.4846071 L60.2542413,23.4532994 C60.2899254,23.4414533 60.3298577,23.4253763 60.3723388,23.4076071 L60.3723388,23.4076071 C60.4467285,23.3741054 60.5233815,23.3458311 60.6017369,23.3229915 C60.6654586,23.3086069 60.7368269,23.2959145 60.8073456,23.2806839 C60.8778643,23.2654532 60.9500822,23.2493761 61.0129543,23.2341452 L61.0129542,23.2341452 C61.0862767,23.2177354 61.1606569,23.2064261 61.2355554,23.2002991 C61.3069237,23.1926837 61.3808409,23.1850683 61.454758,23.1706836 L61.454758,23.1706836 C61.6105321,23.1449173 61.7684685,23.1344311 61.9262986,23.1393759 L61.9262988,23.1393759 C62.4095599,23.1261087 62.8884147,23.2340587 63.3188304,23.4532993 L63.3188304,23.4532993 C63.6648222,23.631654 63.9424269,23.9182339 64.1089795,24.2689926 L64.1089794,24.2689926 C64.1907387,24.3884749 64.2141419,24.5382655 64.1727012,24.6768392 L64.1727011,24.6768391 C64.1996656,24.8426654 64.210195,25.0107308 64.2041372,25.1786089 L64.2041372,28.7866131 L63.2559583,28.7866131 L63.1922366,28.3153049 L63.1922365,28.3153049 C63.1634484,28.3321712 63.1376196,28.3536073 63.1157705,28.3787665 L63.1157705,28.3787665 C63.0930974,28.4038539 63.0663953,28.425014 63.0367556,28.441382 L63.0367557,28.4413819 C62.9121542,28.544134 62.7741001,28.6295318 62.6263879,28.6952284 L62.6263879,28.6952284 C62.4772961,28.7704621 62.3178092,28.8232178 62.153148,28.851767 L62.1531483,28.851767 C61.9645076,28.8872471 61.7732745,28.9073395 61.5813522,28.9118441 L61.5813526,28.9118516 Z M62.0231564,26.3395409 L62.0231564,26.3395409 C61.7320608,26.3154737 61.4416183,26.3929477 61.2015713,26.558695 L61.2015712,26.558695 C61.0041369,26.704937 60.8965152,26.9423384 60.9169476,27.1865419 L60.9169476,27.1865419 C60.9198109,27.3144614 60.9412745,27.4412927 60.9806693,27.5630808 L60.9806693,27.5630807 C61.0171838,27.6722875 61.0826454,27.7696408 61.1701351,27.8448502 L61.1701351,27.8448502 C61.2485683,27.9223462 61.3471264,27.9765511 61.4547587,28.0013889 L61.4547586,28.0013889 C61.579667,28.0313468 61.7077614,28.0461212 61.8362392,28.045389 L61.8362391,28.045389 C61.99665,28.0481951 62.1562931,28.0226992 62.3077797,27.9700812 C62.4590126,27.9100042 62.5822079,27.8490811 62.7020047,27.7898503 L62.7189971,27.7813887 L62.7189973,27.7813887 C62.7951338,27.7408857 62.8668805,27.6926828 62.9331022,27.6375423 C62.9687863,27.6096192 63.0019216,27.5842346 63.0350569,27.5622346 L63.0350569,27.5622346 C63.0931451,27.5284603 63.146076,27.4865733 63.1922371,27.4378498 L63.1922371,26.4960795 C63.0656433,26.4647718 62.904215,26.4326179 62.7504333,26.4013101 L62.7504338,26.4013102 C62.5097548,26.3638287 62.2667351,26.3431885 62.0231589,26.3395409 L62.0231564,26.3395409 Z" id="形状"></path>
                <path d="M44.20402,26.4334641 L44.20402,26.4334641 C43.6646498,27.3482252 42.6786924,27.90956 41.6135204,27.908312 L41.6135203,27.908312 C39.9695641,27.9083119 38.6368672,26.5810546 38.6368672,24.9438085 C38.6368673,23.3065624 39.9695641,21.9793051 41.6135203,21.9793051 L41.6135205,21.9793051 C42.6595738,21.9874077 43.6272537,22.5329452 44.172584,23.4219991 L44.2040201,23.482076 L45.3731009,23.482076 L45.3102289,23.3255374 L45.3102289,23.3255374 C44.4142275,21.2858918 42.0276374,20.3558195 39.9796325,21.2481638 C37.9316277,22.1405081 36.9977437,24.5173571 37.8937451,26.5570027 C38.7897466,28.5966483 41.1763367,29.5267206 43.2243416,28.6343763 C44.1572687,28.2278867 44.9020702,27.486123 45.3102289,26.5570027 L45.3731009,26.4004641 L44.2040201,26.4004641 L44.20402,26.4334641 Z" id="路径"></path>
                <path d="M72.1030799,25.4612322 C71.9450501,25.8377711 71.7555842,26.3395409 71.5023966,26.9986955 C71.2814948,26.4063871 71.0920289,25.8986942 70.9017134,25.4612322 L69.101363,21.1323041 L67.5847865,21.1323041 L67.5847865,28.88139 L68.7224312,28.88139 L68.7224312,25.1481549 C68.7224312,24.4263848 68.6909952,23.6419993 68.6595592,22.7949983 C68.849025,23.3280758 69.0699269,23.8298457 69.2602424,24.3324616 L71.186337,28.88139 L71.7547346,28.88139 L73.6825284,24.3324616 C73.8719943,23.8933073 74.0928962,23.3602297 74.2832117,22.7949983 C74.2517756,23.6411531 74.2203396,24.4263848 74.2203396,25.1481549 L74.2203396,28.88139 L75.3571347,28.88139 L75.3571347,21.1323041 L73.8405583,21.1323041 L72.1030799,25.4612322 Z" id="路径"></path>
                <path d="M85.3733365,28.9753132 L85.3733366,28.9753132 C85.1589831,28.9772907 84.9456567,28.9455938 84.7412173,28.88139 L84.7412172,28.88139 C84.5726786,28.8334096 84.4127138,28.7594643 84.2671277,28.6622359 L84.2671277,28.6622359 C84.1427228,28.6043036 84.0342727,28.5172007 83.9510681,28.4083894 L83.888196,28.3474663 L83.7267677,28.8492361 L82.877145,28.8492361 L82.877145,20.5044571 L83.9519177,20.5044571 L83.9519177,23.673307 L83.9519175,23.6733072 C84.1112473,23.5291784 84.2935816,23.4125022 84.4914279,23.328076 L84.4914278,23.328076 C84.7785854,23.1964471 85.0921461,23.1319077 85.4081707,23.1393835 L85.4081708,23.1393835 C85.5480548,23.1438049 85.6873165,23.1599386 85.8244838,23.187614 L85.9094461,23.2028448 L85.9094461,23.2028448 C86.0972319,23.2369731 86.2784426,23.3003665 86.4464077,23.3906912 L86.4464078,23.3906913 C86.6221395,23.4949075 86.7909924,23.6102198 86.9519311,23.7359214 L86.9519311,23.7359214 C87.1234657,23.8924283 87.27243,24.0718216 87.3945845,24.2689989 C87.4693513,24.3993067 87.5322234,24.5389223 87.598494,24.6861532 C87.643524,24.7859995 87.6902532,24.8883842 87.7412306,24.990769 L87.7412305,24.9907688 C87.8360909,25.3058504 87.8785667,25.6342632 87.8669747,25.9630007 L87.8669747,25.9630101 C87.8661672,26.4112395 87.7915416,26.8563021 87.6460696,27.2804732 L87.6460697,27.2804729 C87.5087218,27.6227383 87.3164703,27.940517 87.0768225,28.2213971 L87.0768226,28.221397 C86.6409884,28.7018511 86.02092,28.97556 85.3707802,28.9744748 L85.3733365,28.9753132 Z M85.203412,24.0997671 L85.2034119,24.0997671 C84.9546795,24.0997671 84.7093945,24.1577054 84.48718,24.269 L84.48718,24.269 C84.2753457,24.3572811 84.0824155,24.4850889 83.9187824,24.6455389 L83.9187824,27.3752344 L84.1073986,27.5630808 L84.1073987,27.5630809 C84.1962493,27.6435792 84.2914281,27.7168642 84.3920223,27.782235 L84.3920223,27.7822349 C84.470806,27.8373943 84.5564944,27.8820551 84.6469091,27.9150812 C84.687691,27.9320043 84.7318714,27.9497736 84.7726532,27.9700813 L84.7726531,27.9700813 C84.9169881,28.0094495 85.0656827,28.0307673 85.2153066,28.0335429 L85.2153065,28.0335429 C85.4340833,28.0421054 85.6518066,27.9992023 85.8508243,27.908312 L85.8508244,27.9083119 C86.0200193,27.7983446 86.1693808,27.6607492 86.2926281,27.5013115 L86.2926282,27.5013113 C86.4309118,27.3143682 86.5279111,27.1004 86.5772518,26.8734644 L86.5772519,26.8734644 C86.6438463,26.6067342 86.6758263,26.3326022 86.6724096,26.0577711 L86.6724097,26.0577693 C86.6857265,25.7080895 86.6432847,25.3585176 86.5466644,25.0220758 L86.5466645,25.0220759 C86.4762222,24.8095176 86.3569437,24.6162643 86.1983192,24.4576906 L86.1983191,24.4576906 C86.0554158,24.3407795 85.8959459,24.2455448 85.7250793,24.1750749 L85.7250794,24.1750749 C85.5558483,24.1259105 85.3805436,24.1005623 85.2042607,24.0997671 L85.203412,24.0997671 Z" id="形状"></path>
                <path d="M88.6588274,23.2967681 L89.7650361,23.2967681 L89.7650361,28.8492361 L88.6588274,28.8492361 L88.6588274,23.2967681 Z M88.6588274,21.1009963 L89.7650361,21.1009963 L89.7650361,22.2932285 L88.6588274,22.2932285 L88.6588274,21.1009963 Z M90.996989,20.5044572 L92.1031977,20.5044572 L92.1031977,28.8492361 L90.996989,28.8492361 L90.996989,20.5044572 Z" id="形状"></path>
                <path d="M95.7676203,29.006651 L95.7676203,29.006651 C95.3941113,29.0034217 95.0226881,28.950781 94.6631108,28.8500823 L94.6631108,28.8500823 C94.3236324,28.752752 94.01018,28.5813467 93.7455183,28.3483124 L93.7455182,28.3483123 C93.4789342,28.1061439 93.2731832,27.8050069 93.144835,27.4691575 L93.1448349,27.4691573 C92.9846067,27.0488288 92.9095287,26.6010648 92.923933,26.1516942 L92.923933,26.151685 C92.9247404,25.7034556 92.9993661,25.258393 93.1448381,24.8342219 L93.1448379,24.8342223 C93.2827741,24.4922478 93.4749715,24.17456 93.7140851,23.8932981 L93.7140851,23.8932982 C93.9458706,23.6495242 94.2266996,23.4572059 94.5382191,23.3289129 L94.538219,23.3289129 C94.8366882,23.2003207 95.1586496,23.1346358 95.483849,23.1359691 L95.483849,23.1359691 C95.7860545,23.1353141 96.0858258,23.189804 96.3683062,23.2967591 L96.3683062,23.2967591 C96.6451356,23.4081014 96.8933688,23.5798539 97.0947336,23.799375 L97.0947336,23.799375 C97.2961802,24.0667557 97.4560059,24.3628517 97.568823,24.6776837 L97.568823,24.6776837 C97.7093761,25.0788034 97.752469,25.5073893 97.6945672,25.9283006 L97.6945672,26.3674549 L93.9987085,26.3674549 L93.9987085,26.3674561 C93.9853606,26.6141409 94.0283534,26.860629 94.1244526,27.0883801 L94.1244527,27.0883802 C94.2279083,27.2892245 94.3669276,27.4698141 94.5348204,27.6214577 L94.5348203,27.6214576 C94.7093307,27.7684918 94.9140792,27.8756478 95.1346539,27.935381 L95.1346539,27.935381 C95.3819547,28.0016893 95.6372833,28.0335819 95.893367,28.0301505 L95.8933671,28.0301505 C96.1474945,28.0276096 96.4010867,28.0063982 96.6520801,27.9666889 L96.6520804,27.9666888 C96.8908265,27.9337842 97.1243782,27.8706584 97.3470707,27.7788425 L97.4736645,27.716227 L97.4736645,28.6613819 L97.4099428,28.6926898 L97.4099426,28.6926899 C97.1769973,28.7931276 96.933266,28.8666582 96.6835152,28.911844 L96.6835153,28.911844 C96.3825258,28.9761286 96.0754531,29.007902 95.767622,29.006651 L95.7676203,29.006651 Z M95.4277713,24.1200768 L95.4277712,24.1200768 C95.2485051,24.1190766 95.0714289,24.159328 94.910351,24.2376923 L94.910351,24.2376923 C94.7551494,24.3021481 94.6153238,24.3984448 94.4999833,24.520308 L94.4999833,24.520308 C94.376719,24.6463776 94.2799544,24.7956774 94.2153597,24.9594623 L94.2153597,24.9594624 C94.1547236,25.0995824 94.1124612,25.2468969 94.0896155,25.3977706 L96.5535213,25.3977706 L96.5535213,25.3977706 C96.5506337,25.2745437 96.5343967,25.1519866 96.5050927,25.0322314 L96.4923483,24.9594621 L96.4923484,24.9594622 C96.4519484,24.7987129 96.3765321,24.6487848 96.2714465,24.5203078 L96.2714465,24.5203079 C96.1859062,24.3939072 96.064694,24.2955671 95.9231012,24.2376922 L95.9231013,24.2376922 C95.7716507,24.1579487 95.6024643,24.117498 95.4311697,24.1200767 L95.4277713,24.1200768 Z M79.1490008,28.9778516 L79.1490006,28.9778516 C77.5301402,28.9778516 76.2178024,27.6708703 76.2178024,26.0586175 C76.2178024,24.4463646 77.5301402,23.1393833 79.1490006,23.1393833 L79.1490007,23.1393833 C80.7593755,23.1606815 82.0609444,24.4531973 82.086996,26.0569252 L82.086996,26.0568588 C82.0846887,27.6710577 80.7698791,28.9782823 79.1490645,28.9778516 L79.1490008,28.9778516 Z M79.1490008,24.1149998 L79.1490007,24.1149998 C78.061781,24.1149999 77.1804249,24.9927638 77.1804249,26.0755406 C77.1804249,27.1583226 78.0617863,28.0360813 79.1490007,28.0360813 L79.1490006,28.0360813 C80.2373567,28.0136613 81.1145284,27.1408209 81.1379673,26.0569252 L81.1379673,26.0569237 C81.126293,24.9735176 80.2368798,24.1036281 79.1490006,24.1116137 L79.1490008,24.1149998 Z" id="形状"></path>
            </g>
        </g>
    </g>
</svg>