<?xml version="1.0" encoding="UTF-8"?>
<svg width="132px" height="32px" viewBox="0 0 132 32" version="1.1" xmlns="http://www.w3.org/2000/svg" xmlns:xlink="http://www.w3.org/1999/xlink">
    <title>招商银行</title>
    <g id="页面-1" stroke="none" stroke-width="1" fill="none" fill-rule="evenodd">
        <g id="聚合新首页" transform="translate(-543.000000, -3337.000000)">
            <g id="招商银行" transform="translate(543.000000, 3337.000000)">
                <rect id="矩形" stroke="#979797" fill="#D8D8D8" opacity="0" x="0.5" y="0.5" width="131" height="31"></rect>
                <g id="编组-40" fill="#CCCCCC" fill-rule="nonzero">
                    <path d="M40.75039,31.0954774 C40.2964119,31.5477387 39.6911076,32 38.7831513,32 C37.1185647,32 36.2106084,31.0954774 36.2106084,29.8894472 C36.2106084,28.6834171 37.2698908,27.7788945 38.7831513,27.7788945 C39.3884555,27.7788945 39.9937598,28.080402 40.1450858,28.080402 C40.2964119,28.080402 40.4477379,27.9296482 40.4477379,27.7788945 L40.599064,27.7788945 L40.599064,29.1356784 L40.4477379,29.1356784 C40.1450858,28.6834171 39.5397816,27.9296482 38.7831513,27.9296482 C37.723869,27.9296482 37.4212168,28.8341709 37.4212168,29.7386935 C37.4212168,30.040201 37.4212168,30.6432161 37.723869,31.0954774 C38.0265211,31.5477387 38.6318253,31.5477387 38.7831513,31.5477387 C39.3884555,31.5477387 39.8424337,31.3969849 40.4477379,30.7939698 L40.75039,31.0954774 L40.75039,31.0954774 Z M46.50078,31.8492462 L44.0795632,31.8492462 L44.0795632,31.6984925 C44.5335413,31.6984925 44.6848674,31.6984925 44.6848674,31.2462312 L44.6848674,29.8894472 L42.8689548,29.8894472 L42.8689548,31.2462312 C42.8689548,31.5477387 43.1716069,31.6984925 43.474259,31.6984925 L43.474259,31.8492462 L41.0530421,31.8492462 L41.0530421,31.6984925 C41.5070203,31.6984925 41.6583463,31.6984925 41.6583463,31.2462312 L41.6583463,28.3819095 C41.6583463,27.9296482 41.3556942,27.9296482 41.0530421,27.9296482 L41.0530421,27.7788945 L43.474259,27.7788945 L43.474259,27.9296482 C43.1716069,27.9296482 42.8689548,27.9296482 42.8689548,28.3819095 L42.8689548,29.5879397 L44.6848674,29.5879397 L44.6848674,28.3819095 C44.6848674,27.9296482 44.3822153,27.9296482 44.0795632,27.9296482 L44.0795632,27.7788945 L46.50078,27.7788945 L46.50078,27.9296482 C46.1981279,27.9296482 45.8954758,27.9296482 45.8954758,28.3819095 L45.8954758,31.2462312 C45.8954758,31.5477387 46.1981279,31.5477387 46.50078,31.6984925 L46.50078,31.8492462 Z M49.375975,31.8492462 L46.8034321,31.8492462 L46.8034321,31.6984925 C47.2574103,31.6984925 47.4087363,31.6984925 47.4087363,31.2462312 L47.4087363,28.3819095 C47.4087363,27.9296482 47.1060842,27.9296482 46.8034321,27.9296482 L46.8034321,27.7788945 L49.375975,27.7788945 L49.375975,27.9296482 C49.0733229,27.9296482 48.6193448,27.9296482 48.6193448,28.3819095 L48.6193448,31.2462312 C48.6193448,31.5477387 48.9219969,31.6984925 49.375975,31.6984925 L49.375975,31.8492462 Z M49.6786271,31.6984925 C50.1326053,31.6984925 50.2839314,31.5477387 50.2839314,31.2462312 L50.2839314,28.3819095 C49.8299532,27.9296482 49.8299532,27.9296482 49.6786271,27.9296482 L49.6786271,27.7788945 L51.1918877,27.7788945 L53.7644306,30.3417085 L53.7644306,28.5326633 C53.7644306,28.2311558 53.6131045,27.9296482 53.1591264,27.9296482 L53.1591264,27.7788945 L54.6723869,27.7788945 L54.6723869,27.9296482 C54.2184087,27.9296482 54.0670827,28.080402 54.0670827,28.3819095 L54.0670827,31.8492462 L53.9157566,31.8492462 L50.7379095,28.6834171 L50.7379095,31.0954774 C50.7379095,31.5477387 50.8892356,31.6984925 51.4945398,31.6984925 L51.4945398,31.8492462 L49.8299532,31.8492462 L49.8299532,31.6984925 L49.6786271,31.6984925 Z M56.0343214,30.4924623 L56.7909516,29.1356784 L57.5475819,30.4924623 L56.0343214,30.4924623 Z M59.6661466,31.6984925 C59.3634945,31.6984925 59.2121685,31.5477387 58.9095164,30.9447236 L57.2449298,27.9296482 L57.0936037,27.9296482 L55.4290172,31.0954774 C55.2776911,31.5477387 55.1263651,31.6984925 54.6723869,31.8492462 L54.6723869,32 L56.1856474,32 L56.1856474,31.8492462 C55.8829953,31.8492462 55.5803432,31.8492462 55.5803432,31.5477387 C55.5803432,31.3969849 55.7316693,31.2462312 55.8829953,30.7939698 L57.5475819,30.7939698 C57.698908,30.9447236 57.850234,31.3969849 57.850234,31.5477387 C57.850234,31.6984925 57.698908,31.6984925 57.2449298,31.6984925 L57.2449298,31.8492462 L59.6661466,31.8492462 L59.6661466,31.6984925 L59.6661466,31.6984925 Z M68.4430577,31.8492462 L66.0218409,31.8492462 L66.0218409,31.6984925 C66.475819,31.6984925 66.6271451,31.6984925 66.6271451,31.2462312 L66.6271451,28.2311558 L64.8112324,31.6984925 L64.6599064,31.6984925 L62.8439938,28.3819095 L62.8439938,31.0954774 C62.8439938,31.5477387 62.9953198,31.6984925 63.600624,31.6984925 L63.600624,31.8492462 L61.9360374,31.8492462 L61.9360374,31.6984925 C62.5413417,31.6984925 62.5413417,31.5477387 62.5413417,31.2462312 L62.5413417,28.3819095 C62.5413417,28.080402 62.3900156,27.9296482 61.9360374,27.9296482 L61.9360374,27.7788945 L63.7519501,27.7788945 L65.2652106,30.4924623 L66.7784711,27.7788945 L68.5943838,27.7788945 L68.5943838,27.9296482 C68.1404056,27.9296482 67.9890796,27.9296482 67.9890796,28.5326633 L67.9890796,31.0954774 C67.9890796,31.5477387 68.1404056,31.5477387 68.5943838,31.6984925 L68.5943838,31.8492462 L68.4430577,31.8492462 Z M68.7457098,27.9296482 L72.9828393,27.9296482 L72.9828393,29.1356784 L72.8315133,29.1356784 C72.6801872,28.2311558 72.074883,28.2311558 71.1669267,28.2311558 C70.7129485,28.2311558 70.5616225,28.2311558 70.5616225,28.5326633 L70.5616225,29.8894472 C71.3182527,29.8894472 71.6209048,29.7386935 71.7722309,28.9849246 L71.9235569,28.9849246 L71.9235569,30.9447236 L71.7722309,30.9447236 C71.6209048,30.040201 71.3182527,29.8894472 70.5616225,29.8894472 L70.5616225,31.2462312 C70.5616225,31.5477387 70.7129485,31.5477387 71.1669267,31.5477387 C71.9235569,31.5477387 72.6801872,31.3969849 73.1341654,30.4924623 L73.2854914,30.4924623 L72.9828393,31.6984925 L68.7457098,31.6984925 L68.7457098,31.5477387 C69.199688,31.5477387 69.351014,31.5477387 69.351014,31.0954774 L69.351014,28.3819095 C69.351014,28.080402 69.0483619,28.080402 68.7457098,27.9296482 L68.7457098,27.9296482 Z M75.5553822,28.2311558 C75.5553822,28.080402 75.5553822,27.9296482 76.0093604,27.9296482 C76.6146646,27.9296482 76.9173167,28.2311558 76.9173167,28.8341709 C76.9173167,29.5879397 76.6146646,29.7386935 75.5553822,29.7386935 L75.5553822,28.2311558 Z M78.7332293,31.6984925 C78.5819033,31.6984925 78.5819033,31.6984925 78.4305772,31.5477387 L76.9173167,29.8894472 C77.3712949,29.7386935 78.1279251,29.5879397 78.1279251,28.8341709 C78.1279251,27.7788945 76.6146646,27.7788945 76.0093604,27.7788945 L73.7394696,27.7788945 L73.7394696,27.9296482 C74.1934477,27.9296482 74.3447738,27.9296482 74.3447738,28.5326633 L74.3447738,31.0954774 C74.3447738,31.5477387 74.1934477,31.5477387 73.7394696,31.6984925 L73.7394696,31.8492462 L76.1606864,31.8492462 L76.1606864,31.6984925 C75.7067083,31.6984925 75.5553822,31.6984925 75.5553822,31.0954774 L75.5553822,29.8894472 L75.7067083,29.8894472 L77.2199688,31.6984925 L78.7332293,31.6984925 L78.7332293,31.6984925 Z M83.7269891,31.0954774 C83.1216849,31.5477387 82.6677067,32 81.7597504,32 C80.0951638,32 79.1872075,31.0954774 79.1872075,29.8894472 C79.1872075,28.6834171 80.2464899,27.7788945 81.7597504,27.7788945 C82.3650546,27.7788945 82.9703588,28.080402 83.1216849,28.080402 C83.2730109,28.080402 83.424337,27.9296482 83.424337,27.7788945 L83.575663,27.7788945 L83.575663,29.1356784 L83.424337,29.1356784 C83.1216849,28.6834171 82.5163807,27.9296482 81.7597504,27.9296482 C80.700468,27.9296482 80.3978159,28.8341709 80.3978159,29.7386935 C80.3978159,30.040201 80.3978159,30.6432161 80.700468,31.0954774 C81.0031201,31.5477387 81.6084243,31.5477387 81.7597504,31.5477387 C82.3650546,31.5477387 82.8190328,31.3969849 83.424337,30.7939698 L83.7269891,31.0954774 L83.7269891,31.0954774 Z M89.6287051,31.8492462 L87.2074883,31.8492462 L87.2074883,31.6984925 C87.6614665,31.6984925 87.8127925,31.6984925 87.8127925,31.2462312 L87.8127925,29.8894472 L85.9968799,29.8894472 L85.9968799,31.2462312 C85.9968799,31.5477387 86.299532,31.6984925 86.6021841,31.6984925 L86.6021841,31.8492462 L84.1809672,31.8492462 L84.1809672,31.6984925 C84.6349454,31.6984925 84.7862715,31.6984925 84.7862715,31.2462312 L84.7862715,28.3819095 C84.7862715,27.9296482 84.4836193,27.9296482 84.1809672,27.9296482 L84.1809672,27.7788945 L86.6021841,27.7788945 L86.6021841,27.9296482 C86.299532,27.9296482 85.9968799,27.9296482 85.9968799,28.3819095 L85.9968799,29.5879397 L87.8127925,29.5879397 L87.8127925,28.3819095 C87.8127925,27.9296482 87.5101404,27.9296482 87.2074883,27.9296482 L87.2074883,27.7788945 L89.6287051,27.7788945 L89.6287051,27.9296482 C89.326053,27.9296482 89.0234009,27.9296482 89.0234009,28.3819095 L89.0234009,31.2462312 C89.0234009,31.5477387 89.326053,31.5477387 89.6287051,31.6984925 L89.6287051,31.8492462 Z M91.1419657,30.4924623 L91.8985959,29.1356784 L92.6552262,30.4924623 L91.1419657,30.4924623 Z M94.773791,31.6984925 C94.4711388,31.6984925 94.3198128,31.5477387 94.0171607,30.9447236 L92.3525741,27.9296482 L92.201248,27.9296482 L90.5366615,31.0954774 C90.3853354,31.5477387 90.2340094,31.6984925 89.7800312,31.8492462 L89.7800312,32 L91.2932917,32 L91.2932917,31.8492462 C90.9906396,31.8492462 90.6879875,31.8492462 90.6879875,31.5477387 C90.6879875,31.3969849 90.8393136,31.2462312 90.9906396,30.7939698 L92.6552262,30.7939698 C92.8065523,30.9447236 92.9578783,31.3969849 92.9578783,31.5477387 C92.9578783,31.6984925 92.8065523,31.6984925 92.3525741,31.6984925 L92.3525741,31.8492462 L94.773791,31.8492462 L94.773791,31.6984925 L94.773791,31.6984925 Z M95.0764431,31.6984925 C95.5304212,31.6984925 95.6817473,31.5477387 95.6817473,31.2462312 L95.6817473,28.3819095 C95.2277691,27.9296482 95.2277691,27.9296482 95.0764431,27.9296482 L95.0764431,27.7788945 L96.5897036,27.7788945 L99.1622465,30.3417085 L99.1622465,28.5326633 C99.1622465,28.2311558 99.0109204,27.9296482 98.4056162,27.9296482 L98.4056162,27.7788945 L99.9188768,27.7788945 L99.9188768,27.9296482 C99.3135725,27.9296482 99.3135725,28.080402 99.3135725,28.3819095 L99.3135725,31.8492462 L99.1622465,31.8492462 L95.9843994,28.6834171 L95.9843994,31.0954774 C95.9843994,31.5477387 96.1357254,31.6984925 96.7410296,31.6984925 L96.7410296,31.8492462 L95.0764431,31.8492462 L95.0764431,31.6984925 L95.0764431,31.6984925 Z M104.00468,31.8492462 L101.432137,31.8492462 L101.432137,31.6984925 C102.037441,31.6984925 102.188768,31.6984925 102.188768,31.0954774 L102.188768,28.080402 C101.734789,28.080402 100.978159,28.080402 100.826833,29.1356784 L100.675507,29.1356784 L100.675507,27.9296482 L105.063963,27.9296482 L105.063963,29.1356784 L104.912637,29.1356784 C104.76131,28.2311558 104.00468,28.2311558 103.550702,28.080402 L103.550702,31.0954774 C103.550702,31.5477387 103.702028,31.5477387 104.307332,31.6984925 L104.307332,31.8492462 L104.00468,31.8492462 Z M108.544462,28.9849246 C108.393136,28.5326633 107.939158,27.9296482 107.182527,27.9296482 C106.879875,27.9296482 106.425897,28.080402 106.425897,28.5326633 C106.425897,28.8341709 106.577223,28.9849246 107.182527,29.2864322 L108.24181,29.7386935 C108.544462,29.8894472 108.99844,30.1909548 108.99844,30.7939698 C108.99844,31.2462312 108.544462,32 107.182527,32 C106.425897,32 106.123245,31.8492462 105.971919,31.8492462 C105.820593,31.8492462 105.820593,32 105.820593,32 L105.669267,32 L105.669267,30.4924623 L105.820593,30.4924623 C105.971919,31.0954774 106.425897,31.6984925 107.333853,31.6984925 C108.24181,31.6984925 108.24181,31.0954774 108.24181,31.0954774 C108.24181,30.6432161 107.939158,30.4924623 107.485179,30.3417085 L107.031201,30.1909548 C105.820593,29.7386935 105.820593,29.1356784 105.820593,28.9849246 C105.820593,28.6834171 105.971919,27.7788945 107.485179,27.7788945 C108.090484,27.7788945 108.393136,27.9296482 108.695788,27.9296482 C108.847114,27.9296482 108.847114,27.7788945 108.99844,27.7788945 L109.149766,27.7788945 L109.149766,28.9849246 L108.544462,28.9849246 L108.544462,28.9849246 Z M112.932917,29.7386935 L113.084243,29.7386935 C113.538222,29.7386935 114.143526,29.8894472 114.143526,30.6432161 C114.143526,30.9447236 113.9922,31.5477387 113.235569,31.5477387 C112.932917,31.5477387 112.781591,31.3969849 112.781591,31.2462312 L112.781591,29.7386935 L112.932917,29.7386935 Z M112.932917,28.3819095 C112.932917,28.2311558 112.932917,28.080402 113.386895,28.080402 C113.9922,28.080402 114.143526,28.3819095 114.143526,28.8341709 C114.143526,29.4371859 113.9922,29.7386935 113.084243,29.7386935 L113.084243,28.3819095 L112.932917,28.3819095 Z M111.117005,31.8492462 L113.538222,31.8492462 C115.051482,31.8492462 115.656786,31.2462312 115.656786,30.7939698 C115.656786,30.1909548 114.900156,29.8894472 114.294852,29.7386935 C114.597504,29.7386935 115.354134,29.5879397 115.354134,28.8341709 C115.354134,27.9296482 113.840874,27.9296482 113.386895,27.9296482 L111.117005,27.9296482 L111.117005,28.080402 C111.419657,28.080402 111.722309,28.080402 111.722309,28.5326633 L111.722309,31.3969849 C111.722309,31.6984925 111.419657,31.8492462 111.117005,31.8492462 L111.117005,31.8492462 Z M117.018721,30.4924623 L117.775351,29.1356784 L118.531981,30.4924623 L117.018721,30.4924623 L117.018721,30.4924623 Z M120.650546,31.6984925 C120.347894,31.6984925 120.196568,31.5477387 119.893916,30.9447236 L118.229329,27.9296482 L118.078003,27.9296482 L116.413417,31.0954774 C116.26209,31.5477387 116.110764,31.6984925 115.656786,31.8492462 L115.656786,32 L117.170047,32 L117.170047,31.8492462 C116.867395,31.8492462 116.564743,31.8492462 116.564743,31.5477387 C116.564743,31.3969849 116.716069,31.2462312 116.867395,30.7939698 L118.531981,30.7939698 C118.683307,30.9447236 118.834633,31.3969849 118.834633,31.5477387 C118.834633,31.6984925 118.683307,31.6984925 118.229329,31.6984925 L118.229329,31.8492462 L120.650546,31.8492462 L120.650546,31.6984925 L120.650546,31.6984925 Z M121.104524,31.6984925 C121.558502,31.6984925 121.709828,31.5477387 121.709828,31.2462312 L121.709828,28.3819095 C121.25585,27.9296482 121.25585,27.9296482 121.104524,27.9296482 L121.104524,27.7788945 L122.617785,27.7788945 L125.190328,30.3417085 L125.190328,28.5326633 C125.190328,28.2311558 125.039002,27.9296482 124.585023,27.9296482 L124.585023,27.7788945 L126.098284,27.7788945 L126.098284,27.9296482 C125.644306,27.9296482 125.49298,28.080402 125.49298,28.3819095 L125.49298,31.8492462 L125.341654,31.8492462 L122.163807,28.6834171 L122.163807,31.0954774 C122.163807,31.5477387 122.315133,31.6984925 122.920437,31.6984925 L122.920437,31.8492462 L121.25585,31.8492462 L121.25585,31.6984925 L121.104524,31.6984925 Z M131.848674,31.8492462 L129.427457,31.8492462 L129.427457,31.6984925 C129.881435,31.6984925 130.032761,31.6984925 130.032761,31.5477387 C130.032761,31.3969849 130.032761,31.3969849 129.881435,31.2462312 L128.519501,29.8894472 L128.368175,30.040201 L128.368175,31.2462312 C128.368175,31.5477387 128.670827,31.5477387 128.973479,31.6984925 L128.973479,31.8492462 L126.552262,31.8492462 L126.552262,31.6984925 C127.00624,31.6984925 127.157566,31.6984925 127.157566,31.2462312 L127.157566,28.3819095 C127.157566,27.9296482 126.854914,27.9296482 126.552262,27.9296482 L126.552262,27.7788945 L128.973479,27.7788945 L128.973479,27.9296482 C128.519501,27.9296482 128.368175,27.9296482 128.368175,28.5326633 L128.368175,29.7386935 L129.881435,28.5326633 C130.032761,28.3819095 130.184087,28.3819095 130.184087,28.2311558 C130.184087,28.080402 130.032761,28.080402 129.578783,28.080402 L129.578783,27.9296482 L131.697348,27.9296482 L131.697348,28.080402 C130.940718,28.080402 130.638066,28.3819095 129.427457,29.4371859 L131.697348,31.6984925 C131.848674,31.8492462 131.848674,31.8492462 132,31.8492462 L131.848674,31.8492462 Z M42.8689548,2.60301508 C42.8689548,3.95979899 42.7176287,5.76884422 43.0202808,6.97487437 L43.625585,6.97487437 L43.625585,7.12562814 L43.7769111,7.12562814 L43.7769111,6.97487437 L44.3822153,6.97487437 C44.5335413,6.67336683 44.6848674,6.3718593 44.6848674,5.76884422 L44.5335413,5.76884422 L44.5335413,5.31658291 L44.3822153,5.31658291 L44.3822153,4.86432161 L44.2308892,4.86432161 L44.2308892,4.4120603 L44.0795632,4.4120603 C44.0795632,4.26130653 44.2308892,3.95979899 44.2308892,3.80904523 C45.2901716,3.95979899 46.1981279,4.11055276 47.2574103,4.26130653 L48.6193448,4.26130653 C48.9219969,4.4120603 49.5273011,4.71356784 50.1326053,4.56281407 L50.1326053,4.4120603 L50.7379095,4.4120603 L50.7379095,4.26130653 L51.3432137,4.26130653 L51.3432137,4.11055276 L51.7971919,4.11055276 L51.7971919,3.95979899 L54.8237129,3.95979899 C54.975039,4.4120603 55.1263651,4.26130653 55.1263651,4.86432161 C54.8237129,5.16582915 54.975039,5.46733668 54.8237129,5.91959799 L54.6723869,5.91959799 L54.6723869,6.3718593 L54.5210608,6.3718593 L54.5210608,6.8241206 L54.3697348,6.8241206 L54.3697348,7.27638191 L54.2184087,7.27638191 L54.2184087,7.72864322 L54.0670827,7.72864322 L54.0670827,8.18090452 L53.9157566,8.18090452 C53.9157566,8.48241206 53.7644306,8.63316583 53.7644306,8.93467337 L53.6131045,8.93467337 C53.6131045,9.38693467 53.4617785,9.68844221 53.4617785,10.1407035 L53.3104524,10.1407035 L53.3104524,10.5929648 L53.1591264,10.5929648 L53.1591264,10.8944724 L53.0078003,10.8944724 C53.0078003,11.0452261 52.8564743,11.1959799 52.8564743,11.4974874 L52.7051482,11.4974874 L52.7051482,11.9497487 C52.5538222,11.9497487 52.5538222,12.1005025 52.4024961,12.1005025 C52.099844,12.4020101 51.7971919,12.7035176 51.6458658,13.1557789 C51.3432137,13.1557789 51.1918877,13.3065327 50.8892356,13.3065327 C50.8892356,13.758794 50.8892356,13.9095477 51.0405616,14.2110553 C51.4945398,14.2110553 51.7971919,14.361809 52.25117,14.361809 L52.25117,14.2110553 C52.7051482,14.2110553 53.1591264,14.0603015 53.7644306,14.0603015 C53.7644306,14.5125628 53.6131045,14.8140704 53.6131045,15.2663317 L53.4617785,15.2663317 L53.4617785,16.9246231 L53.3104524,16.9246231 C53.1591264,17.3768844 53.4617785,18.1306533 53.4617785,18.4321608 L53.4617785,20.3919598 L53.6131045,20.3919598 L53.6131045,21.1457286 L53.7644306,21.1457286 C53.7644306,21.7487437 53.6131045,22.3517588 53.6131045,22.8040201 C53.1591264,22.9547739 52.8564743,22.9547739 52.25117,22.8040201 L52.25117,22.6532663 C51.4945398,22.6532663 50.7379095,22.8040201 49.9812793,22.8040201 L49.9812793,22.9547739 C49.6786271,22.9547739 49.0733229,22.8040201 48.9219969,22.6532663 L45.2901716,22.6532663 L45.2901716,22.8040201 L44.8361934,22.8040201 L44.8361934,22.9547739 C44.5335413,22.9547739 44.6848674,22.9547739 44.5335413,22.8040201 C43.7769111,22.201005 44.3822153,21.2964824 44.0795632,20.241206 C43.7769111,18.8844221 44.0795632,16.9246231 44.0795632,15.5678392 C43.625585,15.2663317 43.625585,14.8140704 43.0202808,14.6633166 L43.0202808,14.5125628 L42.5663027,14.5125628 C42.5663027,14.6633166 42.4149766,14.8140704 42.4149766,15.1155779 L42.2636505,15.1155779 L42.2636505,18.281407 L42.4149766,18.281407 L42.4149766,18.7336683 L42.5663027,18.7336683 L42.5663027,20.5427136 L42.4149766,20.5427136 C42.4149766,20.9949749 42.5663027,21.2964824 42.5663027,21.7487437 L42.4149766,21.7487437 C42.4149766,22.0502513 42.2636505,22.3517588 42.2636505,22.5025126 C41.5070203,22.8040201 39.9937598,22.6532663 38.9344774,22.6532663 L38.9344774,22.5025126 L38.6318253,22.5025126 L38.6318253,22.3517588 C38.3291732,22.201005 38.1778471,21.8994975 37.875195,21.7487437 L37.875195,21.4472362 L38.0265211,21.4472362 L38.0265211,21.1457286 C38.3291732,20.9949749 38.4804992,20.6934673 38.7831513,20.5427136 L38.7831513,20.3919598 L39.0858034,20.3919598 L39.0858034,20.241206 L39.6911076,20.241206 L39.6911076,20.0904523 L39.8424337,20.0904523 L39.8424337,17.678392 L39.3884555,16.321608 L38.7831513,16.321608 C38.6318253,16.6231156 38.3291732,16.9246231 38.0265211,17.0753769 C37.875195,17.0753769 37.5725429,17.2261307 37.4212168,17.2261307 C37.4212168,17.3768844 37.2698908,17.3768844 37.2698908,17.5276382 L36.9672387,17.5276382 L36.9672387,17.678392 C36.8159126,17.8291457 36.6645866,17.8291457 36.3619345,17.9798995 C36.0592824,16.4723618 35.1513261,15.718593 35,13.9095477 C35.7566303,13.9095477 36.2106084,13.758794 36.8159126,13.4572864 L38.1778471,13.4572864 L38.1778471,13.3065327 L38.4804992,13.3065327 C38.7831513,13.1557789 38.9344774,12.8542714 39.3884555,12.8542714 C39.5397816,12.5527638 39.5397816,12.5527638 39.6911076,12.4020101 L39.8424337,12.4020101 L39.8424337,11.0452261 C39.3884555,10.7437186 39.5397816,10.4422111 38.7831513,10.4422111 C38.4804992,10.8944724 37.723869,10.7437186 37.2698908,10.5929648 L37.1185647,10.4422111 L37.1185647,9.68844221 L36.9672387,9.68844221 L36.9672387,9.2361809 L36.8159126,9.2361809 L36.8159126,8.93467337 L36.6645866,8.93467337 L36.6645866,8.63316583 C36.5132605,8.18090452 36.3619345,7.87939698 36.2106084,7.12562814 C37.4212168,7.12562814 38.4804992,6.97487437 39.5397816,6.97487437 C39.6911076,6.8241206 39.8424337,6.3718593 39.9937598,6.3718593 C39.6911076,4.86432161 39.3884555,3.50753769 39.3884555,2.15075377 C39.5397816,2 39.6911076,2 39.9937598,2 C40.9017161,2.30150754 42.1123245,2.60301508 42.8689548,2.60301508 L42.8689548,2.60301508 Z M72.9828393,3.65829146 L72.6801872,3.65829146 C72.5288612,3.95979899 72.5288612,4.11055276 72.226209,4.26130653 L72.074883,4.26130653 L72.074883,4.56281407 L71.9235569,4.56281407 L71.9235569,5.16582915 C72.226209,5.31658291 72.8315133,5.31658291 73.4368175,5.31658291 C73.7394696,5.61809045 74.1934477,5.31658291 74.6474259,5.31658291 C75.5553822,5.31658291 76.6146646,5.16582915 77.5226209,5.16582915 L77.5226209,5.01507538 L77.825273,5.01507538 L77.825273,4.86432161 L78.2792512,4.86432161 L78.2792512,4.71356784 C78.7332293,4.71356784 79.1872075,4.86432161 79.7925117,4.86432161 C79.7925117,5.01507538 79.9438378,5.16582915 79.9438378,5.31658291 C80.2464899,5.61809045 80.0951638,6.97487437 79.9438378,7.42713568 C79.7925117,7.42713568 79.7925117,7.57788945 79.6411856,7.57788945 L79.6411856,8.18090452 L79.4898596,8.48241206 C79.3385335,8.63316583 79.1872075,8.63316583 78.8845554,8.63316583 C78.5819033,8.33165829 77.9765991,8.33165829 77.5226209,8.48241206 C77.3712949,8.48241206 77.5226209,8.63316583 77.3712949,8.63316583 C76.6146646,8.63316583 75.8580343,8.48241206 74.950078,8.48241206 C74.798752,8.93467337 74.4960998,9.2361809 74.4960998,9.98994975 C74.798752,10.1407035 74.950078,10.1407035 75.4040562,10.1407035 C75.8580343,9.68844221 77.0686427,10.1407035 77.3712949,10.2914573 C77.5226209,10.5929648 77.5226209,11.0452261 77.5226209,11.6482412 L77.673947,11.6482412 L77.673947,12.2512563 L77.825273,12.2512563 C78.1279251,13.1557789 77.2199688,13.9095477 77.5226209,14.8140704 C77.673947,15.4170854 77.5226209,16.6231156 77.673947,17.3768844 L77.825273,17.3768844 C77.825273,17.5276382 77.673947,17.3768844 77.673947,17.5276382 C77.673947,17.8291457 77.825273,17.8291457 77.825273,17.8291457 L77.825273,19.7889447 L77.9765991,19.7889447 L77.9765991,20.8442211 C77.825273,21.4472362 77.673947,22.0502513 77.5226209,22.8040201 C76.7659906,22.8040201 75.5553822,22.8040201 74.950078,22.6532663 L74.1934477,22.6532663 L74.1934477,22.8040201 C73.7394696,22.8040201 73.4368175,22.6532663 72.9828393,22.6532663 L72.9828393,22.5025126 L72.6801872,22.5025126 L72.6801872,22.3517588 C72.3775351,22.3517588 72.226209,22.201005 71.9235569,22.201005 L71.9235569,22.0502513 C71.7722309,21.8994975 71.9235569,22.0502513 71.7722309,21.7487437 C72.074883,21.5979899 72.226209,21.2964824 72.226209,20.8442211 C71.1669267,20.3919598 70.1076443,20.3919598 68.5943838,20.3919598 L68.2917317,19.7889447 C68.4430577,19.4874372 68.2917317,19.0351759 68.2917317,18.4321608 C68.2917317,17.678392 68.2917317,16.6231156 68.1404056,15.8693467 C67.8377535,15.8693467 67.6864275,15.718593 67.2324493,15.718593 C67.2324493,17.0753769 67.3837754,18.5829146 67.3837754,19.9396985 C67.3837754,20.6934673 67.5351014,21.4472362 66.9297972,21.7487437 L66.9297972,21.8994975 L66.475819,21.8994975 L66.475819,22.0502513 C66.475819,22.3517588 66.324493,22.3517588 66.0218409,22.3517588 C65.8705148,22.0502513 65.2652106,22.0502513 64.8112324,21.8994975 C64.8112324,20.241206 64.6599064,18.5829146 64.6599064,17.0753769 C64.6599064,16.321608 64.8112324,15.5678392 64.8112324,14.8140704 L64.6599064,14.8140704 L64.6599064,13.6080402 C64.6599064,12.7035176 64.3572543,10.7437186 64.8112324,10.1407035 C65.1138846,9.83919598 66.0218409,9.98994975 66.475819,9.98994975 C66.7784711,10.2914573 67.5351014,10.1407035 67.9890796,9.98994975 C67.9890796,9.53768844 67.6864275,8.7839196 67.5351014,8.63316583 L67.0811232,8.63316583 L67.0811232,8.7839196 L66.324493,8.7839196 L66.324493,8.93467337 L64.8112324,8.93467337 L64.8112324,9.08542714 C64.3572543,9.08542714 63.7519501,9.2361809 63.2979719,9.2361809 C63.1466459,8.93467337 63.1466459,8.93467337 62.9953198,8.7839196 L62.8439938,8.7839196 L62.8439938,8.03015075 L62.6926677,8.03015075 C62.6926677,7.87939698 62.5413417,7.57788945 62.5413417,7.42713568 C62.3900156,7.27638191 62.2386895,7.27638191 62.0873635,7.27638191 L62.0873635,6.8241206 L61.9360374,6.8241206 C61.9360374,6.22110553 62.0873635,5.76884422 62.0873635,5.16582915 C62.2386895,5.16582915 62.2386895,5.01507538 62.6926677,5.01507538 C62.9953198,5.61809045 63.2979719,5.16582915 64.0546022,5.46733668 L64.0546022,5.61809045 L66.324493,5.61809045 C67.3837754,5.91959799 68.5943838,5.61809045 69.9563183,5.61809045 C70.1076443,5.31658291 70.1076443,5.46733668 70.2589704,5.16582915 C69.8049922,4.86432161 69.5023401,4.4120603 69.0483619,4.11055276 L69.0483619,3.35678392 L68.8970359,3.35678392 C68.8970359,3.05527638 68.7457098,2.75376884 68.7457098,2.45226131 C68.8970359,2.45226131 69.0483619,2.30150754 69.199688,2.30150754 L69.199688,2.15075377 C69.351014,2.15075377 69.351014,2.30150754 69.5023401,2.30150754 C69.9563183,2.15075377 70.2589704,2.45226131 70.8642746,2.30150754 L70.8642746,2.15075377 L71.3182527,2.15075377 L71.3182527,2 C71.4695788,2 71.3182527,2.15075377 71.4695788,2.15075377 L71.6209048,2.15075377 L71.6209048,2 L71.7722309,2 L71.7722309,2.15075377 L72.5288612,2.15075377 L72.5288612,2.30150754 L72.8315133,2.30150754 L72.8315133,2.45226131 C73.1341654,2.60301508 73.2854914,2.60301508 73.5881435,2.75376884 C73.2854914,3.05527638 73.1341654,3.20603015 72.9828393,3.65829146 L72.9828393,3.65829146 Z M92.6552262,2.15075377 C92.8065523,2.15075377 93.1092044,2.30150754 93.2605304,2.30150754 C93.4118565,2.45226131 93.4118565,2.60301508 93.5631825,2.75376884 L93.7145086,2.75376884 C93.7145086,2.90452261 93.8658346,3.05527638 93.8658346,3.20603015 C94.0171607,3.35678392 94.1684867,3.50753769 94.4711388,3.65829146 C94.4711388,3.80904523 94.6224649,3.95979899 94.6224649,4.11055276 C94.773791,4.26130653 94.925117,4.26130653 95.2277691,4.4120603 L95.2277691,4.71356784 L95.3790952,4.71356784 C95.6817473,5.61809045 94.773791,6.3718593 96.1357254,6.3718593 C96.2870515,6.52261307 96.1357254,6.3718593 96.4383775,6.52261307 C96.4383775,6.3718593 96.8923557,6.07035176 96.8923557,6.07035176 L96.8923557,4.11055276 L97.4976599,4.11055276 L97.4976599,4.4120603 C97.9516381,4.4120603 98.1029641,4.56281407 98.4056162,4.86432161 C98.4056162,5.01507538 98.5569423,5.01507538 98.5569423,5.16582915 L99.3135725,5.16582915 L99.3135725,5.31658291 C99.4648986,5.31658291 99.6162246,5.16582915 99.9188768,5.16582915 C99.9188768,5.16582915 99.9188768,5.31658291 100.221529,5.31658291 C100.221529,5.31658291 100.221529,5.16582915 100.524181,5.16582915 C100.524181,5.16582915 100.524181,5.31658291 100.826833,5.31658291 L100.826833,5.16582915 L100.978159,5.16582915 L100.978159,5.31658291 L102.49142,5.31658291 L102.49142,5.16582915 L102.794072,5.16582915 L102.794072,5.01507538 L103.24805,5.01507538 C103.550702,4.86432161 103.550702,4.71356784 104.156006,4.56281407 L104.156006,4.86432161 L104.458658,4.86432161 L104.458658,5.31658291 L104.76131,5.31658291 C104.76131,6.07035176 104.912637,6.67336683 104.912637,7.42713568 L104.76131,7.42713568 L104.76131,7.72864322 L104.609984,7.72864322 L104.609984,8.33165829 L104.458658,8.33165829 L104.458658,9.08542714 L104.307332,9.08542714 L104.307332,9.83919598 L104.156006,9.83919598 L104.156006,13.1557789 L104.00468,13.1557789 C104.00468,13.6080402 103.853354,13.9095477 103.853354,14.361809 C104.156006,14.361809 104.307332,14.2110553 104.609984,14.2110553 C104.76131,13.758794 104.76131,13.4572864 105.366615,13.4572864 C105.517941,13.758794 105.517941,13.6080402 105.820593,13.758794 L105.820593,15.8693467 C105.820593,15.8693467 105.971919,15.8693467 105.971919,16.1708543 L105.820593,16.1708543 L105.820593,16.321608 L105.517941,16.321608 C105.366615,16.4723618 105.366615,16.6231156 105.215289,16.7738693 C104.912637,16.9246231 102.945398,16.7738693 102.794072,16.7738693 C102.794072,16.9246231 102.642746,17.0753769 102.642746,17.3768844 C102.945398,17.5276382 103.24805,17.8291457 103.550702,17.8291457 C104.00468,17.9798995 104.458658,17.9798995 104.912637,18.1306533 L104.912637,18.281407 L105.215289,18.281407 L105.215289,18.4321608 C105.669267,18.5829146 106.274571,18.5829146 106.728549,18.7336683 C106.577223,19.1859296 106.425897,19.4874372 106.274571,19.9396985 L106.274571,20.3919598 L105.820593,20.8442211 L105.820593,21.1457286 C105.366615,21.5979899 104.912637,22.0502513 104.307332,22.5025126 C103.550702,22.3517588 103.24805,21.7487437 102.642746,21.5979899 L102.642746,21.2964824 C102.340094,21.1457286 102.340094,20.8442211 102.188768,20.6934673 C102.037441,20.6934673 102.037441,20.5427136 101.886115,20.5427136 C101.583463,20.0904523 101.886115,19.7889447 101.129485,19.7889447 C100.826833,20.3919598 100.675507,20.241206 100.221529,20.6934673 L100.221529,20.8442211 C100.070203,20.8442211 100.070203,20.9949749 99.9188768,20.9949749 L99.9188768,21.2964824 C99.7675507,21.4472362 99.4648986,21.5979899 99.3135725,21.8994975 C99.3135725,22.0502513 99.1622465,22.0502513 99.1622465,22.201005 L98.7082683,22.201005 L98.7082683,22.3517588 L98.4056162,22.3517588 L98.4056162,22.5025126 L97.9516381,22.5025126 L97.9516381,22.6532663 L97.4976599,22.6532663 L97.4976599,22.8040201 L97.1950078,22.8040201 L97.1950078,22.9547739 L96.5897036,22.9547739 L96.5897036,23.1055276 L96.2870515,23.1055276 L96.2870515,23.2562814 L95.5304212,23.2562814 C95.3790952,22.6532663 95.2277691,22.0502513 95.0764431,21.5979899 C94.925117,21.4472362 94.6224649,21.2964824 94.4711388,21.1457286 C94.0171607,21.2964824 93.8658346,21.4472362 93.5631825,21.7487437 L93.5631825,21.8994975 C93.4118565,21.8994975 93.1092044,22.0502513 92.9578783,22.0502513 L92.9578783,22.201005 L92.6552262,22.201005 C92.6552262,22.3517588 92.5039002,22.3517588 92.5039002,22.5025126 L92.201248,22.5025126 L92.201248,22.6532663 L91.8985959,22.6532663 C91.8985959,22.8040201 91.7472699,22.8040201 91.7472699,22.9547739 L91.4446178,22.9547739 L91.4446178,23.1055276 C91.1419657,22.9547739 91.2932917,23.1055276 91.1419657,22.9547739 C90.9906396,22.8040201 90.8393136,22.6532663 90.5366615,22.5025126 L90.5366615,22.201005 C90.2340094,21.8994975 90.0826833,21.8994975 89.9313573,21.4472362 C89.6287051,21.2964824 89.6287051,21.4472362 89.4773791,20.9949749 L89.326053,20.9949749 L89.326053,20.5427136 L89.174727,20.5427136 L89.174727,20.241206 L89.0234009,20.241206 C89.0234009,19.9396985 88.8720749,19.638191 88.8720749,19.4874372 C89.7800312,19.7889447 91.4446178,19.3366834 91.7472699,18.8844221 L91.8985959,18.8844221 C91.8985959,18.7336683 92.049922,18.4321608 92.049922,18.281407 L91.8985959,18.281407 C91.7472699,17.8291457 91.7472699,17.8291457 91.2932917,17.8291457 C90.9906396,18.281407 90.6879875,18.7336683 89.9313573,18.7336683 C89.7800312,17.8291457 89.7800312,17.0753769 89.6287051,16.1708543 L91.7472699,16.1708543 C91.8985959,15.8693467 91.8985959,15.5678392 91.8985959,15.1155779 C91.4446178,15.1155779 90.8393136,15.2663317 90.3853354,15.2663317 C90.2340094,14.9648241 90.0826833,14.6633166 89.7800312,14.5125628 L89.6287051,14.6633166 C89.174727,14.9648241 89.174727,15.5678392 89.0234009,16.0201005 L88.8720749,16.0201005 L88.8720749,16.321608 C88.7207488,16.4723618 88.5694228,16.4723618 88.4180967,16.6231156 L88.4180967,17.0753769 C88.1154446,17.0753769 87.9641186,17.0753769 87.8127925,16.9246231 L87.8127925,16.7738693 C87.6614665,16.7738693 87.5101404,16.6231156 87.3588144,16.6231156 C87.3588144,16.4723618 87.2074883,16.321608 87.2074883,16.1708543 L86.6021841,16.1708543 L86.299532,16.0201005 L86.299532,14.6633166 C86.9048362,14.5125628 87.9641186,14.2110553 88.4180967,13.9095477 C88.4180967,13.758794 88.5694228,13.6080402 88.5694228,13.4572864 C88.7207488,13.4572864 88.7207488,13.3065327 88.8720749,13.3065327 C88.8720749,13.1557789 89.0234009,13.0050251 89.0234009,12.8542714 L89.326053,12.5527638 L89.326053,12.2512563 C89.4773791,12.2512563 89.4773791,12.1005025 89.6287051,12.1005025 C89.7800312,11.798995 89.7800312,11.6482412 89.9313573,11.3467337 L90.0826833,11.3467337 L90.0826833,11.0452261 L90.2340094,11.0452261 L90.2340094,10.7437186 L90.3853354,10.7437186 L90.3853354,10.4422111 L90.5366615,10.4422111 L90.5366615,10.1407035 L90.6879875,10.1407035 L90.6879875,9.83919598 L90.8393136,9.83919598 L90.8393136,9.53768844 L90.9906396,9.53768844 L90.9906396,9.2361809 L91.1419657,9.2361809 C91.4446178,8.03015075 91.5959438,6.8241206 91.8985959,5.61809045 C92.3525741,4.26130653 92.6552262,3.50753769 92.6552262,2.15075377 L92.6552262,2.15075377 Z M120.801872,8.93467337 C120.347894,8.93467337 120.196568,8.93467337 119.893916,9.08542714 C119.74259,9.38693467 119.74259,9.68844221 119.74259,10.1407035 C120.347894,10.4422111 120.801872,10.5929648 120.953198,11.1959799 L121.25585,11.1959799 C121.407176,11.6482412 121.407176,11.4974874 121.861154,11.6482412 L121.861154,11.4974874 L122.01248,11.4974874 L122.01248,10.5929648 L122.163807,10.5929648 L122.163807,10.4422111 L122.769111,10.4422111 C123.071763,10.7437186 124.282371,10.4422111 124.887676,10.4422111 C126.703588,10.2914573 128.368175,10.2914573 130.184087,10.1407035 C130.486739,10.1407035 130.638066,9.98994975 130.940718,9.98994975 L130.940718,9.83919598 L131.24337,9.83919598 C131.394696,9.83919598 131.24337,9.53768844 131.697348,9.53768844 L131.697348,9.68844221 L132,9.68844221 L132,10.2914573 L131.848674,10.2914573 C131.848674,10.4422111 132,10.5929648 132,10.7437186 L132,12.4020101 L131.848674,12.4020101 C131.848674,12.7035176 132,12.8542714 132,13.1557789 L131.092044,13.1557789 L131.092044,13.3065327 C130.638066,13.4572864 130.032761,13.3065327 129.730109,13.1557789 C129.276131,13.1557789 128.670827,13.3065327 128.216849,13.3065327 C128.065523,13.6080402 127.914197,13.758794 127.914197,14.361809 C128.368175,14.8140704 127.762871,15.5678392 127.914197,16.1708543 C128.065523,16.7738693 127.914197,17.9798995 128.065523,18.7336683 C128.368175,19.7889447 128.216849,21.4472362 128.216849,22.6532663 C126.552262,22.9547739 125.039002,22.6532663 123.525741,22.5025126 C123.223089,22.0502513 122.920437,22.0502513 122.769111,21.5979899 L122.617785,21.5979899 L122.617785,20.9949749 C122.769111,20.8442211 122.617785,20.9949749 122.769111,20.6934673 C123.223089,20.8442211 123.525741,20.8442211 123.979719,20.9949749 C124.282371,20.6934673 124.433697,20.3919598 124.736349,20.0904523 L124.887676,20.0904523 L124.887676,18.7336683 C125.039002,18.5829146 125.341654,17.5276382 125.190328,17.0753769 C125.039002,16.321608 125.190328,14.6633166 125.039002,13.6080402 C124.736349,13.4572864 124.282371,13.4572864 123.828393,13.4572864 C123.525741,13.758794 122.01248,13.4572864 121.558502,13.4572864 C121.558502,13.1557789 121.709828,13.0050251 121.709828,12.7035176 C121.558502,12.5527638 121.25585,12.5527638 120.953198,12.5527638 L120.953198,12.8542714 L120.650546,12.8542714 C120.49922,13.1557789 120.347894,13.1557789 120.196568,13.4572864 L120.045242,13.4572864 C119.74259,14.0603015 120.347894,14.9648241 120.347894,15.4170854 L120.196568,15.4170854 C120.196568,15.718593 120.347894,16.0201005 120.347894,16.1708543 L120.196568,16.1708543 C120.196568,17.2261307 120.045242,18.1306533 120.045242,19.1859296 L120.045242,21.2964824 L119.893916,21.2964824 C119.74259,21.5979899 119.74259,21.8994975 119.591264,22.0502513 C119.288612,22.201005 119.137285,22.201005 118.985959,22.5025126 L118.985959,22.6532663 L117.775351,22.6532663 C117.472699,22.3517588 117.472699,22.5025126 117.170047,22.3517588 L117.170047,22.201005 L116.867395,22.201005 C116.867395,22.0502513 116.716069,22.0502513 116.716069,21.8994975 C116.413417,21.8994975 116.110764,21.7487437 115.808112,21.7487437 L115.808112,21.5979899 C115.656786,21.4472362 115.808112,21.5979899 115.656786,21.2964824 L115.959438,21.2964824 C116.26209,20.6934673 116.716069,20.8442211 116.716069,19.7889447 L116.867395,19.7889447 L116.867395,19.3366834 L117.018721,19.3366834 L117.018721,18.1306533 C117.018721,17.0753769 117.170047,16.0201005 117.018721,15.4170854 C116.716069,15.2663317 116.867395,15.2663317 116.564743,15.1155779 C116.413417,15.4170854 116.413417,15.2663317 116.110764,15.4170854 C116.110764,15.5678392 115.959438,15.5678392 115.959438,15.718593 L115.808112,15.718593 L115.808112,16.0201005 C115.656786,16.0201005 115.656786,16.1708543 115.50546,16.1708543 C115.202808,16.4723618 115.202808,16.6231156 114.597504,16.7738693 C114.294852,16.4723618 114.294852,16.6231156 113.840874,16.4723618 L113.840874,16.321608 L113.538222,16.321608 L113.538222,16.1708543 C113.386895,16.1708543 113.235569,16.0201005 113.084243,16.0201005 C112.932917,15.5678392 112.781591,15.5678392 112.630265,14.9648241 C112.781591,14.9648241 112.932917,14.6633166 112.932917,14.6633166 C113.386895,14.5125628 113.689548,14.361809 114.143526,14.2110553 L114.143526,14.0603015 L114.597504,14.0603015 C114.74883,13.9095477 114.74883,13.758794 114.900156,13.6080402 C115.808112,13.0050251 117.170047,12.2512563 117.321373,10.7437186 C117.018721,10.4422111 117.170047,10.2914573 116.564743,10.2914573 C116.26209,10.8944724 115.656786,11.3467337 114.900156,11.3467337 C114.74883,11.1959799 114.597504,11.1959799 114.446178,11.0452261 C114.143526,10.4422111 113.9922,9.83919598 113.840874,8.93467337 C114.143526,8.7839196 114.446178,8.48241206 114.597504,8.48241206 L115.051482,8.48241206 C115.202808,8.33165829 115.202808,8.18090452 115.354134,8.03015075 L115.959438,8.03015075 L115.959438,7.87939698 L116.26209,7.87939698 C116.867395,7.42713568 117.321373,6.97487437 117.775351,6.3718593 L117.775351,6.07035176 C117.926677,5.91959799 118.078003,5.91959799 118.229329,5.76884422 L118.229329,5.46733668 L118.380655,5.46733668 C118.380655,5.31658291 118.531981,5.16582915 118.531981,4.86432161 L118.683307,4.86432161 C118.683307,4.56281407 118.834633,4.4120603 118.834633,4.11055276 C118.985959,4.11055276 118.985959,3.95979899 119.137285,3.95979899 L119.137285,3.65829146 C119.288612,3.65829146 119.288612,3.50753769 119.439938,3.50753769 L119.439938,3.20603015 C119.591264,3.20603015 119.591264,3.05527638 119.74259,3.05527638 C120.045242,2.75376884 119.591264,2.75376884 120.196568,2.60301508 L120.196568,2.45226131 C120.347894,2.45226131 120.650546,2.30150754 120.801872,2.30150754 C120.953198,2.60301508 121.25585,2.60301508 121.407176,3.05527638 L121.558502,3.05527638 L121.558502,3.50753769 L121.709828,3.50753769 L121.25585,4.86432161 L121.25585,5.01507538 L121.407176,5.01507538 C121.407176,5.76884422 121.558502,6.52261307 121.558502,7.42713568 L121.407176,7.42713568 C120.953198,8.33165829 120.953198,8.63316583 120.801872,8.93467337 L120.801872,8.93467337 Z M130.184087,8.7839196 C129.124805,8.7839196 128.216849,8.63316583 127.157566,8.63316583 L127.157566,8.7839196 L124.585023,8.7839196 L124.585023,8.93467337 C124.433697,8.93467337 124.282371,8.7839196 124.131045,8.7839196 L124.131045,8.93467337 C123.374415,9.08542714 122.617785,8.93467337 122.01248,9.08542714 L122.01248,8.18090452 C121.709828,7.87939698 122.01248,6.97487437 121.861154,6.52261307 C121.709828,6.22110553 121.558502,5.91959799 121.558502,5.46733668 C122.466459,5.46733668 123.223089,5.61809045 124.131045,5.61809045 C124.433697,5.61809045 125.039002,5.31658291 125.49298,5.46733668 L125.49298,5.61809045 L126.24961,5.61809045 L126.24961,5.76884422 C126.400936,5.76884422 126.703588,5.61809045 126.854914,5.61809045 C126.854914,5.61809045 126.854914,5.76884422 127.157566,5.76884422 L127.157566,5.61809045 C127.460218,5.61809045 127.914197,5.46733668 128.216849,5.46733668 C128.822153,5.16582915 129.276131,4.71356784 130.184087,4.56281407 C130.486739,5.01507538 130.638066,4.56281407 130.638066,5.46733668 C130.486739,5.61809045 130.335413,6.67336683 130.335413,6.97487437 L130.486739,6.97487437 L130.486739,8.03015075 C130.335413,8.03015075 130.335413,8.18090452 130.184087,8.18090452 C130.335413,8.33165829 130.335413,8.63316583 130.184087,8.7839196 L130.184087,8.7839196 Z M94.773791,8.7839196 C94.925117,8.33165829 95.0764431,8.33165829 95.2277691,7.57788945 C95.0764431,7.57788945 94.925117,7.42713568 94.773791,7.42713568 C94.6224649,7.27638191 94.6224649,7.12562814 94.4711388,6.97487437 L94.0171607,6.97487437 C93.7145086,7.42713568 93.5631825,7.42713568 93.4118565,8.33165829 C93.5631825,8.33165829 93.7145086,8.48241206 93.8658346,8.48241206 L93.8658346,8.63316583 C94.3198128,8.63316583 94.4711388,8.63316583 94.773791,8.7839196 Z M44.8361934,7.42713568 C44.5335413,8.18090452 44.2308892,9.68844221 43.625585,10.1407035 L43.625585,10.2914573 C43.0202808,10.5929648 43.0202808,9.83919598 42.7176287,10.7437186 L42.5663027,10.7437186 L42.5663027,10.8944724 L42.7176287,10.8944724 C42.8689548,11.0452261 43.0202808,11.1959799 43.1716069,11.4974874 L43.474259,11.4974874 L43.7769111,11.798995 L43.7769111,12.1005025 L43.9282371,12.1005025 C43.9282371,12.2512563 44.0795632,12.2512563 44.0795632,12.4020101 L44.5335413,12.4020101 C44.5335413,12.2512563 44.8361934,12.1005025 44.8361934,12.1005025 L44.8361934,11.6482412 L44.9875195,11.6482412 C44.9875195,11.3467337 45.1388456,11.1959799 45.1388456,10.8944724 C45.2901716,10.8944724 45.2901716,10.7437186 45.4414977,10.7437186 L45.4414977,10.4422111 C45.5928237,10.4422111 45.5928237,10.2914573 45.7441498,10.2914573 L45.7441498,9.98994975 C45.8954758,9.98994975 45.8954758,9.83919598 46.0468019,9.83919598 L46.0468019,9.53768844 C46.1981279,9.08542714 46.50078,8.93467337 46.6521061,8.33165829 C46.50078,8.18090452 46.349454,7.87939698 46.1981279,7.72864322 C45.4414977,7.57788945 45.1388456,7.42713568 44.8361934,7.42713568 L44.8361934,7.42713568 Z M50.5865835,7.57788945 C50.4352574,7.72864322 49.6786271,7.72864322 49.224649,7.72864322 C49.224649,7.87939698 49.0733229,8.03015075 49.0733229,8.18090452 C48.7706708,8.48241206 48.9219969,9.38693467 48.7706708,9.68844221 L48.6193448,9.68844221 L48.6193448,9.98994975 C48.4680187,9.98994975 48.4680187,10.1407035 48.3166927,10.1407035 C48.0140406,10.4422111 48.0140406,10.7437186 47.8627145,11.3467337 C48.0140406,11.4974874 48.3166927,12.1005025 48.7706708,11.798995 L48.7706708,11.6482412 L49.0733229,11.6482412 C49.224649,11.4974874 49.224649,11.3467337 49.375975,11.1959799 L49.5273011,11.1959799 L49.5273011,10.8944724 C49.6786271,10.7437186 49.8299532,10.7437186 49.9812793,10.5929648 C50.1326053,10.2914573 50.1326053,9.98994975 50.2839314,9.68844221 C50.5865835,9.08542714 51.1918877,8.63316583 51.1918877,7.72864322 C50.8892356,7.57788945 50.8892356,7.57788945 50.5865835,7.57788945 Z M101.129485,7.72864322 C101.129485,7.87939698 101.129485,7.87939698 101.129485,7.72864322 C100.978159,7.87939698 100.675507,7.87939698 100.524181,7.87939698 C100.221529,7.87939698 99.4648986,8.03015075 99.3135725,8.33165829 C99.1622465,8.48241206 99.1622465,8.63316583 99.0109204,8.93467337 C99.3135725,9.08542714 99.7675507,9.08542714 100.372855,9.08542714 L100.372855,9.2361809 L100.978159,9.2361809 C101.280811,8.7839196 101.734789,8.7839196 101.734789,8.03015075 C101.583463,7.87939698 101.583463,7.87939698 101.129485,7.72864322 Z M71.0156006,8.33165829 C70.8642746,8.48241206 70.7129485,8.48241206 70.5616225,8.48241206 C70.2589704,8.93467337 70.1076443,8.7839196 69.9563183,9.53768844 C70.4102964,9.98994975 70.4102964,10.4422111 71.4695788,10.4422111 C71.6209048,10.2914573 71.9235569,10.1407035 71.9235569,9.98994975 L71.9235569,9.38693467 L72.074883,9.38693467 C72.074883,9.08542714 72.226209,8.7839196 72.226209,8.48241206 C71.7722309,8.48241206 71.4695788,8.33165829 71.0156006,8.33165829 L71.0156006,8.33165829 Z M95.6817473,10.5929648 C95.0764431,10.4422111 94.925117,10.4422111 94.3198128,10.5929648 C94.1684867,10.7437186 94.1684867,10.8944724 94.1684867,11.1959799 C94.3198128,11.1959799 94.4711388,11.4974874 94.4711388,11.4974874 C95.0764431,11.798995 95.5304212,11.3467337 95.9843994,11.9497487 C96.5897036,12.5527638 96.1357254,13.6080402 95.9843994,14.2110553 L95.9843994,15.718593 L96.1357254,15.718593 C96.1357254,16.1708543 95.9843994,16.6231156 95.9843994,17.2261307 L95.9843994,18.5829146 L95.8330733,18.5829146 L95.8330733,18.8844221 C95.6817473,19.0351759 95.5304212,19.0351759 95.3790952,19.1859296 C95.2277691,19.4874372 95.5304212,19.9396985 95.5304212,20.0904523 C95.8330733,20.241206 95.9843994,20.241206 96.2870515,20.241206 C96.2870515,20.0904523 96.5897036,19.9396985 96.5897036,19.9396985 C96.7410296,19.4874372 96.7410296,19.0351759 96.8923557,18.5829146 L97.0436817,18.5829146 L97.0436817,18.281407 L97.1950078,18.281407 C97.1950078,17.8291457 97.0436817,17.3768844 97.0436817,16.9246231 L97.1950078,16.9246231 C97.3463339,16.1708543 97.1950078,14.9648241 97.0436817,14.361809 L97.0436817,11.9497487 L96.8923557,11.9497487 C96.8923557,11.0452261 96.7410296,9.98994975 96.7410296,9.08542714 C96.4383775,9.08542714 96.4383775,9.08542714 96.2870515,9.2361809 C95.9843994,9.53768844 95.8330733,9.83919598 95.6817473,10.5929648 L95.6817473,10.5929648 Z M92.201248,10.4422111 C92.049922,10.7437186 91.8985959,10.8944724 91.7472699,11.1959799 L92.3525741,11.1959799 C92.5039002,11.0452261 92.5039002,10.8944724 92.5039002,10.5929648 C92.3525741,10.4422111 92.3525741,10.4422111 92.201248,10.4422111 Z M101.583463,12.2512563 C101.583463,11.9497487 101.734789,11.798995 101.734789,11.4974874 C101.280811,11.1959799 101.280811,11.0452261 100.675507,11.0452261 C100.372855,11.3467337 100.070203,11.3467337 99.4648986,11.3467337 C99.3135725,11.6482412 99.1622465,11.6482412 99.0109204,12.1005025 C99.1622465,12.2512563 99.3135725,12.4020101 99.4648986,12.7035176 C99.7675507,12.7035176 99.7675507,12.5527638 99.7675507,12.5527638 L100.978159,12.5527638 L100.978159,12.4020101 C101.129485,12.4020101 101.280811,12.2512563 101.583463,12.2512563 L101.583463,12.2512563 Z M49.375975,13.9095477 L49.375975,13.3065327 L49.0733229,13.0050251 C48.9219969,13.0050251 48.7706708,12.8542714 48.6193448,12.8542714 C48.1653666,12.5527638 47.8627145,12.1005025 47.7113885,11.6482412 L47.4087363,11.6482412 C46.9547582,12.4020101 46.50078,12.7035176 46.349454,13.758794 L46.50078,13.9095477 C47.4087363,14.2110553 48.3166927,14.2110553 49.375975,13.9095477 Z M73.2854914,13.9095477 C73.7394696,14.0603015 73.7394696,14.2110553 74.3447738,14.361809 C74.6474259,13.9095477 74.950078,13.758794 74.950078,12.8542714 C74.798752,12.7035176 74.4960998,12.7035176 74.1934477,12.7035176 L74.1934477,12.5527638 C74.0421217,12.4020101 73.4368175,12.7035176 73.2854914,12.7035176 C73.1341654,13.0050251 73.1341654,13.1557789 73.1341654,13.6080402 C73.2854914,13.9095477 73.1341654,13.758794 73.2854914,13.9095477 L73.2854914,13.9095477 Z M67.3837754,13.0050251 C67.2324493,13.6080402 67.0811232,14.0603015 67.0811232,14.6633166 C67.2324493,14.8140704 67.5351014,14.8140704 67.8377535,14.8140704 L67.8377535,14.6633166 L68.1404056,14.6633166 L68.1404056,14.5125628 L68.4430577,14.5125628 L68.4430577,14.361809 C68.8970359,14.0603015 68.8970359,14.0603015 68.8970359,13.1557789 C68.5943838,12.8542714 68.7457098,12.7035176 68.1404056,12.5527638 L68.1404056,12.7035176 C67.6864275,13.0050251 67.5351014,13.0050251 67.3837754,13.0050251 Z M70.5616225,15.5678392 L72.074883,15.5678392 C72.226209,15.4170854 72.226209,15.4170854 72.226209,14.9648241 C71.7722309,14.5125628 72.074883,13.4572864 71.7722309,12.8542714 C71.0156006,12.7035176 70.4102964,12.5527638 70.4102964,13.6080402 C70.4102964,13.758794 70.7129485,14.5125628 70.7129485,14.8140704 L70.5616225,14.8140704 C70.5616225,15.1155779 70.7129485,15.2663317 70.5616225,15.5678392 L70.5616225,15.5678392 Z M95.2277691,14.9648241 L95.2277691,14.6633166 C95.3790952,14.6633166 95.3790952,14.5125628 95.5304212,14.5125628 L95.5304212,14.0603015 C95.2277691,13.9095477 95.0764431,13.9095477 94.6224649,13.9095477 C94.4711388,14.2110553 94.3198128,14.361809 94.1684867,14.8140704 C94.3198128,14.8140704 94.4711388,14.9648241 94.6224649,14.9648241 L94.6224649,15.1155779 C94.773791,15.1155779 94.925117,15.1155779 95.2277691,14.9648241 Z M103.096724,14.5125628 C102.945398,14.5125628 102.642746,14.361809 102.49142,14.361809 L102.49142,14.2110553 C102.188768,14.0603015 100.221529,14.5125628 100.070203,14.6633166 L99.9188768,14.6633166 L99.9188768,15.1155779 L100.070203,15.1155779 C100.070203,15.2663317 100.221529,15.4170854 100.221529,15.718593 C100.372855,15.718593 100.372855,15.8693467 100.524181,15.8693467 C100.524181,16.0201005 100.675507,16.1708543 100.675507,16.321608 L101.129485,16.321608 C101.583463,15.4170854 102.945398,15.2663317 103.096724,14.5125628 L103.096724,14.5125628 Z M73.7394696,20.5427136 L74.0421217,20.5427136 L74.0421217,20.6934673 L74.1934477,20.6934673 L74.1934477,20.5427136 L74.6474259,20.5427136 L74.6474259,20.3919598 C74.950078,20.0904523 74.798752,19.4874372 74.798752,18.8844221 C74.798752,17.9798995 75.2527301,15.8693467 74.798752,15.4170854 L74.798752,15.2663317 L74.3447738,15.2663317 C74.1934477,15.4170854 74.0421217,15.718593 73.8907956,15.8693467 C73.7394696,17.5276382 73.7394696,19.0351759 73.7394696,20.5427136 L73.7394696,20.5427136 Z M98.8595944,18.4321608 L99.1622465,18.4321608 L99.1622465,18.5829146 C99.3135725,18.5829146 99.6162246,18.4321608 99.7675507,18.281407 C99.9188768,17.8291457 100.221529,17.678392 100.372855,17.0753769 C99.9188768,16.7738693 99.7675507,16.1708543 99.4648986,15.5678392 C98.7082683,15.718593 98.8595944,16.321608 98.8595944,17.0753769 C98.5569423,17.5276382 98.8595944,18.1306533 98.8595944,18.4321608 L98.8595944,18.4321608 Z M94.3198128,16.7738693 C94.1684867,17.0753769 94.0171607,16.9246231 94.0171607,17.5276382 C94.4711388,17.8291457 94.4711388,17.9798995 95.2277691,17.9798995 C95.3790952,17.9798995 95.2277691,18.1306533 95.5304212,18.1306533 L95.5304212,17.9798995 C95.9843994,17.8291457 95.8330733,17.8291457 95.9843994,17.5276382 C95.8330733,17.3768844 95.6817473,17.3768844 95.5304212,17.2261307 C95.5304212,17.0753769 95.3790952,16.9246231 95.3790952,16.7738693 L94.3198128,16.7738693 Z M47.2574103,19.638191 L48.4680187,19.638191 L48.4680187,19.4874372 C48.7706708,19.4874372 48.6193448,19.638191 48.7706708,19.638191 L48.9219969,19.638191 L48.9219969,19.4874372 C49.5273011,19.4874372 50.1326053,19.638191 50.5865835,19.638191 C50.7379095,19.3366834 50.7379095,19.0351759 50.7379095,18.5829146 C50.7379095,18.4321608 50.8892356,17.8291457 50.8892356,17.2261307 C50.7379095,17.2261307 50.5865835,17.0753769 50.4352574,17.0753769 C50.1326053,16.7738693 48.0140406,16.9246231 47.4087363,16.9246231 C47.1060842,17.3768844 47.1060842,17.2261307 47.1060842,17.9798995 C46.8034321,18.281407 47.1060842,19.1859296 47.2574103,19.638191 L47.2574103,19.638191 Z M70.2589704,19.0351759 L71.6209048,19.4874372 C71.9235569,19.0351759 72.226209,18.8844221 72.3775351,18.4321608 L72.226209,18.4321608 L72.226209,17.3768844 C71.6209048,17.2261307 71.1669267,17.3768844 70.4102964,17.3768844 C70.2589704,17.678392 70.2589704,18.4321608 70.2589704,19.0351759 Z" id="形状"></path>
                    <path d="M25.2608696,14 L31,14 C31,13.6 30.8695652,13.4 30.8695652,13 L25,13 L25.2608696,14 Z" id="路径"></path>
                    <path d="M28.1407767,22.6602871 L24.8300971,27.4066986 L6.32038835,27.4066986 L3.00970874,22.507177 L11.2864078,1.83732057 L15.6504854,12.861244 L20.315534,1.83732057 L24.0776699,11.4832536 L31,11.4832536 C29.0436893,4.89952153 23.0242718,0 15.9514563,0 C7.07281553,0.153110048 0,7.19617225 0,16.076555 C0,24.9569378 7.07281553,32 15.6504854,32 C22.4223301,32 28.2912621,27.5598086 30.3980583,21.4354067 L27.6893204,21.4354067 L28.1407767,22.6602871 L28.1407767,22.6602871 Z" id="路径"></path>
                    <path d="M14.2616279,23.6712329 L9.55232558,12 L5,23.8356164 L23.2093023,24 L18.6569767,12 L14.2616279,23.6712329 Z M25.4069767,15.4520548 L32,15.4520548 C32,15.1232877 32,14.9589041 31.8430233,14.630137 L25.0930233,14.630137 L25.4069767,15.4520548 Z M26.6627907,18.739726 L32,18.739726 L32,17.9178082 L26.3488372,17.9178082 L26.6627907,18.739726 Z M32,16.2739726 L25.7209302,16.2739726 L26.0348837,17.0958904 L32,17.0958904 L32,16.2739726 L32,16.2739726 Z M27.9186047,21.8630137 L31.372093,21.8630137 C31.372093,21.5342466 31.5290698,21.369863 31.5290698,21.0410959 L27.6046512,21.0410959 L27.9186047,21.8630137 Z M27.2906977,20.2191781 L31.6860465,20.2191781 C31.6860465,19.890411 31.8430233,19.7260274 31.8430233,19.3972603 L26.9767442,19.3972603 L27.2906977,20.2191781 Z" id="形状"></path>
                </g>
            </g>
        </g>
    </g>
</svg>